<svg id="Layer_1" data-name="Layer 1" xmlns="http://www.w3.org/2000/svg" viewBox="0 0 1214 941"><defs><style>.cls-1{fill:#6401e4;}</style></defs><path d="M230.17,315.72h4.16a5.87,5.87,0,0,1,4.29,1.48,6.41,6.41,0,0,1,0,8.31,5.87,5.87,0,0,1-4.29,1.49h-4.16Zm4,9.6c2.59,0,3.88-1.33,3.89-4s-1.29-4-3.89-4h-2v7.92ZM245.42,319a2.84,2.84,0,0,1,3.24,2.39,2.6,2.6,0,0,1,0,.88V327h-1.9v-1.2a2,2,0,0,1-.86,1,2.57,2.57,0,0,1-1.35.35,3,3,0,0,1-1.42-.32,2.65,2.65,0,0,1-1-.88,2.15,2.15,0,0,1-.37-1.25,2,2,0,0,1,.44-1.36,2.68,2.68,0,0,1,1.43-.72,12,12,0,0,1,2.4-.22h.74V322a1.59,1.59,0,0,0-.34-1.15,1.55,1.55,0,0,0-1.15-.36,4.43,4.43,0,0,0-1.3.22,6.45,6.45,0,0,0-1.34.6l-.56-1.38a6.2,6.2,0,0,1,1.59-.68,5.84,5.84,0,0,1,1.76-.28Zm-.47,6.71a1.71,1.71,0,0,0,1.31-.54,2,2,0,0,0,.5-1.38v-.34h-.29a10.21,10.21,0,0,0-1.66.1,1.54,1.54,0,0,0-.85.33.85.85,0,0,0-.26.66,1.07,1.07,0,0,0,.36.84,1.25,1.25,0,0,0,.94.31Zm9.75-.07h.73l-.09,1.48a8.65,8.65,0,0,1-.88.05,3.42,3.42,0,0,1-2.44-.76,3,3,0,0,1-.78-2.26v-3.41h-1.5v-1.5h1.5V316.9h2v2.34h2.06v1.5h-2.06v3.38c0,1,.49,1.56,1.46,1.56ZM260,319a3.37,3.37,0,0,1,2.45.8,3.42,3.42,0,0,1,.8,2.47V327H261.3v-1.2a2.08,2.08,0,0,1-.85,1,2.57,2.57,0,0,1-1.35.35,3.09,3.09,0,0,1-1.43-.32,2.74,2.74,0,0,1-1-.88,2.3,2.3,0,0,1-.36-1.25,2,2,0,0,1,.44-1.36,2.68,2.68,0,0,1,1.43-.72,12,12,0,0,1,2.39-.22h.74V322a1.59,1.59,0,0,0-.34-1.15,1.54,1.54,0,0,0-1.14-.36,4.44,4.44,0,0,0-1.31.22,6.37,6.37,0,0,0-1.33.6l-.56-1.38A6.61,6.61,0,0,1,260,319Zm-.46,6.71a1.68,1.68,0,0,0,1.3-.54,2,2,0,0,0,.5-1.38v-.34H261a10.33,10.33,0,0,0-1.67.1,1.65,1.65,0,0,0-.85.33.88.88,0,0,0-.25.66,1.11,1.11,0,0,0,.35.84,1.24,1.24,0,0,0,.9.33Zm17.74-5.57v1.41h-7.81v-1.41Zm0,3.2v1.41h-7.81v-1.41Zm8.34-5.58V320h-2.24v-1.45a3.89,3.89,0,0,1,.28-1.51,4.36,4.36,0,0,1,1-1.37l.82.64a4.08,4.08,0,0,0-.6.77,2.32,2.32,0,0,0-.27.72Zm5.26,1.24a3.37,3.37,0,0,1,2.45.8,3.42,3.42,0,0,1,.8,2.47V327h-1.91v-1.2a2.08,2.08,0,0,1-.85,1,2.57,2.57,0,0,1-1.35.35,3.09,3.09,0,0,1-1.43-.32,2.74,2.74,0,0,1-1-.88,2.3,2.3,0,0,1-.36-1.25,2,2,0,0,1,.44-1.36,2.68,2.68,0,0,1,1.43-.72,12,12,0,0,1,2.39-.22h.74V322a1.59,1.59,0,0,0-.34-1.15,1.54,1.54,0,0,0-1.14-.36,4.44,4.44,0,0,0-1.31.22,6.37,6.37,0,0,0-1.33.6l-.56-1.38a6,6,0,0,1,1.58-.68,6.17,6.17,0,0,1,1.76-.28Zm-.46,6.71a1.68,1.68,0,0,0,1.3-.54,2,2,0,0,0,.5-1.38v-.34h-.28a10.33,10.33,0,0,0-1.67.1,1.65,1.65,0,0,0-.85.33.88.88,0,0,0-.25.66,1.11,1.11,0,0,0,.35.84,1.24,1.24,0,0,0,.9.33Zm7.8-10v1.46a3.94,3.94,0,0,1-.28,1.52,4.32,4.32,0,0,1-1,1.36l-.82-.64a5,5,0,0,0,.6-.77,2.32,2.32,0,0,0,.27-.72h-1v-2.21Z"/><path d="M192.05,666.14a8,8,0,0,1-2.43-.35,5.43,5.43,0,0,1-1.92-1l.68-1.5a5.69,5.69,0,0,0,1.72.91,6.46,6.46,0,0,0,2,.29,3.32,3.32,0,0,0,1.8-.41,1.3,1.3,0,0,0,.64-1.15,1.06,1.06,0,0,0-.59-1,6.69,6.69,0,0,0-1.68-.58l-.26-.06a10.85,10.85,0,0,1-2.29-.71,3.13,3.13,0,0,1-1.33-1,2.69,2.69,0,0,1-.45-1.58,3,3,0,0,1,.55-1.78A3.53,3.53,0,0,1,190,655a5.44,5.44,0,0,1,2.29-.44,7.22,7.22,0,0,1,2.26.36,5,5,0,0,1,1.76,1l-.69,1.5a5.19,5.19,0,0,0-3.33-1.2,3,3,0,0,0-1.72.44,1.41,1.41,0,0,0-.63,1.23,1.14,1.14,0,0,0,.56,1,5.65,5.65,0,0,0,1.64.59l.26.06a14.45,14.45,0,0,1,2.32.71,3.54,3.54,0,0,1,1.36,1,2.5,2.5,0,0,1,.47,1.54,3,3,0,0,1-.54,1.77,3.4,3.4,0,0,1-1.55,1.17,6.49,6.49,0,0,1-2.39.4Zm10.21-1.52H203l-.09,1.48a8.65,8.65,0,0,1-.88,0,3.42,3.42,0,0,1-2.44-.76,3,3,0,0,1-.78-2.26v-3.41h-1.5v-1.5h1.5v-2.34h2v2.34h2.06v1.5H200.8v3.38c0,1,.49,1.56,1.46,1.56Zm5.47,1.51a4.43,4.43,0,0,1-2.11-.5,3.42,3.42,0,0,1-1.4-1.42,4.5,4.5,0,0,1-.49-2.16,4.44,4.44,0,0,1,.49-2.15,3.42,3.42,0,0,1,1.4-1.42,4.43,4.43,0,0,1,2.11-.5,4.28,4.28,0,0,1,2.1.5,3.34,3.34,0,0,1,1.39,1.42,4.44,4.44,0,0,1,.49,2.15,4.5,4.5,0,0,1-.49,2.16,3.34,3.34,0,0,1-1.39,1.42,4.28,4.28,0,0,1-2.1.5Zm0-1.55a1.81,1.81,0,0,0,1.49-.64,3.74,3.74,0,0,0,0-3.77,1.77,1.77,0,0,0-1.47-.65,1.79,1.79,0,0,0-1.48.65,2.92,2.92,0,0,0-.52,1.88,3,3,0,0,0,.51,1.89,1.79,1.79,0,0,0,1.45.64Zm10.15-6.6a3.18,3.18,0,0,1,1.8.52,3.57,3.57,0,0,1,1.23,1.44,5.19,5.19,0,0,1,.44,2.16,4.7,4.7,0,0,1-.44,2.12,3.3,3.3,0,0,1-1.23,1.41,3.26,3.26,0,0,1-1.8.5,3.09,3.09,0,0,1-1.49-.35,2.53,2.53,0,0,1-1-1v4.08h-2v-10.7h2v1.18a2.41,2.41,0,0,1,1-1,3.1,3.1,0,0,1,1.52-.36Zm-.53,6.6a1.77,1.77,0,0,0,1.47-.65,2.85,2.85,0,0,0,.53-1.83,3,3,0,0,0-.53-1.89A2,2,0,0,0,216,660l-.18.18a3.62,3.62,0,0,0,0,3.73,1.77,1.77,0,0,0,1.48.66ZM235,659.12v1.41h-7.81v-1.41Zm0,3.2v1.41h-7.81v-1.41Zm9.1,3.68v-9.58h-3.7v-1.7h9.42v1.7h-3.68V666Zm7,0v-7.82h2V666ZM251,654.54h2.21v2H251ZM264.42,658a2.45,2.45,0,0,1,2,.8,3.67,3.67,0,0,1,.66,2.42V666h-2v-4.72a2.2,2.2,0,0,0-.31-1.3,1.1,1.1,0,0,0-1-.41,1.5,1.5,0,0,0-1.25.54,2.37,2.37,0,0,0-.45,1.52V666h-2v-4.72a2.2,2.2,0,0,0-.3-1.3,1.1,1.1,0,0,0-1-.41,1.52,1.52,0,0,0-1.23.54,2.37,2.37,0,0,0-.45,1.52V666h-2v-7.82h2v1.1a2.3,2.3,0,0,1,1-1,2.94,2.94,0,0,1,1.42-.33,2.27,2.27,0,0,1,2.35,1.48,2.69,2.69,0,0,1,1.06-1.08,3,3,0,0,1,1.54-.4ZM276,662.45h-5.33a2.47,2.47,0,0,0,.66,1.61,2.22,2.22,0,0,0,1.6.53,3.78,3.78,0,0,0,2.37-.83l.57,1.38a4.45,4.45,0,0,1-1.36.72,5.25,5.25,0,0,1-1.66.27,4.14,4.14,0,0,1-3-1.09,4,4,0,0,1-1.11-3,4.45,4.45,0,0,1,.48-2.12,3.47,3.47,0,0,1,1.35-1.44,3.7,3.7,0,0,1,2-.52,3.28,3.28,0,0,1,2.56,1,4.16,4.16,0,0,1,.93,2.87Zm-3.44-3.06a1.73,1.73,0,0,0-1.29.51,2.62,2.62,0,0,0-.6,1.48h3.62a2.27,2.27,0,0,0-.48-1.48,1.59,1.59,0,0,0-1.3-.51Zm7.95,6.74a6.82,6.82,0,0,1-1.91-.26,4.27,4.27,0,0,1-1.48-.73l.56-1.4a4.77,4.77,0,0,0,2.87.92,2,2,0,0,0,1-.23.71.71,0,0,0,.36-.64.65.65,0,0,0-.24-.54,2.55,2.55,0,0,0-.89-.35l-1.28-.29a3.09,3.09,0,0,1-1.62-.79,1.92,1.92,0,0,1-.53-1.4,2.1,2.1,0,0,1,.41-1.28,2.66,2.66,0,0,1,1.14-.85,4.44,4.44,0,0,1,1.69-.31,5.15,5.15,0,0,1,1.6.26,4.39,4.39,0,0,1,1.37.72l-.56,1.36a4.06,4.06,0,0,0-2.43-.88,1.83,1.83,0,0,0-1,.24.75.75,0,0,0-.37.67.7.7,0,0,0,.23.53,1.54,1.54,0,0,0,.74.32l1.33.3a3.32,3.32,0,0,1,1.71.81,2,2,0,0,1,.55,1.45,2,2,0,0,1-.88,1.73,4,4,0,0,1-2.39.64Zm13.22,0a8,8,0,0,1-2.43-.35,5.43,5.43,0,0,1-1.92-1l.69-1.5a5.69,5.69,0,0,0,1.72.91,6.46,6.46,0,0,0,2,.29,3.41,3.41,0,0,0,1.8-.41,1.31,1.31,0,0,0,.63-1.15,1.06,1.06,0,0,0-.59-1,6.69,6.69,0,0,0-1.68-.58l-.26-.06a10.85,10.85,0,0,1-2.29-.71,3.28,3.28,0,0,1-1.33-1,2.69,2.69,0,0,1-.44-1.58,3,3,0,0,1,.54-1.78,3.55,3.55,0,0,1,1.54-1.22,5.42,5.42,0,0,1,2.28-.44,7.22,7.22,0,0,1,2.26.36,5,5,0,0,1,1.76,1l-.69,1.5a5.19,5.19,0,0,0-3.33-1.2,3,3,0,0,0-1.72.44,1.41,1.41,0,0,0-.63,1.23,1.14,1.14,0,0,0,.56,1,5.71,5.71,0,0,0,1.65.59l.26.06a13.4,13.4,0,0,1,2.31.71,3.54,3.54,0,0,1,1.36,1,2.5,2.5,0,0,1,.47,1.54,3,3,0,0,1-.54,1.77,3.4,3.4,0,0,1-1.55,1.17,6.49,6.49,0,0,1-2.39.4Zm13.76-8v10.7h-2v-4.11a2.53,2.53,0,0,1-1,1,3.09,3.09,0,0,1-1.49.36,3.23,3.23,0,0,1-3-1.91,4.7,4.7,0,0,1-.44-2.12,4.89,4.89,0,0,1,.44-2.16,3.31,3.31,0,0,1,1.23-1.44,3.18,3.18,0,0,1,1.8-.52,3,3,0,0,1,1.51.36,2.53,2.53,0,0,1,1,1v-1.18Zm-4,6.4a1.78,1.78,0,0,0,1.47-.66,3.62,3.62,0,0,0,0-3.73,2,2,0,0,0-2.82-.18l-.18.18a3,3,0,0,0-.52,1.89,2.84,2.84,0,0,0,.52,1.83,1.82,1.82,0,0,0,1.49.65Zm13.22-6.4V666h-1.95v-1.2a2.53,2.53,0,0,1-1,1,2.75,2.75,0,0,1-1.4.35q-2.88,0-2.88-3.23V658.2h2v4.73a1.85,1.85,0,0,0,.33,1.23,1.3,1.3,0,0,0,1.06.4,1.72,1.72,0,0,0,1.33-.55,2.06,2.06,0,0,0,.51-1.46V658.2Zm5.44-.2a3.37,3.37,0,0,1,2.45.8,3.42,3.42,0,0,1,.8,2.47V666h-1.91v-1.2a2.08,2.08,0,0,1-.85,1,2.58,2.58,0,0,1-1.36.35,3.31,3.31,0,0,1-1.42-.32,2.65,2.65,0,0,1-1-.88,2.31,2.31,0,0,1-.37-1.25,2,2,0,0,1,.44-1.36,2.71,2.71,0,0,1,1.44-.72,12,12,0,0,1,2.39-.22h.74V661a1.59,1.59,0,0,0-.34-1.15,1.55,1.55,0,0,0-1.15-.36,4.43,4.43,0,0,0-1.3.22,6.45,6.45,0,0,0-1.34.6l-.56-1.38a7.14,7.14,0,0,1,3.35-1Zm-.47,6.71a1.71,1.71,0,0,0,1.31-.54,2,2,0,0,0,.5-1.38v-.34h-.29a10.21,10.21,0,0,0-1.66.1,1.65,1.65,0,0,0-.85.33.88.88,0,0,0-.25.66,1.1,1.1,0,0,0,.35.84A1.26,1.26,0,0,0,321.68,664.64Zm10.9-5-1.17.11c-1.32.14-2,.81-2,2V666h-2v-7.82h1.9v1.37a2.65,2.65,0,0,1,2.51-1.53h.61Z"/><path d="M336.91,658a3.25,3.25,0,0,1,2.55,1,4.1,4.1,0,0,1,.94,2.87v.56h-5.33a2.42,2.42,0,0,0,.66,1.61,2.22,2.22,0,0,0,1.6.53,3.78,3.78,0,0,0,2.37-.83l.57,1.38a4.5,4.5,0,0,1-1.37.72,5.14,5.14,0,0,1-1.65.27,4.14,4.14,0,0,1-3-1.09,4,4,0,0,1-1.12-3,4.45,4.45,0,0,1,.48-2.12,3.49,3.49,0,0,1,1.36-1.44,3.7,3.7,0,0,1,2-.52Zm0,1.41a1.73,1.73,0,0,0-1.29.51,2.62,2.62,0,0,0-.6,1.48h3.62a2.27,2.27,0,0,0-.48-1.48,1.62,1.62,0,0,0-1.16-.53Z"/><path d="M572.68,315.72h4.16a5.9,5.9,0,0,1,4.3,1.48,6.43,6.43,0,0,1,0,8.31,5.91,5.91,0,0,1-4.3,1.49h-4.16Zm4,9.6c2.59,0,3.88-1.33,3.89-4s-1.29-4-3.89-4h-2v7.92ZM587.93,319a3.37,3.37,0,0,1,2.45.8,3.42,3.42,0,0,1,.8,2.47V327h-1.91v-1.2a2.08,2.08,0,0,1-.85,1,2.58,2.58,0,0,1-1.36.35,3.17,3.17,0,0,1-1.42-.32,2.65,2.65,0,0,1-1-.88,2.31,2.31,0,0,1-.37-1.25,2,2,0,0,1,.44-1.36,2.71,2.71,0,0,1,1.44-.72,12,12,0,0,1,2.39-.22h.74V322a1.59,1.59,0,0,0-.34-1.15,1.55,1.55,0,0,0-1.15-.36,4.43,4.43,0,0,0-1.3.22,6.45,6.45,0,0,0-1.34.6l-.56-1.38a6.2,6.2,0,0,1,1.59-.68A6.12,6.12,0,0,1,587.93,319Zm-.47,6.71a1.71,1.71,0,0,0,1.31-.54,2,2,0,0,0,.5-1.38v-.34H589a10.21,10.21,0,0,0-1.66.1,1.65,1.65,0,0,0-.85.33.88.88,0,0,0-.25.66,1.1,1.1,0,0,0,.35.84,1.26,1.26,0,0,0,.87.31Zm9.75-.07h.73l-.09,1.48a8.65,8.65,0,0,1-.88.05,3.35,3.35,0,0,1-2.43-.76,3,3,0,0,1-.79-2.26v-3.41h-1.5v-1.5h1.5V316.9h2v2.34h2.07v1.5h-2.07v3.38a1.32,1.32,0,0,0,1.46,1.5Zm5.26-6.64a3.37,3.37,0,0,1,2.45.8,3.42,3.42,0,0,1,.8,2.47V327h-1.9v-1.2a2.26,2.26,0,0,1-.86,1,2.57,2.57,0,0,1-1.35.35,3.39,3.39,0,0,1-1.43-.32,2.57,2.57,0,0,1-1-.88,2.15,2.15,0,0,1-.37-1.25,2,2,0,0,1,.44-1.36,2.68,2.68,0,0,1,1.43-.72,12,12,0,0,1,2.39-.22h.75V322a1.6,1.6,0,0,0-.35-1.15,1.54,1.54,0,0,0-1.14-.36,4.44,4.44,0,0,0-1.31.22,6.37,6.37,0,0,0-1.33.6l-.56-1.38a6.61,6.61,0,0,1,3.34-.93Zm-.46,6.71a1.68,1.68,0,0,0,1.3-.54,1.9,1.9,0,0,0,.51-1.38v-.34h-.29a10.33,10.33,0,0,0-1.67.1,1.59,1.59,0,0,0-.84.33.85.85,0,0,0-.26.66,1.11,1.11,0,0,0,.35.84,1.31,1.31,0,0,0,.89.31Zm17.74-5.57v1.41h-7.81v-1.41Zm0,3.2v1.41h-7.81v-1.41Zm8.34-5.58V320h-2.24v-1.45a3.73,3.73,0,0,1,.29-1.51,4.36,4.36,0,0,1,1-1.37l.82.64a3.66,3.66,0,0,0-.59.77,2.12,2.12,0,0,0-.28.72Zm6.4,1.24a3.23,3.23,0,0,1,3,1.91A4.88,4.88,0,0,1,638,323a5.14,5.14,0,0,1-.44,2.15,3.46,3.46,0,0,1-1.23,1.45,3.27,3.27,0,0,1-1.8.51,3,3,0,0,1-1.51-.37,2.53,2.53,0,0,1-1-1V327h-2V315.72h2v4.59a2.53,2.53,0,0,1,1-1,3.09,3.09,0,0,1,1.49-.35Zm-.53,6.6a1.76,1.76,0,0,0,1.47-.68A3,3,0,0,0,636,323a2.8,2.8,0,0,0-.52-1.84,2,2,0,0,0-2.82-.18l-.18.18a3.64,3.64,0,0,0,0,3.74,1.8,1.8,0,0,0,1.48.66Zm7.71-9.86v1.46a3.77,3.77,0,0,1-.29,1.52,4.21,4.21,0,0,1-1,1.36l-.82-.64a4,4,0,0,0,.59-.77,2.34,2.34,0,0,0,.28-.72h-1v-2.21Z"/><path d="M537.74,666.14a8,8,0,0,1-2.43-.35,5.43,5.43,0,0,1-1.92-1l.69-1.5a5.69,5.69,0,0,0,1.72.91,6.46,6.46,0,0,0,2,.29,3.32,3.32,0,0,0,1.8-.41,1.31,1.31,0,0,0,.63-1.15,1.07,1.07,0,0,0-.58-1,6.69,6.69,0,0,0-1.68-.58l-.27-.06a10.76,10.76,0,0,1-2.28-.71,3.07,3.07,0,0,1-1.33-1,2.69,2.69,0,0,1-.45-1.58,3,3,0,0,1,.54-1.78,3.62,3.62,0,0,1,1.54-1.22,5.44,5.44,0,0,1,2.29-.44,7.21,7.21,0,0,1,2.25.36,4.68,4.68,0,0,1,1.76,1l-.68,1.5a5.25,5.25,0,0,0-3.33-1.2,3,3,0,0,0-1.72.44,1.41,1.41,0,0,0-.63,1.23,1.12,1.12,0,0,0,.56,1,5.65,5.65,0,0,0,1.64.59l.26.06a13.4,13.4,0,0,1,2.31.71,3.54,3.54,0,0,1,1.36,1,2.42,2.42,0,0,1,.47,1.54,3,3,0,0,1-.53,1.77,3.52,3.52,0,0,1-1.55,1.17,6.55,6.55,0,0,1-2.4.4ZM548,664.62h.74l-.1,1.48a6.49,6.49,0,0,1-.88,0,3.35,3.35,0,0,1-2.43-.76,3,3,0,0,1-.78-2.26v-3.41H543v-1.5h1.51v-2.34h2v2.34h2.06v1.5H546.5v3.38c0,1,.48,1.56,1.45,1.56Zm5.47,1.51a4.28,4.28,0,0,1-2.1-.5,3.42,3.42,0,0,1-1.4-1.42,4.63,4.63,0,0,1-.5-2.16,4.45,4.45,0,0,1,.5-2.15,3.42,3.42,0,0,1,1.4-1.42,4.66,4.66,0,0,1,4.21,0A3.4,3.4,0,0,1,557,659.9a4.44,4.44,0,0,1,.49,2.15,4.5,4.5,0,0,1-.49,2.16,3.4,3.4,0,0,1-1.39,1.42,4.37,4.37,0,0,1-2.16.5Zm0-1.55a1.84,1.84,0,0,0,1.49-.64,3.74,3.74,0,0,0,0-3.77,2,2,0,0,0-2.82-.18l-.18.18a3,3,0,0,0-.52,1.88,3,3,0,0,0,.52,1.89,1.79,1.79,0,0,0,1.45.64Zm10.14-6.6a3.18,3.18,0,0,1,1.8.52,3.31,3.31,0,0,1,1.23,1.44,4.89,4.89,0,0,1,.44,2.16,4.7,4.7,0,0,1-.44,2.12,3.23,3.23,0,0,1-3,1.91,3.09,3.09,0,0,1-1.49-.35,2.53,2.53,0,0,1-1-1v4.08h-2v-10.7h2v1.18a2.53,2.53,0,0,1,1-1,3,3,0,0,1,1.51-.36Zm-.53,6.6a1.86,1.86,0,0,0,1.48-.65,2.84,2.84,0,0,0,.52-1.83,3,3,0,0,0-.52-1.89,2,2,0,0,0-2.82-.18l-.18.18a3.62,3.62,0,0,0,0,3.73,1.8,1.8,0,0,0,1.48.66Zm17.65-5.46v1.41h-7.81v-1.41Zm0,3.2v1.41h-7.81v-1.41Zm6.45-7.6h4.93a4.08,4.08,0,0,1,2.81.9,3.69,3.69,0,0,1,0,5.08,4,4,0,0,1-2.81.92h-2.87V666h-2.06Zm4.67,5.31c1.42,0,2.13-.62,2.13-1.85a1.75,1.75,0,0,0-.53-1.4,2.36,2.36,0,0,0-1.6-.46h-2.61V660Zm12.58,2.42H599a2.36,2.36,0,0,0,.66,1.61,2.22,2.22,0,0,0,1.6.53,3.75,3.75,0,0,0,2.36-.83l.58,1.38a4.5,4.5,0,0,1-1.37.72,5.14,5.14,0,0,1-1.65.27,4.15,4.15,0,0,1-3-1.09,4,4,0,0,1-1.11-3,4.45,4.45,0,0,1,.48-2.12,3.47,3.47,0,0,1,1.35-1.44,3.72,3.72,0,0,1,2-.52,3.25,3.25,0,0,1,2.55,1,4.1,4.1,0,0,1,.94,2.87ZM601,659.39a1.7,1.7,0,0,0-1.29.51,2.44,2.44,0,0,0-.6,1.48h3.62a2.41,2.41,0,0,0-.48-1.48,1.56,1.56,0,0,0-1.25-.51ZM610.6,658a2.64,2.64,0,0,1,2.1.8,3.68,3.68,0,0,1,.69,2.42V666h-2v-4.69A2.11,2.11,0,0,0,611,660a1.37,1.37,0,0,0-1.08-.41,1.82,1.82,0,0,0-1.38.54,2,2,0,0,0-.52,1.46V666h-2v-7.82h2v1.16a2.78,2.78,0,0,1,1.07-1,3.21,3.21,0,0,1,1.52-.36Zm9.36,0a2.64,2.64,0,0,1,2.1.8,3.68,3.68,0,0,1,.69,2.42V666h-2v-4.69a2.09,2.09,0,0,0-.35-1.33,1.37,1.37,0,0,0-1.08-.41,1.82,1.82,0,0,0-1.38.54,2,2,0,0,0-.52,1.46V666h-2v-7.82h2v1.16a2.78,2.78,0,0,1,1.07-1A3.21,3.21,0,0,1,620,658Zm13.16,8.16a8,8,0,0,1-2.44-.35,5.78,5.78,0,0,1-1.92-1l.69-1.5a5.69,5.69,0,0,0,1.72.91,6.46,6.46,0,0,0,2,.29,3.32,3.32,0,0,0,1.8-.41,1.31,1.31,0,0,0,.63-1.15,1.07,1.07,0,0,0-.58-1,6.69,6.69,0,0,0-1.68-.58l-.26-.06a10.85,10.85,0,0,1-2.29-.71,3.07,3.07,0,0,1-1.33-1A2.69,2.69,0,0,1,629,658a3,3,0,0,1,.55-1.78A3.55,3.55,0,0,1,631,655a5.44,5.44,0,0,1,2.29-.44,7.22,7.22,0,0,1,2.26.36,5,5,0,0,1,1.76,1l-.69,1.5a5.19,5.19,0,0,0-3.33-1.2,3,3,0,0,0-1.72.44,1.41,1.41,0,0,0-.63,1.23,1.12,1.12,0,0,0,.56,1,5.65,5.65,0,0,0,1.64.59l.26.06a13.4,13.4,0,0,1,2.31.71,3.47,3.47,0,0,1,1.36,1,2.43,2.43,0,0,1,.48,1.54,3,3,0,0,1-.54,1.77,3.4,3.4,0,0,1-1.55,1.17,6.49,6.49,0,0,1-2.39.4Zm10.2-1.52h.74l-.1,1.48a6.49,6.49,0,0,1-.88,0,3.39,3.39,0,0,1-2.43-.76,3,3,0,0,1-.78-2.26v-3.41H638.3v-1.5h1.51v-2.34h2v2.34h2.06v1.5h-2.06v3.38c0,1,.48,1.56,1.45,1.56Zm5.27-6.64a3.37,3.37,0,0,1,2.45.8,3.42,3.42,0,0,1,.8,2.47V666h-1.91v-1.2a2.08,2.08,0,0,1-.85,1,2.58,2.58,0,0,1-1.36.35,3.31,3.31,0,0,1-1.42-.32,2.65,2.65,0,0,1-1-.88,2.31,2.31,0,0,1-.37-1.25,2,2,0,0,1,.44-1.36,2.71,2.71,0,0,1,1.44-.72,12,12,0,0,1,2.39-.22h.74V661a1.59,1.59,0,0,0-.34-1.15,1.55,1.55,0,0,0-1.15-.36,4.43,4.43,0,0,0-1.3.22,6.45,6.45,0,0,0-1.34.6l-.56-1.38a7.14,7.14,0,0,1,3.35-1Zm-.47,6.71a1.71,1.71,0,0,0,1.31-.54,2,2,0,0,0,.5-1.38v-.34h-.29a10.21,10.21,0,0,0-1.66.1,1.65,1.65,0,0,0-.85.33.88.88,0,0,0-.25.66,1.1,1.1,0,0,0,.35.84,1.26,1.26,0,0,0,.89.33Zm9.75-.07h.73l-.09,1.48a8.65,8.65,0,0,1-.88,0,3.35,3.35,0,0,1-2.43-.76,3,3,0,0,1-.79-2.26v-3.41h-1.5v-1.5h1.5v-2.34h2v2.34h2.07v1.5h-2.07v3.38c0,1,.49,1.56,1.46,1.56Zm1.9,1.38v-7.82h2V666Zm-.11-11.46h2.21v2H659.6Zm7.74,11.59a4.28,4.28,0,0,1-2.1-.5,3.42,3.42,0,0,1-1.4-1.42,4.63,4.63,0,0,1-.5-2.16,4.45,4.45,0,0,1,.5-2.15,3.42,3.42,0,0,1,1.4-1.42,4.66,4.66,0,0,1,4.21,0,3.4,3.4,0,0,1,1.39,1.42,4.44,4.44,0,0,1,.49,2.15,4.5,4.5,0,0,1-.49,2.16,3.4,3.4,0,0,1-1.39,1.42,4.33,4.33,0,0,1-2.17.5Zm0-1.55a1.84,1.84,0,0,0,1.49-.64,3.74,3.74,0,0,0,0-3.77,2,2,0,0,0-2.82-.18c-.07.06-.12.12-.18.18a3,3,0,0,0-.52,1.88,3,3,0,0,0,.52,1.89,1.82,1.82,0,0,0,1.44.64Zm10.19-6.6a2.64,2.64,0,0,1,2.1.8,3.73,3.73,0,0,1,.68,2.42V666h-2v-4.69A2,2,0,0,0,678,660a1.37,1.37,0,0,0-1.08-.41,1.78,1.78,0,0,0-1.38.54,2,2,0,0,0-.52,1.46V666h-2v-7.82h2v1.16a2.71,2.71,0,0,1,1.07-1,3.1,3.1,0,0,1,1.52-.36Z"/><path d="M916.58,315.72h4.16a5.9,5.9,0,0,1,4.3,1.48,6.41,6.41,0,0,1,0,8.31,5.91,5.91,0,0,1-4.3,1.49h-4.16Zm4,9.6c2.59,0,3.89-1.33,3.88-4s-1.3-4-3.88-4h-2v7.92ZM931.83,319a3.37,3.37,0,0,1,2.45.8,3.42,3.42,0,0,1,.8,2.47V327h-1.9v-1.2a2.26,2.26,0,0,1-.86,1,2.57,2.57,0,0,1-1.35.35,3.39,3.39,0,0,1-1.43-.32,2.57,2.57,0,0,1-1-.88,2.15,2.15,0,0,1-.37-1.25,2,2,0,0,1,.44-1.36,2.68,2.68,0,0,1,1.43-.72,12,12,0,0,1,2.39-.22h.75V322a1.6,1.6,0,0,0-.35-1.15,1.54,1.54,0,0,0-1.14-.36,4.44,4.44,0,0,0-1.31.22,6.37,6.37,0,0,0-1.33.6l-.56-1.38a6.61,6.61,0,0,1,3.34-.93Zm-.46,6.71a1.68,1.68,0,0,0,1.3-.54,1.9,1.9,0,0,0,.51-1.38v-.34h-.29a10.33,10.33,0,0,0-1.67.1,1.59,1.59,0,0,0-.84.33.85.85,0,0,0-.26.66,1.11,1.11,0,0,0,.35.84,1.24,1.24,0,0,0,.9.31Zm9.74-.07h.74l-.1,1.48a6.49,6.49,0,0,1-.88.05,3.35,3.35,0,0,1-2.43-.76,3,3,0,0,1-.78-2.26v-3.41h-1.51v-1.5h1.51V316.9h2v2.34h2.06v1.5h-2.06v3.38a1.31,1.31,0,0,0,1.45,1.5Zm5.27-6.64a2.84,2.84,0,0,1,3.24,2.39,2.6,2.6,0,0,1,0,.88V327h-1.9v-1.2a2,2,0,0,1-.86,1,2.57,2.57,0,0,1-1.35.35,3,3,0,0,1-1.42-.32,2.65,2.65,0,0,1-1-.88,2.15,2.15,0,0,1-.37-1.25,2,2,0,0,1,.44-1.36,2.68,2.68,0,0,1,1.43-.72,12,12,0,0,1,2.4-.22h.74V322a1.59,1.59,0,0,0-.34-1.15,1.55,1.55,0,0,0-1.15-.36,4.43,4.43,0,0,0-1.3.22,6.45,6.45,0,0,0-1.34.6l-.56-1.38a6.2,6.2,0,0,1,1.59-.68,6.12,6.12,0,0,1,1.75-.25Zm-.47,6.71a1.71,1.71,0,0,0,1.31-.54,2,2,0,0,0,.5-1.38v-.34h-.29a10.21,10.21,0,0,0-1.66.1,1.54,1.54,0,0,0-.85.33.85.85,0,0,0-.26.66,1.07,1.07,0,0,0,.36.84,1.2,1.2,0,0,0,.89.31Zm17.75-5.57v1.41h-7.81v-1.41Zm0,3.2v1.41h-7.81v-1.41Zm8.33-5.58V320h-2.24v-1.45A3.87,3.87,0,0,1,970,317a4.36,4.36,0,0,1,1-1.37l.81.64a4.91,4.91,0,0,0-.59.77,1.85,1.85,0,0,0-.27.72Zm5.47,9.39a4.29,4.29,0,0,1-2.13-.5,3.37,3.37,0,0,1-1.39-1.41,4.87,4.87,0,0,1,0-4.28,3.48,3.48,0,0,1,1.43-1.44,4.21,4.21,0,0,1,2.14-.52,5,5,0,0,1,1.63.27,3.33,3.33,0,0,1,1.27.71l-.58,1.41a3.94,3.94,0,0,0-1-.61,3,3,0,0,0-1.1-.21,2.1,2.1,0,0,0-1.62.65,3.3,3.3,0,0,0,0,3.71,2.1,2.1,0,0,0,1.62.65,3,3,0,0,0,1.1-.21,3.94,3.94,0,0,0,1-.61l.58,1.4a3.51,3.51,0,0,1-1.31.72,5.26,5.26,0,0,1-1.67.27Zm6.31-11.41v1.46a3.77,3.77,0,0,1-.29,1.52,4.21,4.21,0,0,1-1,1.36l-.81-.64a5.42,5.42,0,0,0,.59-.77,2.32,2.32,0,0,0,.27-.72h-1v-2.21Z"/><path d="M900.74,666.14a8,8,0,0,1-2.44-.35,5.78,5.78,0,0,1-1.92-1l.69-1.5a5.69,5.69,0,0,0,1.72.91,6.46,6.46,0,0,0,2,.29,3.32,3.32,0,0,0,1.8-.41,1.31,1.31,0,0,0,.63-1.15,1.07,1.07,0,0,0-.58-1,6.69,6.69,0,0,0-1.68-.58l-.26-.06a10.85,10.85,0,0,1-2.29-.71,3.07,3.07,0,0,1-1.33-1,2.69,2.69,0,0,1-.45-1.58,3,3,0,0,1,.55-1.78,3.58,3.58,0,0,1,1.53-1.22,5.44,5.44,0,0,1,2.29-.44,7.22,7.22,0,0,1,2.26.36,5,5,0,0,1,1.76,1l-.69,1.5a5.19,5.19,0,0,0-3.33-1.2,3,3,0,0,0-1.72.44,1.41,1.41,0,0,0-.63,1.23,1.12,1.12,0,0,0,.56,1,5.65,5.65,0,0,0,1.64.59l.26.06a13.4,13.4,0,0,1,2.31.71,3.47,3.47,0,0,1,1.36,1,2.43,2.43,0,0,1,.48,1.54,3,3,0,0,1-.54,1.77,3.4,3.4,0,0,1-1.55,1.17,6.49,6.49,0,0,1-2.39.4Zm10.2-1.52h.74l-.1,1.48a6.49,6.49,0,0,1-.88,0,3.39,3.39,0,0,1-2.43-.76,3,3,0,0,1-.78-2.26v-3.41H906v-1.5h1.51v-2.34h2v2.34h2.06v1.5h-2.06v3.38c0,1,.48,1.56,1.45,1.56Zm5.48,1.51a4.32,4.32,0,0,1-2.11-.5,3.42,3.42,0,0,1-1.4-1.42,4.5,4.5,0,0,1-.49-2.16,4.44,4.44,0,0,1,.49-2.15,3.42,3.42,0,0,1,1.4-1.42,4.66,4.66,0,0,1,4.21,0,3.34,3.34,0,0,1,1.39,1.42,4.44,4.44,0,0,1,.49,2.15,4.5,4.5,0,0,1-.49,2.16,3.34,3.34,0,0,1-1.39,1.42A4.28,4.28,0,0,1,916.42,666.13Zm0-1.55a1.81,1.81,0,0,0,1.49-.64,3.74,3.74,0,0,0,0-3.77,1.77,1.77,0,0,0-1.47-.65,1.79,1.79,0,0,0-1.48.65,2.92,2.92,0,0,0-.52,1.88,3,3,0,0,0,.51,1.89,1.79,1.79,0,0,0,1.45.64Zm10.14-6.6a3.18,3.18,0,0,1,1.8.52,3.4,3.4,0,0,1,1.24,1.44,5.19,5.19,0,0,1,.44,2.16,4.7,4.7,0,0,1-.44,2.12,3.43,3.43,0,0,1-1.23,1.41,3.3,3.3,0,0,1-1.81.5,3.07,3.07,0,0,1-1.48-.35,2.53,2.53,0,0,1-1-1v4.08h-2v-10.7h2v1.18a2.41,2.41,0,0,1,1-1,3,3,0,0,1,1.51-.36Zm-.52,6.6a1.77,1.77,0,0,0,1.47-.65,2.85,2.85,0,0,0,.53-1.83,3,3,0,0,0-.53-1.89,2,2,0,0,0-2.82-.18l-.18.18a3.62,3.62,0,0,0,0,3.73,1.77,1.77,0,0,0,1.48.66Zm17.64-5.46v1.41h-7.8v-1.41Zm0,3.2v1.41h-7.8v-1.41Zm14,2V666h-7.59v-1.52l3.84-4.13a6.3,6.3,0,0,0,1-1.35,2.6,2.6,0,0,0,.31-1.22,1.48,1.48,0,0,0-.44-1.16,1.81,1.81,0,0,0-1.29-.4,5,5,0,0,0-3,1.17l-.69-1.5a4.92,4.92,0,0,1,1.72-.95,6.26,6.26,0,0,1,2.1-.36,4,4,0,0,1,2.69.83,2.79,2.79,0,0,1,1,2.24,4.29,4.29,0,0,1-.41,1.83,8,8,0,0,1-1.41,1.91l-2.77,3Zm7.41-4.13a2.63,2.63,0,0,1,1.52,1,3.09,3.09,0,0,1-.54,4.09,4.6,4.6,0,0,1-2.94.86,7,7,0,0,1-2.18-.35,5.3,5.3,0,0,1-1.74-1l.69-1.51a5,5,0,0,0,3.15,1.17,2.51,2.51,0,0,0,1.6-.42,1.54,1.54,0,0,0,.53-1.29,1.49,1.49,0,0,0-.53-1.26,2.78,2.78,0,0,0-1.66-.41H961.5v-1.63h1.22q2.19,0,2.19-1.65a1.55,1.55,0,0,0-.47-1.18,2,2,0,0,0-1.34-.42,4.25,4.25,0,0,0-1.53.3,6.31,6.31,0,0,0-1.51.87l-.69-1.5a4.8,4.8,0,0,1,1.72-1,6.49,6.49,0,0,1,2.14-.35,4.16,4.16,0,0,1,2.66.8,2.68,2.68,0,0,1,1,2.19,3,3,0,0,1-.49,1.64,2.58,2.58,0,0,1-1.3,1Zm9.24-.56-1.16.11c-1.33.14-2,.81-2,2V666h-2v-7.82h1.91v1.37a2.64,2.64,0,0,1,2.51-1.53h.61Zm8.53-4.93V666h-2v-1.26a2.67,2.67,0,0,1-1,1,3,3,0,0,1-1.51.37,3.27,3.27,0,0,1-1.8-.51,3.46,3.46,0,0,1-1.23-1.45,4.82,4.82,0,0,1-.44-2.15,4.77,4.77,0,0,1,.44-2.13,3.23,3.23,0,0,1,3-1.91,3,3,0,0,1,1.5.36,2.3,2.3,0,0,1,1,1v-4.61Zm-4,9.86a1.8,1.8,0,0,0,1.48-.66,3.64,3.64,0,0,0,0-3.74,2,2,0,0,0-2.82-.18l-.18.18a2.75,2.75,0,0,0-.53,1.84,2.87,2.87,0,0,0,.53,1.88,1.77,1.77,0,0,0,1.51.7Zm14.38,1.56a8,8,0,0,1-2.43-.35,5.43,5.43,0,0,1-1.92-1l.69-1.5a5.69,5.69,0,0,0,1.72.91,6.46,6.46,0,0,0,2,.29,3.32,3.32,0,0,0,1.8-.41,1.31,1.31,0,0,0,.63-1.15,1.07,1.07,0,0,0-.58-1,6.69,6.69,0,0,0-1.68-.58l-.27-.06a10.85,10.85,0,0,1-2.29-.71,3.1,3.1,0,0,1-1.32-1,2.69,2.69,0,0,1-.45-1.58,3,3,0,0,1,.54-1.78,3.55,3.55,0,0,1,1.54-1.22,5.44,5.44,0,0,1,2.29-.44,7.21,7.21,0,0,1,2.25.36,4.82,4.82,0,0,1,1.76,1l-.69,1.5a5.17,5.17,0,0,0-3.32-1.2,3,3,0,0,0-1.72.44,1.42,1.42,0,0,0-.64,1.23,1.14,1.14,0,0,0,.56,1,5.71,5.71,0,0,0,1.65.59l.26.06a13.4,13.4,0,0,1,2.31.71,3.54,3.54,0,0,1,1.36,1,2.5,2.5,0,0,1,.47,1.54,3.09,3.09,0,0,1-.53,1.77,3.48,3.48,0,0,1-1.56,1.17,6.49,6.49,0,0,1-2.39.4Zm10.21-1.52h.74l-.1,1.48a6.49,6.49,0,0,1-.88,0,3.35,3.35,0,0,1-2.43-.76,3,3,0,0,1-.79-2.26V659.7h-1.5v-1.5h1.5v-2.34h2v2.34h2.07v1.5H1002v3.38c0,1,.49,1.56,1.46,1.56Z"/><path d="M205.4,389.72h4.93a4.08,4.08,0,0,1,2.81.9,3.69,3.69,0,0,1,0,5.08,4,4,0,0,1-2.81.92h-2.87V401H205.4Zm4.67,5.31c1.42,0,2.13-.62,2.13-1.85a1.75,1.75,0,0,0-.53-1.4,2.36,2.36,0,0,0-1.6-.46h-2.61V395Zm10.87-.38-1.17.11c-1.32.14-2,.81-2,2V401h-2v-7.82h1.91v1.37A2.63,2.63,0,0,1,220.2,393h.61Zm7.84,2.8h-5.33a2.41,2.41,0,0,0,.65,1.61,2.22,2.22,0,0,0,1.6.53,3.78,3.78,0,0,0,2.37-.83l.58,1.38a4.5,4.5,0,0,1-1.37.72,5.25,5.25,0,0,1-1.66.27,4.14,4.14,0,0,1-3-1.09,4,4,0,0,1-1.11-3,4.45,4.45,0,0,1,.48-2.12,3.47,3.47,0,0,1,1.35-1.44,3.7,3.7,0,0,1,2-.52,3.25,3.25,0,0,1,2.55,1,4.16,4.16,0,0,1,.94,2.87Zm-3.44-3.06a1.7,1.7,0,0,0-1.29.51,2.44,2.44,0,0,0-.6,1.48h3.61a2.27,2.27,0,0,0-.48-1.48A1.53,1.53,0,0,0,225.34,394.39Zm10.56-1.2h2L234.44,401H232.7l-3.4-7.81h2.12l2.2,5.52Zm11.8-.21a2.64,2.64,0,0,1,2.1.8,3.62,3.62,0,0,1,.69,2.42V401h-2v-4.69a2.09,2.09,0,0,0-.35-1.33,1.37,1.37,0,0,0-1.08-.41,1.82,1.82,0,0,0-1.38.54,2,2,0,0,0-.52,1.46V401h-2v-7.82h2v1.16a2.78,2.78,0,0,1,1.07-1,3.14,3.14,0,0,1,1.47-.34Zm8.39,8.15a4.43,4.43,0,0,1-2.11-.5,3.42,3.42,0,0,1-1.4-1.42,4.5,4.5,0,0,1-.49-2.16,4.44,4.44,0,0,1,.49-2.15,3.42,3.42,0,0,1,1.4-1.42,4.43,4.43,0,0,1,2.11-.5,4.28,4.28,0,0,1,2.1.5,3.34,3.34,0,0,1,1.39,1.42,4.44,4.44,0,0,1,.49,2.15,4.5,4.5,0,0,1-.49,2.16,3.34,3.34,0,0,1-1.39,1.42,4.28,4.28,0,0,1-2.1.5Zm0-1.55a1.81,1.81,0,0,0,1.49-.64,3.74,3.74,0,0,0,0-3.77,1.77,1.77,0,0,0-1.47-.65,1.79,1.79,0,0,0-1.48.65,2.92,2.92,0,0,0-.52,1.88,3,3,0,0,0,.51,1.89,1.79,1.79,0,0,0,1.45.64Zm13.2-9.86V401h-2v-1.26a2.67,2.67,0,0,1-1,1,3,3,0,0,1-1.51.37,3.27,3.27,0,0,1-1.8-.51,3.46,3.46,0,0,1-1.23-1.45,4.82,4.82,0,0,1-.44-2.15,4.77,4.77,0,0,1,.44-2.13,3.23,3.23,0,0,1,3-1.91,3,3,0,0,1,1.5.36,2.3,2.3,0,0,1,1,1v-4.61Zm-4,9.86a1.8,1.8,0,0,0,1.48-.66,3.64,3.64,0,0,0,0-3.74,2,2,0,0,0-2.83-.12l-.12.12a2.75,2.75,0,0,0-.53,1.84,2.87,2.87,0,0,0,.53,1.88A1.76,1.76,0,0,0,265.29,399.58Zm12.91-2.13h-5.33a2.42,2.42,0,0,0,.66,1.61,2.22,2.22,0,0,0,1.6.53,3.78,3.78,0,0,0,2.37-.83l.57,1.38a4.5,4.5,0,0,1-1.37.72,5.14,5.14,0,0,1-1.65.27,4.14,4.14,0,0,1-3-1.09,4,4,0,0,1-1.12-3,4.45,4.45,0,0,1,.48-2.12,3.49,3.49,0,0,1,1.36-1.44,3.7,3.7,0,0,1,2-.52,3.25,3.25,0,0,1,2.55,1,4.1,4.1,0,0,1,.94,2.87Zm-3.44-3.06a1.73,1.73,0,0,0-1.29.51,2.62,2.62,0,0,0-.6,1.48h3.62a2.27,2.27,0,0,0-.48-1.48,1.56,1.56,0,0,0-1.25-.51Zm17.07-.27v1.41H284v-1.41Zm0,3.2v1.41H284v-1.41ZM302.65,393a2.6,2.6,0,0,1,2.09.8,3.62,3.62,0,0,1,.69,2.42V401h-2v-4.69a2.08,2.08,0,0,0-.34-1.33,1.37,1.37,0,0,0-1.08-.41,1.85,1.85,0,0,0-1.39.54,2.05,2.05,0,0,0-.52,1.46V401h-2v-7.82h2v1.16a2.71,2.71,0,0,1,1.07-1A3.18,3.18,0,0,1,302.65,393Zm12,.2V401H312.7v-1.2a2.53,2.53,0,0,1-1,1,2.75,2.75,0,0,1-1.4.35q-2.88,0-2.88-3.23V393.2h2v4.73a1.85,1.85,0,0,0,.33,1.23,1.3,1.3,0,0,0,1.06.4,1.72,1.72,0,0,0,1.33-.55,2.06,2.06,0,0,0,.51-1.46V393.2Zm2.08,7.82v-11.3h2V401Zm4.06,0v-11.3h2V401Z"/><path d="M225.9,728.72h4.93a4.1,4.1,0,0,1,2.82.9,3.69,3.69,0,0,1,0,5.08,4,4,0,0,1-2.82.92H228V740h-2.1Zm4.68,5.31c1.41,0,2.12-.62,2.12-1.85a1.78,1.78,0,0,0-.52-1.4,2.41,2.41,0,0,0-1.6-.46H228V734Zm10.86-.38-1.17.11c-1.32.14-2,.81-2,2V740h-2v-7.82h1.9v1.37A2.66,2.66,0,0,1,240.7,732h.61Zm7.84,2.8H244a2.42,2.42,0,0,0,.66,1.61,2.22,2.22,0,0,0,1.6.53,3.78,3.78,0,0,0,2.37-.83l.57,1.38a4.5,4.5,0,0,1-1.37.72,5.14,5.14,0,0,1-1.65.27,4.14,4.14,0,0,1-3-1.09,4,4,0,0,1-1.12-3,4.45,4.45,0,0,1,.48-2.12,3.49,3.49,0,0,1,1.36-1.44,3.7,3.7,0,0,1,2-.52,3.25,3.25,0,0,1,2.55,1,4.1,4.1,0,0,1,.94,2.87Zm-3.44-3.06a1.73,1.73,0,0,0-1.29.51,2.62,2.62,0,0,0-.6,1.48h3.62a2.27,2.27,0,0,0-.48-1.48,1.56,1.56,0,0,0-1.25-.51Zm10.56-1.2h2L254.94,740H253.2l-3.39-7.81h2.11l2.21,5.52Zm14.93.93v1.41h-7.81v-1.41Zm0,3.2v1.41h-7.81v-1.41ZM282.14,732a2.64,2.64,0,0,1,2.1.8,3.62,3.62,0,0,1,.69,2.42V740h-2v-4.69a2.09,2.09,0,0,0-.35-1.33,1.37,1.37,0,0,0-1.08-.41,1.82,1.82,0,0,0-1.38.54,2,2,0,0,0-.52,1.46V740h-2v-7.82h1.95v1.16a2.78,2.78,0,0,1,1.07-1,3.21,3.21,0,0,1,1.52-.36Zm12,.2V740h-1.95v-1.2a2.53,2.53,0,0,1-1,1,2.89,2.89,0,0,1-1.41.35q-2.88,0-2.88-3.23V732.2h2v4.73a1.81,1.81,0,0,0,.34,1.23,1.26,1.26,0,0,0,1.05.4,1.72,1.72,0,0,0,1.34-.55,2.05,2.05,0,0,0,.5-1.46V732.2Zm2.08,7.82v-11.3h2V740Zm4.07,0v-11.3h2V740Z"/><path d="M535.12,389.72h4.93a4.08,4.08,0,0,1,2.81.9,3.69,3.69,0,0,1,0,5.08,4,4,0,0,1-2.81.92h-2.87V401h-2.06Zm4.67,5.31c1.42,0,2.13-.62,2.13-1.85a1.75,1.75,0,0,0-.53-1.4,2.36,2.36,0,0,0-1.6-.46h-2.61V395Zm10.87-.38-1.17.11c-1.32.14-2,.81-2,2V401h-2v-7.82h1.91v1.37a2.64,2.64,0,0,1,2.51-1.53h.61Zm7.84,2.8h-5.33a2.41,2.41,0,0,0,.65,1.61,2.22,2.22,0,0,0,1.6.53,3.78,3.78,0,0,0,2.37-.83l.58,1.38a4.5,4.5,0,0,1-1.37.72,5.25,5.25,0,0,1-1.66.27,4.14,4.14,0,0,1-3-1.09,4,4,0,0,1-1.11-3,4.45,4.45,0,0,1,.48-2.12A3.53,3.53,0,0,1,553,393.5a3.7,3.7,0,0,1,2-.52,3.25,3.25,0,0,1,2.55,1,4.16,4.16,0,0,1,.94,2.87Zm-3.44-3.06a1.7,1.7,0,0,0-1.29.51,2.44,2.44,0,0,0-.6,1.48h3.61a2.27,2.27,0,0,0-.48-1.48,1.53,1.53,0,0,0-1.24-.51Zm10.56-1.2h2L564.16,401h-1.74l-3.4-7.81h2.12l2.2,5.52Zm11.8-.21a2.64,2.64,0,0,1,2.1.8,3.68,3.68,0,0,1,.69,2.42V401h-2v-4.69a2.09,2.09,0,0,0-.35-1.33,1.37,1.37,0,0,0-1.08-.41,1.82,1.82,0,0,0-1.38.54,2,2,0,0,0-.52,1.46V401h-2v-7.82h2v1.16a2.78,2.78,0,0,1,1.07-1,3.21,3.21,0,0,1,1.52-.36Zm8.39,8.15a4.43,4.43,0,0,1-2.11-.5,3.42,3.42,0,0,1-1.4-1.42,4.5,4.5,0,0,1-.49-2.16,4.44,4.44,0,0,1,.49-2.15,3.42,3.42,0,0,1,1.4-1.42,4.43,4.43,0,0,1,2.11-.5,4.28,4.28,0,0,1,2.1.5,3.34,3.34,0,0,1,1.39,1.42,4.44,4.44,0,0,1,.49,2.15,4.5,4.5,0,0,1-.49,2.16,3.34,3.34,0,0,1-1.39,1.42,4.28,4.28,0,0,1-2.1.5Zm0-1.55a1.81,1.81,0,0,0,1.49-.64,3.74,3.74,0,0,0,0-3.77,1.77,1.77,0,0,0-1.47-.65,1.79,1.79,0,0,0-1.48.65,2.92,2.92,0,0,0-.52,1.88,3,3,0,0,0,.51,1.89,1.79,1.79,0,0,0,1.45.64Zm13.2-9.86V401h-2v-1.26a2.67,2.67,0,0,1-1,1,3,3,0,0,1-1.51.37,3.27,3.27,0,0,1-1.8-.51,3.46,3.46,0,0,1-1.23-1.45A4.85,4.85,0,0,1,591,397a4.77,4.77,0,0,1,.44-2.13,3.23,3.23,0,0,1,3-1.91,3,3,0,0,1,1.5.36,2.3,2.3,0,0,1,1,1v-4.61Zm-4,9.86a1.8,1.8,0,0,0,1.48-.66,3.64,3.64,0,0,0,0-3.74,2,2,0,0,0-2.82-.18l-.18.18A2.79,2.79,0,0,0,593,397a2.87,2.87,0,0,0,.53,1.88,1.76,1.76,0,0,0,1.47.68Zm12.91-2.13h-5.33a2.42,2.42,0,0,0,.66,1.61,2.22,2.22,0,0,0,1.6.53,3.78,3.78,0,0,0,2.37-.83l.57,1.38a4.5,4.5,0,0,1-1.37.72,5.14,5.14,0,0,1-1.65.27,4.14,4.14,0,0,1-3-1.09,4,4,0,0,1-1.12-3,4.45,4.45,0,0,1,.48-2.12,3.49,3.49,0,0,1,1.36-1.44,3.7,3.7,0,0,1,2-.52,3.25,3.25,0,0,1,2.55,1,4.1,4.1,0,0,1,.94,2.87Zm-3.44-3.06a1.73,1.73,0,0,0-1.29.51,2.62,2.62,0,0,0-.6,1.48h3.62a2.27,2.27,0,0,0-.48-1.48,1.56,1.56,0,0,0-1.25-.51Zm17.07-.27v1.41h-7.81v-1.41Zm0,3.2v1.41h-7.81v-1.41ZM632.37,393a2.6,2.6,0,0,1,2.09.8,3.62,3.62,0,0,1,.69,2.42V401h-2v-4.69a2.08,2.08,0,0,0-.34-1.33,1.37,1.37,0,0,0-1.08-.41,1.85,1.85,0,0,0-1.39.54,2.05,2.05,0,0,0-.52,1.46V401h-2v-7.82h2v1.16a2.71,2.71,0,0,1,1.07-1,3.1,3.1,0,0,1,1.52-.36Zm8.38,8.15a4.28,4.28,0,0,1-2.1-.5,3.42,3.42,0,0,1-1.4-1.42,4.63,4.63,0,0,1-.5-2.16,4.45,4.45,0,0,1,.5-2.15,3.42,3.42,0,0,1,1.4-1.42,4.28,4.28,0,0,1,2.1-.5,4.43,4.43,0,0,1,2.11.5,3.4,3.4,0,0,1,1.39,1.42,4.58,4.58,0,0,1,.49,2.15,4.75,4.75,0,0,1-.49,2.16,3.4,3.4,0,0,1-1.39,1.42,4.41,4.41,0,0,1-2.11.48Zm0-1.55a1.78,1.78,0,0,0,1.48-.64,3.69,3.69,0,0,0,0-3.77,1.77,1.77,0,0,0-1.47-.65,1.79,1.79,0,0,0-1.48.65,3.69,3.69,0,0,0,0,3.77,1.81,1.81,0,0,0,1.46.62Zm13.2-9.86V401h-2v-1.26a2.53,2.53,0,0,1-1,1,3.11,3.11,0,0,1-1.52.37,3.27,3.27,0,0,1-1.8-.51,3.54,3.54,0,0,1-1.23-1.45A5.11,5.11,0,0,1,646,397a5.05,5.05,0,0,1,.44-2.13,3.3,3.3,0,0,1,1.23-1.41,3.26,3.26,0,0,1,1.8-.5,3,3,0,0,1,1.51.36,2.41,2.41,0,0,1,1,1v-4.61Zm-4,9.86a1.77,1.77,0,0,0,1.48-.66,3.64,3.64,0,0,0,0-3.74,1.75,1.75,0,0,0-1.46-.64,1.81,1.81,0,0,0-1.49.64A2.8,2.8,0,0,0,648,397a3,3,0,0,0,.53,1.88,1.76,1.76,0,0,0,1.47.68Zm12.91-2.13h-5.32a2.41,2.41,0,0,0,.65,1.61,2.22,2.22,0,0,0,1.6.53,3.78,3.78,0,0,0,2.37-.83l.58,1.38a4.73,4.73,0,0,1-1.37.72,5.25,5.25,0,0,1-1.66.27,4.14,4.14,0,0,1-3-1.09,4,4,0,0,1-1.11-3,4.45,4.45,0,0,1,.48-2.12,3.47,3.47,0,0,1,1.35-1.44,3.7,3.7,0,0,1,2-.52,3.3,3.3,0,0,1,2.55,1,4.16,4.16,0,0,1,.93,2.87Zm-3.44-3.06a1.66,1.66,0,0,0-1.28.51,2.44,2.44,0,0,0-.6,1.48h3.61a2.27,2.27,0,0,0-.48-1.48A1.56,1.56,0,0,0,659.42,394.41Zm4.23,7.81V401h7.61v1.2Z"/><path d="M675.86,393a2.84,2.84,0,0,1,3.24,2.39,2.6,2.6,0,0,1,0,.88V401h-1.9v-1.2a2,2,0,0,1-.86,1,2.57,2.57,0,0,1-1.35.35,3,3,0,0,1-1.42-.32,2.65,2.65,0,0,1-1-.88,2.15,2.15,0,0,1-.37-1.25,2,2,0,0,1,.44-1.36,2.68,2.68,0,0,1,1.43-.72,12,12,0,0,1,2.4-.22h.74V396a1.59,1.59,0,0,0-.34-1.15,1.55,1.55,0,0,0-1.15-.36,4.43,4.43,0,0,0-1.3.22,6.45,6.45,0,0,0-1.34.6l-.56-1.38a6.2,6.2,0,0,1,1.59-.68A6.12,6.12,0,0,1,675.86,393Zm1.34,4.45h-.55a9.32,9.32,0,0,0-1.4.1,1.54,1.54,0,0,0-.85.33.85.85,0,0,0-.26.66,1.07,1.07,0,0,0,.36.84,1.26,1.26,0,0,0,.89.33,1.71,1.71,0,0,0,1.31-.54,2,2,0,0,0,.5-1.38Z"/><path d="M531.89,728.72h4.93a4.08,4.08,0,0,1,2.81.9,3.69,3.69,0,0,1,0,5.08,4,4,0,0,1-2.81.92H534V740h-2.06Zm4.67,5.31c1.42,0,2.13-.62,2.13-1.85a1.75,1.75,0,0,0-.53-1.4,2.36,2.36,0,0,0-1.6-.46H534V734Zm10.86-.38-1.16.11c-1.33.14-2,.81-2,2V740h-2v-7.82h1.91v1.37a2.64,2.64,0,0,1,2.51-1.53h.61Zm7.84,2.8h-5.32a2.41,2.41,0,0,0,.65,1.61,2.22,2.22,0,0,0,1.6.53,3.78,3.78,0,0,0,2.37-.83l.58,1.38a4.73,4.73,0,0,1-1.37.72,5.25,5.25,0,0,1-1.66.27,4.14,4.14,0,0,1-3-1.09,4,4,0,0,1-1.11-3,4.45,4.45,0,0,1,.48-2.12,3.47,3.47,0,0,1,1.35-1.44,3.7,3.7,0,0,1,2-.52,3.3,3.3,0,0,1,2.55,1,4.16,4.16,0,0,1,.93,2.87Zm-3.44-3.06a1.66,1.66,0,0,0-1.28.51,2.44,2.44,0,0,0-.6,1.48h3.61a2.27,2.27,0,0,0-.48-1.48A1.56,1.56,0,0,0,551.82,733.39Zm10.56-1.2h2L560.93,740h-1.75l-3.39-7.81h2.11l2.21,5.52Zm14.93.93v1.41H569.5v-1.41Zm0,3.2v1.41H569.5v-1.41Zm9.11,3.68v-9.58h-3.68v-1.7h9.42v1.7h-3.68V740Zm7,0v-7.82h2V740Zm-.11-11.46h2.21v2h-2.21ZM606.75,732a2.45,2.45,0,0,1,2,.8,3.72,3.72,0,0,1,.65,2.42V740h-2v-4.72a2.2,2.2,0,0,0-.3-1.3,1.13,1.13,0,0,0-1-.41,1.56,1.56,0,0,0-1.25.54,2.36,2.36,0,0,0-.44,1.52V740h-2v-4.72a2.2,2.2,0,0,0-.3-1.3,1.13,1.13,0,0,0-1-.41,1.56,1.56,0,0,0-1.24.54,2.36,2.36,0,0,0-.44,1.52V740h-2v-7.82h2v1.1a2.3,2.3,0,0,1,1-1,3,3,0,0,1,1.43-.33,2.27,2.27,0,0,1,2.35,1.48,2.69,2.69,0,0,1,1.06-1.08,2.92,2.92,0,0,1,1.53-.4Zm11.54,4.47H613a2.36,2.36,0,0,0,.66,1.61,2.22,2.22,0,0,0,1.6.53,3.75,3.75,0,0,0,2.36-.83l.58,1.38a4.5,4.5,0,0,1-1.37.72,5.14,5.14,0,0,1-1.65.27,4.15,4.15,0,0,1-3-1.09,4,4,0,0,1-1.11-3,4.45,4.45,0,0,1,.48-2.12,3.47,3.47,0,0,1,1.35-1.44,3.72,3.72,0,0,1,2-.52,3.25,3.25,0,0,1,2.55,1,4.1,4.1,0,0,1,.94,2.87Zm-3.44-3.06a1.7,1.7,0,0,0-1.29.51,2.44,2.44,0,0,0-.6,1.48h3.62a2.41,2.41,0,0,0-.48-1.48,1.56,1.56,0,0,0-1.25-.51Zm7.95,6.74a6.82,6.82,0,0,1-1.91-.26,4.1,4.1,0,0,1-1.48-.73l.56-1.4a4.74,4.74,0,0,0,2.86.92,2,2,0,0,0,1-.23.71.71,0,0,0,.36-.64.64.64,0,0,0-.25-.54,2.21,2.21,0,0,0-.89-.35l-1.28-.29a3.1,3.1,0,0,1-1.61-.79,1.92,1.92,0,0,1-.53-1.4,2.1,2.1,0,0,1,.41-1.28,2.65,2.65,0,0,1,1.13-.85,4.44,4.44,0,0,1,1.69-.31,5.17,5.17,0,0,1,1.61.26,4.5,4.5,0,0,1,1.37.72l-.56,1.36a4.06,4.06,0,0,0-2.43-.88,1.92,1.92,0,0,0-1,.24.79.79,0,0,0-.37.67.65.65,0,0,0,.24.53,1.54,1.54,0,0,0,.74.32l1.33.3a3.32,3.32,0,0,1,1.71.81,2,2,0,0,1,.54,1.45,2,2,0,0,1-.88,1.73,4,4,0,0,1-2.38.64Zm13.22,0a8,8,0,0,1-2.44-.35,5.78,5.78,0,0,1-1.92-1l.69-1.5a5.69,5.69,0,0,0,1.72.91,6.46,6.46,0,0,0,2,.29,3.32,3.32,0,0,0,1.8-.41,1.31,1.31,0,0,0,.63-1.15,1.07,1.07,0,0,0-.58-1,6.69,6.69,0,0,0-1.68-.58l-.26-.06a10.85,10.85,0,0,1-2.29-.71,3.07,3.07,0,0,1-1.33-1,2.69,2.69,0,0,1-.45-1.58,3,3,0,0,1,.55-1.78A3.57,3.57,0,0,1,634,729a5.44,5.44,0,0,1,2.29-.44,7.22,7.22,0,0,1,2.26.36,5,5,0,0,1,1.76,1l-.69,1.5a5.19,5.19,0,0,0-3.33-1.2,3,3,0,0,0-1.72.44,1.41,1.41,0,0,0-.63,1.23,1.12,1.12,0,0,0,.56,1,5.65,5.65,0,0,0,1.64.59l.26.06a13.4,13.4,0,0,1,2.31.71,3.47,3.47,0,0,1,1.36,1,2.43,2.43,0,0,1,.48,1.54,3,3,0,0,1-.54,1.77,3.4,3.4,0,0,1-1.55,1.17,6.49,6.49,0,0,1-2.39.4Zm13.76-8v10.7h-2v-4.11a2.53,2.53,0,0,1-1,1,3,3,0,0,1-1.5.36,3.26,3.26,0,0,1-1.8-.5,3.3,3.3,0,0,1-1.23-1.41,4.7,4.7,0,0,1-.44-2.12,5.19,5.19,0,0,1,.44-2.16,3.57,3.57,0,0,1,1.23-1.44,3.39,3.39,0,0,1,3.32-.16,2.41,2.41,0,0,1,1,1v-1.18Zm-4,6.4a1.75,1.75,0,0,0,1.46-.66,3.62,3.62,0,0,0,0-3.73,2,2,0,0,0-2.83-.12l-.12.12a3,3,0,0,0-.53,1.89,2.85,2.85,0,0,0,.53,1.83,1.82,1.82,0,0,0,1.49.65Zm13.21-6.4V740h-2v-1.2a2.53,2.53,0,0,1-1,1,2.89,2.89,0,0,1-1.41.35q-2.88,0-2.88-3.23V732.2h2v4.73a1.81,1.81,0,0,0,.34,1.23,1.26,1.26,0,0,0,1,.4,1.72,1.72,0,0,0,1.34-.55,2.05,2.05,0,0,0,.5-1.46V732.2Zm5.44-.2a2.84,2.84,0,0,1,3.25,2.38,2.66,2.66,0,0,1,0,.89V740h-1.9v-1.2a2,2,0,0,1-.86,1,2.57,2.57,0,0,1-1.35.35,3,3,0,0,1-1.42-.32,2.5,2.5,0,0,1-1-.88,2.15,2.15,0,0,1-.37-1.25,2,2,0,0,1,.44-1.36,2.68,2.68,0,0,1,1.43-.72,12,12,0,0,1,2.4-.22h.74V735a1.6,1.6,0,0,0-.35-1.15,1.54,1.54,0,0,0-1.14-.36,4.43,4.43,0,0,0-1.3.22,6.45,6.45,0,0,0-1.34.6l-.56-1.38a6.92,6.92,0,0,1,1.58-.68,6.17,6.17,0,0,1,1.76-.28Zm-.46,6.71a1.68,1.68,0,0,0,1.3-.54,1.9,1.9,0,0,0,.51-1.38v-.34h-.29a10.21,10.21,0,0,0-1.66.1,1.54,1.54,0,0,0-.85.33.85.85,0,0,0-.26.66,1.11,1.11,0,0,0,.35.84,1.3,1.3,0,0,0,.9.33Zm10.9-5-1.17.11c-1.32.14-2,.81-2,2V740h-2v-7.82h1.91v1.37a2.64,2.64,0,0,1,2.51-1.53h.61Z"/><path d="M679.25,732a3.25,3.25,0,0,1,2.55,1,4.16,4.16,0,0,1,.94,2.87v.56h-5.33a2.41,2.41,0,0,0,.65,1.61,2.22,2.22,0,0,0,1.6.53,3.78,3.78,0,0,0,2.37-.83l.58,1.38a4.5,4.5,0,0,1-1.37.72,5.25,5.25,0,0,1-1.66.27,4.14,4.14,0,0,1-3-1.09,4,4,0,0,1-1.11-3,4.45,4.45,0,0,1,.48-2.12,3.47,3.47,0,0,1,1.35-1.44,3.7,3.7,0,0,1,2-.52Zm0,1.41a1.7,1.7,0,0,0-1.29.51,2.44,2.44,0,0,0-.6,1.48H681a2.27,2.27,0,0,0-.48-1.48,1.53,1.53,0,0,0-1.24-.51Z"/><path d="M877.63,389.72h4.93a4.12,4.12,0,0,1,2.82.9,3.73,3.73,0,0,1,0,5.08,4.07,4.07,0,0,1-2.82.92H879.7V401h-2.07ZM882.3,395c1.42,0,2.13-.62,2.13-1.85a1.71,1.71,0,0,0-.53-1.4,2.36,2.36,0,0,0-1.6-.46h-2.6V395Zm10.87-.38-1.17.11c-1.32.14-2,.81-2,2V401h-2v-7.82h1.9v1.37a2.65,2.65,0,0,1,2.51-1.53H893Zm7.84,2.8h-5.33a2.36,2.36,0,0,0,.66,1.61,2.22,2.22,0,0,0,1.6.53,3.75,3.75,0,0,0,2.36-.83l.58,1.38a4.5,4.5,0,0,1-1.37.72,5.14,5.14,0,0,1-1.65.27,4.15,4.15,0,0,1-3-1.09,4,4,0,0,1-1.11-3,4.45,4.45,0,0,1,.48-2.12,3.47,3.47,0,0,1,1.35-1.44,3.72,3.72,0,0,1,2-.52,3.25,3.25,0,0,1,2.55,1,4.1,4.1,0,0,1,.94,2.87Zm-3.44-3.06a1.7,1.7,0,0,0-1.29.51,2.44,2.44,0,0,0-.6,1.48h3.62a2.41,2.41,0,0,0-.48-1.48,1.56,1.56,0,0,0-1.25-.51Zm10.56-1.2h2L906.67,401h-1.74l-3.39-7.81h2.11l2.21,5.52Zm11.81-.21a2.64,2.64,0,0,1,2.09.8,3.62,3.62,0,0,1,.69,2.42V401h-2v-4.69a2.08,2.08,0,0,0-.34-1.33,1.37,1.37,0,0,0-1.08-.41,1.85,1.85,0,0,0-1.39.54,2.05,2.05,0,0,0-.52,1.46V401h-2v-7.82h2v1.16a2.73,2.73,0,0,1,1.08-1A3.1,3.1,0,0,1,920,393Zm8.38,8.15a4.28,4.28,0,0,1-2.1-.5,3.36,3.36,0,0,1-1.4-1.42,4.63,4.63,0,0,1-.5-2.16,4.45,4.45,0,0,1,.5-2.15,3.36,3.36,0,0,1,1.4-1.42,4.64,4.64,0,0,1,4.2,0,3.36,3.36,0,0,1,1.4,1.42,5.08,5.08,0,0,1,0,4.31,3.36,3.36,0,0,1-1.4,1.42,4.28,4.28,0,0,1-2.1.53Zm0-1.55a1.81,1.81,0,0,0,1.49-.64,3.74,3.74,0,0,0,0-3.77,1.77,1.77,0,0,0-1.47-.65,1.79,1.79,0,0,0-1.48.65,2.92,2.92,0,0,0-.52,1.88,3,3,0,0,0,.51,1.89,1.78,1.78,0,0,0,1.45.67Zm13.2-9.86V401h-2v-1.26a2.53,2.53,0,0,1-1,1,3,3,0,0,1-1.51.37,3.27,3.27,0,0,1-1.8-.51,3.46,3.46,0,0,1-1.23-1.45,5.14,5.14,0,0,1-.44-2.15,5.05,5.05,0,0,1,.44-2.13,3.28,3.28,0,0,1,1.22-1.41A3.34,3.34,0,0,1,937,393a3,3,0,0,1,1.51.36,2.3,2.3,0,0,1,1,1v-4.61Zm-4,9.86a1.8,1.8,0,0,0,1.48-.66,3.64,3.64,0,0,0,0-3.74,1.78,1.78,0,0,0-1.46-.64,1.81,1.81,0,0,0-1.49.64,2.81,2.81,0,0,0-.53,1.84,3,3,0,0,0,.53,1.88,1.76,1.76,0,0,0,1.47.68Zm12.91-2.13H945.1a2.47,2.47,0,0,0,.66,1.61,2.22,2.22,0,0,0,1.6.53,3.78,3.78,0,0,0,2.37-.83l.57,1.38a4.45,4.45,0,0,1-1.36.72,5.25,5.25,0,0,1-1.66.27,4.14,4.14,0,0,1-3-1.09,4,4,0,0,1-1.11-3,4.45,4.45,0,0,1,.48-2.12A3.54,3.54,0,0,1,945,393.5a3.7,3.7,0,0,1,2-.52,3.28,3.28,0,0,1,2.56,1,4.16,4.16,0,0,1,.93,2.87Zm-3.43-3a1.73,1.73,0,0,0-1.29.51,2.62,2.62,0,0,0-.6,1.48h3.62a2.27,2.27,0,0,0-.48-1.48,1.56,1.56,0,0,0-1.25-.51Zm17.07-.27v1.41h-7.8v-1.41Zm0,3.2v1.41h-7.8v-1.41ZM974.88,393a2.64,2.64,0,0,1,2.1.8,3.73,3.73,0,0,1,.68,2.42V401h-2v-4.69a2.08,2.08,0,0,0-.34-1.33,1.37,1.37,0,0,0-1.08-.41,1.78,1.78,0,0,0-1.38.54,2,2,0,0,0-.52,1.46V401h-2v-7.82h1.95v1.16a2.71,2.71,0,0,1,1.07-1,3.1,3.1,0,0,1,1.52-.36Zm8.38,8.15a4.28,4.28,0,0,1-2.1-.5,3.42,3.42,0,0,1-1.4-1.42,4.63,4.63,0,0,1-.5-2.16,4.45,4.45,0,0,1,.5-2.15,3.42,3.42,0,0,1,1.4-1.42,4.66,4.66,0,0,1,4.21,0,3.4,3.4,0,0,1,1.39,1.42,4.44,4.44,0,0,1,.49,2.15,4.5,4.5,0,0,1-.49,2.16,3.4,3.4,0,0,1-1.39,1.42,4.3,4.3,0,0,1-2.11.48Zm0-1.55a1.84,1.84,0,0,0,1.49-.64,3.74,3.74,0,0,0,0-3.77,2,2,0,0,0-2.82-.18l-.18.18a3,3,0,0,0-.52,1.88,3,3,0,0,0,.52,1.89,1.82,1.82,0,0,0,1.5.62Zm13.2-9.86V401h-2v-1.26a2.53,2.53,0,0,1-1,1,3,3,0,0,1-1.51.37,3.27,3.27,0,0,1-1.8-.51,3.49,3.49,0,0,1-1.24-1.45,5.14,5.14,0,0,1-.44-2.15,5.05,5.05,0,0,1,.44-2.13,3.43,3.43,0,0,1,1.23-1.41A3.3,3.3,0,0,1,992,393a3,3,0,0,1,1.5.36,2.41,2.41,0,0,1,1,1v-4.61Zm-4,9.86a1.77,1.77,0,0,0,1.48-.66,3.64,3.64,0,0,0,0-3.74,1.75,1.75,0,0,0-1.46-.64,1.81,1.81,0,0,0-1.49.64,2.81,2.81,0,0,0-.53,1.84,3,3,0,0,0,.53,1.88,1.76,1.76,0,0,0,1.47.68Zm12.92-2.13h-5.33a2.41,2.41,0,0,0,.65,1.61,2.22,2.22,0,0,0,1.6.53,3.78,3.78,0,0,0,2.37-.83l.58,1.38a4.5,4.5,0,0,1-1.37.72,5.25,5.25,0,0,1-1.66.27,4.14,4.14,0,0,1-3-1.09,4,4,0,0,1-1.11-3,4.45,4.45,0,0,1,.48-2.12,3.47,3.47,0,0,1,1.35-1.44,3.7,3.7,0,0,1,2-.52,3.25,3.25,0,0,1,2.55,1,4.16,4.16,0,0,1,.94,2.87Zm-3.44-3.06a1.7,1.7,0,0,0-1.29.51,2.44,2.44,0,0,0-.6,1.48h3.61a2.27,2.27,0,0,0-.48-1.48,1.53,1.53,0,0,0-1.24-.51Zm4.22,7.81V401h7.62v1.2Z"/><path d="M1017,389.72v4.59a2.3,2.3,0,0,1,1-1,3.07,3.07,0,0,1,1.48-.35,3.3,3.3,0,0,1,1.81.5,3.43,3.43,0,0,1,1.23,1.41A4.88,4.88,0,0,1,1023,397a5.14,5.14,0,0,1-.44,2.15,3.49,3.49,0,0,1-1.24,1.45,3.27,3.27,0,0,1-1.8.51,3,3,0,0,1-1.51-.37,2.53,2.53,0,0,1-1-1V401h-2V389.72Zm2,4.82a1.75,1.75,0,0,0-1.48.64,3.64,3.64,0,0,0,0,3.74,2,2,0,0,0,2.82.18l.18-.18A3,3,0,0,0,1021,397a2.89,2.89,0,0,0-.52-1.84,1.78,1.78,0,0,0-1.48-.64Z"/><path d="M877.58,728.72h4.93a4.1,4.1,0,0,1,2.82.9,3.69,3.69,0,0,1,0,5.08,4,4,0,0,1-2.82.92h-2.86V740h-2.07Zm4.68,5.31c1.41,0,2.12-.62,2.12-1.85a1.78,1.78,0,0,0-.52-1.4,2.41,2.41,0,0,0-1.6-.46h-2.61V734Zm10.86-.38-1.17.11c-1.32.14-2,.81-2,2V740h-2v-7.82h1.9v1.37a2.65,2.65,0,0,1,2.51-1.53H893Zm7.84,2.8h-5.33a2.42,2.42,0,0,0,.66,1.61,2.22,2.22,0,0,0,1.6.53,3.78,3.78,0,0,0,2.37-.83l.57,1.38a4.5,4.5,0,0,1-1.37.72,5.14,5.14,0,0,1-1.65.27,4.14,4.14,0,0,1-3-1.09,4,4,0,0,1-1.12-3,4.45,4.45,0,0,1,.48-2.12,3.49,3.49,0,0,1,1.36-1.44,3.7,3.7,0,0,1,2-.52,3.25,3.25,0,0,1,2.55,1,4.1,4.1,0,0,1,.94,2.87Zm-3.44-3.06a1.73,1.73,0,0,0-1.29.51,2.62,2.62,0,0,0-.6,1.48h3.62a2.27,2.27,0,0,0-.48-1.48,1.56,1.56,0,0,0-1.25-.51Zm10.56-1.2h2L906.62,740h-1.74l-3.39-7.81h2.11l2.21,5.52Zm14.93.93v1.41H915.2v-1.41Zm0,3.2v1.41H915.2v-1.41Zm6.45-7.6h4.92a4.1,4.1,0,0,1,2.82.9,3.69,3.69,0,0,1,0,5.08,4,4,0,0,1-2.82.92h-2.86V740h-2.06Zm4.67,5.31c1.42,0,2.13-.62,2.13-1.85a1.75,1.75,0,0,0-.53-1.4,2.36,2.36,0,0,0-1.6-.46h-2.61V734Zm12.57,2.42h-5.32a2.41,2.41,0,0,0,.65,1.61,2.22,2.22,0,0,0,1.6.53,3.78,3.78,0,0,0,2.37-.83l.58,1.38a4.73,4.73,0,0,1-1.37.72,5.25,5.25,0,0,1-1.66.27,4.14,4.14,0,0,1-3-1.09,4,4,0,0,1-1.11-3,4.45,4.45,0,0,1,.48-2.12,3.47,3.47,0,0,1,1.35-1.44,3.7,3.7,0,0,1,2-.52,3.3,3.3,0,0,1,2.55,1,4.16,4.16,0,0,1,.93,2.87Zm-3.44-3.06a1.66,1.66,0,0,0-1.28.51,2.44,2.44,0,0,0-.6,1.48H945a2.27,2.27,0,0,0-.48-1.48,1.56,1.56,0,0,0-1.25-.51Zm9.62-1.41a2.64,2.64,0,0,1,2.1.8,3.73,3.73,0,0,1,.68,2.42V740h-2v-4.69a2.08,2.08,0,0,0-.34-1.33,1.37,1.37,0,0,0-1.08-.41,1.78,1.78,0,0,0-1.38.54,2,2,0,0,0-.52,1.46V740h-2v-7.82h1.95v1.16a2.71,2.71,0,0,1,1.07-1,3.1,3.1,0,0,1,1.52-.36Zm9.36,0a2.64,2.64,0,0,1,2.1.8,3.73,3.73,0,0,1,.68,2.42V740h-2v-4.69a2.08,2.08,0,0,0-.34-1.33,1.37,1.37,0,0,0-1.08-.41,1.78,1.78,0,0,0-1.38.54,2,2,0,0,0-.52,1.46V740h-2v-7.82h1.95v1.16a2.71,2.71,0,0,1,1.07-1,3.1,3.1,0,0,1,1.52-.36Zm13.15,8.16a8,8,0,0,1-2.43-.35,5.43,5.43,0,0,1-1.92-1l.69-1.5a5.69,5.69,0,0,0,1.72.91,6.46,6.46,0,0,0,2,.29,3.32,3.32,0,0,0,1.8-.41,1.31,1.31,0,0,0,.63-1.15,1.07,1.07,0,0,0-.58-1,6.69,6.69,0,0,0-1.68-.58l-.27-.06a10.85,10.85,0,0,1-2.29-.71,3.1,3.1,0,0,1-1.32-1,2.69,2.69,0,0,1-.45-1.58,3,3,0,0,1,.54-1.78,3.55,3.55,0,0,1,1.54-1.22,5.44,5.44,0,0,1,2.29-.44,7.21,7.21,0,0,1,2.25.36,4.82,4.82,0,0,1,1.76,1l-.69,1.5a5.17,5.17,0,0,0-3.32-1.2,3,3,0,0,0-1.72.44,1.42,1.42,0,0,0-.64,1.23,1.14,1.14,0,0,0,.56,1,5.71,5.71,0,0,0,1.65.59l.26.06a13.4,13.4,0,0,1,2.31.71,3.54,3.54,0,0,1,1.36,1,2.5,2.5,0,0,1,.47,1.54,3.09,3.09,0,0,1-.53,1.77,3.48,3.48,0,0,1-1.56,1.17,6.49,6.49,0,0,1-2.39.4Zm10.21-1.52h.74l-.1,1.48a6.49,6.49,0,0,1-.88,0,3.35,3.35,0,0,1-2.43-.76,3,3,0,0,1-.79-2.26v-3.41h-1.5v-1.5h1.5v-2.34h2v2.34h2.07v1.5h-2.07v3.38c0,1,.49,1.56,1.46,1.56Zm5.26-6.64a2.84,2.84,0,0,1,3.25,2.38,2.66,2.66,0,0,1,0,.89V740h-1.9v-1.2a2,2,0,0,1-.86,1,2.57,2.57,0,0,1-1.35.35,3,3,0,0,1-1.42-.32,2.5,2.5,0,0,1-1-.88,2.15,2.15,0,0,1-.37-1.25,2,2,0,0,1,.44-1.36,2.68,2.68,0,0,1,1.43-.72,12,12,0,0,1,2.4-.22h.74V735a1.6,1.6,0,0,0-.35-1.15,1.54,1.54,0,0,0-1.14-.36,4.43,4.43,0,0,0-1.3.22,6.45,6.45,0,0,0-1.34.6l-.56-1.38a6.92,6.92,0,0,1,1.58-.68,6.17,6.17,0,0,1,1.76-.28Zm-.46,6.71a1.68,1.68,0,0,0,1.3-.54,1.9,1.9,0,0,0,.51-1.38v-.34h-.29a10.21,10.21,0,0,0-1.66.1,1.54,1.54,0,0,0-.85.33.85.85,0,0,0-.26.66,1.11,1.11,0,0,0,.35.84,1.3,1.3,0,0,0,.9.33Zm9.74-.07h.74l-.1,1.48a6.49,6.49,0,0,1-.88,0,3.39,3.39,0,0,1-2.43-.76,3,3,0,0,1-.78-2.26v-3.41h-1.51v-1.5h1.51v-2.34h2v2.34h2.06v1.5h-2.06v3.38c0,1,.48,1.56,1.45,1.56Zm1.91,1.38v-7.82h2V740Zm-.11-11.46h2.2v2h-2.2Zm7.74,11.59a4.28,4.28,0,0,1-2.1-.5,3.36,3.36,0,0,1-1.4-1.42,4.63,4.63,0,0,1-.5-2.16,4.45,4.45,0,0,1,.5-2.15,3.36,3.36,0,0,1,1.4-1.42,4.64,4.64,0,0,1,4.2,0,3.36,3.36,0,0,1,1.4,1.42,5.08,5.08,0,0,1,0,4.31,3.36,3.36,0,0,1-1.4,1.42,4.28,4.28,0,0,1-2.1.5Zm0-1.55a1.81,1.81,0,0,0,1.49-.64,3.74,3.74,0,0,0,0-3.77,1.77,1.77,0,0,0-1.47-.65,1.79,1.79,0,0,0-1.48.65,2.92,2.92,0,0,0-.52,1.88,3,3,0,0,0,.51,1.89,1.79,1.79,0,0,0,1.45.64Zm10.2-6.6a2.64,2.64,0,0,1,2.09.8,3.62,3.62,0,0,1,.69,2.42V740h-2v-4.69a2.08,2.08,0,0,0-.34-1.33,1.37,1.37,0,0,0-1.08-.41,1.85,1.85,0,0,0-1.39.54,2.05,2.05,0,0,0-.52,1.46V740h-2v-7.82h2v1.16a2.73,2.73,0,0,1,1.08-1,3.1,3.1,0,0,1,1.52-.36Z"/><path d="M198.58,465.72h1.94V477H199L193,469.13V477H191V465.72h1.54l6,7.86Zm11.06,7.73h-5.33a2.42,2.42,0,0,0,.66,1.61,2.22,2.22,0,0,0,1.6.53,3.78,3.78,0,0,0,2.37-.83l.57,1.38a4.5,4.5,0,0,1-1.37.72,5.14,5.14,0,0,1-1.65.27,4.14,4.14,0,0,1-3-1.09,4,4,0,0,1-1.12-3,4.45,4.45,0,0,1,.48-2.12,3.49,3.49,0,0,1,1.36-1.44,3.7,3.7,0,0,1,2-.52,3.25,3.25,0,0,1,2.55,1,4.1,4.1,0,0,1,.94,2.87Zm-3.44-3.06a1.73,1.73,0,0,0-1.29.51,2.62,2.62,0,0,0-.6,1.48h3.62a2.27,2.27,0,0,0-.48-1.48A1.56,1.56,0,0,0,206.2,470.39Zm9.44,2.58,3.3,4h-2.37l-2.08-2.61L212.42,477h-2.36l3.28-4-3.11-3.79h2.39l1.87,2.38,1.87-2.38h2.38Zm8.14,2.65h.74l-.1,1.48a6.49,6.49,0,0,1-.88,0,3.39,3.39,0,0,1-2.43-.76,3,3,0,0,1-.78-2.26v-3.41h-1.51v-1.5h1.51v-2.34h2v2.34h2.06v1.5h-2.06v3.38c0,1,.48,1.56,1.45,1.56ZM234.57,469a2.6,2.6,0,0,1,2.09.8,3.62,3.62,0,0,1,.69,2.42V477h-2v-4.69A2.11,2.11,0,0,0,235,471a1.37,1.37,0,0,0-1.08-.41,1.85,1.85,0,0,0-1.39.54,2.05,2.05,0,0,0-.52,1.46V477h-2v-7.82h2v1.16a2.71,2.71,0,0,1,1.07-1A3.19,3.19,0,0,1,234.57,469Zm8.38,8.15a4.28,4.28,0,0,1-2.1-.5,3.42,3.42,0,0,1-1.4-1.42,4.63,4.63,0,0,1-.5-2.16,4.45,4.45,0,0,1,.5-2.15,3.42,3.42,0,0,1,1.4-1.42,4.28,4.28,0,0,1,2.1-.5,4.43,4.43,0,0,1,2.11.5,3.4,3.4,0,0,1,1.39,1.42,4.58,4.58,0,0,1,.49,2.15,4.75,4.75,0,0,1-.49,2.16,3.4,3.4,0,0,1-1.39,1.42,4.34,4.34,0,0,1-2.06.48Zm0-1.55a1.78,1.78,0,0,0,1.48-.64,3.69,3.69,0,0,0,0-3.77,1.77,1.77,0,0,0-1.47-.65,1.79,1.79,0,0,0-1.48.65,3.69,3.69,0,0,0,0,3.77,1.81,1.81,0,0,0,1.46.62Zm13.2-9.86V477h-2v-1.26a2.53,2.53,0,0,1-1,1,3.11,3.11,0,0,1-1.52.37,3.27,3.27,0,0,1-1.8-.51,3.54,3.54,0,0,1-1.23-1.45,5.14,5.14,0,0,1-.44-2.15,5.05,5.05,0,0,1,.44-2.13,3.3,3.3,0,0,1,1.23-1.41,3.26,3.26,0,0,1,1.8-.5,3,3,0,0,1,1.51.36,2.41,2.41,0,0,1,1,1v-4.61Zm-4,9.86a1.77,1.77,0,0,0,1.48-.66,3.64,3.64,0,0,0,0-3.74,1.75,1.75,0,0,0-1.46-.64,1.81,1.81,0,0,0-1.49.64,2.81,2.81,0,0,0-.53,1.84,3,3,0,0,0,.53,1.88,1.76,1.76,0,0,0,1.47.68Zm12.91-2.13h-5.32a2.41,2.41,0,0,0,.65,1.61,2.22,2.22,0,0,0,1.6.53,3.78,3.78,0,0,0,2.37-.83l.58,1.38a4.73,4.73,0,0,1-1.37.72,5.25,5.25,0,0,1-1.66.27,4.14,4.14,0,0,1-3-1.09,4,4,0,0,1-1.11-3,4.45,4.45,0,0,1,.48-2.12,3.47,3.47,0,0,1,1.35-1.44,3.7,3.7,0,0,1,2-.52,3.3,3.3,0,0,1,2.55,1,4.16,4.16,0,0,1,.93,2.87Zm-3.44-3.06a1.66,1.66,0,0,0-1.28.51,2.44,2.44,0,0,0-.6,1.48h3.61a2.27,2.27,0,0,0-.48-1.48,1.56,1.56,0,0,0-1.25-.51Zm17.08-.27v1.41h-7.81v-1.41Zm0,3.2v1.41h-7.81v-1.41ZM289.51,469a2.64,2.64,0,0,1,2.1.8,3.62,3.62,0,0,1,.69,2.42V477h-2v-4.69A2.07,2.07,0,0,0,290,471a1.37,1.37,0,0,0-1.08-.41,1.82,1.82,0,0,0-1.38.54,2,2,0,0,0-.52,1.46V477h-2v-7.82h2v1.16a2.71,2.71,0,0,1,1.07-1A3.14,3.14,0,0,1,289.51,469Zm8.39,8.15a4.43,4.43,0,0,1-2.11-.5,3.42,3.42,0,0,1-1.4-1.42,4.5,4.5,0,0,1-.49-2.16,4.44,4.44,0,0,1,.49-2.15,3.42,3.42,0,0,1,1.4-1.42,4.66,4.66,0,0,1,4.21,0,3.34,3.34,0,0,1,1.39,1.42,4.44,4.44,0,0,1,.49,2.15,4.5,4.5,0,0,1-.49,2.16,3.34,3.34,0,0,1-1.39,1.42,4.26,4.26,0,0,1-2.1.48Zm0-1.55a1.81,1.81,0,0,0,1.49-.64,3.74,3.74,0,0,0,0-3.77,1.77,1.77,0,0,0-1.47-.65,1.79,1.79,0,0,0-1.48.65,2.92,2.92,0,0,0-.52,1.88,3,3,0,0,0,.51,1.89,1.79,1.79,0,0,0,1.45.62Zm13.2-9.86V477h-2v-1.26a2.67,2.67,0,0,1-1,1,3,3,0,0,1-1.51.37,3.27,3.27,0,0,1-1.8-.51,3.46,3.46,0,0,1-1.23-1.45,4.82,4.82,0,0,1-.44-2.15,4.77,4.77,0,0,1,.44-2.13,3.23,3.23,0,0,1,3-1.91,3,3,0,0,1,1.5.36,2.3,2.3,0,0,1,1,1v-4.61Zm-4,9.86a1.8,1.8,0,0,0,1.48-.66,3.64,3.64,0,0,0,0-3.74,1.8,1.8,0,0,0-1.47-.64,1.84,1.84,0,0,0-1.49.64,2.8,2.8,0,0,0-.52,1.84,3,3,0,0,0,.52,1.88,1.81,1.81,0,0,0,1.48.68Zm12.9-2.15h-5.33a2.36,2.36,0,0,0,.66,1.61,2.22,2.22,0,0,0,1.6.53,3.75,3.75,0,0,0,2.36-.83l.58,1.38a4.5,4.5,0,0,1-1.37.72,5.14,5.14,0,0,1-1.65.27,4.15,4.15,0,0,1-3-1.09,4,4,0,0,1-1.11-3,4.45,4.45,0,0,1,.48-2.12,3.47,3.47,0,0,1,1.35-1.44,3.72,3.72,0,0,1,2-.52,3.25,3.25,0,0,1,2.55,1,4.1,4.1,0,0,1,.94,2.87Zm-3.44-3.06a1.7,1.7,0,0,0-1.29.51,2.44,2.44,0,0,0-.6,1.48h3.62a2.41,2.41,0,0,0-.48-1.48,1.56,1.56,0,0,0-1.25-.51Zm4.22,7.81V477h7.62v1.2Z"/><path d="M331.64,465.72v4.59a2.3,2.3,0,0,1,1-1,3.09,3.09,0,0,1,1.49-.35,3.26,3.26,0,0,1,1.8.5,3.3,3.3,0,0,1,1.23,1.41,5.05,5.05,0,0,1,.44,2.13,5.14,5.14,0,0,1-.44,2.15,3.54,3.54,0,0,1-1.23,1.45,3.27,3.27,0,0,1-1.8.51,3.11,3.11,0,0,1-1.52-.37,2.53,2.53,0,0,1-1-1V477h-2V465.72Zm2,4.82a1.75,1.75,0,0,0-1.48.64,3.64,3.64,0,0,0,0,3.74A2,2,0,0,0,335,475l.12-.12a3,3,0,0,0,.53-1.88,2.89,2.89,0,0,0-.52-1.84,1.78,1.78,0,0,0-1.48-.64Z"/><path d="M542.49,465.72h1.93V477h-1.55l-6-7.87V477h-2V465.72h1.54l6,7.86Zm11,7.73h-5.32a2.41,2.41,0,0,0,.65,1.61,2.22,2.22,0,0,0,1.6.53,3.78,3.78,0,0,0,2.37-.83l.58,1.38a4.73,4.73,0,0,1-1.37.72,5.25,5.25,0,0,1-1.66.27,4.14,4.14,0,0,1-3-1.09,4,4,0,0,1-1.11-3,4.45,4.45,0,0,1,.48-2.12,3.47,3.47,0,0,1,1.35-1.44,3.7,3.7,0,0,1,2-.52,3.3,3.3,0,0,1,2.55,1,4.16,4.16,0,0,1,.93,2.87Zm-3.44-3.06a1.66,1.66,0,0,0-1.28.51,2.44,2.44,0,0,0-.6,1.48h3.61a2.27,2.27,0,0,0-.48-1.48A1.56,1.56,0,0,0,550.05,470.39Zm9.44,2.58,3.3,4h-2.37l-2.08-2.61-2,2.64H554l3.28-4-3.1-3.79h2.38l1.87,2.38,1.87-2.38h2.39Zm8.15,2.65h.73l-.09,1.48a8.65,8.65,0,0,1-.88,0,3.35,3.35,0,0,1-2.43-.76,3,3,0,0,1-.79-2.26v-3.41h-1.5v-1.5h1.5v-2.34h2v2.34h2.07v1.5h-2.07v3.38c.05,1,.54,1.52,1.51,1.52ZM578.47,469a2.64,2.64,0,0,1,2.1.8,3.68,3.68,0,0,1,.69,2.42V477h-2v-4.69a2.09,2.09,0,0,0-.35-1.33,1.37,1.37,0,0,0-1.08-.41,1.82,1.82,0,0,0-1.38.54,2,2,0,0,0-.52,1.46V477h-2v-7.82h2v1.16a2.71,2.71,0,0,1,1.07-1,3.21,3.21,0,0,1,1.52-.36Zm8.39,8.15a4.43,4.43,0,0,1-2.11-.5,3.42,3.42,0,0,1-1.4-1.42,4.5,4.5,0,0,1-.49-2.16,4.44,4.44,0,0,1,.49-2.15,3.42,3.42,0,0,1,1.4-1.42,4.66,4.66,0,0,1,4.21,0,3.34,3.34,0,0,1,1.39,1.42,4.44,4.44,0,0,1,.49,2.15,4.5,4.5,0,0,1-.49,2.16,3.34,3.34,0,0,1-1.39,1.42,4.26,4.26,0,0,1-2.1.48Zm0-1.55a1.81,1.81,0,0,0,1.49-.64,3.74,3.74,0,0,0,0-3.77,1.77,1.77,0,0,0-1.47-.65,1.79,1.79,0,0,0-1.48.65,2.92,2.92,0,0,0-.52,1.88,3,3,0,0,0,.51,1.89,1.79,1.79,0,0,0,1.45.62Zm13.2-9.86V477h-2v-1.26a2.67,2.67,0,0,1-1,1,3,3,0,0,1-1.51.37,3.27,3.27,0,0,1-1.8-.51,3.46,3.46,0,0,1-1.23-1.45,4.82,4.82,0,0,1-.44-2.15,4.77,4.77,0,0,1,.44-2.13,3.23,3.23,0,0,1,3-1.91,3,3,0,0,1,1.5.36,2.3,2.3,0,0,1,1,1v-4.61Zm-4,9.86a1.8,1.8,0,0,0,1.48-.66,3.64,3.64,0,0,0,0-3.74,1.8,1.8,0,0,0-1.47-.64,1.84,1.84,0,0,0-1.49.64,2.8,2.8,0,0,0-.52,1.84,3,3,0,0,0,.52,1.88A1.81,1.81,0,0,0,596.06,475.6ZM609,473.45h-5.33a2.36,2.36,0,0,0,.66,1.61,2.22,2.22,0,0,0,1.6.53,3.75,3.75,0,0,0,2.36-.83l.58,1.38a4.5,4.5,0,0,1-1.37.72,5.14,5.14,0,0,1-1.65.27,4.15,4.15,0,0,1-3-1.09,4,4,0,0,1-1.11-3,4.45,4.45,0,0,1,.48-2.12,3.47,3.47,0,0,1,1.35-1.44,3.72,3.72,0,0,1,2-.52,3.25,3.25,0,0,1,2.55,1,4.1,4.1,0,0,1,.94,2.87Zm-3.44-3.06a1.7,1.7,0,0,0-1.29.51,2.44,2.44,0,0,0-.6,1.48h3.62a2.41,2.41,0,0,0-.48-1.48,1.56,1.56,0,0,0-1.25-.51Zm17.07-.27v1.41h-7.81v-1.41Zm0,3.2v1.41h-7.81v-1.41ZM633.42,469a2.64,2.64,0,0,1,2.09.8,3.62,3.62,0,0,1,.69,2.42V477h-2v-4.69a2.08,2.08,0,0,0-.34-1.33,1.37,1.37,0,0,0-1.08-.41,1.85,1.85,0,0,0-1.39.54,2.05,2.05,0,0,0-.52,1.46V477h-2v-7.82h2v1.16a2.73,2.73,0,0,1,1.08-1,3.1,3.1,0,0,1,1.52-.36Zm8.38,8.15a4.28,4.28,0,0,1-2.1-.5,3.36,3.36,0,0,1-1.4-1.42,4.63,4.63,0,0,1-.5-2.16,4.45,4.45,0,0,1,.5-2.15,3.36,3.36,0,0,1,1.4-1.42,4.64,4.64,0,0,1,4.2,0,3.36,3.36,0,0,1,1.4,1.42,5.08,5.08,0,0,1,0,4.31,3.36,3.36,0,0,1-1.4,1.42,4.26,4.26,0,0,1-2.1.48Zm0-1.55a1.81,1.81,0,0,0,1.49-.64,3.74,3.74,0,0,0,0-3.77,1.77,1.77,0,0,0-1.47-.65,1.79,1.79,0,0,0-1.48.65,2.92,2.92,0,0,0-.52,1.88,3,3,0,0,0,.51,1.89,1.79,1.79,0,0,0,1.45.62Zm13.2-9.86V477h-2v-1.26a2.53,2.53,0,0,1-1,1,3,3,0,0,1-1.51.37,3.27,3.27,0,0,1-1.8-.51,3.46,3.46,0,0,1-1.23-1.45A5,5,0,0,1,647,473a5.05,5.05,0,0,1,.44-2.13,3.23,3.23,0,0,1,3-1.91,3,3,0,0,1,1.51.36,2.3,2.3,0,0,1,1,1v-4.61Zm-4,9.86a1.8,1.8,0,0,0,1.48-.66,3.64,3.64,0,0,0,0-3.74,1.78,1.78,0,0,0-1.46-.64,1.81,1.81,0,0,0-1.49.64A2.83,2.83,0,0,0,649,473a3,3,0,0,0,.53,1.88,1.76,1.76,0,0,0,1.47.68Zm12.91-2.13h-5.33a2.47,2.47,0,0,0,.66,1.61,2.22,2.22,0,0,0,1.6.53,3.78,3.78,0,0,0,2.37-.83l.57,1.38a4.45,4.45,0,0,1-1.36.72,5.25,5.25,0,0,1-1.66.27,4.14,4.14,0,0,1-3-1.09,4,4,0,0,1-1.11-3,4.45,4.45,0,0,1,.48-2.12,3.47,3.47,0,0,1,1.35-1.44,3.7,3.7,0,0,1,2-.52,3.28,3.28,0,0,1,2.56,1,4.16,4.16,0,0,1,.93,2.87Zm-3.44-3.06a1.73,1.73,0,0,0-1.29.51,2.62,2.62,0,0,0-.6,1.48h3.62a2.27,2.27,0,0,0-.48-1.48,1.56,1.56,0,0,0-1.25-.51Zm4.23,7.81V477h7.61v1.2Zm12.41-1.07a4.29,4.29,0,0,1-2.13-.5,3.32,3.32,0,0,1-1.39-1.41,4.87,4.87,0,0,1,0-4.28,3.48,3.48,0,0,1,1.43-1.44,4.21,4.21,0,0,1,2.14-.52,5,5,0,0,1,1.63.27,3.33,3.33,0,0,1,1.27.71l-.58,1.41a3.94,3.94,0,0,0-1-.61,2.93,2.93,0,0,0-1.09-.21,2.1,2.1,0,0,0-1.62.65,3.3,3.3,0,0,0,0,3.71,2.1,2.1,0,0,0,1.62.65,2.93,2.93,0,0,0,1.09-.21,3.94,3.94,0,0,0,1-.61l.58,1.4a3.51,3.51,0,0,1-1.31.72,5.26,5.26,0,0,1-1.67.27Z"/><path d="M898.35,465.72h1.94V477h-1.55l-6-7.87V477h-1.92V465.72h1.53l6,7.86Zm11.06,7.73h-5.33a2.36,2.36,0,0,0,.66,1.61,2.22,2.22,0,0,0,1.6.53,3.75,3.75,0,0,0,2.36-.83l.58,1.38a4.5,4.5,0,0,1-1.37.72,5.14,5.14,0,0,1-1.65.27,4.15,4.15,0,0,1-3-1.09,4,4,0,0,1-1.11-3,4.45,4.45,0,0,1,.48-2.12,3.47,3.47,0,0,1,1.35-1.44,3.72,3.72,0,0,1,2-.52,3.25,3.25,0,0,1,2.55,1,4.1,4.1,0,0,1,.94,2.87ZM906,470.39a1.7,1.7,0,0,0-1.29.51,2.44,2.44,0,0,0-.6,1.48h3.62a2.41,2.41,0,0,0-.48-1.48,1.56,1.56,0,0,0-1.25-.51Zm9.44,2.58,3.29,4h-2.36l-2.08-2.61-2.1,2.64h-2.37l3.28-4-3.1-3.79h2.38l1.88,2.38,1.87-2.38h2.38Zm8.14,2.65h.74l-.1,1.48a6.49,6.49,0,0,1-.88,0,3.35,3.35,0,0,1-2.43-.76,3,3,0,0,1-.78-2.26v-3.41h-1.51v-1.5h1.51v-2.34h2v2.34h2.06v1.5H922.1v3.38c0,1,.48,1.52,1.45,1.52ZM934.34,469a2.64,2.64,0,0,1,2.09.8,3.62,3.62,0,0,1,.69,2.42V477h-2v-4.69a2.08,2.08,0,0,0-.34-1.33,1.37,1.37,0,0,0-1.08-.41,1.85,1.85,0,0,0-1.39.54,2.05,2.05,0,0,0-.52,1.46V477h-2v-7.82h2v1.16a2.73,2.73,0,0,1,1.08-1,3.1,3.1,0,0,1,1.52-.36Zm8.38,8.15a4.28,4.28,0,0,1-2.1-.5,3.36,3.36,0,0,1-1.4-1.42,4.63,4.63,0,0,1-.5-2.16,4.45,4.45,0,0,1,.5-2.15,3.36,3.36,0,0,1,1.4-1.42,4.64,4.64,0,0,1,4.2,0,3.36,3.36,0,0,1,1.4,1.42,5.08,5.08,0,0,1,0,4.31,3.36,3.36,0,0,1-1.4,1.42,4.26,4.26,0,0,1-2.1.48Zm0-1.55a1.81,1.81,0,0,0,1.49-.64,3.74,3.74,0,0,0,0-3.77,1.77,1.77,0,0,0-1.47-.65,1.79,1.79,0,0,0-1.48.65,2.92,2.92,0,0,0-.52,1.88,3,3,0,0,0,.51,1.89,1.79,1.79,0,0,0,1.45.62Zm13.2-9.86V477h-2v-1.26a2.53,2.53,0,0,1-1,1,3,3,0,0,1-1.51.37,3.27,3.27,0,0,1-1.8-.51,3.46,3.46,0,0,1-1.23-1.45,5.14,5.14,0,0,1-.44-2.15,5.05,5.05,0,0,1,.44-2.13,3.23,3.23,0,0,1,3-1.91,3,3,0,0,1,1.51.36,2.3,2.3,0,0,1,1,1v-4.61Zm-4,9.86a1.8,1.8,0,0,0,1.48-.66,3.64,3.64,0,0,0,0-3.74,1.78,1.78,0,0,0-1.46-.64,1.81,1.81,0,0,0-1.49.64,2.81,2.81,0,0,0-.53,1.84,3,3,0,0,0,.53,1.88,1.76,1.76,0,0,0,1.47.68Zm12.91-2.13H959.5a2.47,2.47,0,0,0,.66,1.61,2.22,2.22,0,0,0,1.6.53,3.78,3.78,0,0,0,2.37-.83l.57,1.38a4.45,4.45,0,0,1-1.36.72,5.25,5.25,0,0,1-1.66.27,4.14,4.14,0,0,1-3-1.09,4,4,0,0,1-1.11-3,4.45,4.45,0,0,1,.48-2.12,3.47,3.47,0,0,1,1.35-1.44,3.7,3.7,0,0,1,2-.52,3.28,3.28,0,0,1,2.56,1,4.16,4.16,0,0,1,.93,2.87Zm-3.44-3.06a1.73,1.73,0,0,0-1.29.51,2.62,2.62,0,0,0-.6,1.48h3.62a2.27,2.27,0,0,0-.48-1.48,1.56,1.56,0,0,0-1.25-.51Zm17.07-.27v1.41h-7.8v-1.41Zm0,3.2v1.41h-7.8v-1.41ZM989.28,469a2.64,2.64,0,0,1,2.1.8,3.73,3.73,0,0,1,.68,2.42V477h-2v-4.69a2.08,2.08,0,0,0-.34-1.33,1.37,1.37,0,0,0-1.08-.41,1.78,1.78,0,0,0-1.38.54,2,2,0,0,0-.52,1.46V477h-2v-7.82h2v1.16a2.71,2.71,0,0,1,1.07-1,3.1,3.1,0,0,1,1.52-.36Zm12,.2V477h-1.95v-1.2a2.53,2.53,0,0,1-1,1,2.89,2.89,0,0,1-1.41.35q-2.88,0-2.88-3.23V469.2h2v4.73a1.85,1.85,0,0,0,.33,1.23,1.3,1.3,0,0,0,1.06.4,1.74,1.74,0,0,0,1.34-.55,2.11,2.11,0,0,0,.5-1.46V469.2Zm2.08,7.82v-11.3h2V477Zm4.06,0v-11.3h2V477Z"/><path d="M350,352H178V290H350Zm-2-60H180v58H348Z"/><path d="M350,691H178V629H350Zm-2-60H180v58H348Z"/><path d="M693,352H521V290H693Zm-2-60H523v58H691Z"/><path d="M693,691H521V629H693Zm-2-60H523v58H691Z"/><path d="M1036,352H864V290h172Zm-2-60H866v58h168Z"/><path d="M1036,691H864V629h172Zm-2-60H866v58h168Z"/><path d="M373,528H155V266H373Zm-2-260H157V526H371Z"/><path d="M373,867H155V605H373Zm-2-260H157V865H371Z"/><path d="M716,528H498V266H716Zm-2-260H500V526H714Z"/><path d="M716,867H498V605H716Zm-2-260H500V865H714Z"/><path d="M1059,528H841V266h218Zm-2-260H843V526h214Z"/><path d="M1059,867H841V605h218Zm-2-260H843V865h214Z"/><path d="M350,426H178V364H350Zm-2-60H180v58H348Z"/><path d="M350,765H178V703H350Zm-2-60H180v58H348Z"/><path d="M693,426H521V364H693Zm-2-60H523v58H691Z"/><path d="M693,765H521V703H693Zm-2-60H523v58H691Z"/><path d="M1036,426H864V364h172Zm-2-60H866v58h168Z"/><path d="M1036,765H864V703h172Zm-2-60H866v58h168Z"/><path d="M350,502H178V440H350Zm-2-60H180v58H348Z"/><path d="M693,502H521V440H693Zm-2-60H523v58H691Z"/><path d="M1036,502H864V440h172Zm-2-60H866v58h168Z"/><path d="M198.54,804.72h1.93V816h-1.55l-6-7.87V816H191V804.72h1.54l6,7.86Zm11.05,7.73h-5.33a2.47,2.47,0,0,0,.66,1.61,2.22,2.22,0,0,0,1.6.53,3.78,3.78,0,0,0,2.37-.83l.57,1.38a4.45,4.45,0,0,1-1.36.72,5.25,5.25,0,0,1-1.66.27,4.14,4.14,0,0,1-3-1.09,4,4,0,0,1-1.11-3,4.45,4.45,0,0,1,.48-2.12,3.47,3.47,0,0,1,1.35-1.44,3.7,3.7,0,0,1,2-.52,3.28,3.28,0,0,1,2.56,1,4.16,4.16,0,0,1,.93,2.87Zm-3.44-3.06a1.73,1.73,0,0,0-1.29.51,2.62,2.62,0,0,0-.6,1.48h3.62a2.27,2.27,0,0,0-.48-1.48,1.56,1.56,0,0,0-1.25-.51Zm9.44,2.58,3.3,4h-2.37l-2.08-2.61L212.38,816H210l3.28-4-3.11-3.79h2.39l1.87,2.38,1.87-2.38h2.39Zm8.15,2.65h.73l-.09,1.48a8.65,8.65,0,0,1-.88,0,3.42,3.42,0,0,1-2.44-.76,3,3,0,0,1-.78-2.26v-3.41h-1.5v-1.5h1.5v-2.34h2v2.34h2.06v1.5h-2.06v3.38c0,1,.49,1.56,1.46,1.56Zm13.9-5.5v1.41h-7.81v-1.41Zm0,3.2v1.41h-7.81v-1.41Zm6.45-7.6H249a4.08,4.08,0,0,1,2.81.9,3.69,3.69,0,0,1,0,5.08,4,4,0,0,1-2.81.92h-2.87V816h-2.06Zm4.67,5.31c1.42,0,2.13-.62,2.13-1.85a1.75,1.75,0,0,0-.53-1.4,2.36,2.36,0,0,0-1.6-.46h-2.61V810Zm12.58,2.42H256a2.41,2.41,0,0,0,.65,1.61,2.22,2.22,0,0,0,1.6.53,3.78,3.78,0,0,0,2.37-.83l.58,1.38a4.5,4.5,0,0,1-1.37.72,5.25,5.25,0,0,1-1.66.27,4.14,4.14,0,0,1-3-1.09,4,4,0,0,1-1.11-3,4.45,4.45,0,0,1,.48-2.12,3.47,3.47,0,0,1,1.35-1.44,3.7,3.7,0,0,1,2-.52,3.25,3.25,0,0,1,2.55,1,4.16,4.16,0,0,1,.94,2.87Zm-3.44-3.06a1.7,1.7,0,0,0-1.29.51,2.44,2.44,0,0,0-.6,1.48h3.61a2.27,2.27,0,0,0-.48-1.48,1.53,1.53,0,0,0-1.24-.51Zm9.61-1.41a2.64,2.64,0,0,1,2.1.8,3.68,3.68,0,0,1,.69,2.42V816h-2v-4.69A2.07,2.07,0,0,0,268,810a1.37,1.37,0,0,0-1.08-.41,1.82,1.82,0,0,0-1.38.54,2,2,0,0,0-.52,1.46V816h-2v-7.82h2v1.16a2.71,2.71,0,0,1,1.07-1,3.21,3.21,0,0,1,1.52-.36Zm9.36,0a2.64,2.64,0,0,1,2.1.8,3.68,3.68,0,0,1,.69,2.42V816h-2v-4.69a2.09,2.09,0,0,0-.35-1.33,1.37,1.37,0,0,0-1.08-.41,1.82,1.82,0,0,0-1.38.54,2,2,0,0,0-.52,1.46V816h-2v-7.82h1.95v1.16a2.71,2.71,0,0,1,1.07-1,3.21,3.21,0,0,1,1.52-.36ZM290,816.14a8,8,0,0,1-2.43-.35,5.43,5.43,0,0,1-1.92-1l.69-1.5a5.69,5.69,0,0,0,1.72.91,6.46,6.46,0,0,0,2,.29,3.32,3.32,0,0,0,1.8-.41,1.31,1.31,0,0,0,.63-1.15,1.07,1.07,0,0,0-.58-1,6.69,6.69,0,0,0-1.68-.58l-.27-.06a10.76,10.76,0,0,1-2.28-.71,3.13,3.13,0,0,1-1.33-1,2.69,2.69,0,0,1-.45-1.58,3,3,0,0,1,.54-1.78A3.66,3.66,0,0,1,288,805a5.44,5.44,0,0,1,2.29-.44,7.21,7.21,0,0,1,2.25.36,4.68,4.68,0,0,1,1.76,1l-.68,1.5a5.25,5.25,0,0,0-3.33-1.2,3,3,0,0,0-1.72.44,1.41,1.41,0,0,0-.63,1.23,1.12,1.12,0,0,0,.56,1,5.65,5.65,0,0,0,1.64.59l.26.06a13.4,13.4,0,0,1,2.31.71,3.54,3.54,0,0,1,1.36,1,2.42,2.42,0,0,1,.47,1.54,3,3,0,0,1-.53,1.77,3.52,3.52,0,0,1-1.55,1.17,6.55,6.55,0,0,1-2.4.4Zm10.21-1.52H301l-.1,1.48a6.49,6.49,0,0,1-.88,0,3.35,3.35,0,0,1-2.43-.76,3,3,0,0,1-.78-2.26v-3.41h-1.51v-1.5h1.51v-2.34h2v2.34h2.06v1.5h-2.06v3.38c0,1,.48,1.56,1.45,1.56ZM305.5,808a2.84,2.84,0,0,1,3.24,2.39,2.6,2.6,0,0,1,0,.88V816h-1.9v-1.2a2,2,0,0,1-.86,1,2.57,2.57,0,0,1-1.35.35,3,3,0,0,1-1.42-.32,2.65,2.65,0,0,1-1-.88,2.15,2.15,0,0,1-.37-1.25,2,2,0,0,1,.44-1.36,2.68,2.68,0,0,1,1.43-.72,12,12,0,0,1,2.4-.22h.74V811a1.59,1.59,0,0,0-.34-1.15,1.55,1.55,0,0,0-1.15-.36,4.43,4.43,0,0,0-1.3.22,6.45,6.45,0,0,0-1.34.6l-.56-1.38a6.2,6.2,0,0,1,1.59-.68,5.84,5.84,0,0,1,1.76-.28Zm-.47,6.71a1.71,1.71,0,0,0,1.31-.54,2,2,0,0,0,.5-1.38v-.34h-.29a10.21,10.21,0,0,0-1.66.1,1.54,1.54,0,0,0-.85.33.85.85,0,0,0-.26.66,1.07,1.07,0,0,0,.36.84,1.26,1.26,0,0,0,.89.33Zm9.75-.07h.73l-.09,1.48a8.65,8.65,0,0,1-.88,0,3.42,3.42,0,0,1-2.44-.76,3,3,0,0,1-.78-2.26v-3.41h-1.5v-1.5h1.5V805.9h2v2.34h2.06v1.5h-2.06v3.38c0,1,.49,1.56,1.46,1.56Zm1.9,1.38V808.2h2V816Zm-.11-11.46h2.21v2h-2.21Zm7.74,11.59a4.28,4.28,0,0,1-2.1-.5,3.42,3.42,0,0,1-1.4-1.42,4.63,4.63,0,0,1-.5-2.16,4.45,4.45,0,0,1,.5-2.15,3.42,3.42,0,0,1,1.4-1.42,4.28,4.28,0,0,1,2.1-.5,4.43,4.43,0,0,1,2.11.5,3.4,3.4,0,0,1,1.39,1.42,4.58,4.58,0,0,1,.49,2.15,4.75,4.75,0,0,1-.49,2.16,3.4,3.4,0,0,1-1.39,1.42,4.41,4.41,0,0,1-2.11.48Zm0-1.55a1.78,1.78,0,0,0,1.48-.64,3.69,3.69,0,0,0,0-3.77,1.77,1.77,0,0,0-1.47-.65,1.79,1.79,0,0,0-1.48.65,3.69,3.69,0,0,0,0,3.77,1.81,1.81,0,0,0,1.46.62ZM334.5,808a2.6,2.6,0,0,1,2.09.8,3.62,3.62,0,0,1,.69,2.42V816h-2v-4.69a2.08,2.08,0,0,0-.34-1.33,1.37,1.37,0,0,0-1.08-.41,1.85,1.85,0,0,0-1.39.54,2.05,2.05,0,0,0-.52,1.46V816h-2v-7.82h2v1.16a2.71,2.71,0,0,1,1.07-1,3.1,3.1,0,0,1,1.52-.36Z"/><path d="M561.53,804.72h1.93V816h-1.55l-6-7.87V816H554V804.72h1.54l6,7.86Zm11.05,7.73h-5.32a2.41,2.41,0,0,0,.65,1.61,2.22,2.22,0,0,0,1.6.53,3.78,3.78,0,0,0,2.37-.83l.58,1.38a4.73,4.73,0,0,1-1.37.72,5.25,5.25,0,0,1-1.66.27,4.14,4.14,0,0,1-3-1.09,4,4,0,0,1-1.11-3,4.45,4.45,0,0,1,.48-2.12,3.47,3.47,0,0,1,1.35-1.44,3.7,3.7,0,0,1,2-.52,3.3,3.3,0,0,1,2.55,1,4.16,4.16,0,0,1,.93,2.87Zm-3.44-3.06a1.66,1.66,0,0,0-1.28.51,2.44,2.44,0,0,0-.6,1.48h3.61a2.27,2.27,0,0,0-.48-1.48A1.56,1.56,0,0,0,569.14,809.39Zm9.44,2.58,3.3,4h-2.37l-2.08-2.61L575.37,816H573l3.28-4-3.1-3.79h2.38l1.87,2.38,1.87-2.38h2.39Zm8.15,2.65h.73l-.09,1.48a8.65,8.65,0,0,1-.88,0,3.35,3.35,0,0,1-2.43-.76,3,3,0,0,1-.79-2.26v-3.41h-1.5v-1.5h1.5v-2.34h2v2.34h2.07v1.5h-2.07v3.38c0,1,.49,1.56,1.46,1.56Zm13.9-5.5v1.41h-7.81v-1.41Zm0,3.2v1.41h-7.81v-1.41Zm14,2V816H607v-1.52l3.84-4.13a6.3,6.3,0,0,0,1-1.35,2.86,2.86,0,0,0,.31-1.22,1.48,1.48,0,0,0-.44-1.16,1.86,1.86,0,0,0-1.29-.4,5.05,5.05,0,0,0-3.06,1.17l-.68-1.5a4.92,4.92,0,0,1,1.72-.95,6.26,6.26,0,0,1,2.1-.36,4,4,0,0,1,2.69.83,2.79,2.79,0,0,1,1,2.24,4.16,4.16,0,0,1-.42,1.83,8,8,0,0,1-1.4,1.91l-2.77,3Zm7.4-4.13a2.61,2.61,0,0,1,1.53,1,3.09,3.09,0,0,1-.54,4.09,4.6,4.6,0,0,1-2.94.86,7,7,0,0,1-2.18-.35,5.3,5.3,0,0,1-1.74-1l.69-1.51a5,5,0,0,0,3.15,1.17,2.51,2.51,0,0,0,1.6-.42,1.57,1.57,0,0,0,.53-1.29,1.47,1.47,0,0,0-.54-1.26,2.73,2.73,0,0,0-1.65-.41h-1.49v-1.63h1.22q2.19,0,2.19-1.65a1.55,1.55,0,0,0-.47-1.18,2,2,0,0,0-1.34-.42,4.25,4.25,0,0,0-1.53.3,6.31,6.31,0,0,0-1.51.87l-.69-1.5a4.8,4.8,0,0,1,1.72-1,6.49,6.49,0,0,1,2.14-.35,4.06,4.06,0,0,1,2.65.8,2.65,2.65,0,0,1,1,2.19,3,3,0,0,1-.49,1.64,2.65,2.65,0,0,1-1.31,1Zm9.25-.56-1.17.11c-1.32.14-2,.81-2,2V816h-2v-7.82H628v1.37a2.67,2.67,0,0,1,2.52-1.53h.6Zm8.53-4.93V816h-2v-1.26a2.67,2.67,0,0,1-1,1,3,3,0,0,1-1.51.37,3.27,3.27,0,0,1-1.8-.51,3.46,3.46,0,0,1-1.23-1.45,4.82,4.82,0,0,1-.44-2.15,4.77,4.77,0,0,1,.44-2.13,3.23,3.23,0,0,1,3-1.91,3,3,0,0,1,1.5.36,2.3,2.3,0,0,1,1,1v-4.61Zm-4,9.86a1.8,1.8,0,0,0,1.48-.66,3.64,3.64,0,0,0,0-3.74,1.8,1.8,0,0,0-1.47-.64,1.84,1.84,0,0,0-1.49.64,2.8,2.8,0,0,0-.52,1.84,3,3,0,0,0,.52,1.88,1.8,1.8,0,0,0,1.49.7Zm14.38,1.56a8,8,0,0,1-2.43-.35,5.43,5.43,0,0,1-1.92-1l.69-1.5a5.69,5.69,0,0,0,1.72.91,6.46,6.46,0,0,0,2,.29,3.41,3.41,0,0,0,1.8-.41,1.31,1.31,0,0,0,.63-1.15,1.06,1.06,0,0,0-.59-1,6.69,6.69,0,0,0-1.68-.58l-.26-.06a10.85,10.85,0,0,1-2.29-.71,3.28,3.28,0,0,1-1.33-1,2.69,2.69,0,0,1-.44-1.58,3,3,0,0,1,.54-1.78,3.55,3.55,0,0,1,1.54-1.22,5.42,5.42,0,0,1,2.28-.44,7.22,7.22,0,0,1,2.26.36,5,5,0,0,1,1.76,1l-.69,1.5a5.19,5.19,0,0,0-3.33-1.2,3,3,0,0,0-1.72.44,1.41,1.41,0,0,0-.63,1.23,1.14,1.14,0,0,0,.56,1,5.71,5.71,0,0,0,1.65.59l.26.06a13.4,13.4,0,0,1,2.31.71,3.54,3.54,0,0,1,1.36,1,2.5,2.5,0,0,1,.47,1.54,3,3,0,0,1-.54,1.77,3.4,3.4,0,0,1-1.55,1.17,6.49,6.49,0,0,1-2.39.4Zm10.21-1.52h.73l-.09,1.48a8.65,8.65,0,0,1-.88,0,3.35,3.35,0,0,1-2.43-.76,3,3,0,0,1-.79-2.26V809.7h-1.5v-1.5H657v-2.34h2v2.34h2v1.5h-2v3.38c0,1,.49,1.56,1.46,1.56Z"/><path d="M918.86,804.72h1.93V816h-1.55l-6-7.87V816h-1.92V804.72h1.54l6,7.86Zm11,7.73h-5.33a2.47,2.47,0,0,0,.66,1.61,2.22,2.22,0,0,0,1.6.53,3.78,3.78,0,0,0,2.37-.83l.57,1.38a4.45,4.45,0,0,1-1.36.72,5.25,5.25,0,0,1-1.66.27,4.14,4.14,0,0,1-3-1.09,4,4,0,0,1-1.11-3,4.45,4.45,0,0,1,.48-2.12,3.47,3.47,0,0,1,1.35-1.44,3.7,3.7,0,0,1,2-.52,3.28,3.28,0,0,1,2.56,1,4.16,4.16,0,0,1,.93,2.87Zm-3.44-3.06a1.73,1.73,0,0,0-1.29.51,2.62,2.62,0,0,0-.6,1.48h3.62a2.27,2.27,0,0,0-.48-1.48,1.56,1.56,0,0,0-1.25-.51Zm9.44,2.58,3.3,4h-2.37l-2.08-2.61-2,2.64h-2.37l3.28-4-3.11-3.79h2.39l1.87,2.38,1.87-2.38H939Zm8.15,2.65h.73l-.09,1.48a8.65,8.65,0,0,1-.88,0,3.42,3.42,0,0,1-2.44-.76,3,3,0,0,1-.78-2.26v-3.41h-1.5v-1.5h1.5v-2.34h2v2.34h2.06v1.5h-2v3.38c0,1,.49,1.56,1.46,1.56Zm13.9-5.5v1.41H950.1v-1.41Zm0,3.2v1.41H950.1v-1.41ZM968.78,808a2.64,2.64,0,0,1,2.09.8,3.62,3.62,0,0,1,.69,2.42V816h-2v-4.69a2.08,2.08,0,0,0-.34-1.33,1.37,1.37,0,0,0-1.08-.41,1.85,1.85,0,0,0-1.39.54,2.05,2.05,0,0,0-.52,1.46V816h-2v-7.82h1.95v1.16a2.73,2.73,0,0,1,1.08-1,3.1,3.1,0,0,1,1.52-.36Zm12,.2V816h-2v-1.2a2.53,2.53,0,0,1-1,1,2.78,2.78,0,0,1-1.41.35q-2.88,0-2.88-3.23V808.2h2v4.73a1.92,1.92,0,0,0,.34,1.23,1.27,1.27,0,0,0,1.06.4,1.72,1.72,0,0,0,1.33-.55,2.06,2.06,0,0,0,.51-1.46V808.2Zm2.08,7.82v-11.3h2V816Zm4.06,0v-11.3h2V816Z"/><path d="M350,841H178V779H350Zm-2-60H180v58H348Z"/><path d="M693,841H521V779H693Zm-2-60H523v58H691Z"/><path d="M1036,841H864V779h172Zm-2-60H866v58h168Z"/><path class="cls-1" d="M484.62,465l14,7-14,7v-6H348v-2H484.62Z"/><path class="cls-1" d="M386,392v6H522.62v2H386v6l-14-7Z"/><path class="cls-1" d="M827.62,465l14,7-14,7v-6H691v-2H827.62Z"/><path class="cls-1" d="M729,392v6H865.62v2H729v6l-14-7Z"/><path class="cls-1" d="M484.62,804l14,7-14,7v-6H348v-2H484.62Z"/><path class="cls-1" d="M386,731v6H522.62v2H386v6l-14-7Z"/><path class="cls-1" d="M827.62,804l14,7-14,7v-6H691v-2H827.62Z"/><path class="cls-1" d="M729,731v6H865.62v2H729v6l-14-7Z"/><path d="M370.59,98.15H361v-28h9.6c9.16,0,14.52,5.68,14.52,14S379.75,98.15,370.59,98.15Zm-.2-23.23h-3.84V93.43h3.84c5.12,0,9-3,9-9.27s-3.88-9.24-9-9.24Z"/><path d="M387.27,89a9.8,9.8,0,1,1,10,9.64h-.16a9.53,9.53,0,0,1-9.8-9.26Zm5.2,0c0,2.84,1.88,5,4.6,5s4.56-2.16,4.56-5-1.88-5-4.56-5S392.47,86.12,392.47,89Z"/><path d="M409.91,91.43V79.84h5.2V90.47a3.52,3.52,0,0,0,7,.75,3.14,3.14,0,0,0,0-.75V79.84h5.16V91.43c0,3.84-3,7.2-8.68,7.2S409.91,95.27,409.91,91.43Z"/><path d="M436.71,98.15h-5.2v-28h5.2v9c0,1.2-.08,2.48-.08,3a6.57,6.57,0,0,1,5.8-2.84c5,0,8.88,4,8.88,9.63s-3.88,9.64-8.92,9.64a6.58,6.58,0,0,1-5.68-2.8ZM436.59,89a5.1,5.1,0,1,0,.05-.61c0,.2,0,.41,0,.61Z"/><path d="M459.83,98.15h-5.16v-28h5.16Z"/><path d="M470.11,98.15h-1.32l-6.28-18.31h5.8l3.88,13,3.92-13h5.64L474.43,101c-.92,2.68-2.36,4.12-5.72,4.12h-3.6v-4.36h2.56a1.92,1.92,0,0,0,2-1.44Z"/><path d="M492.15,98.15v-28h5.56V93.39h11.88v4.76Z"/><path d="M518.19,98.15H513V84.24h-2.56v-4.4h7.76Zm-2.84-28a3.35,3.35,0,0,1,3.36,3.34v0a3.34,3.34,0,1,1-3.36-3.35Z"/><path d="M533.27,79.36c4,0,6.8,2.52,6.8,6.8v12h-5.2V87.48a3,3,0,0,0-2.7-3.27,3,3,0,0,0-.42,0,5.08,5.08,0,0,0-3.88,2.08V98.15h-5.2V79.84h5.08v.72c0,.64-.08,1.44-.08,1.44A7.18,7.18,0,0,1,533.27,79.36Z"/><path d="M549.51,86.2h1.24l5-6.36H562l-7,8.39,7.28,9.92H556l-5.28-7.56h-1.24v7.56h-5.16v-28h5.16Z"/><path d="M581.67,90.51H568a4.35,4.35,0,0,0,7.88,1.8l5.4.56c-1.64,3.92-5.08,5.76-9.16,5.76A9.64,9.64,0,0,1,572,79.36c5,0,9.6,3.28,9.6,11ZM567.91,87h8.2a4,4,0,0,0-4-3.36A4.09,4.09,0,0,0,567.91,87Z"/><path d="M598.23,95.83a6.69,6.69,0,0,1-5.72,2.8c-5,0-8.88-4-8.88-9.64s3.8-9.63,8.84-9.63a6.65,6.65,0,0,1,5.84,2.84c0-.6-.08-2.12-.08-3.48V70.16h5.2v28h-5.2ZM589,89a4.69,4.69,0,1,0,9.36.61c0-.2,0-.41,0-.61a4.69,4.69,0,1,0-9.36-.61C589,88.59,589,88.8,589,89Z"/><path d="M616.59,98.15v-28h5.56V93.39H634v4.76Z"/><path d="M642.63,98.15h-5.2V84.24h-2.56v-4.4h7.76Zm-2.84-28a3.35,3.35,0,0,1,3.36,3.34v0a3.34,3.34,0,1,1-3.36-3.35Z"/><path d="M657.91,85.44a6.64,6.64,0,0,0-4.52-1.88c-1.36,0-1.84.68-1.84,1.24s.4,1.08,1.36,1.4l3,1c3.76,1.24,5,3.27,5,5.67,0,2.68-2.28,5.8-7.28,5.8a11.79,11.79,0,0,1-8.08-2.88l2.76-3.6a9.05,9.05,0,0,0,5.4,2.28c1.24,0,2-.64,2-1.36,0-.92-.6-1.32-2.08-1.76l-3.12-.92c-3-1-4.24-3-4.24-5.35,0-3,2.72-5.68,7.12-5.68a10.88,10.88,0,0,1,7.4,2.72Z"/><path d="M670.87,72.88v7h4v4.4h-4v8.27c0,1.16.92,1.32,1.72,1.32,1.32,0,2.4-.12,2.4-.12v4.44s-2.52.24-4,.24c-2.6,0-5.28-.44-5.28-4.12v-10h-2.88v-4.4h2.88v-7Z"/><path d="M708,75H692.67v6.56h8.92v4.76h-8.92v7.11H708v4.76H687.11v-28H708Z"/><path d="M715.59,89l-5.8-9.19h6L719,85.32l3.36-5.48h5.84l-5.8,9.08,5.88,9.23h-6L719,92.67l-3.2,5.48h-6Z"/><path d="M741.07,86c0-1.32-1-2.16-3-2.16a12.4,12.4,0,0,0-5.52,1.72l-2-3.92a15.69,15.69,0,0,1,7.84-2.24c4.16,0,8,1.92,8,6.76v12h-5.2V96.43a6.18,6.18,0,0,1-5.12,2.2c-3.88,0-6.4-2.76-6.4-5.76,0-3.47,2.56-5.63,6.64-5.63h3.6c.88,0,1.28-.4,1.28-1.08Zm0,5.63V90.27a2.28,2.28,0,0,1-1.6.4h-2c-1.64,0-2.6.72-2.6,2s1,2.16,2.6,2.16c1.92,0,3.6-1,3.6-3.24Z"/><path d="M774.62,87.4A2.91,2.91,0,0,0,772,84.21a3,3,0,0,0-.42,0,5,5,0,0,0-3.79,2.08V98.15h-5.2V87.4a2.91,2.91,0,0,0-2.58-3.19,3,3,0,0,0-.42,0,5,5,0,0,0-3.8,2.08V98.15h-5.2V79.84h5.08v.72c0,.64-.08,1.44-.08,1.44A7.1,7.1,0,0,1,761,79.36a6.09,6.09,0,0,1,5.88,3.32A7.34,7.34,0,0,1,773,79.36c4,0,6.76,2.52,6.76,6.8v12h-5.2Z"/><path d="M789.31,105.15h-5.2V79.84h5.2v.88c0,.88-.08,1.28-.08,1.48a6.57,6.57,0,0,1,5.8-2.84c5,0,8.87,4,8.87,9.63s-3.9,9.64-8.9,9.64a6.58,6.58,0,0,1-5.68-2.8ZM789.19,89a4.68,4.68,0,1,0,0-.43A3.09,3.09,0,0,0,789.19,89Z"/><path d="M812.43,98.15h-5.16v-28h5.16Z"/><path d="M834.86,90.51H821.23a4.35,4.35,0,0,0,7.88,1.8l5.39.56c-1.63,3.92-5.07,5.76-9.15,5.76a9.64,9.64,0,0,1-.08-19.27c5,0,9.59,3.28,9.59,11ZM821.11,87h8.2a4,4,0,0,0-4-3.36A4.09,4.09,0,0,0,821.11,87Z"/><path d="M336.13,135l-1.88,5.68h-1.47l5.54-16.09h1.77l5.56,16.09h-1.54L342.18,135Zm.4-1.24h5.24L339.19,126h-.07Z"/><path d="M356.86,138c0-1-.83-1.45-2.28-2l-.57-.2c-1.54-.55-2.58-1.34-2.58-2.81,0-1.68,1.5-2.73,3.47-2.73a5.13,5.13,0,0,1,3.29,1.17l-.76,1.06a4.55,4.55,0,0,0-2.57-1c-1.13,0-2,.58-2,1.45,0,.65.46,1.15,1.49,1.54l1.18.44c2,.76,2.76,1.61,2.76,3.1,0,1.31-1.13,2.95-3.73,2.95A6.06,6.06,0,0,1,351,139.7l.73-1a4.89,4.89,0,0,0,2.88,1.08C356,139.71,356.86,138.92,356.86,138Z"/><path d="M360.68,137.06v-6.53h1.4v6.39a3,3,0,0,0,5.89,0v-6.39h1.4v6.53c0,2.14-1.52,3.89-4.35,3.89S360.68,139.2,360.68,137.06Z"/><path d="M373.9,138.76v1.91h-1.4V124.58h1.4v7.93a4.34,4.34,0,0,1,3.91-2.25,5.35,5.35,0,0,1-.05,10.69A4.35,4.35,0,0,1,373.9,138.76Zm3.77-7.26a4.13,4.13,0,1,0,3.81,4.43c0-.11,0-.21,0-.32a3.87,3.87,0,0,0-3.62-4.1Z"/><path d="M397.66,130.53h1.51l-2.94,10.14h-1.91L391.75,132l-2.6,8.71h-1.91l-2.85-10.14H386l2.26,9,2.73-9h1.66l2.71,9Z"/><path d="M407.43,133.66c0-1.54-1.19-2.16-2.55-2.16a5.55,5.55,0,0,0-3.13,1.1l-.66-1.06a6.61,6.61,0,0,1,3.88-1.28c2.42,0,3.87,1.35,3.87,3.44v7h-1.41v-1.26a3.68,3.68,0,0,1-3.17,1.54c-2.21,0-3.68-1.29-3.68-3.11s1.33-3,3.43-3h2.43c.72,0,1-.37,1-.92Zm0,3.4v-1.4a1.78,1.78,0,0,1-1.31.39h-1.88c-1.5,0-2.19.74-2.19,1.79,0,.88.67,1.91,2.37,1.91a2.7,2.7,0,0,0,3-2.39C407.42,137.26,407.43,137.16,407.43,137.06Z"/><path d="M415.07,140.67h-.51l-3.77-10.14h1.57l3.17,9,3.27-9h1.49l-4.53,11.94c-.55,1.44-1.17,2.23-2.9,2.23h-1.17v-1.18h1.15c1,0,1.36-.53,1.75-1.56Z"/><path d="M428,140.67h-1.4V124.58H428Z"/><path d="M433,140.67h-1.4v-9H430V130.5h3Zm-.8-15a1.22,1.22,0,1,1-1.22,1.22,1.22,1.22,0,0,1,1.22-1.22h0Z"/><path d="M443.57,134a2.33,2.33,0,0,0-2.15-2.5h-.36a4.57,4.57,0,0,0-3.38,1.79v7.38h-1.4V130.53h1.38V132a4.6,4.6,0,0,1,3.63-1.72,3.38,3.38,0,0,1,3.68,3.05,3.21,3.21,0,0,1,0,.62v6.74h-1.4Z"/><path d="M448.86,136a3.72,3.72,0,0,0,3.7,3.68,3.52,3.52,0,0,0,3.15-1.75h1.63a5.19,5.19,0,0,1-4.78,3,5.35,5.35,0,0,1,0-10.69c2.64,0,5.1,1.86,5.1,5.72v0Zm0-1.15H456a3.56,3.56,0,0,0-3.54-3.38,3.63,3.63,0,0,0-3.6,3.41Z"/><path d="M466.41,140.67H465v-9h-1.61V130.5h3Zm-.81-15a1.22,1.22,0,1,1-1.22,1.22,1.22,1.22,0,0,1,1.22-1.22h0Z"/><path d="M474.59,138c0-1-.82-1.45-2.27-2l-.58-.2c-1.54-.55-2.57-1.34-2.57-2.81,0-1.68,1.49-2.73,3.47-2.73a5.19,5.19,0,0,1,3.29,1.17l-.76,1.06a4.61,4.61,0,0,0-2.58-1c-1.12,0-2,.58-2,1.45,0,.65.46,1.15,1.5,1.54l1.17.44c2,.76,2.76,1.61,2.76,3.1,0,1.31-1.12,2.95-3.72,2.95a6.06,6.06,0,0,1-3.57-1.27l.74-1a4.86,4.86,0,0,0,2.87,1.08C473.74,139.71,474.59,138.92,474.59,138Z"/><path d="M489.15,133.66c0-1.54-1.19-2.16-2.55-2.16a5.55,5.55,0,0,0-3.13,1.1l-.66-1.06a6.61,6.61,0,0,1,3.88-1.28c2.42,0,3.86,1.35,3.86,3.44v7h-1.4v-1.26A3.67,3.67,0,0,1,486,141c-2.21,0-3.68-1.29-3.68-3.11s1.33-3,3.43-3h2.43c.72,0,1-.37,1-.92Zm0,3.4v-1.4a1.78,1.78,0,0,1-1.31.39H486c-1.5,0-2.19.74-2.19,1.79,0,.88.67,1.91,2.37,1.91a2.72,2.72,0,0,0,3-2.44A2.09,2.09,0,0,0,489.15,137.06Z"/><path d="M503.46,131.77h-.69c-1.79,0-3.08.83-3.08,3.22v5.68h-1.38V130.53h1.33v1.73a3.18,3.18,0,0,1,3.06-1.91h.76Z"/><path d="M506,136a3.72,3.72,0,0,0,3.7,3.68,3.52,3.52,0,0,0,3.15-1.75h1.63a5.19,5.19,0,0,1-4.78,3,5.35,5.35,0,0,1,0-10.69c2.65,0,5.11,1.86,5.11,5.72v0Zm0-1.15h7.18a3.57,3.57,0,0,0-3.55-3.38,3.62,3.62,0,0,0-3.55,3.41Z"/><path d="M523.22,133.66c0-1.54-1.2-2.16-2.56-2.16a5.49,5.49,0,0,0-3.12,1.1l-.67-1.06a6.61,6.61,0,0,1,3.88-1.28c2.42,0,3.87,1.35,3.87,3.44v7h-1.4v-1.26A3.72,3.72,0,0,1,520,141c-2.21,0-3.68-1.29-3.68-3.11s1.34-3,3.43-3h2.44c.71,0,1-.37,1-.92Zm0,3.4v-1.4a1.8,1.8,0,0,1-1.32.39H520c-1.5,0-2.19.74-2.19,1.79,0,.88.67,1.91,2.37,1.91a2.72,2.72,0,0,0,3-2.38C523.21,137.27,523.22,137.16,523.22,137.06Z"/><path d="M529.17,140.67h-1.4V124.58h1.4Z"/><path d="M531.27,133.7h4.8v1.18h-4.8Z"/><path d="M550.61,130.53h1.51l-2.94,10.14h-1.91L544.7,132l-2.6,8.71h-1.91l-2.85-10.14h1.56l2.26,9,2.73-9h1.66l2.71,9Z"/><path d="M558.8,130.26a5.35,5.35,0,1,1-5.25,5.45v-.1a5.21,5.21,0,0,1,5.07-5.35Zm0,1.24a4.12,4.12,0,1,0,3.83,4.39,2.62,2.62,0,0,0,0-.28,3.85,3.85,0,0,0-3.58-4.1Z"/><path d="M571.74,131.77h-.68c-1.8,0-3.09.83-3.09,3.22v5.68h-1.38V130.53h1.34v1.73a3.17,3.17,0,0,1,3.06-1.91h.75Z"/><path d="M575.26,140.67h-1.4V124.58h1.4Z"/><path d="M586.83,132.51v-7.93h1.4v16.09h-1.4v-1.93A4.32,4.32,0,0,1,583,141a5.35,5.35,0,0,1,0-10.69A4.34,4.34,0,0,1,586.83,132.51Zm-3.77,7.22a4.13,4.13,0,1,0-3.81-4.43c0,.1,0,.21,0,.31a3.87,3.87,0,0,0,3.61,4.11Z"/><path d="M596.84,136a3.72,3.72,0,0,0,3.7,3.68,3.52,3.52,0,0,0,3.15-1.75h1.63a5.19,5.19,0,0,1-4.78,3,5.35,5.35,0,0,1,0-10.69c2.64,0,5.1,1.86,5.1,5.72v0Zm0-1.15H604a3.56,3.56,0,0,0-3.54-3.38,3.63,3.63,0,0,0-3.6,3.41Z"/><path d="M610.46,135.66l-3.87-5.13h1.68l3,4.12,3.06-4.12h1.58L612,135.61l3.86,5.06h-1.7l-3-4-3,4h-1.68Z"/><path d="M623.91,133.66c0-1.54-1.2-2.16-2.55-2.16a5.55,5.55,0,0,0-3.13,1.1l-.67-1.06a6.64,6.64,0,0,1,3.89-1.28c2.41,0,3.86,1.35,3.86,3.44v7h-1.4v-1.26a3.72,3.72,0,0,1-3.18,1.54c-2.2,0-3.67-1.29-3.67-3.11s1.33-3,3.42-3h2.44c.71,0,1-.37,1-.92Zm0,3.4v-1.4a1.78,1.78,0,0,1-1.31.39h-1.89c-1.49,0-2.18.74-2.18,1.79,0,.88.66,1.91,2.37,1.91a2.7,2.7,0,0,0,3-2.39C623.9,137.26,623.91,137.16,623.91,137.06Z"/><path d="M636.92,134.33v6.34h-1.4v-6.74a2.24,2.24,0,0,0-2-2.43h-.4a4.34,4.34,0,0,0-3.24,1.79v7.38h-1.41V130.53h1.38V132a4.33,4.33,0,0,1,3.45-1.72,3.27,3.27,0,0,1,3.31,2,4.69,4.69,0,0,1,3.77-2,3.31,3.31,0,0,1,3.62,3,3.28,3.28,0,0,1,0,.7v6.74h-1.4V134a2.24,2.24,0,0,0-2-2.43,2.41,2.41,0,0,0-.38,0,4.48,4.48,0,0,0-3.31,1.84C636.9,133.66,636.92,134,636.92,134.33Z"/><path d="M648.54,138.76v5.94h-1.4V130.53h1.4v2a4.34,4.34,0,0,1,3.91-2.25A5.36,5.36,0,0,1,652.4,141,4.34,4.34,0,0,1,648.54,138.76Zm3.77-7.26a4.13,4.13,0,1,0,3.81,4.43c0-.11,0-.21,0-.32a3.87,3.87,0,0,0-3.62-4.1Z"/><path d="M661.51,140.67h-1.4V124.58h1.4Z"/><path d="M665.51,136a3.74,3.74,0,0,0,3.71,3.68,3.52,3.52,0,0,0,3.15-1.75H674a5.19,5.19,0,0,1-4.78,3,5.35,5.35,0,0,1,0-10.69c2.65,0,5.11,1.86,5.11,5.72v0Zm0-1.15h7.18a3.57,3.57,0,0,0-3.55-3.38,3.63,3.63,0,0,0-3.58,3.41Z"/><path d="M685.8,130.26a5.35,5.35,0,1,1-5.24,5.46v-.11a5.21,5.21,0,0,1,5.07-5.35Zm0,1.24a4.12,4.12,0,1,0,3.83,4.39,2.62,2.62,0,0,0,0-.28,3.85,3.85,0,0,0-3.6-4.1Z"/><path d="M694.17,126.9a2.15,2.15,0,0,1,2.3-2.42,9.15,9.15,0,0,1,1.38.1v1.21a8.27,8.27,0,0,0-1-.11c-.9,0-1.26.37-1.26,1.38v3.47h2.06v1.17h-2.06v9h-1.41v-9h-1.75v-1.17h1.75Z"/><path d="M710.09,133.66c0-1.54-1.2-2.16-2.55-2.16a5.55,5.55,0,0,0-3.13,1.1l-.67-1.06a6.64,6.64,0,0,1,3.89-1.28c2.41,0,3.86,1.35,3.86,3.44v7h-1.4v-1.26a3.72,3.72,0,0,1-3.18,1.54c-2.2,0-3.67-1.29-3.67-3.11s1.33-3,3.42-3h2.44c.71,0,1-.37,1-.92Zm0,3.4v-1.4a1.78,1.78,0,0,1-1.31.39h-1.89c-1.49,0-2.18.74-2.18,1.79,0,.88.66,1.91,2.37,1.91a2.7,2.7,0,0,0,3-2.39C710.08,137.26,710.09,137.16,710.09,137.06Z"/><path d="M727.54,132.51v-7.93H729v16.09h-1.41v-1.93a4.33,4.33,0,0,1-3.86,2.21,5.35,5.35,0,0,1,0-10.69A4.33,4.33,0,0,1,727.54,132.51Zm-3.77,7.22a4.13,4.13,0,1,0-3.8-4.44c0,.11,0,.21,0,.32a3.87,3.87,0,0,0,3.61,4.11Z"/><path d="M736.72,130.26a5.35,5.35,0,1,1-5.24,5.46v-.11a5.21,5.21,0,0,1,5.07-5.35Zm0,1.24a4.12,4.12,0,1,0,3.83,4.39,2.62,2.62,0,0,0,0-.28,3.85,3.85,0,0,0-3.6-4.1Z"/><path d="M744.38,137.06v-6.53h1.4v6.39a3,3,0,0,0,5.89,0v-6.39h1.4v6.53c0,2.14-1.52,3.89-4.34,3.89S744.38,139.2,744.38,137.06Z"/><path d="M757.6,138.76v1.91h-1.4V124.58h1.4v7.93a4.36,4.36,0,0,1,3.91-2.25,5.35,5.35,0,0,1,0,10.69A4.34,4.34,0,0,1,757.6,138.76Zm3.78-7.26a4.13,4.13,0,1,0,3.8,4.44c0-.11,0-.22,0-.33a3.87,3.87,0,0,0-3.62-4.1Z"/><path d="M770.58,140.67h-1.41V124.58h1.41Z"/><path d="M777.13,140.67h-.51l-3.77-10.14h1.57l3.17,9,3.27-9h1.49l-4.53,11.94c-.55,1.44-1.17,2.23-2.9,2.23h-1.17v-1.18h1.15c1,0,1.36-.53,1.75-1.56Z"/><path d="M790,140.67h-1.4V124.58H790Z"/><path d="M795.07,140.67h-1.4v-9h-1.61V130.5h3Zm-.8-15a1.22,1.22,0,1,1-1.22,1.22A1.22,1.22,0,0,1,794.27,125.67Z"/><path d="M805.63,134a2.33,2.33,0,0,0-2.15-2.5h-.36a4.57,4.57,0,0,0-3.38,1.79v7.38h-1.4V130.53h1.38V132a4.6,4.6,0,0,1,3.63-1.72,3.38,3.38,0,0,1,3.68,3.05,3.21,3.21,0,0,1,0,.62v6.74h-1.4Z"/><path d="M811.58,134.46h1.32l3.9-3.93h1.89L814,135.06l4.92,5.61h-1.86l-4.25-5h-1.25v5h-1.4V124.58h1.4Z"/><path d="M821,136a3.74,3.74,0,0,0,3.71,3.68,3.52,3.52,0,0,0,3.15-1.75h1.63a5.19,5.19,0,0,1-4.78,3,5.35,5.35,0,0,1,0-10.69c2.65,0,5.11,1.86,5.11,5.72v0Zm0-1.15h7.18a3.57,3.57,0,0,0-3.55-3.38,3.62,3.62,0,0,0-3.57,3.41Z"/><path d="M840.49,132.51v-7.93h1.41v16.09h-1.41v-1.93a4.31,4.31,0,0,1-3.86,2.21,5.35,5.35,0,0,1,0-10.69A4.33,4.33,0,0,1,840.49,132.51Zm-3.77,7.22a4.13,4.13,0,1,0-3.8-4.44c0,.11,0,.21,0,.32a3.87,3.87,0,0,0,3.61,4.11Z"/><path d="M851.17,140.67h-1.41V124.58h1.41Z"/><path d="M856.2,140.67h-1.4v-9h-1.61V130.5h3Zm-.8-15a1.22,1.22,0,1,1-1.22,1.22h0a1.23,1.23,0,0,1,1.2-1.26h0Z"/><path d="M864.39,138c0-1-.83-1.45-2.27-2l-.58-.2c-1.54-.55-2.54-1.34-2.54-2.8,0-1.68,1.5-2.73,3.48-2.73a5.19,5.19,0,0,1,3.29,1.17L865,132.5a4.61,4.61,0,0,0-2.58-1c-1.13,0-2,.58-2,1.45,0,.65.46,1.15,1.5,1.54l1.17.44c2,.76,2.76,1.61,2.76,3.1,0,1.31-1.13,2.95-3.72,2.95a6.06,6.06,0,0,1-3.57-1.27l.74-1.05a4.86,4.86,0,0,0,2.87,1.08C863.54,139.71,864.39,138.92,864.39,138Z"/><path d="M870.33,126.25v4.28h2.5v1.17h-2.5v6.88c0,.94.66,1,1.44,1a7.55,7.55,0,0,0,1.06-.07v1.17a13.6,13.6,0,0,1-1.56.09c-1.06,0-2.35-.27-2.35-2.16v-6.9h-1.74v-1.17h1.74v-4.28Z"/><path d="M876.15,138.17a1.39,1.39,0,1,1-1.38,1.4,1.39,1.39,0,0,1,1.38-1.4Z"/><path class="cls-1" d="M235.83,239a3.83,3.83,0,0,1,4.09,3.55,4.69,4.69,0,0,1,0,.53v7.2h-3.13v-6.41a1.77,1.77,0,0,0-1.52-2,2,2,0,0,0-.35,0,3,3,0,0,0-2.33,1.25v7.12h-3.12v-11h3.05v.43c0,.39-.05.87-.05.87A4.31,4.31,0,0,1,235.83,239Z"/><path class="cls-1" d="M241.79,244.8a5.88,5.88,0,1,1,6,5.78h-.1a5.72,5.72,0,0,1-5.88-5.56Zm3.12,0a2.76,2.76,0,1,0,2.76-3,2.79,2.79,0,0,0-2.77,2.81c0,.06,0,.13,0,.19Z"/><path class="cls-1" d="M263.63,248.9a4,4,0,0,1-3.44,1.68c-3,0-5.32-2.42-5.32-5.78s2.28-5.79,5.3-5.79a4,4,0,0,1,3.5,1.71v-7.23h3.12v16.8h-3.12Zm-5.55-4.1a2.82,2.82,0,1,0,5.62.47,3.68,3.68,0,0,0,0-.47,2.82,2.82,0,1,0-5.62-.47A3.68,3.68,0,0,0,258.08,244.8Z"/><path class="cls-1" d="M280.21,245.71H272a2.6,2.6,0,0,0,4.72,1.08l3.24.33a5.85,5.85,0,1,1-5.54-8.11c3,0,5.76,2,5.76,6.58ZM272,243.62h4.92a2.38,2.38,0,0,0-2.42-2A2.47,2.47,0,0,0,272,243.62Z"/><path class="cls-1" d="M280.71,251.85h12v2.64h-12Z"/><path class="cls-1" d="M300.15,243c0-.79-.62-1.29-1.82-1.29a7.43,7.43,0,0,0-3.31,1l-1.23-2.35A9.43,9.43,0,0,1,298.5,239c2.49,0,4.77,1.15,4.77,4.06v7.22h-3.12v-1a3.65,3.65,0,0,1-3.07,1.32,3.6,3.6,0,0,1-3.83-3.35.41.41,0,0,1,0-.11c0-2.08,1.54-3.38,4-3.38h2.16c.52,0,.76-.24.76-.65Zm0,3.39v-.8a1.28,1.28,0,0,1-1,.25H298c-1,0-1.56.43-1.56,1.2s.6,1.29,1.56,1.29a1.89,1.89,0,0,0,2.13-1.61,1.45,1.45,0,0,0,0-.36Z"/><path class="cls-1" d="M209.63,572v3h-5v13.8H201.3V575h-5v-3Z"/><path class="cls-1" d="M215.08,588.8H212v-8.35h-1.54v-2.64h4.66ZM213.37,572a2,2,0,1,1-2,2A2,2,0,0,1,213.37,572Z"/><path class="cls-1" d="M232.21,582.35a1.72,1.72,0,0,0-1.53-1.91,1.38,1.38,0,0,0-.29,0,3,3,0,0,0-2.28,1.25v7.12H225v-6.45a1.73,1.73,0,0,0-1.55-1.91,1.31,1.31,0,0,0-.28,0,3,3,0,0,0-2.28,1.25v7.12h-3.12v-11h3v.43c0,.39,0,.87,0,.87a4.25,4.25,0,0,1,3.29-1.59,3.67,3.67,0,0,1,3.53,2,4.41,4.41,0,0,1,3.7-2,3.81,3.81,0,0,1,4.05,3.55,4.69,4.69,0,0,1,0,.53v7.2h-3.12Z"/><path class="cls-1" d="M248.68,584.22h-8.19a2.61,2.61,0,0,0,4.73,1.08l3.24.34a5.86,5.86,0,1,1-5.54-8.12c3,0,5.76,2,5.76,6.58Zm-8.26-2.09h4.92a2.38,2.38,0,0,0-2.42-2,2.47,2.47,0,0,0-2.5,2Z"/><path class="cls-1" d="M257,581.17a4,4,0,0,0-2.71-1.13c-.82,0-1.1.41-1.1.75s.24.65.81.84l1.83.57c2.25.75,3,2,3,3.41,0,1.61-1.37,3.48-4.37,3.48a7.11,7.11,0,0,1-4.85-1.73l1.66-2.16a5.43,5.43,0,0,0,3.24,1.37c.74,0,1.2-.38,1.2-.81s-.36-.8-1.25-1.06l-1.87-.55a3.26,3.26,0,0,1-2.54-3.22c0-1.8,1.63-3.41,4.27-3.41a6.58,6.58,0,0,1,4.44,1.64Z"/><path class="cls-1" d="M274.69,576.47a5.54,5.54,0,0,0-3.55-1.73c-1.11,0-2.11.58-2.11,1.58,0,.77.48,1.37,1.82,2l1.39.64c2.67,1.25,4.28,2.64,4.28,5.16s-2.14,5-5.84,5a8.23,8.23,0,0,1-6-2.52l1.85-2.49a6.16,6.16,0,0,0,4.1,2c1.44,0,2.33-.79,2.33-1.83s-1-1.8-2.64-2.54l-1.18-.55c-2.25-1.06-3.67-2.59-3.67-4.71,0-3,2.64-4.73,5.62-4.73a8.8,8.8,0,0,1,5.54,2.36Z"/><path class="cls-1" d="M286.64,587.41a4,4,0,0,1-3.43,1.68c-3,0-5.33-2.42-5.33-5.78s2.28-5.79,5.31-5.79a4,4,0,0,1,3.5,1.71c0-.12-.05-.34-.05-.91v-.51h3.12V593h-3.12Zm-5.54-4.1a2.81,2.81,0,0,0,5.61.34,1.93,1.93,0,0,0,0-.34,2.81,2.81,0,0,0-5.61-.34A1.93,1.93,0,0,0,281.1,583.31Z"/><path class="cls-1" d="M292.28,584.77v-7h3.12v6.39a2.12,2.12,0,0,0,4.23,0v-6.39h3.09v7c0,2.31-1.82,4.32-5.21,4.32S292.28,587.08,292.28,584.77Z"/><path class="cls-1" d="M311.34,581.48c0-.79-.63-1.29-1.83-1.29a7.43,7.43,0,0,0-3.31,1l-1.2-2.32a9.39,9.39,0,0,1,4.7-1.35c2.5,0,4.78,1.16,4.78,4.06v7.22h-3.12v-1a3.72,3.72,0,0,1-3.07,1.32,3.6,3.6,0,0,1-3.83-3.35.34.34,0,0,1,0-.1c0-2.09,1.53-3.39,4-3.39h2.16c.53,0,.77-.24.77-.65Zm0,3.39v-.79a1.37,1.37,0,0,1-1,.24H309.2c-1,0-1.56.43-1.56,1.2s.6,1.29,1.56,1.29a1.91,1.91,0,0,0,2.13-1.64C311.34,585.07,311.34,585,311.34,584.87Z"/><path class="cls-1" d="M323.77,580.88h-1.32c-1.58,0-2.3.75-2.3,2.67v5.25H317v-11h3v1.75a2.9,2.9,0,0,1,2.86-1.89,4.12,4.12,0,0,1,.86.09Z"/><path class="cls-1" d="M336.18,584.22H328a2.61,2.61,0,0,0,4.73,1.08l3.24.34a5.85,5.85,0,1,1-5.54-8.12c3,0,5.76,2,5.76,6.58Zm-8.26-2.09h4.92a2.38,2.38,0,0,0-2.42-2,2.47,2.47,0,0,0-2.5,2Z"/><path class="cls-1" d="M574.69,239a3.83,3.83,0,0,1,4.08,3.56,4.51,4.51,0,0,1,0,.52v7.2h-3.12v-6.41a1.77,1.77,0,0,0-1.52-2,2.17,2.17,0,0,0-.36,0,3,3,0,0,0-2.33,1.25v7.12h-3.12v-11h3v1.3A4.33,4.33,0,0,1,574.69,239Z"/><path class="cls-1" d="M580.64,244.8a5.88,5.88,0,1,1,6,5.78h-.1a5.72,5.72,0,0,1-5.88-5.56Zm3.12,0a2.76,2.76,0,1,0,2.76-3,2.79,2.79,0,0,0-2.77,2.81C583.75,244.67,583.76,244.74,583.76,244.8Z"/><path class="cls-1" d="M602.48,248.9a4,4,0,0,1-3.44,1.68c-3,0-5.32-2.42-5.32-5.78S596,239,599,239a4,4,0,0,1,3.5,1.71v-7.23h3.12v16.8H602.5Zm-5.55-4.1a2.82,2.82,0,1,0,5.62.47,3.68,3.68,0,0,0,0-.47,2.82,2.82,0,1,0-5.62-.47A3.68,3.68,0,0,0,596.93,244.8Z"/><path class="cls-1" d="M619.06,245.71h-8.18a2.6,2.6,0,0,0,4.72,1.08l3.24.33A5.85,5.85,0,1,1,613.3,239c3,0,5.76,2,5.76,6.58Zm-8.26-2.09h4.92a2.38,2.38,0,0,0-2.42-2,2.47,2.47,0,0,0-2.5,2Z"/><path class="cls-1" d="M619.56,251.85h12v2.64h-12Z"/><path class="cls-1" d="M636,250.29h-3.12v-16.8H636v7.23a3.94,3.94,0,0,1,3.48-1.71c3,0,5.33,2.43,5.33,5.79s-2.33,5.78-5.35,5.78A4,4,0,0,1,636,248.9Zm0-5.49a2.81,2.81,0,0,0,5.61.34,1.93,1.93,0,0,0,0-.34,2.81,2.81,0,0,0-5.61-.34A1.93,1.93,0,0,0,636,244.8Z"/><path class="cls-1" d="M545.89,589.36h-3.32v-16.8h5.69c4,0,6,2.47,6,5.52s-2.09,5.59-6,5.59h-2.37Zm0-13.92v5.38h1.87c1.82,0,3.14-.87,3.14-2.74s-1.32-2.64-3.14-2.64Z"/><path class="cls-1" d="M566.21,584.78H558a2.61,2.61,0,0,0,4.73,1.08l3.24.33a5.86,5.86,0,1,1-5.55-8.11c3,0,5.76,2,5.76,6.58ZM558,582.69h4.92a2.4,2.4,0,0,0-2.43-2A2.45,2.45,0,0,0,558,582.69Z"/><path class="cls-1" d="M574.42,578.08a3.83,3.83,0,0,1,4.08,3.56,4.51,4.51,0,0,1,0,.52v7.2h-3.12V583a1.77,1.77,0,0,0-1.52-2,2,2,0,0,0-.35,0,3.08,3.08,0,0,0-2.33,1.24v7.13h-3.12v-11h3.05v.43c0,.39-.05.87-.05.87A4.3,4.3,0,0,1,574.42,578.08Z"/><path class="cls-1" d="M587.43,578.08a3.83,3.83,0,0,1,4.08,3.56,4.51,4.51,0,0,1,0,.52v7.2h-3.12V583a1.77,1.77,0,0,0-1.52-2,2,2,0,0,0-.35,0,3,3,0,0,0-2.33,1.24v7.13h-3.12v-11h3v1.3A4.3,4.3,0,0,1,587.43,578.08Z"/><path class="cls-1" d="M607.92,577a5.49,5.49,0,0,0-3.55-1.73c-1.1,0-2.11.57-2.11,1.58,0,.77.48,1.37,1.82,2l1.4.65c2.66,1.25,4.27,2.64,4.27,5.16s-2.14,5-5.83,5a8.31,8.31,0,0,1-6-2.52l1.85-2.5a6.16,6.16,0,0,0,4.1,2c1.44,0,2.33-.8,2.33-1.83s-1-1.8-2.64-2.54l-1.17-.55c-2.26-1.06-3.68-2.6-3.68-4.71,0-3,2.64-4.73,5.62-4.73a8.79,8.79,0,0,1,5.54,2.35Z"/><path class="cls-1" d="M615.65,574.19v4.18H618V581h-2.38v5c0,.69.55.79,1,.79.8,0,1.44-.07,1.44-.07v2.66s-1.51.15-2.42.15c-1.56,0-3.17-.27-3.17-2.48v-6H610.8v-2.64h1.73v-4.18Z"/><path class="cls-1" d="M626.28,582c0-.79-.62-1.29-1.82-1.29a7.43,7.43,0,0,0-3.31,1l-1.23-2.35a9.42,9.42,0,0,1,4.71-1.35c2.49,0,4.77,1.15,4.77,4.06v7.22h-3.12v-1a3.71,3.71,0,0,1-3.07,1.32,3.6,3.6,0,0,1-3.83-3.35.41.41,0,0,1,0-.11c0-2.08,1.54-3.38,4-3.38h2.16c.52,0,.76-.24.76-.65Zm0,3.39v-.8a1.33,1.33,0,0,1-1,.24h-1.17c-1,0-1.56.44-1.56,1.2s.6,1.3,1.56,1.3a1.9,1.9,0,0,0,2.15-1.61,2.83,2.83,0,0,0,0-.29Z"/><path class="cls-1" d="M635.91,574.19v4.18h2.37V581h-2.37v5c0,.69.55.79,1,.79.79,0,1.44-.07,1.44-.07v2.66s-1.51.15-2.42.15c-1.56,0-3.17-.27-3.17-2.48v-6H631v-2.64h1.73v-4.18Z"/><path class="cls-1" d="M644.21,589.36h-3.12V581h-1.53v-2.64h4.65Zm-1.7-16.8a2,2,0,1,1-2,2A2,2,0,0,1,642.51,572.56Z"/><path class="cls-1" d="M646.2,583.87a5.88,5.88,0,1,1,6,5.78h-.1a5.73,5.73,0,0,1-5.88-5.58Zm3.12,0a2.76,2.76,0,1,0,2.76-3,2.8,2.8,0,0,0-2.77,2.83C649.31,583.76,649.32,583.81,649.32,583.87Z"/><path class="cls-1" d="M666.32,578.08a3.83,3.83,0,0,1,4.08,3.56,4.51,4.51,0,0,1,0,.52v7.2h-3.12V583a1.77,1.77,0,0,0-1.52-2,2.17,2.17,0,0,0-.36,0,3,3,0,0,0-2.32,1.24v7.13H660v-11h3v1.3A4.28,4.28,0,0,1,666.32,578.08Z"/><path class="cls-1" d="M913.3,586.48s2.83-2.49,5-4.51,2.57-3.22,2.57-4.58a2.09,2.09,0,0,0-2-2.16h-.22a2,2,0,0,0-2.22,1.76,1.93,1.93,0,0,0,0,.24,4.26,4.26,0,0,0,.43,1.75l-3.07.55a5.2,5.2,0,0,1-.63-2.59c0-2.35,2-4.66,5.55-4.66s5.61,2.4,5.61,5c0,2-.64,3.91-4.75,7.51l-2,1.75h7v2.88H913.3Z"/><path class="cls-1" d="M926,584.56v-.74h3.4v.72c0,1.2.53,2.35,2.12,2.35s2.2-1.13,2.2-2.66a2.5,2.5,0,0,0-2.29-2.69H931a9.35,9.35,0,0,0-1.75.17v-3l3.84-3.29h-6.31v-2.88h10.08v3.19l-4.35,3.48a4.81,4.81,0,0,1,4.68,4.94h0a5.28,5.28,0,0,1-5.08,5.48h-.53C928,589.65,926,587.51,926,584.56Z"/><path class="cls-1" d="M946.3,581.44H945c-1.59,0-2.31.75-2.31,2.67v5.25h-3.12v-11h3v1.75a2.9,2.9,0,0,1,2.85-1.89,4.28,4.28,0,0,1,.87.09Z"/><path class="cls-1" d="M956,588a4,4,0,0,1-3.43,1.68c-3,0-5.33-2.42-5.33-5.78s2.28-5.79,5.3-5.79a4,4,0,0,1,3.51,1.71c0-.36,0-1.28,0-2.09v-5.14h3.12v16.8H956Zm-5.55-4.1a2.82,2.82,0,1,0,5.62.47,3.68,3.68,0,0,0,0-.47,2.82,2.82,0,1,0-5.62-.47A3.68,3.68,0,0,0,950.45,583.9Z"/><path class="cls-1" d="M975.7,577a5.56,5.56,0,0,0-3.56-1.73c-1.1,0-2.11.57-2.11,1.58,0,.77.48,1.37,1.83,2l1.39.65c2.66,1.25,4.27,2.64,4.27,5.16s-2.14,5-5.83,5a8.31,8.31,0,0,1-6-2.52l1.85-2.5a6.12,6.12,0,0,0,4.11,2c1.43,0,2.32-.8,2.32-1.83s-1-1.8-2.64-2.54l-1.17-.55c-2.26-1.06-3.67-2.6-3.67-4.71,0-3,2.63-4.73,5.61-4.73a8.84,8.84,0,0,1,5.55,2.35Z"/><path class="cls-1" d="M983.42,574.19v4.18h2.38V581h-2.38v5c0,.69.55.79,1,.79.79,0,1.43-.07,1.43-.07v2.66s-1.51.15-2.42.15c-1.56,0-3.17-.27-3.17-2.48v-6h-1.73v-2.64h1.73v-4.18Z"/><path class="cls-1" d="M918.7,239a3.83,3.83,0,0,1,4.08,3.56,4.51,4.51,0,0,1,0,.52v7.2h-3.12v-6.41a1.77,1.77,0,0,0-1.52-2,2.17,2.17,0,0,0-.36,0,3,3,0,0,0-2.32,1.25v7.12h-3.12v-11h3v1.3A4.3,4.3,0,0,1,918.7,239Z"/><path class="cls-1" d="M924.65,244.8a5.88,5.88,0,1,1,6,5.78h-.1a5.72,5.72,0,0,1-5.88-5.56Zm3.12,0a2.76,2.76,0,1,0,5.49.57,2.72,2.72,0,0,0,0-.57,2.76,2.76,0,0,0-5.49-.57A2.71,2.71,0,0,0,927.77,244.8Z"/><path class="cls-1" d="M946.49,248.9a4,4,0,0,1-3.43,1.68c-3,0-5.33-2.42-5.33-5.78S940,239,943,239a4,4,0,0,1,3.51,1.71v-7.23h3.12v16.8h-3.12Zm-5.55-4.1a2.82,2.82,0,1,0,5.62.47,3.68,3.68,0,0,0,0-.47,2.82,2.82,0,1,0-5.62-.47A3.68,3.68,0,0,0,940.94,244.8Z"/><path class="cls-1" d="M963.07,245.71h-8.18a2.61,2.61,0,0,0,4.73,1.08l3.24.33a5.86,5.86,0,1,1-5.55-8.11c3,0,5.76,2,5.76,6.58Zm-8.25-2.09h4.92a2.4,2.4,0,0,0-2.43-2,2.45,2.45,0,0,0-2.49,2Z"/><path class="cls-1" d="M963.57,251.85h12v2.64h-12Z"/><path class="cls-1" d="M979.34,244.8a2.78,2.78,0,0,0,2.55,3h.21a2.53,2.53,0,0,0,2.43-1.68l2.93.91a5.47,5.47,0,0,1-5.38,3.55A5.79,5.79,0,1,1,981.6,239h.48a5.48,5.48,0,0,1,5.38,3.58l-2.93.89a2.56,2.56,0,0,0-2.43-1.68,2.79,2.79,0,0,0-2.77,2.79A1.48,1.48,0,0,0,979.34,244.8Z"/></svg>