<svg id="Layer_1" data-name="Layer 1" xmlns="http://www.w3.org/2000/svg" viewBox="0 0 1177.2 941"><defs><style>.cls-1{fill:none;stroke:#000;stroke-width:2px;}.cls-2{fill:#6401e4;}</style></defs><path d="M946.4,457.8h3.4a4.79,4.79,0,0,1,3.5,1.2,5.42,5.42,0,0,1,0,6.8,4.79,4.79,0,0,1-3.5,1.2h-3.4Zm3.2,7.8a3.2,3.2,0,1,0,0-6.4H948v6.4Zm9.2-5.1a2.32,2.32,0,0,1,2.7,2.6V467H960v-1a1.78,1.78,0,0,1-.7.8,2,2,0,0,1-1.1.3,2.66,2.66,0,0,1-1.2-.3,1.85,1.85,0,0,1-.8-.7,1.69,1.69,0,0,1-.3-1,1.37,1.37,0,0,1,.4-1.1,2,2,0,0,1,1.2-.6,9.2,9.2,0,0,1,1.9-.2h.6v-.3a1.06,1.06,0,0,0-1.2-1.2,5.16,5.16,0,0,0-1.1.2,5.36,5.36,0,0,0-1.1.5l-.5-1.1c.4-.2.8-.4,1.3-.6a3.4,3.4,0,0,1,1.4-.2Zm-.4,5.4a1.38,1.38,0,0,0,1.5-1.5v-.3h-.2a5.72,5.72,0,0,0-1.4.1c-.4.1-.6.1-.7.3s-.2.3-.2.5a.91.91,0,0,0,.3.7A.84.84,0,0,0,958.4,465.9Zm7.9,0h.6l-.1,1.2h-.7a2.81,2.81,0,0,1-2-.6,2.44,2.44,0,0,1-.6-1.8v-2.8h-1.2v-1.2h1.2v-1.9h1.6v1.9h1.7v1.2h-1.7v2.7c0,.9.4,1.3,1.2,1.3Zm4.3-5.4a2.32,2.32,0,0,1,2.7,2.6V467h-1.5v-1a1.78,1.78,0,0,1-.7.8,2,2,0,0,1-1.1.3,2.66,2.66,0,0,1-1.2-.3,1.85,1.85,0,0,1-.8-.7,1.69,1.69,0,0,1-.3-1,1.37,1.37,0,0,1,.4-1.1,2,2,0,0,1,1.2-.6,9.2,9.2,0,0,1,1.9-.2h.6v-.3a1.06,1.06,0,0,0-1.2-1.2,5.16,5.16,0,0,0-1.1.2,5.36,5.36,0,0,0-1.1.5l-.5-1.1c.4-.2.8-.4,1.3-.6a3.4,3.4,0,0,1,1.4-.2Zm-.4,5.4a1.38,1.38,0,0,0,1.5-1.5v-.3h-.2a5.72,5.72,0,0,0-1.4.1c-.4.1-.6.1-.7.3s-.2.3-.2.5a.91.91,0,0,0,.3.7A.84.84,0,0,0,970.2,465.9Zm14.4-4.5v1.1h-6.3v-1.1Zm0,2.6v1.1h-6.3V464Zm6.8-4.5v1.8h-1.8v-1.2a3.73,3.73,0,0,1,.2-1.2,3.32,3.32,0,0,1,.8-1.1l.7.5a2.65,2.65,0,0,0-.5.6,1.42,1.42,0,0,0-.2.6Zm5.2,1a2.6,2.6,0,0,1,1.5.4,2.13,2.13,0,0,1,1,1.1,4.71,4.71,0,0,1,.4,1.7,3.29,3.29,0,0,1-.4,1.7,4,4,0,0,1-1,1.2,2.41,2.41,0,0,1-1.5.4,2.13,2.13,0,0,1-1.2-.3,3,3,0,0,1-.8-.8v1H993v-9.2h1.6v3.7a3,3,0,0,1,.8-.8c.3-.2.7-.1,1.2-.1Zm-.4,5.3a1.66,1.66,0,0,0,1.2-.5,2.24,2.24,0,0,0,.4-1.5,2.41,2.41,0,0,0-.4-1.5,1.35,1.35,0,0,0-1.2-.5,1.66,1.66,0,0,0-1.2.5,3,3,0,0,0,0,3A1.5,1.5,0,0,0,996.2,465.8Zm6.2-8V459a3.73,3.73,0,0,1-.2,1.2,3.32,3.32,0,0,1-.8,1.1l-.7-.5a2.65,2.65,0,0,0,.5-.6,1.42,1.42,0,0,0,.2-.6h-.8v-1.8Z"/><path d="M915.9,512.8h4a3.33,3.33,0,0,1,2.3.7,2.52,2.52,0,0,1,.8,2.1,2.86,2.86,0,0,1-.8,2.1,3.17,3.17,0,0,1-2.3.7h-2.3V522h-1.7Zm3.7,4.4c1.2,0,1.7-.5,1.7-1.5a1.25,1.25,0,0,0-.4-1.1,2.23,2.23,0,0,0-1.3-.4h-2.1v3Zm8.9-.4-.9.1c-1.1.1-1.6.7-1.6,1.6v3.4h-1.6v-6.4h1.5v1.1a1.92,1.92,0,0,1,2-1.2h.5Zm6.3,2.3h-4.3a2.23,2.23,0,0,0,.5,1.3,1.7,1.7,0,0,0,1.3.4,2.81,2.81,0,0,0,1.9-.7l.5,1.1a10.91,10.91,0,0,1-1.1.6,3,3,0,0,1-1.3.2,3.49,3.49,0,0,1-2.5-.9,3.24,3.24,0,0,1-.9-2.4,3.06,3.06,0,0,1,.4-1.7,3.18,3.18,0,0,1,1.1-1.2,2.93,2.93,0,0,1,1.6-.4,2.86,2.86,0,0,1,2.1.8,3.2,3.2,0,0,1,.8,2.3Zm-2.7-2.5a1.16,1.16,0,0,0-1,.4,3.34,3.34,0,0,0-.5,1.2h2.9a1.59,1.59,0,0,0-.4-1.2A1.28,1.28,0,0,0,932.1,516.6Zm8.5-.9h1.6l-2.8,6.3H938l-2.8-6.3h1.7l1.8,4.5Zm9.6-.2a1.94,1.94,0,0,1,1.7.7,3,3,0,0,1,.6,2v3.9h-1.6v-3.8a1.61,1.61,0,0,0-.3-1.1,1.22,1.22,0,0,0-.9-.3,1.37,1.37,0,0,0-1.1.4,1.59,1.59,0,0,0-.4,1.2v3.6h-1.6v-6.4h1.6v.9a1.76,1.76,0,0,1,.9-.8,2.28,2.28,0,0,1,1.1-.3Zm6.8,6.6a3.06,3.06,0,0,1-1.7-.4,2.54,2.54,0,0,1-1.1-1.2,4.78,4.78,0,0,1-.4-1.8,2.86,2.86,0,0,1,.4-1.7,4.15,4.15,0,0,1,1.1-1.2,3.81,3.81,0,0,1,3.4,0,2.54,2.54,0,0,1,1.1,1.2,4.71,4.71,0,0,1,.4,1.7,3.66,3.66,0,0,1-.4,1.8,3.18,3.18,0,0,1-1.1,1.2A3.06,3.06,0,0,1,957,522.1Zm0-1.3a1.66,1.66,0,0,0,1.2-.5,2.24,2.24,0,0,0,.4-1.5,2.08,2.08,0,0,0-.4-1.5,1.69,1.69,0,0,0-2.4,0,2.24,2.24,0,0,0-.4,1.5,2.08,2.08,0,0,0,.4,1.5A1.66,1.66,0,0,0,957,520.8Zm10.7-8V522h-1.6v-1a2,2,0,0,1-.8.8,2.38,2.38,0,0,1-1.2.3,2.82,2.82,0,0,1-1.5-.4,2.34,2.34,0,0,1-1-1.2,4.71,4.71,0,0,1-.4-1.7,3.29,3.29,0,0,1,.4-1.7,2.71,2.71,0,0,1,1-1.1,3.31,3.31,0,0,1,1.5-.4,2.13,2.13,0,0,1,1.2.3,3,3,0,0,1,.8.8V513h1.6Zm-3.2,8a1.66,1.66,0,0,0,1.2-.5,3,3,0,0,0,0-3,1.69,1.69,0,0,0-2.4,0,3,3,0,0,0,0,3A1.66,1.66,0,0,0,964.5,520.8Zm10.5-1.7h-4.3a2.23,2.23,0,0,0,.5,1.3,1.7,1.7,0,0,0,1.3.4,2.81,2.81,0,0,0,1.9-.7l.5,1.1a10.91,10.91,0,0,1-1.1.6,3,3,0,0,1-1.3.2,3.49,3.49,0,0,1-2.5-.9,3.24,3.24,0,0,1-.9-2.4,3.06,3.06,0,0,1,.4-1.7,3.18,3.18,0,0,1,1.1-1.2,2.93,2.93,0,0,1,1.6-.4,2.86,2.86,0,0,1,2.1.8,3.2,3.2,0,0,1,.8,2.3Zm-2.8-2.5a1.16,1.16,0,0,0-1,.4,3.34,3.34,0,0,0-.5,1.2h2.9a1.59,1.59,0,0,0-.4-1.2A1.28,1.28,0,0,0,972.2,516.6Zm13.9-.2v1.1h-6.3v-1.1Zm0,2.6v1.1h-6.3V519Zm8.8-3.5a1.94,1.94,0,0,1,1.7.7,3,3,0,0,1,.6,2v3.9h-1.6v-3.8a1.61,1.61,0,0,0-.3-1.1,1.22,1.22,0,0,0-.9-.3,1.37,1.37,0,0,0-1.1.4,1.59,1.59,0,0,0-.4,1.2v3.6h-1.6v-6.4h1.6v.9a1.76,1.76,0,0,1,.9-.8,2,2,0,0,1,1.1-.3Zm6.8,6.6a3.06,3.06,0,0,1-1.7-.4,2.54,2.54,0,0,1-1.1-1.2,4.78,4.78,0,0,1-.4-1.8,2.86,2.86,0,0,1,.4-1.7,4.15,4.15,0,0,1,1.1-1.2,3.81,3.81,0,0,1,3.4,0,2.54,2.54,0,0,1,1.1,1.2,4.71,4.71,0,0,1,.4,1.7,3.66,3.66,0,0,1-.4,1.8,3.18,3.18,0,0,1-1.1,1.2A3.29,3.29,0,0,1,1001.7,522.1Zm0-1.3a1.66,1.66,0,0,0,1.2-.5,2.24,2.24,0,0,0,.4-1.5,2.08,2.08,0,0,0-.4-1.5,1.69,1.69,0,0,0-2.4,0,2.24,2.24,0,0,0-.4,1.5,2.08,2.08,0,0,0,.4,1.5A1.5,1.5,0,0,0,1001.7,520.8Zm10.7-8V522h-1.6v-1a2,2,0,0,1-.8.8,2.38,2.38,0,0,1-1.2.3,2.82,2.82,0,0,1-1.5-.4,2.34,2.34,0,0,1-1-1.2,4.71,4.71,0,0,1-.4-1.7,3.29,3.29,0,0,1,.4-1.7,2.71,2.71,0,0,1,1-1.1,3.31,3.31,0,0,1,1.5-.4,2.13,2.13,0,0,1,1.2.3,3,3,0,0,1,.8.8V513h1.6Zm-3.2,8a1.66,1.66,0,0,0,1.2-.5,3,3,0,0,0,0-3,1.69,1.69,0,0,0-2.4,0,3,3,0,0,0,0,3,1.5,1.5,0,0,0,1.2.5Zm10.4-1.7h-4.3a2.23,2.23,0,0,0,.5,1.3,1.7,1.7,0,0,0,1.3.4,2.81,2.81,0,0,0,1.9-.7l.5,1.1a10.91,10.91,0,0,1-1.1.6,3,3,0,0,1-1.3.2,3.49,3.49,0,0,1-2.5-.9,3.24,3.24,0,0,1-.9-2.4,3.06,3.06,0,0,1,.4-1.7,3.18,3.18,0,0,1,1.1-1.2,2.93,2.93,0,0,1,1.6-.4,2.86,2.86,0,0,1,2.1.8,3.2,3.2,0,0,1,.8,2.3Zm-2.7-2.5a1.16,1.16,0,0,0-1,.4,3.34,3.34,0,0,0-.5,1.2h2.9a1.59,1.59,0,0,0-.4-1.2,1.28,1.28,0,0,0-1-.4Zm3.4,6.4v-1h6.2v1Z"/><path d="M1030.2,515.5a2.44,2.44,0,0,1,2,.7,3,3,0,0,1,.7,2v3.9h-1.5v-1a1.78,1.78,0,0,1-.7.8,2,2,0,0,1-1.1.3,2.66,2.66,0,0,1-1.2-.3,1.85,1.85,0,0,1-.8-.7,1.69,1.69,0,0,1-.3-1,1.37,1.37,0,0,1,.4-1.1,2,2,0,0,1,1.2-.6,9.2,9.2,0,0,1,1.9-.2h.6V518a1.06,1.06,0,0,0-1.2-1.2,5.16,5.16,0,0,0-1.1.2,5.36,5.36,0,0,0-1.1.5l-.5-1.1c.4-.2.8-.4,1.3-.6a3.93,3.93,0,0,1,1.4-.3Zm1.1,3.6h-.5a3.42,3.42,0,0,0-1.1.1c-.3.1-.6.1-.7.3s-.2.3-.2.5a1,1,0,0,0,1,1,1.38,1.38,0,0,0,1.5-1.5Z"/><path d="M932.3,568.8h1.6V578h-1.3l-4.9-6.4V578h-1.6v-9.2h1.2l4.9,6.4v-6.4Zm9,6.3H937a2.23,2.23,0,0,0,.5,1.3,1.7,1.7,0,0,0,1.3.4,2.81,2.81,0,0,0,1.9-.7l.5,1.1a10.91,10.91,0,0,1-1.1.6,3,3,0,0,1-1.3.2,3.49,3.49,0,0,1-2.5-.9,3.24,3.24,0,0,1-.9-2.4,3.06,3.06,0,0,1,.4-1.7,3.18,3.18,0,0,1,1.1-1.2,2.93,2.93,0,0,1,1.6-.4,2.86,2.86,0,0,1,2.1.8,3.2,3.2,0,0,1,.8,2.3Zm-2.8-2.5a1.16,1.16,0,0,0-1,.4,3.34,3.34,0,0,0-.5,1.2h2.9a1.59,1.59,0,0,0-.4-1.2A1.28,1.28,0,0,0,938.5,572.6Zm7.6,2.1,2.7,3.3h-1.9l-1.7-2.1-1.7,2.1h-1.9l2.7-3.3-2.5-3.1h1.9l1.5,1.9,1.5-1.9h1.9Zm6.7,2.2h.6l-.1,1.2h-.7a2.81,2.81,0,0,1-2-.6,2.44,2.44,0,0,1-.6-1.8v-2.8h-1.2v-1.2H950v-1.9h1.6v1.9h1.7v1.2h-1.7v2.7c0,.9.4,1.3,1.2,1.3Zm8.7-5.4a1.94,1.94,0,0,1,1.7.7,3,3,0,0,1,.6,2v3.9h-1.6v-3.8a1.61,1.61,0,0,0-.3-1.1,1.22,1.22,0,0,0-.9-.3,1.37,1.37,0,0,0-1.1.4,1.59,1.59,0,0,0-.4,1.2v3.6h-1.6v-6.4h1.6v.9a1.76,1.76,0,0,1,.9-.8,2.28,2.28,0,0,1,1.1-.3Zm6.8,6.6a3.06,3.06,0,0,1-1.7-.4,2.54,2.54,0,0,1-1.1-1.2,4.78,4.78,0,0,1-.4-1.8,2.86,2.86,0,0,1,.4-1.7,4.15,4.15,0,0,1,1.1-1.2,3.81,3.81,0,0,1,3.4,0,2.54,2.54,0,0,1,1.1,1.2,4.71,4.71,0,0,1,.4,1.7,3.66,3.66,0,0,1-.4,1.8,3.18,3.18,0,0,1-1.1,1.2A3.06,3.06,0,0,1,968.3,578.1Zm0-1.3a1.66,1.66,0,0,0,1.2-.5,2.24,2.24,0,0,0,.4-1.5,2.08,2.08,0,0,0-.4-1.5,1.69,1.69,0,0,0-2.4,0,2.24,2.24,0,0,0-.4,1.5,2.08,2.08,0,0,0,.4,1.5A1.66,1.66,0,0,0,968.3,576.8Zm10.8-8V578h-1.6v-1a2,2,0,0,1-.8.8,2.38,2.38,0,0,1-1.2.3,2.82,2.82,0,0,1-1.5-.4,2.34,2.34,0,0,1-1-1.2,4.71,4.71,0,0,1-.4-1.7,3.29,3.29,0,0,1,.4-1.7,2.71,2.71,0,0,1,1-1.1,3.31,3.31,0,0,1,1.5-.4,2.13,2.13,0,0,1,1.2.3,3,3,0,0,1,.8.8V569h1.6Zm-3.3,8a1.66,1.66,0,0,0,1.2-.5,3,3,0,0,0,0-3,1.69,1.69,0,0,0-2.4,0,3,3,0,0,0,0,3A1.66,1.66,0,0,0,975.8,576.8Zm10.5-1.7H982a2.23,2.23,0,0,0,.5,1.3,1.7,1.7,0,0,0,1.3.4,2.81,2.81,0,0,0,1.9-.7l.5,1.1a10.91,10.91,0,0,1-1.1.6,3,3,0,0,1-1.3.2,3.49,3.49,0,0,1-2.5-.9,3.24,3.24,0,0,1-.9-2.4,3.06,3.06,0,0,1,.4-1.7,3.18,3.18,0,0,1,1.1-1.2,2.93,2.93,0,0,1,1.6-.4,2.86,2.86,0,0,1,2.1.8,3.2,3.2,0,0,1,.8,2.3Zm-2.8-2.5a1.16,1.16,0,0,0-1,.4,3.34,3.34,0,0,0-.5,1.2h2.9a1.59,1.59,0,0,0-.4-1.2A1.28,1.28,0,0,0,983.5,572.6Zm13.9-.2v1.1H991v-1.1Zm0,2.6v1.1H991V575Zm8.8-3.5a1.94,1.94,0,0,1,1.7.7,3,3,0,0,1,.6,2v3.9h-1.6v-3.8a1.61,1.61,0,0,0-.3-1.1,1.22,1.22,0,0,0-.9-.3,1.37,1.37,0,0,0-1.1.4,1.59,1.59,0,0,0-.4,1.2v3.6h-1.6v-6.4h1.6v.9a1.76,1.76,0,0,1,.9-.8,2,2,0,0,1,1.1-.3Zm9.7.1V578h-1.6v-1a3,3,0,0,1-.8.8,2,2,0,0,1-1.1.3c-1.6,0-2.3-.9-2.3-2.6v-3.8h1.6v3.8a1.33,1.33,0,0,0,.3,1,1.22,1.22,0,0,0,.9.3,1.37,1.37,0,0,0,1.1-.4,1.59,1.59,0,0,0,.4-1.2v-3.5h1.5Zm1.7,6.4v-9.2h1.6V578Zm3.3,0v-9.2h1.6V578Z"/><path d="M1054.3,485.1h-160V438.4h160Zm-158-44.7v42.7h156V440.4Z"/><path d="M1075.3,616.3h-202V420.5h202Zm-200-193.8V614.3h198V422.5Z"/><path d="M1054.3,540.3h-160V493.6h160Zm-158-44.8v42.7h156V495.5Z"/><path d="M1054.3,596.9h-160V550.2h160Zm-158-44.7v42.7h156V552.2Z"/><path d="M359.1,457.8h3.4A4.79,4.79,0,0,1,366,459a5.42,5.42,0,0,1,0,6.8,4.79,4.79,0,0,1-3.5,1.2h-3.4Zm3.3,7.8a3.2,3.2,0,1,0,0-6.4h-1.6v6.4Zm9.1-5.1a2.2,2.2,0,0,1,2.6,2.6V467h-1.5v-1a1.78,1.78,0,0,1-.7.8,2,2,0,0,1-1.1.3,2.66,2.66,0,0,1-1.2-.3,1.85,1.85,0,0,1-.8-.7,1.69,1.69,0,0,1-.3-1,1.37,1.37,0,0,1,.4-1.1,2,2,0,0,1,1.2-.6,9.2,9.2,0,0,1,1.9-.2h.6v-.3a1.06,1.06,0,0,0-1.2-1.2,5.16,5.16,0,0,0-1.1.2,5.36,5.36,0,0,0-1.1.5l-.5-1.1c.4-.2.8-.4,1.3-.6a3.89,3.89,0,0,1,1.5-.2Zm-.4,5.4a1.38,1.38,0,0,0,1.5-1.5v-.3h-.2a5.72,5.72,0,0,0-1.4.1c-.4.1-.6.1-.7.3s-.2.3-.2.5a.91.91,0,0,0,.3.7A.84.84,0,0,0,371.1,465.9Zm7.9,0h.6l-.1,1.2h-.7a2.81,2.81,0,0,1-2-.6,2.44,2.44,0,0,1-.6-1.8v-2.8H375v-1.2h1.2v-1.9h1.6v1.9h1.7v1.2h-1.7v2.7C377.9,465.5,378.2,465.9,379,465.9Zm4.3-5.4a2.2,2.2,0,0,1,2.6,2.6V467h-1.5v-1a1.78,1.78,0,0,1-.7.8,2,2,0,0,1-1.1.3,2.66,2.66,0,0,1-1.2-.3,1.85,1.85,0,0,1-.8-.7,1.69,1.69,0,0,1-.3-1,1.37,1.37,0,0,1,.4-1.1,2,2,0,0,1,1.2-.6,9.2,9.2,0,0,1,1.9-.2h.6v-.3a1.06,1.06,0,0,0-1.2-1.2,5.16,5.16,0,0,0-1.1.2,5.36,5.36,0,0,0-1.1.5l-.5-1.1c.4-.2.8-.4,1.3-.6a4.14,4.14,0,0,1,1.5-.2Zm-.4,5.4a1.38,1.38,0,0,0,1.5-1.5v-.3h-.2a5.72,5.72,0,0,0-1.4.1c-.4.1-.6.1-.7.3s-.2.3-.2.5a.91.91,0,0,0,.3.7A.84.84,0,0,0,382.9,465.9Zm14.5-4.5v1.1H391v-1.1Zm0,2.6v1.1H391V464Zm6.7-4.5v1.8h-1.8v-1.2a3.73,3.73,0,0,1,.2-1.2,3.32,3.32,0,0,1,.8-1.1l.7.5a2.65,2.65,0,0,0-.5.6,1.42,1.42,0,0,0-.2.6Zm4.5,7.6a3.06,3.06,0,0,1-1.7-.4,2.35,2.35,0,0,1-1.1-1.1,4.71,4.71,0,0,1-.4-1.7,3.29,3.29,0,0,1,.4-1.7A3.45,3.45,0,0,1,407,461a3.29,3.29,0,0,1,1.7-.4,5.07,5.07,0,0,1,1.3.2,1.7,1.7,0,0,1,1,.6l-.5,1.1a4.05,4.05,0,0,0-.9-.5,2.92,2.92,0,0,0-.9-.2,1.73,1.73,0,0,0-1.3.5,2.5,2.5,0,0,0,0,3,1.73,1.73,0,0,0,1.3.5,2.92,2.92,0,0,0,.9-.2,4.05,4.05,0,0,0,.9-.5l.5,1.1a2.87,2.87,0,0,1-1.1.6,3.45,3.45,0,0,1-1.3.3Zm5.1-9.3V459a3.73,3.73,0,0,1-.2,1.2,3.32,3.32,0,0,1-.8,1.1l-.7-.5a2.65,2.65,0,0,0,.5-.6,1.42,1.42,0,0,0,.2-.6h-.8v-1.8Z"/><path d="M655.4,458.1h3.4a4.79,4.79,0,0,1,3.5,1.2,4.55,4.55,0,0,1,1.2,3.4,4.7,4.7,0,0,1-1.2,3.4,4.79,4.79,0,0,1-3.5,1.2h-3.4Zm3.3,7.8a3.2,3.2,0,0,0,0-6.4h-1.6v6.4Zm9.1-5.1a2.32,2.32,0,0,1,2.7,2.6v3.9H669v-1a1.78,1.78,0,0,1-.7.8,2,2,0,0,1-1.1.3,2.66,2.66,0,0,1-1.2-.3,2.7,2.7,0,0,1-.8-.7,1.69,1.69,0,0,1-.3-1,1.37,1.37,0,0,1,.4-1.1,1.71,1.71,0,0,1,1.2-.6,9.2,9.2,0,0,1,1.9-.2h.6v-.3a1.06,1.06,0,0,0-1.2-1.2,5.16,5.16,0,0,0-1.1.2,5.36,5.36,0,0,0-1.1.5l-.5-1.1c.4-.2.8-.4,1.3-.6a3.64,3.64,0,0,1,1.4-.2Zm-.4,5.4a1.38,1.38,0,0,0,1.5-1.5v-.3h-.2a5.72,5.72,0,0,0-1.4.1c-.4.1-.6.1-.7.3a.76.76,0,0,0-.2.5.91.91,0,0,0,.3.7A.84.84,0,0,0,667.4,466.2Zm8,0h.6l-.1,1.2h-.7a2.81,2.81,0,0,1-2-.6,2.44,2.44,0,0,1-.6-1.8v-2.8h-1.2V461h1.2v-2h1.6v1.9h1.7v1.2h-1.7v2.7C674.2,465.8,674.6,466.2,675.4,466.2Zm4.2-5.4a2.32,2.32,0,0,1,2.7,2.6v3.9h-1.5v-1a1.78,1.78,0,0,1-.7.8,2,2,0,0,1-1.1.3,2.66,2.66,0,0,1-1.2-.3,2.7,2.7,0,0,1-.8-.7,1.69,1.69,0,0,1-.3-1,1.37,1.37,0,0,1,.4-1.1,2,2,0,0,1,1.2-.6,9.2,9.2,0,0,1,1.9-.2h.6v-.3a1.06,1.06,0,0,0-1.2-1.2,5.16,5.16,0,0,0-1.1.2,5.36,5.36,0,0,0-1.1.5l-.5-1.1c.4-.2.8-.4,1.3-.6a3.64,3.64,0,0,1,1.4-.2Zm-.3,5.4a1.38,1.38,0,0,0,1.5-1.5v-.3h-.2a5.72,5.72,0,0,0-1.4.1c-.3.1-.6.1-.7.3a.76.76,0,0,0-.2.5.91.91,0,0,0,.3.7A.84.84,0,0,0,679.3,466.2Zm14.4-4.5v1.1h-6.3v-1.1Zm0,2.6v1.1h-6.3v-1.1Zm6.7-4.5v1.8h-1.8v-1.2a3.73,3.73,0,0,1,.2-1.2,3.83,3.83,0,0,1,.8-1.1l.7.5a2.65,2.65,0,0,0-.5.6,1.42,1.42,0,0,0-.2.6Zm4.3,1a2.2,2.2,0,0,1,2.6,2.6v3.9h-1.5v-1a1.78,1.78,0,0,1-.7.8,2,2,0,0,1-1.1.3,2.66,2.66,0,0,1-1.2-.3,1.85,1.85,0,0,1-.8-.7,1.69,1.69,0,0,1-.3-1,1.37,1.37,0,0,1,.4-1.1,2,2,0,0,1,1.2-.6,9.2,9.2,0,0,1,1.9-.2h.6v-.3a1.06,1.06,0,0,0-1.2-1.2,5.16,5.16,0,0,0-1.1.2,5.36,5.36,0,0,0-1.1.5l-.5-1.1c.4-.2.8-.4,1.3-.6a10.4,10.4,0,0,1,1.5-.2Zm-.4,5.4a1.38,1.38,0,0,0,1.5-1.5v-.3h-.2a5.72,5.72,0,0,0-1.4.1c-.3.1-.6.1-.7.3a.76.76,0,0,0-.2.5.91.91,0,0,0,.3.7A.84.84,0,0,0,704.3,466.2Zm6.4-8.1v1.2a3.73,3.73,0,0,1-.2,1.2,3.83,3.83,0,0,1-.8,1.1l-.7-.5a2.65,2.65,0,0,0,.5-.6,1.42,1.42,0,0,0,.2-.6h-.8v-1.8Z"/><path d="M624.8,512.1h4a3.33,3.33,0,0,1,2.3.7,3.16,3.16,0,0,1,0,4.2,3.17,3.17,0,0,1-2.3.7h-2.3v3.6h-1.7Zm3.8,4.3c1.2,0,1.7-.5,1.7-1.5a1.25,1.25,0,0,0-.4-1.1,2.23,2.23,0,0,0-1.3-.4h-2.1v3Zm8.9-.3-.9.1c-1.1.1-1.6.7-1.6,1.6v3.4h-1.6v-6.4h1.5v1.1a1.92,1.92,0,0,1,2-1.2h.5Zm6.3,2.3h-4.3a2.23,2.23,0,0,0,.5,1.3,1.7,1.7,0,0,0,1.3.4,2.81,2.81,0,0,0,1.9-.7l.5,1.1a10.91,10.91,0,0,1-1.1.6,5.85,5.85,0,0,1-1.3.2,3.49,3.49,0,0,1-2.5-.9,3.24,3.24,0,0,1-.9-2.4,3.06,3.06,0,0,1,.4-1.7,3.18,3.18,0,0,1,1.1-1.2,2.93,2.93,0,0,1,1.6-.4,2.86,2.86,0,0,1,2.1.8,3.37,3.37,0,0,1,.8,2.3v.6Zm-2.8-2.5a1.16,1.16,0,0,0-1,.4,3.34,3.34,0,0,0-.5,1.2h2.9a1.59,1.59,0,0,0-.4-1.2A1.33,1.33,0,0,0,641,515.9Zm8.6-.9h1.6l-2.8,6.3H647l-2.8-6.3h1.7l1.8,4.5Zm9.6-.2a1.94,1.94,0,0,1,1.7.7,2.81,2.81,0,0,1,.6,2v3.9h-1.6v-3.8a1.61,1.61,0,0,0-.3-1.1,1.22,1.22,0,0,0-.9-.3,1.37,1.37,0,0,0-1.1.4,1.59,1.59,0,0,0-.4,1.2v3.6h-1.6V515h1.6v.9a1.76,1.76,0,0,1,.9-.8A2.28,2.28,0,0,1,659.2,514.8Zm6.8,6.6a3.06,3.06,0,0,1-1.7-.4,2.54,2.54,0,0,1-1.1-1.2,3.42,3.42,0,0,1-.4-1.8,2.86,2.86,0,0,1,.4-1.7,3.18,3.18,0,0,1,1.1-1.2,3.81,3.81,0,0,1,3.4,0,2.54,2.54,0,0,1,1.1,1.2,3.29,3.29,0,0,1,.4,1.7,3.42,3.42,0,0,1-.4,1.8,3.18,3.18,0,0,1-1.1,1.2A2.86,2.86,0,0,1,666,521.4Zm0-1.3a1.66,1.66,0,0,0,1.2-.5,2.24,2.24,0,0,0,.4-1.5,2.08,2.08,0,0,0-.4-1.5,1.35,1.35,0,0,0-1.2-.5,1.66,1.66,0,0,0-1.2.5,2.41,2.41,0,0,0-.4,1.5,2.08,2.08,0,0,0,.4,1.5A1.35,1.35,0,0,0,666,520.1Zm10.7-8v9.2h-1.6v-1a2,2,0,0,1-.8.8,2.38,2.38,0,0,1-1.2.3,2.82,2.82,0,0,1-1.5-.4,2.94,2.94,0,0,1-1-1.2,4.71,4.71,0,0,1-.4-1.7,3.06,3.06,0,0,1,.4-1.7,2.17,2.17,0,0,1,1-1.1,3.31,3.31,0,0,1,1.5-.4,2.13,2.13,0,0,1,1.2.3,2,2,0,0,1,.8.8v-3.7h1.6Zm-3.2,8a1.66,1.66,0,0,0,1.2-.5,3,3,0,0,0,0-3,1.69,1.69,0,0,0-2.4,0,3,3,0,0,0,0,3A1.66,1.66,0,0,0,673.5,520.1Zm10.5-1.7h-4.3a2.23,2.23,0,0,0,.5,1.3,1.7,1.7,0,0,0,1.3.4,2.81,2.81,0,0,0,1.9-.7l.5,1.1a10.91,10.91,0,0,1-1.1.6,3,3,0,0,1-1.3.2,3.49,3.49,0,0,1-2.5-.9,3.24,3.24,0,0,1-.9-2.4,3.06,3.06,0,0,1,.4-1.7,3.18,3.18,0,0,1,1.1-1.2,2.93,2.93,0,0,1,1.6-.4,2.86,2.86,0,0,1,2.1.8,3.37,3.37,0,0,1,.8,2.3v.6Zm-2.8-2.5a1.16,1.16,0,0,0-1,.4,2.2,2.2,0,0,0-.5,1.2h2.9a1.59,1.59,0,0,0-.4-1.2A1.53,1.53,0,0,0,681.2,515.9Zm13.9-.2v1.1h-6.3v-1.1Zm0,2.6v1.1h-6.3v-1.1Zm8.8-3.5a1.94,1.94,0,0,1,1.7.7,2.81,2.81,0,0,1,.6,2v3.9h-1.6v-3.8a1.61,1.61,0,0,0-.3-1.1,1.22,1.22,0,0,0-.9-.3,1.37,1.37,0,0,0-1.1.4,1.59,1.59,0,0,0-.4,1.2v3.6h-1.6V515h1.6v.9a1.76,1.76,0,0,1,.9-.8A2,2,0,0,1,703.9,514.8Zm6.8,6.6a3.29,3.29,0,0,1-1.7-.4,2.54,2.54,0,0,1-1.1-1.2,4.78,4.78,0,0,1-.4-1.8,2.86,2.86,0,0,1,.4-1.7,3.18,3.18,0,0,1,1.1-1.2,3.29,3.29,0,0,1,1.7-.4,3.06,3.06,0,0,1,1.7.4,2.54,2.54,0,0,1,1.1,1.2,3.29,3.29,0,0,1,.4,1.7,3.66,3.66,0,0,1-.4,1.8,3.18,3.18,0,0,1-1.1,1.2A3.29,3.29,0,0,1,710.7,521.4Zm0-1.3a1.66,1.66,0,0,0,1.2-.5,2.24,2.24,0,0,0,.4-1.5,2.08,2.08,0,0,0-.4-1.5,1.35,1.35,0,0,0-1.2-.5,1.66,1.66,0,0,0-1.2.5,2.41,2.41,0,0,0-.4,1.5,2.08,2.08,0,0,0,.4,1.5A1.5,1.5,0,0,0,710.7,520.1Zm10.7-8v9.2h-1.6v-1a2,2,0,0,1-.8.8,2.38,2.38,0,0,1-1.2.3,2.82,2.82,0,0,1-1.5-.4,2.94,2.94,0,0,1-1-1.2,4.71,4.71,0,0,1-.4-1.7,3.29,3.29,0,0,1,.4-1.7,2.17,2.17,0,0,1,1-1.1,3.31,3.31,0,0,1,1.5-.4,2.13,2.13,0,0,1,1.2.3,2,2,0,0,1,.8.8v-3.7Zm-3.3,8a1.66,1.66,0,0,0,1.2-.5,2.41,2.41,0,0,0,.4-1.5,2.24,2.24,0,0,0-.4-1.5,1.35,1.35,0,0,0-1.2-.5,1.66,1.66,0,0,0-1.2.5,3,3,0,0,0,0,3A1.35,1.35,0,0,0,718.1,520.1Zm10.5-1.7h-4.3a2.23,2.23,0,0,0,.5,1.3,1.7,1.7,0,0,0,1.3.4,2.81,2.81,0,0,0,1.9-.7l.5,1.1a10.91,10.91,0,0,1-1.1.6,3,3,0,0,1-1.3.2,3.49,3.49,0,0,1-2.5-.9,3.24,3.24,0,0,1-.9-2.4,3.06,3.06,0,0,1,.4-1.7,3.18,3.18,0,0,1,1.1-1.2,2.93,2.93,0,0,1,1.6-.4,2.86,2.86,0,0,1,2.1.8,3.37,3.37,0,0,1,.8,2.3v.6Zm-2.8-2.5a1.16,1.16,0,0,0-1,.4,2.2,2.2,0,0,0-.5,1.2h2.9a1.59,1.59,0,0,0-.4-1.2A1.33,1.33,0,0,0,725.8,515.9Zm3.5,6.4v-1h6.2v1Zm10.1-.9a3.06,3.06,0,0,1-1.7-.4,2.35,2.35,0,0,1-1.1-1.1,3.81,3.81,0,0,1,0-3.4,3.45,3.45,0,0,1,1.2-1.2,3.29,3.29,0,0,1,1.7-.4,5.07,5.07,0,0,1,1.3.2,1.7,1.7,0,0,1,1,.6l-.5,1.1a4.05,4.05,0,0,0-.9-.5,2.92,2.92,0,0,0-.9-.2,1.73,1.73,0,0,0-1.3.5,2.46,2.46,0,0,0-.5,1.5,2.07,2.07,0,0,0,.5,1.5,1.73,1.73,0,0,0,1.3.5,2.92,2.92,0,0,0,.9-.2,4.05,4.05,0,0,0,.9-.5l.5,1.1a2.87,2.87,0,0,1-1.1.6A3.08,3.08,0,0,1,739.4,521.4Z"/><path d="M629.3,569.1h1.6v9.2h-1.3l-4.9-6.4v6.4h-1.6v-9.2h1.2l4.9,6.4v-6.4Zm8.9,6.3h-4.3a2.23,2.23,0,0,0,.5,1.3,1.7,1.7,0,0,0,1.3.4,2.81,2.81,0,0,0,1.9-.7l.5,1.1a10.91,10.91,0,0,1-1.1.6,5.85,5.85,0,0,1-1.3.2,3.49,3.49,0,0,1-2.5-.9,3.24,3.24,0,0,1-.9-2.4,3.06,3.06,0,0,1,.4-1.7,3.18,3.18,0,0,1,1.1-1.2,2.93,2.93,0,0,1,1.6-.4,2.86,2.86,0,0,1,2.1.8,3.37,3.37,0,0,1,.8,2.3v.6Zm-2.7-2.5a1.16,1.16,0,0,0-1,.4,3.34,3.34,0,0,0-.5,1.2h2.9a1.59,1.59,0,0,0-.4-1.2A1.78,1.78,0,0,0,635.5,572.9Zm7.6,2.1,2.7,3.3h-1.9l-1.7-2.1-1.7,2.1h-1.9l2.7-3.3-2.5-3.1h1.9l1.5,1.9,1.5-1.9h1.9Zm6.6,2.2h.6l-.1,1.2h-.7a2.81,2.81,0,0,1-2-.6,2.44,2.44,0,0,1-.6-1.8v-2.8h-1.2V572h1.2v-2h1.6v1.9h1.7v1.2h-1.7v2.7c.1,1,.4,1.4,1.2,1.4Zm8.8-5.4a1.94,1.94,0,0,1,1.7.7,2.81,2.81,0,0,1,.6,2v3.9h-1.6v-3.8a1.61,1.61,0,0,0-.3-1.1,1.22,1.22,0,0,0-.9-.3,1.37,1.37,0,0,0-1.1.4,1.59,1.59,0,0,0-.4,1.2v3.6h-1.6V572h1.6v.9a1.76,1.76,0,0,1,.9-.8A2,2,0,0,1,658.5,571.8Zm6.8,6.6a3.06,3.06,0,0,1-1.7-.4,2.54,2.54,0,0,1-1.1-1.2,3.42,3.42,0,0,1-.4-1.8,2.86,2.86,0,0,1,.4-1.7,3.18,3.18,0,0,1,1.1-1.2,3.81,3.81,0,0,1,3.4,0,2.54,2.54,0,0,1,1.1,1.2,3.29,3.29,0,0,1,.4,1.7,3.42,3.42,0,0,1-.4,1.8A3.18,3.18,0,0,1,667,578,3.06,3.06,0,0,1,665.3,578.4Zm0-1.3a1.66,1.66,0,0,0,1.2-.5,2.24,2.24,0,0,0,.4-1.5,2.08,2.08,0,0,0-.4-1.5,1.69,1.69,0,0,0-2.4,0,2.24,2.24,0,0,0-.4,1.5,2.08,2.08,0,0,0,.4,1.5A1.35,1.35,0,0,0,665.3,577.1Zm10.7-8v9.2h-1.6v-1a2,2,0,0,1-.8.8,2.38,2.38,0,0,1-1.2.3,2.82,2.82,0,0,1-1.5-.4,2.94,2.94,0,0,1-1-1.2,4.71,4.71,0,0,1-.4-1.7,3.06,3.06,0,0,1,.4-1.7,2.17,2.17,0,0,1,1-1.1,3.31,3.31,0,0,1,1.5-.4,2.13,2.13,0,0,1,1.2.3,2,2,0,0,1,.8.8v-3.7H676Zm-3.2,8a1.66,1.66,0,0,0,1.2-.5,2.24,2.24,0,0,0,.4-1.5,2.08,2.08,0,0,0-.4-1.5,1.35,1.35,0,0,0-1.2-.5,1.66,1.66,0,0,0-1.2.5,3,3,0,0,0,0,3A1.66,1.66,0,0,0,672.8,577.1Zm10.5-1.7H679a2.23,2.23,0,0,0,.5,1.3,1.7,1.7,0,0,0,1.3.4,2.81,2.81,0,0,0,1.9-.7l.5,1.1a10.91,10.91,0,0,1-1.1.6,3,3,0,0,1-1.3.2,3.49,3.49,0,0,1-2.5-.9,3.24,3.24,0,0,1-.9-2.4,3.06,3.06,0,0,1,.4-1.7,3.18,3.18,0,0,1,1.1-1.2,2.93,2.93,0,0,1,1.6-.4,2.86,2.86,0,0,1,2.1.8,3.37,3.37,0,0,1,.8,2.3v.6Zm-2.8-2.5a1.16,1.16,0,0,0-1,.4,2.2,2.2,0,0,0-.5,1.2h2.9a1.59,1.59,0,0,0-.4-1.2A1.53,1.53,0,0,0,680.5,572.9Zm13.9-.2v1.1H688v-1.1Zm0,2.6v1.1H688v-1.1Zm8.7-3.5a2.2,2.2,0,0,1,1.7.6,2.81,2.81,0,0,1,.6,2v3.9h-1.6v-3.8a1.61,1.61,0,0,0-.3-1.1,1.22,1.22,0,0,0-.9-.3,1.37,1.37,0,0,0-1.1.4,1.59,1.59,0,0,0-.4,1.2v3.6h-1.6v-6.4h1.6v.9a1.76,1.76,0,0,1,.9-.8A2.15,2.15,0,0,1,703.1,571.8Zm6.9,6.6a3.29,3.29,0,0,1-1.7-.4,2.54,2.54,0,0,1-1.1-1.2,3.42,3.42,0,0,1-.4-1.8,2.86,2.86,0,0,1,.4-1.7,4.15,4.15,0,0,1,1.1-1.2,3.29,3.29,0,0,1,1.7-.4,3.06,3.06,0,0,1,1.7.4,2.54,2.54,0,0,1,1.1,1.2,4.71,4.71,0,0,1,.4,1.7,3.42,3.42,0,0,1-.4,1.8,3.18,3.18,0,0,1-1.1,1.2A3.29,3.29,0,0,1,710,578.4Zm-.1-1.3a1.66,1.66,0,0,0,1.2-.5,2.24,2.24,0,0,0,.4-1.5,2.08,2.08,0,0,0-.4-1.5,1.35,1.35,0,0,0-1.2-.5,1.66,1.66,0,0,0-1.2.5,2.41,2.41,0,0,0-.4,1.5,2.08,2.08,0,0,0,.4,1.5A1.35,1.35,0,0,0,709.9,577.1Zm10.8-8v9.2h-1.6v-1a2,2,0,0,1-.8.8,2.38,2.38,0,0,1-1.2.3,2.82,2.82,0,0,1-1.5-.4,2.94,2.94,0,0,1-1-1.2,4.71,4.71,0,0,1-.4-1.7,3.06,3.06,0,0,1,.4-1.7,2.17,2.17,0,0,1,1-1.1,3.31,3.31,0,0,1,1.5-.4,2.13,2.13,0,0,1,1.2.3,2,2,0,0,1,.8.8v-3.7h1.6Zm-3.3,8a1.66,1.66,0,0,0,1.2-.5,2.41,2.41,0,0,0,.4-1.5,2.08,2.08,0,0,0-.4-1.5,1.35,1.35,0,0,0-1.2-.5,1.66,1.66,0,0,0-1.2.5,3,3,0,0,0,0,3A1.35,1.35,0,0,0,717.4,577.1Zm10.5-1.7h-4.3a2.23,2.23,0,0,0,.5,1.3,1.7,1.7,0,0,0,1.3.4,2.81,2.81,0,0,0,1.9-.7l.5,1.1a10.91,10.91,0,0,1-1.1.6,3,3,0,0,1-1.3.2,3.49,3.49,0,0,1-2.5-.9,3.24,3.24,0,0,1-.9-2.4,3.29,3.29,0,0,1,.4-1.7,3.18,3.18,0,0,1,1.1-1.2,2.93,2.93,0,0,1,1.6-.4,2.86,2.86,0,0,1,2.1.8,3.37,3.37,0,0,1,.8,2.3v.6Zm-2.8-2.5a1.16,1.16,0,0,0-1,.4,2.2,2.2,0,0,0-.5,1.2h2.9a1.59,1.59,0,0,0-.4-1.2A1.33,1.33,0,0,0,725.1,572.9Zm3.5,6.4v-1h6.2v1Z"/><path d="M737.4,569.1v3.7a3,3,0,0,1,.8-.8,2.66,2.66,0,0,1,1.2-.3,2.6,2.6,0,0,1,1.5.4,3.46,3.46,0,0,1,1,1.1,4.71,4.71,0,0,1,.4,1.7,3.06,3.06,0,0,1-.4,1.7,2.94,2.94,0,0,1-1,1.2,2.41,2.41,0,0,1-1.5.4,2.13,2.13,0,0,1-1.2-.3,2,2,0,0,1-.8-.8v1h-1.6v-9.2h1.6ZM739,573a1.66,1.66,0,0,0-1.2.5,2.41,2.41,0,0,0-.4,1.5,2.24,2.24,0,0,0,.4,1.5,1.69,1.69,0,0,0,2.4,0,3,3,0,0,0,0-3A1.66,1.66,0,0,0,739,573Z"/><path class="cls-1" d="M604.3,440.3h157v45h-157Z"/><path class="cls-1" d="M582.3,422.3h200v194h-200Z"/><path class="cls-1" d="M604.3,495.3h157v45h-157Z"/><path class="cls-1" d="M604.3,552.3h157v45h-157Z"/><path d="M342.6,512.8h4a3.33,3.33,0,0,1,2.3.7,2.52,2.52,0,0,1,.8,2.1,2.86,2.86,0,0,1-.8,2.1,3.17,3.17,0,0,1-2.3.7h-2.3V522h-1.7Zm3.8,4.4c1.2,0,1.7-.5,1.7-1.5a1.25,1.25,0,0,0-.4-1.1,2.23,2.23,0,0,0-1.3-.4h-2.1v3Zm8.9-.4-.9.1c-1.1.1-1.6.7-1.6,1.6v3.4h-1.6v-6.4h1.5v1.1a1.92,1.92,0,0,1,2-1.2h.5Zm6.3,2.3h-4.3a2.23,2.23,0,0,0,.5,1.3,1.7,1.7,0,0,0,1.3.4,2.81,2.81,0,0,0,1.9-.7l.5,1.1a10.91,10.91,0,0,1-1.1.6,3,3,0,0,1-1.3.2,3.49,3.49,0,0,1-2.5-.9,3.24,3.24,0,0,1-.9-2.4,3.06,3.06,0,0,1,.4-1.7,3.18,3.18,0,0,1,1.1-1.2,2.93,2.93,0,0,1,1.6-.4,2.86,2.86,0,0,1,2.1.8,3.2,3.2,0,0,1,.8,2.3Zm-2.8-2.5a1.16,1.16,0,0,0-1,.4,3.34,3.34,0,0,0-.5,1.2h2.9a1.59,1.59,0,0,0-.4-1.2,1.16,1.16,0,0,0-1-.4Zm8.6-.9H369l-2.8,6.3h-1.4l-2.8-6.3h1.7l1.8,4.5Zm9.6-.2a1.94,1.94,0,0,1,1.7.7,3,3,0,0,1,.6,2v3.9h-1.6v-3.8a1.61,1.61,0,0,0-.3-1.1,1.22,1.22,0,0,0-.9-.3,1.37,1.37,0,0,0-1.1.4,1.59,1.59,0,0,0-.4,1.2v3.6h-1.6v-6.4H375v.9a1.76,1.76,0,0,1,.9-.8,2.28,2.28,0,0,1,1.1-.3Zm6.8,6.6a3.29,3.29,0,0,1-1.7-.4,2.54,2.54,0,0,1-1.1-1.2,4.78,4.78,0,0,1-.4-1.8,2.86,2.86,0,0,1,.4-1.7,4.15,4.15,0,0,1,1.1-1.2,3.81,3.81,0,0,1,3.4,0,2.54,2.54,0,0,1,1.1,1.2,4.71,4.71,0,0,1,.4,1.7,3.66,3.66,0,0,1-.4,1.8,3.18,3.18,0,0,1-1.1,1.2A3.06,3.06,0,0,1,383.8,522.1Zm0-1.3a1.66,1.66,0,0,0,1.2-.5,2.24,2.24,0,0,0,.4-1.5,2.08,2.08,0,0,0-.4-1.5,1.69,1.69,0,0,0-2.4,0,2.24,2.24,0,0,0-.4,1.5,2.08,2.08,0,0,0,.4,1.5A1.66,1.66,0,0,0,383.8,520.8Zm10.7-8V522h-1.6v-1a2,2,0,0,1-.8.8,2.38,2.38,0,0,1-1.2.3,2.82,2.82,0,0,1-1.5-.4,2.34,2.34,0,0,1-1-1.2,4.71,4.71,0,0,1-.4-1.7,3.29,3.29,0,0,1,.4-1.7,2.71,2.71,0,0,1,1-1.1,3.31,3.31,0,0,1,1.5-.4,2.13,2.13,0,0,1,1.2.3,3,3,0,0,1,.8.8V513h1.6Zm-3.2,8a1.66,1.66,0,0,0,1.2-.5,3,3,0,0,0,0-3,1.69,1.69,0,0,0-2.4,0,3,3,0,0,0,0,3A1.66,1.66,0,0,0,391.3,520.8Zm10.5-1.7h-4.3a2.23,2.23,0,0,0,.5,1.3,1.7,1.7,0,0,0,1.3.4,2.81,2.81,0,0,0,1.9-.7l.5,1.1a10.91,10.91,0,0,1-1.1.6,3,3,0,0,1-1.3.2,3.49,3.49,0,0,1-2.5-.9,3.24,3.24,0,0,1-.9-2.4,3.06,3.06,0,0,1,.4-1.7,3.18,3.18,0,0,1,1.1-1.2,2.93,2.93,0,0,1,1.6-.4,2.86,2.86,0,0,1,2.1.8,3.2,3.2,0,0,1,.8,2.3Zm-2.8-2.5a1.16,1.16,0,0,0-1,.4,3.34,3.34,0,0,0-.5,1.2h2.9a1.59,1.59,0,0,0-.4-1.2,1.28,1.28,0,0,0-1-.4Zm13.9-.2v1.1h-6.3v-1.1Zm0,2.6v1.1h-6.3V519Zm8.8-3.5a1.94,1.94,0,0,1,1.7.7,3,3,0,0,1,.6,2v3.9h-1.6v-3.8a1.61,1.61,0,0,0-.3-1.1,1.22,1.22,0,0,0-.9-.3,1.37,1.37,0,0,0-1.1.4,1.59,1.59,0,0,0-.4,1.2v3.6H418v-6.4h1.6v.9a1.76,1.76,0,0,1,.9-.8,2.38,2.38,0,0,1,1.2-.3Zm9.7.1V522h-1.6v-1a3,3,0,0,1-.8.8,2,2,0,0,1-1.1.3c-1.6,0-2.3-.9-2.3-2.6v-3.8h1.6v3.8a1.33,1.33,0,0,0,.3,1,1.22,1.22,0,0,0,.9.3,1.37,1.37,0,0,0,1.1-.4,1.59,1.59,0,0,0,.4-1.2v-3.5h1.5Zm1.7,6.4v-9.2h1.6V522Zm3.3,0v-9.2H438V522Z"/><path d="M337.5,568.8h1.6V578h-1.3l-4.9-6.4V578h-1.6v-9.2h1.2l4.9,6.4v-6.4Zm9,6.3h-4.3a2.23,2.23,0,0,0,.5,1.3,1.7,1.7,0,0,0,1.3.4,2.81,2.81,0,0,0,1.9-.7l.5,1.1a10.91,10.91,0,0,1-1.1.6,3,3,0,0,1-1.3.2,3.49,3.49,0,0,1-2.5-.9,3.24,3.24,0,0,1-.9-2.4,3.06,3.06,0,0,1,.4-1.7,3.18,3.18,0,0,1,1.1-1.2,2.93,2.93,0,0,1,1.6-.4,2.86,2.86,0,0,1,2.1.8,3.2,3.2,0,0,1,.8,2.3Zm-2.8-2.5a1.16,1.16,0,0,0-1,.4,3.34,3.34,0,0,0-.5,1.2h2.9a1.59,1.59,0,0,0-.4-1.2,1.28,1.28,0,0,0-1-.4Zm7.7,2.1,2.7,3.3h-1.9l-1.7-2.1-1.7,2.1h-1.9l2.7-3.3-2.5-3.1H349l1.5,1.9,1.5-1.9h1.9Zm6.6,2.2h.6l-.1,1.2h-.7a2.81,2.81,0,0,1-2-.6,2.44,2.44,0,0,1-.6-1.8v-2.8H354v-1.2h1.2v-1.9h1.6v1.9h1.7v1.2h-1.7v2.7C356.8,576.5,357.2,576.9,358,576.9Zm8.7-5.4a1.94,1.94,0,0,1,1.7.7,3,3,0,0,1,.6,2v3.9h-1.6v-3.8a1.61,1.61,0,0,0-.3-1.1,1.22,1.22,0,0,0-.9-.3,1.37,1.37,0,0,0-1.1.4,1.59,1.59,0,0,0-.4,1.2v3.6H363v-6.4h1.6v.9a1.76,1.76,0,0,1,.9-.8,2.66,2.66,0,0,1,1.2-.3Zm6.9,6.6a3.29,3.29,0,0,1-1.7-.4,2.54,2.54,0,0,1-1.1-1.2,4.78,4.78,0,0,1-.4-1.8,2.86,2.86,0,0,1,.4-1.7,4.15,4.15,0,0,1,1.1-1.2,3.81,3.81,0,0,1,3.4,0,2.54,2.54,0,0,1,1.1,1.2,4.71,4.71,0,0,1,.4,1.7,3.66,3.66,0,0,1-.4,1.8,3.18,3.18,0,0,1-1.1,1.2A3.29,3.29,0,0,1,373.6,578.1Zm-.1-1.3a1.66,1.66,0,0,0,1.2-.5,2.24,2.24,0,0,0,.4-1.5,2.08,2.08,0,0,0-.4-1.5,1.69,1.69,0,0,0-2.4,0,2.24,2.24,0,0,0-.4,1.5,2.08,2.08,0,0,0,.4,1.5A1.66,1.66,0,0,0,373.5,576.8Zm10.8-8V578h-1.6v-1a2,2,0,0,1-.8.8,2.38,2.38,0,0,1-1.2.3,2.82,2.82,0,0,1-1.5-.4,2.34,2.34,0,0,1-1-1.2,4.71,4.71,0,0,1-.4-1.7,3.29,3.29,0,0,1,.4-1.7,2.71,2.71,0,0,1,1-1.1,3.31,3.31,0,0,1,1.5-.4,2.13,2.13,0,0,1,1.2.3,3,3,0,0,1,.8.8V569h1.6Zm-3.3,8a1.66,1.66,0,0,0,1.2-.5,3,3,0,0,0,0-3,1.69,1.69,0,0,0-2.4,0,3,3,0,0,0,0,3A1.66,1.66,0,0,0,381,576.8Zm10.5-1.7h-4.3a2.23,2.23,0,0,0,.5,1.3,1.7,1.7,0,0,0,1.3.4,2.81,2.81,0,0,0,1.9-.7l.5,1.1a10.91,10.91,0,0,1-1.1.6,3,3,0,0,1-1.3.2,3.49,3.49,0,0,1-2.5-.9,3.24,3.24,0,0,1-.9-2.4,3.06,3.06,0,0,1,.4-1.7,3.18,3.18,0,0,1,1.1-1.2,2.93,2.93,0,0,1,1.6-.4,2.86,2.86,0,0,1,2.1.8,3.2,3.2,0,0,1,.8,2.3Zm-2.8-2.5a1.16,1.16,0,0,0-1,.4,3.34,3.34,0,0,0-.5,1.2h2.9a1.59,1.59,0,0,0-.4-1.2,1.16,1.16,0,0,0-1-.4Zm13.9-.2v1.1h-6.3v-1.1Zm0,2.6v1.1h-6.3V575Zm8.8-3.5a1.94,1.94,0,0,1,1.7.7,3,3,0,0,1,.6,2v3.9H412v-3.8a1.61,1.61,0,0,0-.3-1.1,1.22,1.22,0,0,0-.9-.3,1.37,1.37,0,0,0-1.1.4,1.59,1.59,0,0,0-.4,1.2v3.6h-1.6v-6.4h1.6v.9a1.76,1.76,0,0,1,.9-.8,2.38,2.38,0,0,1,1.2-.3Zm6.8,6.6a3.29,3.29,0,0,1-1.7-.4,2.54,2.54,0,0,1-1.1-1.2,4.78,4.78,0,0,1-.4-1.8,2.86,2.86,0,0,1,.4-1.7,4.15,4.15,0,0,1,1.1-1.2,3.81,3.81,0,0,1,3.4,0A2.54,2.54,0,0,1,421,573a4.71,4.71,0,0,1,.4,1.7,3.66,3.66,0,0,1-.4,1.8,3.18,3.18,0,0,1-1.1,1.2A3.29,3.29,0,0,1,418.2,578.1Zm0-1.3a1.66,1.66,0,0,0,1.2-.5,2.24,2.24,0,0,0,.4-1.5,2.08,2.08,0,0,0-.4-1.5,1.69,1.69,0,0,0-2.4,0,2.24,2.24,0,0,0-.4,1.5,2.08,2.08,0,0,0,.4,1.5A1.66,1.66,0,0,0,418.2,576.8Zm10.7-8V578h-1.6v-1a2,2,0,0,1-.8.8,2.38,2.38,0,0,1-1.2.3,2.82,2.82,0,0,1-1.5-.4,2.34,2.34,0,0,1-1-1.2,4.71,4.71,0,0,1-.4-1.7,3.29,3.29,0,0,1,.4-1.7,2.71,2.71,0,0,1,1-1.1,3.31,3.31,0,0,1,1.5-.4,2.13,2.13,0,0,1,1.2.3,3,3,0,0,1,.8.8V569h1.6Zm-3.2,8a1.66,1.66,0,0,0,1.2-.5,3,3,0,0,0,0-3,1.69,1.69,0,0,0-2.4,0,3,3,0,0,0,0,3A1.66,1.66,0,0,0,425.7,576.8Zm10.5-1.7h-4.3a2.23,2.23,0,0,0,.5,1.3,1.7,1.7,0,0,0,1.3.4,2.81,2.81,0,0,0,1.9-.7l.5,1.1a10.91,10.91,0,0,1-1.1.6,3,3,0,0,1-1.3.2,3.49,3.49,0,0,1-2.5-.9,3.24,3.24,0,0,1-.9-2.4,3.06,3.06,0,0,1,.4-1.7,3.18,3.18,0,0,1,1.1-1.2,2.93,2.93,0,0,1,1.6-.4,2.86,2.86,0,0,1,2.1.8,3.2,3.2,0,0,1,.8,2.3Zm-2.8-2.5a1.16,1.16,0,0,0-1,.4,3.34,3.34,0,0,0-.5,1.2h2.9a1.59,1.59,0,0,0-.4-1.2,1.28,1.28,0,0,0-1-.4Zm3.4,6.4v-1H443v1Z"/><path d="M446.7,571.5a2.44,2.44,0,0,1,2,.7,2.81,2.81,0,0,1,.6,2v3.9h-1.5v-1a1.78,1.78,0,0,1-.7.8,2,2,0,0,1-1.1.3,2.66,2.66,0,0,1-1.2-.3,2.7,2.7,0,0,1-.8-.7,1.69,1.69,0,0,1-.3-1,1.37,1.37,0,0,1,.4-1.1,2,2,0,0,1,1.2-.6,9.2,9.2,0,0,1,1.9-.2h.6V574a1.06,1.06,0,0,0-1.2-1.2,5.16,5.16,0,0,0-1.1.2,5.36,5.36,0,0,0-1.1.5l-.5-1.1c.4-.2.8-.4,1.3-.6A4.94,4.94,0,0,1,446.7,571.5Zm1.1,3.6h-.5a3.42,3.42,0,0,0-1.1.1c-.3.1-.6.1-.7.3a.76.76,0,0,0-.2.5,1,1,0,0,0,1,1,1.38,1.38,0,0,0,1.5-1.5v-.4Z"/><path d="M470.3,486.1h-160V439.4h160Zm-158-44.7v42.7h156V441.4Z"/><path d="M491.3,617.3h-202V421.5h202Zm-200-193.8V615.3h198V423.5Z"/><path d="M470.3,541.3h-160V494.6h160Zm-158-44.8v42.7h156V496.5Z"/><path d="M470.3,597.9h-160V551.2h160Zm-158-44.7v42.7h156V553.2Z"/><path class="cls-2" d="M568.6,568.3l14,7-14,7v-6H470.1v-2h98.5Z"/><path class="cls-2" d="M504.3,510.3v6h98.5v2H504.3v6l-14-7Z"/><path class="cls-2" d="M860.8,568.3l14,7-14,7v-6H762.3v-2h98.5Z"/><path class="cls-2" d="M796.4,510.3v6h98.5v2H796.4v6l-14-7Z"/><path d="M358.8,183.8h3.4a4.79,4.79,0,0,1,3.5,1.2,5.42,5.42,0,0,1,0,6.8,4.79,4.79,0,0,1-3.5,1.2h-3.4Zm3.2,7.8a3.2,3.2,0,0,0,0-6.4h-1.6v6.4Zm9.2-5.1a2.2,2.2,0,0,1,2.6,2.6V193h-1.5v-1a1.78,1.78,0,0,1-.7.8,2,2,0,0,1-1.1.3,2.66,2.66,0,0,1-1.2-.3,1.85,1.85,0,0,1-.8-.7,1.69,1.69,0,0,1-.3-1,1.37,1.37,0,0,1,.4-1.1,2,2,0,0,1,1.2-.6,9.2,9.2,0,0,1,1.9-.2h.6v-.3a1.06,1.06,0,0,0-1.2-1.2,5.16,5.16,0,0,0-1.1.2,5.36,5.36,0,0,0-1.1.5l-.5-1.1c.4-.2.8-.4,1.3-.6a3.89,3.89,0,0,1,1.5-.2Zm-.4,5.4a1.38,1.38,0,0,0,1.5-1.5v-.3H372a5.72,5.72,0,0,0-1.4.1c-.4.1-.6.1-.7.3s-.2.3-.2.5a.91.91,0,0,0,.3.7A1.08,1.08,0,0,0,370.8,191.9Zm7.9,0h.6l-.1,1.2h-.7a2.81,2.81,0,0,1-2-.6,2.44,2.44,0,0,1-.6-1.8v-2.8h-1.2v-1.2h1.2v-1.9h1.6v1.9h1.7v1.2h-1.7v2.7c0,.9.4,1.3,1.2,1.3Zm4.3-5.4a2.2,2.2,0,0,1,2.6,2.6V193h-1.5v-1a1.78,1.78,0,0,1-.7.8,2,2,0,0,1-1.1.3,2.66,2.66,0,0,1-1.2-.3,1.85,1.85,0,0,1-.8-.7,1.69,1.69,0,0,1-.3-1,1.37,1.37,0,0,1,.4-1.1,2,2,0,0,1,1.2-.6,9.2,9.2,0,0,1,1.9-.2h.6v-.3a1.06,1.06,0,0,0-1.2-1.2,5.16,5.16,0,0,0-1.1.2,5.36,5.36,0,0,0-1.1.5l-.5-1.1c.4-.2.8-.4,1.3-.6a3.89,3.89,0,0,1,1.5-.2Zm-.4,5.4a1.38,1.38,0,0,0,1.5-1.5v-.3h-.2a5.72,5.72,0,0,0-1.4.1c-.4.1-.6.1-.7.3s-.2.3-.2.5a.91.91,0,0,0,.3.7A.84.84,0,0,0,382.6,191.9Zm14.4-4.5v1.1h-6.3v-1.1Zm0,2.6v1.1h-6.3V190Zm6.8-4.5v1.8H402v-1.2a3.73,3.73,0,0,1,.2-1.2,3.32,3.32,0,0,1,.8-1.1l.7.5a2.65,2.65,0,0,0-.5.6,1.42,1.42,0,0,0-.2.6Zm4.3,1a2.2,2.2,0,0,1,2.6,2.6V193h-1.5v-1a1.78,1.78,0,0,1-.7.8,2,2,0,0,1-1.1.3,2.66,2.66,0,0,1-1.2-.3,1.85,1.85,0,0,1-.8-.7,1.69,1.69,0,0,1-.3-1,1.37,1.37,0,0,1,.4-1.1,2,2,0,0,1,1.2-.6,9.2,9.2,0,0,1,1.9-.2h.6v-.3a1.06,1.06,0,0,0-1.2-1.2,5.16,5.16,0,0,0-1.1.2,5.36,5.36,0,0,0-1.1.5l-.5-1.1c.4-.2.8-.4,1.3-.6a3.89,3.89,0,0,1,1.5-.2Zm-.4,5.4a1.38,1.38,0,0,0,1.5-1.5v-.3H409a5.72,5.72,0,0,0-1.4.1c-.4.1-.6.1-.7.3s-.2.3-.2.5a.91.91,0,0,0,.3.7A.84.84,0,0,0,407.7,191.9Zm6.3-8.1V185a3.73,3.73,0,0,1-.2,1.2,3.32,3.32,0,0,1-.8,1.1l-.7-.5a2.65,2.65,0,0,0,.5-.6,1.42,1.42,0,0,0,.2-.6h-.8v-1.8Z"/><path d="M655,184.1h3.4a4.79,4.79,0,0,1,3.5,1.2,4.55,4.55,0,0,1,1.2,3.4,4.7,4.7,0,0,1-1.2,3.4,4.79,4.79,0,0,1-3.5,1.2H655Zm3.3,7.8a3.2,3.2,0,1,0,0-6.4h-1.6v6.4Zm9.1-5.1a2.32,2.32,0,0,1,2.7,2.6v3.9h-1.5v-1a1.78,1.78,0,0,1-.7.8,2,2,0,0,1-1.1.3,2.66,2.66,0,0,1-1.2-.3,2.7,2.7,0,0,1-.8-.7,1.69,1.69,0,0,1-.3-1,1.37,1.37,0,0,1,.4-1.1,2,2,0,0,1,1.2-.6,9.2,9.2,0,0,1,1.9-.2h.6v-.3a1.06,1.06,0,0,0-1.2-1.2,5.16,5.16,0,0,0-1.1.2,5.36,5.36,0,0,0-1.1.5l-.5-1.1c.4-.2.8-.4,1.3-.6a3.64,3.64,0,0,1,1.4-.2Zm-.4,5.4a1.38,1.38,0,0,0,1.5-1.5v-.3h-.2a5.72,5.72,0,0,0-1.4.1c-.3.1-.6.1-.7.3s-.2.3-.2.5a.91.91,0,0,0,.3.7A.84.84,0,0,0,667,192.2Zm8,0h.6l-.1,1.2h-.7a2.81,2.81,0,0,1-2-.6,2.44,2.44,0,0,1-.6-1.8v-2.8H671V187h1.2v-2h1.6v1.9h1.7v1.2h-1.7v2.7C673.8,191.8,674.2,192.2,675,192.2Zm4.2-5.4a2.2,2.2,0,0,1,2.6,2.6v3.9h-1.5v-1a1.78,1.78,0,0,1-.7.8,2,2,0,0,1-1.1.3,2.66,2.66,0,0,1-1.2-.3,1.85,1.85,0,0,1-.8-.7,1.69,1.69,0,0,1-.3-1,1.37,1.37,0,0,1,.4-1.1,2,2,0,0,1,1.2-.6,9.2,9.2,0,0,1,1.9-.2h.6v-.3a1.06,1.06,0,0,0-1.2-1.2,5.16,5.16,0,0,0-1.1.2,5.36,5.36,0,0,0-1.1.5l-.5-1.1c.4-.2.8-.4,1.3-.6a10.4,10.4,0,0,1,1.5-.2Zm-.3,5.4a1.38,1.38,0,0,0,1.5-1.5v-.3h-.2a5.72,5.72,0,0,0-1.4.1c-.3.1-.6.1-.7.3s-.2.3-.2.5a.91.91,0,0,0,.3.7A.84.84,0,0,0,678.9,192.2Zm14.4-4.5v1.1H687v-1.1Zm0,2.6v1.1H687v-1.1Zm6.7-4.5v1.8h-1.8v-1.2a3.73,3.73,0,0,1,.2-1.2,3.32,3.32,0,0,1,.8-1.1l.7.5a2.65,2.65,0,0,0-.5.6,1.42,1.42,0,0,0-.2.6Zm5.2,1a2.6,2.6,0,0,1,1.5.4,2.66,2.66,0,0,1,1,1.1,4.71,4.71,0,0,1,.4,1.7,3.06,3.06,0,0,1-.4,1.7,4,4,0,0,1-1,1.2,2.41,2.41,0,0,1-1.5.4,2.13,2.13,0,0,1-1.2-.3,2,2,0,0,1-.8-.8v1h-1.6V184h1.6v3.7a3,3,0,0,1,.8-.8C704.4,186.9,704.8,186.8,705.2,186.8Zm-.4,5.3a1.66,1.66,0,0,0,1.2-.5,3,3,0,0,0,0-3,1.69,1.69,0,0,0-2.4,0,2.41,2.41,0,0,0-.4,1.5,2.24,2.24,0,0,0,.4,1.5A1.35,1.35,0,0,0,704.8,192.1Zm6.3-8v1.2a3.73,3.73,0,0,1-.2,1.2,3.83,3.83,0,0,1-.8,1.1l-.7-.5a2.65,2.65,0,0,0,.5-.6,1.42,1.42,0,0,0,.2-.6h-.8v-1.8Z"/><path d="M624.5,238.1h4a3.33,3.33,0,0,1,2.3.7,3.16,3.16,0,0,1,0,4.2,3.17,3.17,0,0,1-2.3.7h-2.3v3.6h-1.7Zm3.8,4.3c1.2,0,1.7-.5,1.7-1.5a1.25,1.25,0,0,0-.4-1.1,2.23,2.23,0,0,0-1.3-.4h-2.1v3Zm8.8-.3-.9.1c-1.1.1-1.6.7-1.6,1.6v3.4H633v-6.4h1.5v1.1a1.92,1.92,0,0,1,2-1.2h.5Zm6.4,2.3h-4.3a2.23,2.23,0,0,0,.5,1.3,1.7,1.7,0,0,0,1.3.4,2.81,2.81,0,0,0,1.9-.7l.5,1.1a10.91,10.91,0,0,1-1.1.6,3,3,0,0,1-1.3.2,3.49,3.49,0,0,1-2.5-.9,3.24,3.24,0,0,1-.9-2.4,3.06,3.06,0,0,1,.4-1.7,3.18,3.18,0,0,1,1.1-1.2,2.93,2.93,0,0,1,1.6-.4,2.86,2.86,0,0,1,2.1.8,3.37,3.37,0,0,1,.8,2.3v.6Zm-2.8-2.5a1.16,1.16,0,0,0-1,.4,2.2,2.2,0,0,0-.5,1.2h2.9a1.59,1.59,0,0,0-.4-1.2A1.28,1.28,0,0,0,640.7,241.9Zm8.6-.9h1.6l-2.8,6.3h-1.4l-2.8-6.3h1.7l1.8,4.5Zm9.6-.2a2.2,2.2,0,0,1,1.7.6,2.81,2.81,0,0,1,.6,2v3.9h-1.6v-3.8a1.61,1.61,0,0,0-.3-1.1,1.22,1.22,0,0,0-.9-.3,1.37,1.37,0,0,0-1.1.4,1.59,1.59,0,0,0-.4,1.2v3.6h-1.6v-6.4h1.6v.9a1.76,1.76,0,0,1,.9-.8A2,2,0,0,1,658.9,240.8Zm6.8,6.6a3.06,3.06,0,0,1-1.7-.4,2.54,2.54,0,0,1-1.1-1.2,3.42,3.42,0,0,1-.4-1.8,2.86,2.86,0,0,1,.4-1.7,3.18,3.18,0,0,1,1.1-1.2,3.81,3.81,0,0,1,3.4,0,2.54,2.54,0,0,1,1.1,1.2,3.29,3.29,0,0,1,.4,1.7,3.66,3.66,0,0,1-.4,1.8,3.18,3.18,0,0,1-1.1,1.2A3.29,3.29,0,0,1,665.7,247.4Zm0-1.3a1.66,1.66,0,0,0,1.2-.5,2.24,2.24,0,0,0,.4-1.5,2.08,2.08,0,0,0-.4-1.5,1.69,1.69,0,0,0-2.4,0,2.24,2.24,0,0,0-.4,1.5,2.08,2.08,0,0,0,.4,1.5A1.66,1.66,0,0,0,665.7,246.1Zm10.7-8v9.2h-1.6v-1a2,2,0,0,1-.8.8,2.38,2.38,0,0,1-1.2.3,2.82,2.82,0,0,1-1.5-.4,2.94,2.94,0,0,1-1-1.2,4.71,4.71,0,0,1-.4-1.7,3.29,3.29,0,0,1,.4-1.7,2.17,2.17,0,0,1,1-1.1,2.41,2.41,0,0,1,1.5-.4,2.13,2.13,0,0,1,1.2.3,3,3,0,0,1,.8.8v-3.7Zm-3.2,8a1.66,1.66,0,0,0,1.2-.5,2.24,2.24,0,0,0,.4-1.5,2.08,2.08,0,0,0-.4-1.5,1.69,1.69,0,0,0-2.4,0,3,3,0,0,0,0,3A1.35,1.35,0,0,0,673.2,246.1Zm10.5-1.7h-4.3a2.23,2.23,0,0,0,.5,1.3,1.7,1.7,0,0,0,1.3.4,2.81,2.81,0,0,0,1.9-.7l.5,1.1a10.91,10.91,0,0,1-1.1.6,3,3,0,0,1-1.3.2,3.49,3.49,0,0,1-2.5-.9,3.24,3.24,0,0,1-.9-2.4,3.06,3.06,0,0,1,.4-1.7,3.18,3.18,0,0,1,1.1-1.2,2.93,2.93,0,0,1,1.6-.4,2.86,2.86,0,0,1,2.1.8,3.2,3.2,0,0,1,.8,2.3v.6Zm-2.8-2.5a1.16,1.16,0,0,0-1,.4,3.34,3.34,0,0,0-.5,1.2h2.9a1.59,1.59,0,0,0-.4-1.2A1.28,1.28,0,0,0,680.9,241.9Zm13.8-.2v1.1h-6.3v-1.1Zm0,2.6v1.1h-6.3v-1.1Zm8.8-3.5a2.2,2.2,0,0,1,1.7.6,2.81,2.81,0,0,1,.6,2v3.9h-1.6v-3.8a1.61,1.61,0,0,0-.3-1.1,1.22,1.22,0,0,0-.9-.3,1.37,1.37,0,0,0-1.1.4,1.59,1.59,0,0,0-.4,1.2v3.6h-1.6v-6.4h1.6v.9a1.76,1.76,0,0,1,.9-.8A3.59,3.59,0,0,1,703.5,240.8Zm6.8,6.6a3.06,3.06,0,0,1-1.7-.4,2.54,2.54,0,0,1-1.1-1.2,3.42,3.42,0,0,1-.4-1.8,2.86,2.86,0,0,1,.4-1.7,4.15,4.15,0,0,1,1.1-1.2,3.81,3.81,0,0,1,3.4,0,2.54,2.54,0,0,1,1.1,1.2,3.29,3.29,0,0,1,.4,1.7,3.42,3.42,0,0,1-.4,1.8A3.18,3.18,0,0,1,712,247,3.06,3.06,0,0,1,710.3,247.4Zm0-1.3a1.66,1.66,0,0,0,1.2-.5,2.24,2.24,0,0,0,.4-1.5,2.08,2.08,0,0,0-.4-1.5,1.35,1.35,0,0,0-1.2-.5,1.66,1.66,0,0,0-1.2.5,2.41,2.41,0,0,0-.4,1.5,2.08,2.08,0,0,0,.4,1.5A1.35,1.35,0,0,0,710.3,246.1Zm10.7-8v9.2h-1.6v-1a2,2,0,0,1-.8.8,2.66,2.66,0,0,1-1.2.3,2.82,2.82,0,0,1-1.5-.4,2.34,2.34,0,0,1-1-1.2,4.71,4.71,0,0,1-.4-1.7,3.06,3.06,0,0,1,.4-1.7,2.17,2.17,0,0,1,1-1.1,3.31,3.31,0,0,1,1.5-.4,2.13,2.13,0,0,1,1.2.3,2,2,0,0,1,.8.8v-3.7H721Zm-3.2,8a1.66,1.66,0,0,0,1.2-.5,2.41,2.41,0,0,0,.4-1.5,2.24,2.24,0,0,0-.4-1.5,1.35,1.35,0,0,0-1.2-.5,1.66,1.66,0,0,0-1.2.5,3,3,0,0,0,0,3A1.66,1.66,0,0,0,717.8,246.1Zm10.5-1.7H724a2.23,2.23,0,0,0,.5,1.3,1.7,1.7,0,0,0,1.3.4,2.81,2.81,0,0,0,1.9-.7l.5,1.1a10.91,10.91,0,0,1-1.1.6,3,3,0,0,1-1.3.2,3.49,3.49,0,0,1-2.5-.9,3.24,3.24,0,0,1-.9-2.4,3.06,3.06,0,0,1,.4-1.7,3.18,3.18,0,0,1,1.1-1.2,2.93,2.93,0,0,1,1.6-.4,2.86,2.86,0,0,1,2.1.8,3.37,3.37,0,0,1,.8,2.3v.6Zm-2.8-2.5a1.16,1.16,0,0,0-1,.4,2.2,2.2,0,0,0-.5,1.2h2.9a1.59,1.59,0,0,0-.4-1.2A1.53,1.53,0,0,0,725.5,241.9Zm3.4,6.4v-1h6.2v1Z"/><path d="M738.9,240.8a2.2,2.2,0,0,1,2.6,2.6v3.9H740v-1a1.78,1.78,0,0,1-.7.8,2,2,0,0,1-1.1.3,2.66,2.66,0,0,1-1.2-.3,1.85,1.85,0,0,1-.8-.7,1.69,1.69,0,0,1-.3-1,1.37,1.37,0,0,1,.4-1.1,2,2,0,0,1,1.2-.6,9.2,9.2,0,0,1,1.9-.2h.6v-.3a1.06,1.06,0,0,0-1.2-1.2,5.16,5.16,0,0,0-1.1.2,5.36,5.36,0,0,0-1.1.5l-.5-1.1c.4-.2.8-.4,1.3-.6A3.89,3.89,0,0,1,738.9,240.8Zm1.1,3.6h-.5a3.42,3.42,0,0,0-1.1.1c-.3.1-.6.1-.7.3a.76.76,0,0,0-.2.5,1,1,0,0,0,1,1,1.38,1.38,0,0,0,1.5-1.5Z"/><path class="cls-1" d="M604.3,166.3h157v45h-157Z"/><path class="cls-1" d="M582.3,148.3h200v194h-200Z"/><path class="cls-1" d="M604.3,221.3h157v45h-157Z"/><path class="cls-1" d="M604.3,278.3h157v45h-157Z"/><path d="M640.4,295.1H642v9.2h-1.3l-4.9-6.4v6.4h-1.6v-9.2h1.2l4.9,6.4v-6.4Zm9,6.3h-4.3a2.23,2.23,0,0,0,.5,1.3,1.7,1.7,0,0,0,1.3.4,2.81,2.81,0,0,0,1.9-.7l.5,1.1a10.91,10.91,0,0,1-1.1.6,5.85,5.85,0,0,1-1.3.2,3.49,3.49,0,0,1-2.5-.9,3.24,3.24,0,0,1-.9-2.4,3.29,3.29,0,0,1,.4-1.7,3.18,3.18,0,0,1,1.1-1.2,2.93,2.93,0,0,1,1.6-.4,2.86,2.86,0,0,1,2.1.8,3.37,3.37,0,0,1,.8,2.3v.6Zm-2.8-2.5a1.16,1.16,0,0,0-1,.4,2.2,2.2,0,0,0-.5,1.2H648a1.59,1.59,0,0,0-.4-1.2A1.33,1.33,0,0,0,646.6,298.9Zm7.7,2.1,2.7,3.3h-1.9l-1.7-2.1-1.7,2.1h-1.9l2.7-3.3-2.5-3.1h1.9l1.5,1.9,1.5-1.9h1.9Zm6.6,2.2h.6l-.1,1.2h-.7a2.81,2.81,0,0,1-2-.6,2.44,2.44,0,0,1-.6-1.8v-2.8h-1.2V298h1.2v-2h1.6v1.9h1.7v1.2h-1.7v2.7c0,1,.4,1.4,1.2,1.4Zm8.8-5.4a2.2,2.2,0,0,1,1.7.6,2.81,2.81,0,0,1,.6,2v3.9h-1.6v-3.8a1.61,1.61,0,0,0-.3-1.1,1.22,1.22,0,0,0-.9-.3,1.37,1.37,0,0,0-1.1.4,1.59,1.59,0,0,0-.4,1.2v3.6H666v-6.4h1.6v.9a1.76,1.76,0,0,1,.9-.8A2.34,2.34,0,0,1,669.7,297.8Zm6.8,6.6a3.29,3.29,0,0,1-1.7-.4,2.54,2.54,0,0,1-1.1-1.2,3.42,3.42,0,0,1-.4-1.8,2.86,2.86,0,0,1,.4-1.7,3.18,3.18,0,0,1,1.1-1.2,3.29,3.29,0,0,1,1.7-.4,3.06,3.06,0,0,1,1.7.4,2.54,2.54,0,0,1,1.1,1.2,3.29,3.29,0,0,1,.4,1.7,3.42,3.42,0,0,1-.4,1.8,3.18,3.18,0,0,1-1.1,1.2A3.29,3.29,0,0,1,676.5,304.4Zm0-1.3a1.66,1.66,0,0,0,1.2-.5,2.24,2.24,0,0,0,.4-1.5,2.08,2.08,0,0,0-.4-1.5,1.35,1.35,0,0,0-1.2-.5,1.66,1.66,0,0,0-1.2.5,2.41,2.41,0,0,0-.4,1.5,2.08,2.08,0,0,0,.4,1.5A1.35,1.35,0,0,0,676.5,303.1Zm10.7-8v9.2h-1.6v-1a2,2,0,0,1-.8.8,2.66,2.66,0,0,1-1.2.3,2.82,2.82,0,0,1-1.5-.4,2.94,2.94,0,0,1-1-1.2,4.71,4.71,0,0,1-.4-1.7,3.06,3.06,0,0,1,.4-1.7,2.17,2.17,0,0,1,1-1.1,2.41,2.41,0,0,1,1.5-.4,2.13,2.13,0,0,1,1.2.3,2,2,0,0,1,.8.8v-3.7Zm-3.2,8a1.66,1.66,0,0,0,1.2-.5,2.41,2.41,0,0,0,.4-1.5,2.24,2.24,0,0,0-.4-1.5,1.35,1.35,0,0,0-1.2-.5,1.66,1.66,0,0,0-1.2.5,3,3,0,0,0,0,3A1.35,1.35,0,0,0,684,303.1Zm10.5-1.7h-4.3a2.23,2.23,0,0,0,.5,1.3,1.7,1.7,0,0,0,1.3.4,2.81,2.81,0,0,0,1.9-.7l.5,1.1a10.91,10.91,0,0,1-1.1.6,5.85,5.85,0,0,1-1.3.2,3.49,3.49,0,0,1-2.5-.9,3.24,3.24,0,0,1-.9-2.4,3.29,3.29,0,0,1,.4-1.7,3.18,3.18,0,0,1,1.1-1.2,2.93,2.93,0,0,1,1.6-.4,2.86,2.86,0,0,1,2.1.8,3.37,3.37,0,0,1,.8,2.3v.6Zm-2.8-2.5a1.16,1.16,0,0,0-1,.4,2.2,2.2,0,0,0-.5,1.2h2.9a1.59,1.59,0,0,0-.4-1.2A1.78,1.78,0,0,0,691.7,298.9Zm13.8-.2v1.1h-6.3v-1.1Zm0,2.6v1.1h-6.3v-1.1Zm8.8-3.5a2.2,2.2,0,0,1,1.7.6,2.81,2.81,0,0,1,.6,2v3.9H715v-3.8a1.61,1.61,0,0,0-.3-1.1,1.22,1.22,0,0,0-.9-.3,1.37,1.37,0,0,0-1.1.4,1.59,1.59,0,0,0-.4,1.2v3.6h-1.6v-6.4h1.6v.9a1.76,1.76,0,0,1,.9-.8,2.15,2.15,0,0,1,1.1-.2Zm9.8.1v6.4h-1.6v-1a3,3,0,0,1-.8.8,2,2,0,0,1-1.1.3c-1.6,0-2.3-.9-2.3-2.6V298h1.6v3.8a1.33,1.33,0,0,0,.3,1,1.22,1.22,0,0,0,.9.3,1.37,1.37,0,0,0,1.1-.4,1.59,1.59,0,0,0,.4-1.2V298Zm1.7,6.4v-9.2h1.6v9.2Zm3.3,0v-9.2h1.6v9.2Z"/><path d="M342.6,238.8h4a3.33,3.33,0,0,1,2.3.7,2.52,2.52,0,0,1,.8,2.1,2.86,2.86,0,0,1-.8,2.1,3.17,3.17,0,0,1-2.3.7h-2.3V248h-1.7Zm3.8,4.4c1.2,0,1.7-.5,1.7-1.5a1.25,1.25,0,0,0-.4-1.1,2.23,2.23,0,0,0-1.3-.4h-2.1v3Zm8.9-.4-.9.1c-1.1.1-1.6.7-1.6,1.6v3.4h-1.6v-6.4h1.5v1.1a1.92,1.92,0,0,1,2-1.2h.5Zm6.3,2.3h-4.3a2.23,2.23,0,0,0,.5,1.3,1.7,1.7,0,0,0,1.3.4,2.81,2.81,0,0,0,1.9-.7l.5,1.1a10.91,10.91,0,0,1-1.1.6,3,3,0,0,1-1.3.2,3.49,3.49,0,0,1-2.5-.9,3.24,3.24,0,0,1-.9-2.4,3.06,3.06,0,0,1,.4-1.7,3.18,3.18,0,0,1,1.1-1.2,2.93,2.93,0,0,1,1.6-.4,2.86,2.86,0,0,1,2.1.8,3.2,3.2,0,0,1,.8,2.3Zm-2.8-2.5a1.16,1.16,0,0,0-1,.4,3.34,3.34,0,0,0-.5,1.2h2.9a1.59,1.59,0,0,0-.4-1.2,1.16,1.16,0,0,0-1-.4Zm8.6-.9H369l-2.8,6.3h-1.4l-2.8-6.3h1.7l1.8,4.5Zm9.6-.2a2.2,2.2,0,0,1,1.7.6,2.81,2.81,0,0,1,.6,2V248h-1.6v-3.8a1.61,1.61,0,0,0-.3-1.1,1.22,1.22,0,0,0-.9-.3,1.37,1.37,0,0,0-1.1.4,1.59,1.59,0,0,0-.4,1.2V248h-1.6v-6.4H375v.9a1.76,1.76,0,0,1,.9-.8,2.15,2.15,0,0,1,1.1-.2Zm6.8,6.6a3.29,3.29,0,0,1-1.7-.4,2.54,2.54,0,0,1-1.1-1.2,4.78,4.78,0,0,1-.4-1.8,2.86,2.86,0,0,1,.4-1.7,4.15,4.15,0,0,1,1.1-1.2,3.81,3.81,0,0,1,3.4,0,2.54,2.54,0,0,1,1.1,1.2,4.71,4.71,0,0,1,.4,1.7,3.66,3.66,0,0,1-.4,1.8,3.18,3.18,0,0,1-1.1,1.2A3.06,3.06,0,0,1,383.8,248.1Zm0-1.3a1.66,1.66,0,0,0,1.2-.5,2.24,2.24,0,0,0,.4-1.5,2.08,2.08,0,0,0-.4-1.5,1.69,1.69,0,0,0-2.4,0,2.24,2.24,0,0,0-.4,1.5,2.08,2.08,0,0,0,.4,1.5A1.66,1.66,0,0,0,383.8,246.8Zm10.7-8V248h-1.6v-1a2,2,0,0,1-.8.8,2.38,2.38,0,0,1-1.2.3,2.82,2.82,0,0,1-1.5-.4,2.34,2.34,0,0,1-1-1.2,4.71,4.71,0,0,1-.4-1.7,3.29,3.29,0,0,1,.4-1.7,2.71,2.71,0,0,1,1-1.1,3.31,3.31,0,0,1,1.5-.4,2.13,2.13,0,0,1,1.2.3,3,3,0,0,1,.8.8V239Zm-3.2,8a1.66,1.66,0,0,0,1.2-.5,3,3,0,0,0,0-3,1.69,1.69,0,0,0-2.4,0,3,3,0,0,0,0,3A1.66,1.66,0,0,0,391.3,246.8Zm10.5-1.7h-4.3a2.23,2.23,0,0,0,.5,1.3,1.7,1.7,0,0,0,1.3.4,2.81,2.81,0,0,0,1.9-.7l.5,1.1a10.91,10.91,0,0,1-1.1.6,3,3,0,0,1-1.3.2,3.49,3.49,0,0,1-2.5-.9,3.24,3.24,0,0,1-.9-2.4,3.06,3.06,0,0,1,.4-1.7,3.18,3.18,0,0,1,1.1-1.2,2.93,2.93,0,0,1,1.6-.4,2.86,2.86,0,0,1,2.1.8,3.2,3.2,0,0,1,.8,2.3Zm-2.8-2.5a1.16,1.16,0,0,0-1,.4,3.34,3.34,0,0,0-.5,1.2h2.9a1.59,1.59,0,0,0-.4-1.2,1.28,1.28,0,0,0-1-.4Zm13.9-.2v1.1h-6.3v-1.1Zm0,2.6v1.1h-6.3V245Zm8.8-3.5a2.2,2.2,0,0,1,1.7.6,2.81,2.81,0,0,1,.6,2V248h-1.6v-3.8a1.61,1.61,0,0,0-.3-1.1,1.22,1.22,0,0,0-.9-.3,1.37,1.37,0,0,0-1.1.4,1.59,1.59,0,0,0-.4,1.2V248H418v-6.4h1.6v.9a1.76,1.76,0,0,1,.9-.8,2.34,2.34,0,0,1,1.2-.2Zm9.7.1V248h-1.6v-1a3,3,0,0,1-.8.8,2,2,0,0,1-1.1.3c-1.6,0-2.3-.9-2.3-2.6v-3.8h1.6v3.8a1.33,1.33,0,0,0,.3,1,1.22,1.22,0,0,0,.9.3,1.37,1.37,0,0,0,1.1-.4,1.59,1.59,0,0,0,.4-1.2v-3.5Zm1.7,6.4v-9.2h1.6V248Zm3.3,0v-9.2H438V248Z"/><path d="M337.1,294.8h1.6V304h-1.3l-4.9-6.4V304h-1.6v-9.2h1.2l4.9,6.4v-6.4Zm9,6.3h-4.3a2.23,2.23,0,0,0,.5,1.3,1.7,1.7,0,0,0,1.3.4,2.81,2.81,0,0,0,1.9-.7l.5,1.1a10.91,10.91,0,0,1-1.1.6,3,3,0,0,1-1.3.2,3.49,3.49,0,0,1-2.5-.9,3.24,3.24,0,0,1-.9-2.4,3.29,3.29,0,0,1,.4-1.7,3.18,3.18,0,0,1,1.1-1.2,2.93,2.93,0,0,1,1.6-.4,2.86,2.86,0,0,1,2.1.8,3.2,3.2,0,0,1,.8,2.3Zm-2.8-2.5a1.16,1.16,0,0,0-1,.4,3.34,3.34,0,0,0-.5,1.2h2.9a1.59,1.59,0,0,0-.4-1.2,1.28,1.28,0,0,0-1-.4Zm7.7,2.1,2.7,3.3h-1.9l-1.7-2.1-1.7,2.1h-1.9l2.7-3.3-2.5-3.1h1.9l1.5,1.9,1.5-1.9h1.9Zm6.6,2.2h.6l-.1,1.2h-.7a2.81,2.81,0,0,1-2-.6,2.44,2.44,0,0,1-.6-1.8v-2.8h-1.2v-1.2h1.2v-1.9h1.6v1.9h1.7v1.2h-1.7v2.7C356.4,302.5,356.8,302.9,357.6,302.9Zm8.7-5.4a2.2,2.2,0,0,1,1.7.6,2.81,2.81,0,0,1,.6,2V304H367v-3.8a1.61,1.61,0,0,0-.3-1.1,1.22,1.22,0,0,0-.9-.3,1.37,1.37,0,0,0-1.1.4,1.59,1.59,0,0,0-.4,1.2V304h-1.6v-6.4h1.6v.9a1.76,1.76,0,0,1,.9-.8,2.15,2.15,0,0,1,1.1-.2Zm6.9,6.6a3.29,3.29,0,0,1-1.7-.4,2.54,2.54,0,0,1-1.1-1.2,4.78,4.78,0,0,1-.4-1.8,2.86,2.86,0,0,1,.4-1.7,4.15,4.15,0,0,1,1.1-1.2,3.81,3.81,0,0,1,3.4,0A2.54,2.54,0,0,1,376,299a4.71,4.71,0,0,1,.4,1.7,3.66,3.66,0,0,1-.4,1.8,3.18,3.18,0,0,1-1.1,1.2A3.29,3.29,0,0,1,373.2,304.1Zm-.1-1.3a1.66,1.66,0,0,0,1.2-.5,2.24,2.24,0,0,0,.4-1.5,2.08,2.08,0,0,0-.4-1.5,1.69,1.69,0,0,0-2.4,0,2.24,2.24,0,0,0-.4,1.5,2.08,2.08,0,0,0,.4,1.5A1.66,1.66,0,0,0,373.1,302.8Zm10.8-8V304h-1.6v-1a2,2,0,0,1-.8.8,2.38,2.38,0,0,1-1.2.3,2.82,2.82,0,0,1-1.5-.4,2.34,2.34,0,0,1-1-1.2,4.71,4.71,0,0,1-.4-1.7,3.29,3.29,0,0,1,.4-1.7,2.71,2.71,0,0,1,1-1.1,3.31,3.31,0,0,1,1.5-.4,2.13,2.13,0,0,1,1.2.3,3,3,0,0,1,.8.8V295h1.6Zm-3.3,8a1.66,1.66,0,0,0,1.2-.5,3,3,0,0,0,0-3,1.69,1.69,0,0,0-2.4,0,3,3,0,0,0,0,3A1.66,1.66,0,0,0,380.6,302.8Zm10.5-1.7h-4.3a2.23,2.23,0,0,0,.5,1.3,1.7,1.7,0,0,0,1.3.4,2.81,2.81,0,0,0,1.9-.7l.5,1.1a10.91,10.91,0,0,1-1.1.6,3,3,0,0,1-1.3.2,3.49,3.49,0,0,1-2.5-.9,3.24,3.24,0,0,1-.9-2.4,3.29,3.29,0,0,1,.4-1.7,3.18,3.18,0,0,1,1.1-1.2,2.93,2.93,0,0,1,1.6-.4,2.86,2.86,0,0,1,2.1.8,3.2,3.2,0,0,1,.8,2.3Zm-2.8-2.5a1.16,1.16,0,0,0-1,.4,3.34,3.34,0,0,0-.5,1.2h2.9a1.59,1.59,0,0,0-.4-1.2,1.16,1.16,0,0,0-1-.4Zm13.9-.2v1.1h-6.3v-1.1Zm0,2.6v1.1h-6.3V301Zm8.8-3.5a2.2,2.2,0,0,1,1.7.6,2.81,2.81,0,0,1,.6,2V304h-1.6v-3.8a1.61,1.61,0,0,0-.3-1.1,1.22,1.22,0,0,0-.9-.3,1.37,1.37,0,0,0-1.1.4,1.59,1.59,0,0,0-.4,1.2V304h-1.6v-6.4H409v.9a1.76,1.76,0,0,1,.9-.8,2,2,0,0,1,1.1-.2Zm6.8,6.6a3.29,3.29,0,0,1-1.7-.4,2.54,2.54,0,0,1-1.1-1.2,4.78,4.78,0,0,1-.4-1.8,2.86,2.86,0,0,1,.4-1.7,4.15,4.15,0,0,1,1.1-1.2,3.81,3.81,0,0,1,3.4,0,2.54,2.54,0,0,1,1.1,1.2,4.71,4.71,0,0,1,.4,1.7,3.66,3.66,0,0,1-.4,1.8,3.18,3.18,0,0,1-1.1,1.2A3.29,3.29,0,0,1,417.8,304.1Zm0-1.3a1.66,1.66,0,0,0,1.2-.5,2.24,2.24,0,0,0,.4-1.5,2.08,2.08,0,0,0-.4-1.5,1.69,1.69,0,0,0-2.4,0,2.24,2.24,0,0,0-.4,1.5,2.08,2.08,0,0,0,.4,1.5A1.66,1.66,0,0,0,417.8,302.8Zm10.7-8V304h-1.6v-1a2,2,0,0,1-.8.8,2.38,2.38,0,0,1-1.2.3,2.82,2.82,0,0,1-1.5-.4,2.34,2.34,0,0,1-1-1.2,4.71,4.71,0,0,1-.4-1.7,3.29,3.29,0,0,1,.4-1.7,2.71,2.71,0,0,1,1-1.1,3.31,3.31,0,0,1,1.5-.4,2.13,2.13,0,0,1,1.2.3,3,3,0,0,1,.8.8V295h1.6Zm-3.2,8a1.66,1.66,0,0,0,1.2-.5,3,3,0,0,0,0-3,1.69,1.69,0,0,0-2.4,0,3,3,0,0,0,0,3A1.66,1.66,0,0,0,425.3,302.8Zm10.5-1.7h-4.3a2.23,2.23,0,0,0,.5,1.3,1.7,1.7,0,0,0,1.3.4,2.81,2.81,0,0,0,1.9-.7l.5,1.1a10.91,10.91,0,0,1-1.1.6,3,3,0,0,1-1.3.2,3.49,3.49,0,0,1-2.5-.9,3.24,3.24,0,0,1-.9-2.4,3.29,3.29,0,0,1,.4-1.7,3.18,3.18,0,0,1,1.1-1.2,2.93,2.93,0,0,1,1.6-.4,2.86,2.86,0,0,1,2.1.8,3.2,3.2,0,0,1,.8,2.3Zm-2.8-2.5a1.16,1.16,0,0,0-1,.4,3.34,3.34,0,0,0-.5,1.2h2.9a1.59,1.59,0,0,0-.4-1.2,1.28,1.28,0,0,0-1-.4Zm3.4,6.4v-1h6.2v1Z"/><path d="M445.2,294.8v3.7a3,3,0,0,1,.8-.8,2.38,2.38,0,0,1,1.2-.3,2.6,2.6,0,0,1,1.5.4,2.13,2.13,0,0,1,1,1.1,4.71,4.71,0,0,1,.4,1.7,3.29,3.29,0,0,1-.4,1.7,4,4,0,0,1-1,1.2,2.41,2.41,0,0,1-1.5.4,2.13,2.13,0,0,1-1.2-.3,3,3,0,0,1-.8-.8v1h-1.6v-9.2h1.6Zm1.6,3.9a1.66,1.66,0,0,0-1.2.5,3,3,0,0,0,0,3,1.69,1.69,0,0,0,2.4,0,2.24,2.24,0,0,0,.4-1.5,2.41,2.41,0,0,0-.4-1.5A1.35,1.35,0,0,0,446.8,298.7Z"/><path d="M470.3,212.1h-160V165.4h160Zm-158-44.7v42.7h156V167.4Z"/><path d="M491.3,343.3h-202V147.5h202Zm-200-193.8V341.3h198V149.5Z"/><path d="M470.3,267.3h-160V220.6h160Zm-158-44.8v42.7h156V222.5Z"/><path d="M470.3,323.9h-160V277.2h160Zm-158-44.7v42.7h156V279.2Z"/><path class="cls-2" d="M568.6,294.3l14,7-14,7v-6H470.1v-2h98.5Z"/><path class="cls-2" d="M504.3,236.3v6h98.5v2H504.3v6l-14-7Z"/><path d="M358.8,731.8h3.4a4.79,4.79,0,0,1,3.5,1.2,5.42,5.42,0,0,1,0,6.8,4.79,4.79,0,0,1-3.5,1.2h-3.4Zm3.2,7.8a3.2,3.2,0,0,0,0-6.4h-1.6v6.4Zm9.2-5.1a2.44,2.44,0,0,1,2,.7,3,3,0,0,1,.6,2v3.9h-1.5v-1a1.78,1.78,0,0,1-.7.8,2,2,0,0,1-1.1.3,2.66,2.66,0,0,1-1.2-.3,1.85,1.85,0,0,1-.8-.7,1.69,1.69,0,0,1-.3-1,1.37,1.37,0,0,1,.4-1.1,2,2,0,0,1,1.2-.6,9.2,9.2,0,0,1,1.9-.2h.6V737a1.06,1.06,0,0,0-1.2-1.2,5.16,5.16,0,0,0-1.1.2,5.36,5.36,0,0,0-1.1.5l-.5-1.1c.4-.2.8-.4,1.3-.6a4,4,0,0,1,1.5-.3Zm-.4,5.4a1.38,1.38,0,0,0,1.5-1.5v-.3H372a5.72,5.72,0,0,0-1.4.1c-.4.1-.6.1-.7.3s-.2.3-.2.5a.91.91,0,0,0,.3.7A1.08,1.08,0,0,0,370.8,739.9Zm7.9,0h.6l-.1,1.2h-.7a2.81,2.81,0,0,1-2-.6,2.44,2.44,0,0,1-.6-1.8v-2.8h-1.2v-1.2h1.2v-1.9h1.6v1.9h1.7v1.2h-1.7v2.7C377.5,739.5,377.9,739.9,378.7,739.9Zm4.3-5.4a2.44,2.44,0,0,1,2,.7,3,3,0,0,1,.6,2v3.9h-1.5v-1a1.78,1.78,0,0,1-.7.8,2,2,0,0,1-1.1.3,2.66,2.66,0,0,1-1.2-.3,1.85,1.85,0,0,1-.8-.7,1.69,1.69,0,0,1-.3-1,1.37,1.37,0,0,1,.4-1.1,2,2,0,0,1,1.2-.6,9.2,9.2,0,0,1,1.9-.2h.6V737a1.06,1.06,0,0,0-1.2-1.2,5.16,5.16,0,0,0-1.1.2,5.36,5.36,0,0,0-1.1.5l-.5-1.1c.4-.2.8-.4,1.3-.6a4,4,0,0,1,1.5-.3Zm-.4,5.4a1.38,1.38,0,0,0,1.5-1.5v-.3h-.2a5.72,5.72,0,0,0-1.4.1c-.4.1-.6.1-.7.3s-.2.3-.2.5a.91.91,0,0,0,.3.7A.84.84,0,0,0,382.6,739.9Zm14.4-4.5v1.1h-6.3v-1.1Zm0,2.6v1.1h-6.3V738Zm6.8-4.5v1.8H402v-1.2a3.73,3.73,0,0,1,.2-1.2,3.32,3.32,0,0,1,.8-1.1l.7.5a2.65,2.65,0,0,0-.5.6,1.42,1.42,0,0,0-.2.6Zm4.3,1a2.44,2.44,0,0,1,2,.7,3,3,0,0,1,.6,2v3.9h-1.5v-1a1.78,1.78,0,0,1-.7.8,2,2,0,0,1-1.1.3,2.66,2.66,0,0,1-1.2-.3,1.85,1.85,0,0,1-.8-.7,1.69,1.69,0,0,1-.3-1,1.37,1.37,0,0,1,.4-1.1,2,2,0,0,1,1.2-.6,9.2,9.2,0,0,1,1.9-.2h.6V737a1.06,1.06,0,0,0-1.2-1.2,5.16,5.16,0,0,0-1.1.2,5.36,5.36,0,0,0-1.1.5l-.5-1.1c.4-.2.8-.4,1.3-.6a4,4,0,0,1,1.5-.3Zm-.4,5.4a1.38,1.38,0,0,0,1.5-1.5v-.3H409a5.72,5.72,0,0,0-1.4.1c-.4.1-.6.1-.7.3s-.2.3-.2.5a.91.91,0,0,0,.3.7A.84.84,0,0,0,407.7,739.9Zm6.3-8.1V733a3.73,3.73,0,0,1-.2,1.2,3.32,3.32,0,0,1-.8,1.1l-.7-.5a2.65,2.65,0,0,0,.5-.6,1.42,1.42,0,0,0,.2-.6h-.8v-1.8Z"/><path d="M654.4,731.8h3.4a4.79,4.79,0,0,1,3.5,1.2,5.42,5.42,0,0,1,0,6.8,4.79,4.79,0,0,1-3.5,1.2h-3.4Zm3.2,7.8a3.2,3.2,0,0,0,0-6.4H656v6.4Zm9.2-5.1a2.44,2.44,0,0,1,2,.7,3,3,0,0,1,.7,2v3.9H668v-1a1.78,1.78,0,0,1-.7.8,2,2,0,0,1-1.1.3,2.66,2.66,0,0,1-1.2-.3,1.85,1.85,0,0,1-.8-.7,1.69,1.69,0,0,1-.3-1,1.37,1.37,0,0,1,.4-1.1,2,2,0,0,1,1.2-.6,9.2,9.2,0,0,1,1.9-.2h.6V737a1.06,1.06,0,0,0-1.2-1.2,5.16,5.16,0,0,0-1.1.2,5.36,5.36,0,0,0-1.1.5l-.5-1.1c.4-.2.8-.4,1.3-.6a3.53,3.53,0,0,1,1.4-.3Zm-.4,5.4a1.38,1.38,0,0,0,1.5-1.5v-.3h-.2a5.72,5.72,0,0,0-1.4.1c-.4.1-.6.1-.7.3s-.2.3-.2.5a.91.91,0,0,0,.3.7A.84.84,0,0,0,666.4,739.9Zm7.9,0h.6l-.1,1.2h-.7a2.81,2.81,0,0,1-2-.6,2.44,2.44,0,0,1-.6-1.8v-2.8h-1.2v-1.2h1.2v-1.9h1.6v1.9h1.7v1.2h-1.7v2.7c0,.9.4,1.3,1.2,1.3Zm4.3-5.4a2.44,2.44,0,0,1,2,.7,3,3,0,0,1,.7,2v3.9h-1.5v-1a1.78,1.78,0,0,1-.7.8,2,2,0,0,1-1.1.3,2.66,2.66,0,0,1-1.2-.3,1.85,1.85,0,0,1-.8-.7,1.69,1.69,0,0,1-.3-1,1.37,1.37,0,0,1,.4-1.1,2,2,0,0,1,1.2-.6,9.2,9.2,0,0,1,1.9-.2h.6V737a1.06,1.06,0,0,0-1.2-1.2,5.16,5.16,0,0,0-1.1.2,5.36,5.36,0,0,0-1.1.5l-.5-1.1c.4-.2.8-.4,1.3-.6a3.53,3.53,0,0,1,1.4-.3Zm-.4,5.4a1.38,1.38,0,0,0,1.5-1.5v-.3h-.2a5.72,5.72,0,0,0-1.4.1c-.4.1-.6.1-.7.3s-.2.3-.2.5a.91.91,0,0,0,.3.7A.84.84,0,0,0,678.2,739.9Zm14.4-4.5v1.1h-6.3v-1.1Zm0,2.6v1.1h-6.3V738Zm6.8-4.5v1.8h-1.8v-1.2a3.73,3.73,0,0,1,.2-1.2,3.32,3.32,0,0,1,.8-1.1l.7.5a2.65,2.65,0,0,0-.5.6,1.42,1.42,0,0,0-.2.6Zm5.2,1a2.69,2.69,0,0,1,2.5,1.5,4.26,4.26,0,0,1,.4,1.7,3.29,3.29,0,0,1-.4,1.7,4,4,0,0,1-1,1.2,2.41,2.41,0,0,1-1.5.4,2.13,2.13,0,0,1-1.2-.3,3,3,0,0,1-.8-.8v1H701v-9.2h1.6v3.7a3,3,0,0,1,.8-.8c.3-.2.7-.1,1.2-.1Zm-.4,5.3a1.66,1.66,0,0,0,1.2-.5,3,3,0,0,0,0-3,1.35,1.35,0,0,0-1.2-.5,1.66,1.66,0,0,0-1.2.5,3,3,0,0,0,0,3A1.5,1.5,0,0,0,704.2,739.8Zm6.2-8V733a3.73,3.73,0,0,1-.2,1.2,3.32,3.32,0,0,1-.8,1.1l-.7-.5a2.65,2.65,0,0,0,.5-.6,1.42,1.42,0,0,0,.2-.6h-.8v-1.8Z"/><path d="M946.6,731.8H950a4.79,4.79,0,0,1,3.5,1.2,5.42,5.42,0,0,1,0,6.8A4.79,4.79,0,0,1,950,741h-3.4Zm3.3,7.8a3.2,3.2,0,1,0,0-6.4h-1.6v6.4Zm9.1-5.1a2.44,2.44,0,0,1,2,.7,3,3,0,0,1,.7,2v3.9h-1.5v-1a1.78,1.78,0,0,1-.7.8,2,2,0,0,1-1.1.3,2.66,2.66,0,0,1-1.2-.3,1.85,1.85,0,0,1-.8-.7,1.69,1.69,0,0,1-.3-1,1.37,1.37,0,0,1,.4-1.1,2,2,0,0,1,1.2-.6,9.2,9.2,0,0,1,1.9-.2h.6V737a1.06,1.06,0,0,0-1.2-1.2,5.16,5.16,0,0,0-1.1.2,5.36,5.36,0,0,0-1.1.5l-.5-1.1c.4-.2.8-.4,1.3-.6a3.93,3.93,0,0,1,1.4-.3Zm-.4,5.4a1.38,1.38,0,0,0,1.5-1.5v-.3h-.2a5.72,5.72,0,0,0-1.4.1c-.4.1-.6.1-.7.3s-.2.3-.2.5a.91.91,0,0,0,.3.7A.84.84,0,0,0,958.6,739.9Zm7.9,0h.6l-.1,1.2h-.7a2.81,2.81,0,0,1-2-.6,2.44,2.44,0,0,1-.6-1.8v-2.8h-1.2v-1.2h1.2v-1.9h1.6v1.9H967v1.2h-1.7v2.7c.1.9.5,1.3,1.2,1.3Zm4.3-5.4a2.44,2.44,0,0,1,2,.7,3,3,0,0,1,.7,2v3.9H972v-1a1.78,1.78,0,0,1-.7.8,2,2,0,0,1-1.1.3,2.66,2.66,0,0,1-1.2-.3,1.85,1.85,0,0,1-.8-.7,1.69,1.69,0,0,1-.3-1,1.37,1.37,0,0,1,.4-1.1,2,2,0,0,1,1.2-.6,9.2,9.2,0,0,1,1.9-.2h.6V737a1.06,1.06,0,0,0-1.2-1.2,5.16,5.16,0,0,0-1.1.2,5.36,5.36,0,0,0-1.1.5l-.5-1.1c.4-.2.8-.4,1.3-.6a3.93,3.93,0,0,1,1.4-.3Zm-.4,5.4a1.38,1.38,0,0,0,1.5-1.5v-.3h-.2a5.72,5.72,0,0,0-1.4.1c-.4.1-.6.1-.7.3s-.2.3-.2.5a.91.91,0,0,0,.3.7A1,1,0,0,0,970.4,739.9Zm14.5-4.5v1.1h-6.3v-1.1Zm0,2.6v1.1h-6.3V738Zm6.7-4.5v1.8h-1.8v-1.2a3.73,3.73,0,0,1,.2-1.2,3.32,3.32,0,0,1,.8-1.1l.7.5a2.65,2.65,0,0,0-.5.6,1.42,1.42,0,0,0-.2.6Zm4.5,7.6a3.06,3.06,0,0,1-1.7-.4,2.89,2.89,0,0,1-1.1-1.1,3.81,3.81,0,0,1,0-3.4,3.45,3.45,0,0,1,1.2-1.2,3.29,3.29,0,0,1,1.7-.4,5.07,5.07,0,0,1,1.3.2,1.7,1.7,0,0,1,1,.6l-.5,1.1a4.05,4.05,0,0,0-.9-.5,2.92,2.92,0,0,0-.9-.2,1.73,1.73,0,0,0-1.3.5,2.25,2.25,0,0,0-.5,1.5,2.07,2.07,0,0,0,.5,1.5,1.73,1.73,0,0,0,1.3.5,2.92,2.92,0,0,0,.9-.2,4.05,4.05,0,0,0,.9-.5l.5,1.1a2.87,2.87,0,0,1-1.1.6,3.08,3.08,0,0,1-1.3.3Zm5.1-9.3V733a3.73,3.73,0,0,1-.2,1.2,3.32,3.32,0,0,1-.8,1.1l-.7-.5a2.65,2.65,0,0,0,.5-.6,1.42,1.42,0,0,0,.2-.6h-.8v-1.8Z"/><path d="M342.6,785.8h4a3.33,3.33,0,0,1,2.3.7,2.52,2.52,0,0,1,.8,2.1,2.86,2.86,0,0,1-.8,2.1,3.17,3.17,0,0,1-2.3.7h-2.3V795h-1.7Zm3.8,4.4c1.2,0,1.7-.5,1.7-1.5a1.25,1.25,0,0,0-.4-1.1,2.23,2.23,0,0,0-1.3-.4h-2.1v3Zm8.9-.4-.9.1c-1.1.1-1.6.7-1.6,1.6v3.4h-1.6v-6.4h1.5v1.1a1.92,1.92,0,0,1,2-1.2h.5Zm6.3,2.3h-4.3a2.23,2.23,0,0,0,.5,1.3,1.7,1.7,0,0,0,1.3.4,2.81,2.81,0,0,0,1.9-.7l.5,1.1a10.91,10.91,0,0,1-1.1.6,3,3,0,0,1-1.3.2,3.49,3.49,0,0,1-2.5-.9,3.24,3.24,0,0,1-.9-2.4,3.06,3.06,0,0,1,.4-1.7,3.18,3.18,0,0,1,1.1-1.2,2.93,2.93,0,0,1,1.6-.4,2.86,2.86,0,0,1,2.1.8,3.37,3.37,0,0,1,.8,2.3Zm-2.8-2.5a1.16,1.16,0,0,0-1,.4,3.34,3.34,0,0,0-.5,1.2h2.9a1.59,1.59,0,0,0-.4-1.2,1.16,1.16,0,0,0-1-.4Zm8.6-.9H369l-2.8,6.3h-1.4l-2.8-6.3h1.7l1.8,4.5Zm9.6-.2a1.94,1.94,0,0,1,1.7.7,3,3,0,0,1,.6,2v3.9h-1.6v-3.8a1.61,1.61,0,0,0-.3-1.1,1.22,1.22,0,0,0-.9-.3,1.37,1.37,0,0,0-1.1.4,1.59,1.59,0,0,0-.4,1.2v3.6h-1.6v-6.4H375v.9a1.76,1.76,0,0,1,.9-.8,1.8,1.8,0,0,1,1.1-.3Zm6.8,6.6a3.29,3.29,0,0,1-1.7-.4,2.54,2.54,0,0,1-1.1-1.2,3.42,3.42,0,0,1-.4-1.8,2.86,2.86,0,0,1,.4-1.7,3.18,3.18,0,0,1,1.1-1.2,3.81,3.81,0,0,1,3.4,0,2.54,2.54,0,0,1,1.1,1.2,4.71,4.71,0,0,1,.4,1.7,3.42,3.42,0,0,1-.4,1.8,3.18,3.18,0,0,1-1.1,1.2A3.06,3.06,0,0,1,383.8,795.1Zm0-1.2a1.66,1.66,0,0,0,1.2-.5,2.24,2.24,0,0,0,.4-1.5,2.08,2.08,0,0,0-.4-1.5,1.35,1.35,0,0,0-1.2-.5,1.66,1.66,0,0,0-1.2.5,2.24,2.24,0,0,0-.4,1.5,2.08,2.08,0,0,0,.4,1.5A1.66,1.66,0,0,0,383.8,793.9Zm10.7-8.1V795h-1.6v-1a2,2,0,0,1-.8.8,2.66,2.66,0,0,1-1.2.3,2.82,2.82,0,0,1-1.5-.4,2.94,2.94,0,0,1-1-1.2,4.71,4.71,0,0,1-.4-1.7,3.29,3.29,0,0,1,.4-1.7,2.71,2.71,0,0,1,1-1.1,3.31,3.31,0,0,1,1.5-.4,2.13,2.13,0,0,1,1.2.3,2,2,0,0,1,.8.8V786h1.6Zm-3.2,8.1a1.66,1.66,0,0,0,1.2-.5,3,3,0,0,0,0-3,1.35,1.35,0,0,0-1.2-.5,1.66,1.66,0,0,0-1.2.5,3,3,0,0,0,0,3A1.66,1.66,0,0,0,391.3,793.9Zm10.5-1.8h-4.3a2.23,2.23,0,0,0,.5,1.3,1.7,1.7,0,0,0,1.3.4,2.81,2.81,0,0,0,1.9-.7l.5,1.1a10.91,10.91,0,0,1-1.1.6,3,3,0,0,1-1.3.2,3.49,3.49,0,0,1-2.5-.9,3.24,3.24,0,0,1-.9-2.4,3.06,3.06,0,0,1,.4-1.7,3.18,3.18,0,0,1,1.1-1.2,2.93,2.93,0,0,1,1.6-.4,2.86,2.86,0,0,1,2.1.8,3.37,3.37,0,0,1,.8,2.3Zm-2.8-2.5a1.16,1.16,0,0,0-1,.4,3.34,3.34,0,0,0-.5,1.2h2.9a1.59,1.59,0,0,0-.4-1.2,1.28,1.28,0,0,0-1-.4Zm13.9-.2v1.1h-6.3v-1.1Zm0,2.6v1.1h-6.3V792Zm8.8-3.5a1.94,1.94,0,0,1,1.7.7,3,3,0,0,1,.6,2v3.9h-1.6v-3.8a1.61,1.61,0,0,0-.3-1.1,1.22,1.22,0,0,0-.9-.3,1.37,1.37,0,0,0-1.1.4,1.59,1.59,0,0,0-.4,1.2v3.6H418v-6.4h1.6v.9a1.76,1.76,0,0,1,.9-.8,2.13,2.13,0,0,1,1.2-.3Zm9.7.2v6.4h-1.6v-1a3,3,0,0,1-.8.8,2,2,0,0,1-1.1.3c-1.6,0-2.3-.9-2.3-2.6v-3.8h1.6v3.8a1.33,1.33,0,0,0,.3,1,1.22,1.22,0,0,0,.9.3,1.37,1.37,0,0,0,1.1-.4,1.59,1.59,0,0,0,.4-1.2v-3.5h1.5Zm1.7,6.3v-9.2h1.6V795Zm3.3,0v-9.2H438V795Z"/><path d="M624.3,784.8h4a3.33,3.33,0,0,1,2.3.7,2.52,2.52,0,0,1,.8,2.1,2.86,2.86,0,0,1-.8,2.1,3.17,3.17,0,0,1-2.3.7H626V794h-1.7Zm3.8,4.4c1.2,0,1.7-.5,1.7-1.5a1.25,1.25,0,0,0-.4-1.1,2.23,2.23,0,0,0-1.3-.4H626v3Zm8.9-.4-.9.1c-1.1.1-1.6.7-1.6,1.6v3.4h-1.6v-6.4h1.5v1.1a1.92,1.92,0,0,1,2-1.2h.5Zm6.3,2.3H639a2.23,2.23,0,0,0,.5,1.3,1.7,1.7,0,0,0,1.3.4,2.81,2.81,0,0,0,1.9-.7l.5,1.1a10.91,10.91,0,0,1-1.1.6,3,3,0,0,1-1.3.2,3.49,3.49,0,0,1-2.5-.9,3.24,3.24,0,0,1-.9-2.4,3.06,3.06,0,0,1,.4-1.7,3.18,3.18,0,0,1,1.1-1.2,2.93,2.93,0,0,1,1.6-.4,2.86,2.86,0,0,1,2.1.8,3.37,3.37,0,0,1,.8,2.3Zm-2.8-2.5a1.16,1.16,0,0,0-1,.4,3.34,3.34,0,0,0-.5,1.2h2.9a1.59,1.59,0,0,0-.4-1.2A1.16,1.16,0,0,0,640.5,788.6Zm8.6-.9h1.6l-2.8,6.3h-1.4l-2.8-6.3h1.7l1.8,4.5Zm9.6-.2a1.94,1.94,0,0,1,1.7.7,3,3,0,0,1,.6,2v3.9h-1.6v-3.8a1.61,1.61,0,0,0-.3-1.1,1.22,1.22,0,0,0-.9-.3,1.37,1.37,0,0,0-1.1.4,1.59,1.59,0,0,0-.4,1.2v3.6H655v-6.4h1.6v.9a1.76,1.76,0,0,1,.9-.8,2.38,2.38,0,0,1,1.2-.3Zm6.8,6.6a3.06,3.06,0,0,1-1.7-.4,2.54,2.54,0,0,1-1.1-1.2,3.42,3.42,0,0,1-.4-1.8,2.86,2.86,0,0,1,.4-1.7,3.18,3.18,0,0,1,1.1-1.2,3.81,3.81,0,0,1,3.4,0,2.54,2.54,0,0,1,1.1,1.2,4.71,4.71,0,0,1,.4,1.7,3.42,3.42,0,0,1-.4,1.8,3.18,3.18,0,0,1-1.1,1.2A3.06,3.06,0,0,1,665.5,794.1Zm0-1.2a1.66,1.66,0,0,0,1.2-.5,2.24,2.24,0,0,0,.4-1.5,2.08,2.08,0,0,0-.4-1.5,1.69,1.69,0,0,0-2.4,0,2.24,2.24,0,0,0-.4,1.5,2.08,2.08,0,0,0,.4,1.5A1.66,1.66,0,0,0,665.5,792.9Zm10.7-8.1V794h-1.6v-1a2,2,0,0,1-.8.8,2.66,2.66,0,0,1-1.2.3,2.82,2.82,0,0,1-1.5-.4,2.34,2.34,0,0,1-1-1.2,4.71,4.71,0,0,1-.4-1.7,3.29,3.29,0,0,1,.4-1.7,2.71,2.71,0,0,1,1-1.1,3.31,3.31,0,0,1,1.5-.4,2.13,2.13,0,0,1,1.2.3,3,3,0,0,1,.8.8V785h1.6Zm-3.2,8.1a1.66,1.66,0,0,0,1.2-.5,3,3,0,0,0,0-3,1.69,1.69,0,0,0-2.4,0,3,3,0,0,0,0,3A1.66,1.66,0,0,0,673,792.9Zm10.5-1.8h-4.3a2.23,2.23,0,0,0,.5,1.3,1.7,1.7,0,0,0,1.3.4,2.81,2.81,0,0,0,1.9-.7l.5,1.1a10.91,10.91,0,0,1-1.1.6,3,3,0,0,1-1.3.2,3.49,3.49,0,0,1-2.5-.9,3.24,3.24,0,0,1-.9-2.4,3.06,3.06,0,0,1,.4-1.7,3.18,3.18,0,0,1,1.1-1.2,2.93,2.93,0,0,1,1.6-.4,2.86,2.86,0,0,1,2.1.8,3.37,3.37,0,0,1,.8,2.3Zm-2.8-2.5a1.16,1.16,0,0,0-1,.4,3.34,3.34,0,0,0-.5,1.2h2.9a1.59,1.59,0,0,0-.4-1.2A1.28,1.28,0,0,0,680.7,788.6Zm13.9-.2v1.1h-6.3v-1.1Zm0,2.6v1.1h-6.3V791Zm8.8-3.5a1.94,1.94,0,0,1,1.7.7,3,3,0,0,1,.6,2v3.9H704v-3.8a1.61,1.61,0,0,0-.3-1.1,1.22,1.22,0,0,0-.9-.3,1.37,1.37,0,0,0-1.1.4,1.59,1.59,0,0,0-.4,1.2v3.6h-1.6v-6.4h1.6v.9a1.76,1.76,0,0,1,.9-.8,2.13,2.13,0,0,1,1.2-.3Zm6.8,6.6a3.06,3.06,0,0,1-1.7-.4,2.54,2.54,0,0,1-1.1-1.2,3.42,3.42,0,0,1-.4-1.8,2.86,2.86,0,0,1,.4-1.7,3.18,3.18,0,0,1,1.1-1.2,3.81,3.81,0,0,1,3.4,0A2.54,2.54,0,0,1,713,789a4.71,4.71,0,0,1,.4,1.7,3.42,3.42,0,0,1-.4,1.8,3.18,3.18,0,0,1-1.1,1.2A3.29,3.29,0,0,1,710.2,794.1Zm0-1.2a1.66,1.66,0,0,0,1.2-.5,2.24,2.24,0,0,0,.4-1.5,2.08,2.08,0,0,0-.4-1.5,1.69,1.69,0,0,0-2.4,0,2.24,2.24,0,0,0-.4,1.5,2.08,2.08,0,0,0,.4,1.5A1.5,1.5,0,0,0,710.2,792.9Zm10.7-8.1V794h-1.6v-1a2,2,0,0,1-.8.8,2.66,2.66,0,0,1-1.2.3,2.82,2.82,0,0,1-1.5-.4,2.34,2.34,0,0,1-1-1.2,4.71,4.71,0,0,1-.4-1.7,3.29,3.29,0,0,1,.4-1.7,2.71,2.71,0,0,1,1-1.1,3.31,3.31,0,0,1,1.5-.4,2.13,2.13,0,0,1,1.2.3,3,3,0,0,1,.8.8V785h1.6Zm-3.3,8.1a1.66,1.66,0,0,0,1.2-.5,3,3,0,0,0,0-3,1.69,1.69,0,0,0-2.4,0,3,3,0,0,0,0,3A1.66,1.66,0,0,0,717.6,792.9Zm10.5-1.8h-4.3a2.23,2.23,0,0,0,.5,1.3,1.7,1.7,0,0,0,1.3.4,2.81,2.81,0,0,0,1.9-.7l.5,1.1a10.91,10.91,0,0,1-1.1.6,3,3,0,0,1-1.3.2,3.49,3.49,0,0,1-2.5-.9,3.24,3.24,0,0,1-.9-2.4,3.06,3.06,0,0,1,.4-1.7,3.18,3.18,0,0,1,1.1-1.2,2.93,2.93,0,0,1,1.6-.4,2.86,2.86,0,0,1,2.1.8,3.37,3.37,0,0,1,.8,2.3Zm-2.8-2.5a1.16,1.16,0,0,0-1,.4,3.34,3.34,0,0,0-.5,1.2h2.9a1.59,1.59,0,0,0-.4-1.2A1.16,1.16,0,0,0,725.3,788.6Zm3.5,6.4v-1H735v1Z"/><path d="M738.7,787.5a2.44,2.44,0,0,1,2,.7,3,3,0,0,1,.7,2v3.9h-1.5v-1a1.78,1.78,0,0,1-.7.8,2,2,0,0,1-1.1.3,2.66,2.66,0,0,1-1.2-.3,1.85,1.85,0,0,1-.8-.7,1.69,1.69,0,0,1-.3-1,1.37,1.37,0,0,1,.4-1.1,2,2,0,0,1,1.2-.6,9.2,9.2,0,0,1,1.9-.2h.6V790a1.06,1.06,0,0,0-1.2-1.2,5.16,5.16,0,0,0-1.1.2,5.36,5.36,0,0,0-1.1.5l-.5-1.1c.4-.2.8-.4,1.3-.6a3.53,3.53,0,0,1,1.4-.3Zm1.6,3.6h-.6a4.51,4.51,0,0,0-1.3.1,2.19,2.19,0,0,0-.8.3.85.85,0,0,0-.3.6.78.78,0,0,0,.3.7,1.74,1.74,0,0,0,2.2-.2,1.66,1.66,0,0,0,.5-1.2Z"/><path d="M915.5,784.8h4a3.33,3.33,0,0,1,2.3.7,2.52,2.52,0,0,1,.8,2.1,2.86,2.86,0,0,1-.8,2.1,3.17,3.17,0,0,1-2.3.7h-2.3V794h-1.7Zm3.8,4.4c1.2,0,1.7-.5,1.7-1.5a1.25,1.25,0,0,0-.4-1.1,2.23,2.23,0,0,0-1.3-.4h-2.1v3Zm8.8-.4-.9.1c-1.1.1-1.6.7-1.6,1.6v3.4H924v-6.4h1.5v1.1a1.92,1.92,0,0,1,2-1.2h.5Zm6.3,2.3h-4.3a2.23,2.23,0,0,0,.5,1.3,1.7,1.7,0,0,0,1.3.4,2.81,2.81,0,0,0,1.9-.7l.5,1.1a10.91,10.91,0,0,1-1.1.6,3,3,0,0,1-1.3.2,3.49,3.49,0,0,1-2.5-.9,3.24,3.24,0,0,1-.9-2.4,3.06,3.06,0,0,1,.4-1.7,3.18,3.18,0,0,1,1.1-1.2,2.93,2.93,0,0,1,1.6-.4,2.86,2.86,0,0,1,2.1.8,3.37,3.37,0,0,1,.8,2.3Zm-2.7-2.5a1.16,1.16,0,0,0-1,.4,3.34,3.34,0,0,0-.5,1.2h2.9a1.59,1.59,0,0,0-.4-1.2A1.28,1.28,0,0,0,931.7,788.6Zm8.5-.9h1.6L939,794h-1.4l-2.8-6.3h1.7l1.8,4.5Zm9.6-.2a1.94,1.94,0,0,1,1.7.7,3,3,0,0,1,.6,2v3.9h-1.6v-3.8a1.61,1.61,0,0,0-.3-1.1,1.22,1.22,0,0,0-.9-.3,1.37,1.37,0,0,0-1.1.4,1.59,1.59,0,0,0-.4,1.2v3.6h-1.6v-6.4h1.6v.9a1.76,1.76,0,0,1,.9-.8,2,2,0,0,1,1.1-.3Zm6.8,6.6a3.06,3.06,0,0,1-1.7-.4,2.54,2.54,0,0,1-1.1-1.2,3.42,3.42,0,0,1-.4-1.8,2.86,2.86,0,0,1,.4-1.7,3.18,3.18,0,0,1,1.1-1.2,3.81,3.81,0,0,1,3.4,0,2.54,2.54,0,0,1,1.1,1.2,4.71,4.71,0,0,1,.4,1.7,3.42,3.42,0,0,1-.4,1.8,3.18,3.18,0,0,1-1.1,1.2A3.06,3.06,0,0,1,956.6,794.1Zm0-1.2a1.66,1.66,0,0,0,1.2-.5,2.24,2.24,0,0,0,.4-1.5,2.08,2.08,0,0,0-.4-1.5,1.69,1.69,0,0,0-2.4,0,2.24,2.24,0,0,0-.4,1.5,2.08,2.08,0,0,0,.4,1.5A1.66,1.66,0,0,0,956.6,792.9Zm10.8-8.1V794h-1.6v-1a2,2,0,0,1-.8.8,2.66,2.66,0,0,1-1.2.3,2.82,2.82,0,0,1-1.5-.4,2.34,2.34,0,0,1-1-1.2,4.71,4.71,0,0,1-.4-1.7,3.29,3.29,0,0,1,.4-1.7,2.71,2.71,0,0,1,1-1.1,3.31,3.31,0,0,1,1.5-.4,2.13,2.13,0,0,1,1.2.3,3,3,0,0,1,.8.8V785h1.6Zm-3.3,8.1a1.66,1.66,0,0,0,1.2-.5,3,3,0,0,0,0-3,1.69,1.69,0,0,0-2.4,0,3,3,0,0,0,0,3A1.66,1.66,0,0,0,964.1,792.9Zm10.5-1.8h-4.3a2.23,2.23,0,0,0,.5,1.3,1.7,1.7,0,0,0,1.3.4,2.81,2.81,0,0,0,1.9-.7l.5,1.1a10.91,10.91,0,0,1-1.1.6,3,3,0,0,1-1.3.2,3.49,3.49,0,0,1-2.5-.9,3.24,3.24,0,0,1-.9-2.4,3.06,3.06,0,0,1,.4-1.7,3.18,3.18,0,0,1,1.1-1.2,2.93,2.93,0,0,1,1.6-.4,2.86,2.86,0,0,1,2.1.8,3.37,3.37,0,0,1,.8,2.3Zm-2.8-2.5a1.16,1.16,0,0,0-1,.4,3.34,3.34,0,0,0-.5,1.2h2.9a1.59,1.59,0,0,0-.4-1.2A1.28,1.28,0,0,0,971.8,788.6Zm13.9-.2v1.1h-6.3v-1.1Zm0,2.6v1.1h-6.3V791Zm8.8-3.5a1.94,1.94,0,0,1,1.7.7,3,3,0,0,1,.6,2v3.9h-1.6v-3.8a1.61,1.61,0,0,0-.3-1.1,1.22,1.22,0,0,0-.9-.3,1.37,1.37,0,0,0-1.1.4,1.59,1.59,0,0,0-.4,1.2v3.6h-1.6v-6.4h1.6v.9a1.76,1.76,0,0,1,.9-.8,1.61,1.61,0,0,1,1.1-.3Zm6.8,6.6a3.06,3.06,0,0,1-1.7-.4,2.54,2.54,0,0,1-1.1-1.2,3.42,3.42,0,0,1-.4-1.8,2.86,2.86,0,0,1,.4-1.7,3.18,3.18,0,0,1,1.1-1.2,3.81,3.81,0,0,1,3.4,0,2.54,2.54,0,0,1,1.1,1.2,3.29,3.29,0,0,1,.4,1.7,3.42,3.42,0,0,1-.4,1.8,3.18,3.18,0,0,1-1.1,1.2A3.29,3.29,0,0,1,1001.3,794.1Zm0-1.2a1.66,1.66,0,0,0,1.2-.5,2.24,2.24,0,0,0,.4-1.5,2.08,2.08,0,0,0-.4-1.5,1.69,1.69,0,0,0-2.4,0,2.24,2.24,0,0,0-.4,1.5,2.08,2.08,0,0,0,.4,1.5A1.66,1.66,0,0,0,1001.3,792.9Zm10.7-8.1V794h-1.6v-1a2,2,0,0,1-.8.8,2.66,2.66,0,0,1-1.2.3,2.82,2.82,0,0,1-1.5-.4,2.94,2.94,0,0,1-1-1.2,4.71,4.71,0,0,1-.4-1.7,3.29,3.29,0,0,1,.4-1.7,2.71,2.71,0,0,1,1-1.1,3.31,3.31,0,0,1,1.5-.4,2.13,2.13,0,0,1,1.2.3,3,3,0,0,1,.8.8V785h1.6Zm-3.2,8.1a1.66,1.66,0,0,0,1.2-.5,2.41,2.41,0,0,0,.4-1.5,2.24,2.24,0,0,0-.4-1.5,1.69,1.69,0,0,0-2.4,0,3,3,0,0,0,0,3,1.5,1.5,0,0,0,1.2.5Zm10.4-1.8h-4.3a2.23,2.23,0,0,0,.5,1.3,1.7,1.7,0,0,0,1.3.4,2.81,2.81,0,0,0,1.9-.7l.5,1.1a10.91,10.91,0,0,1-1.1.6,3,3,0,0,1-1.3.2,3.49,3.49,0,0,1-2.5-.9,3.24,3.24,0,0,1-.9-2.4,3.06,3.06,0,0,1,.4-1.7,3.18,3.18,0,0,1,1.1-1.2,2.93,2.93,0,0,1,1.6-.4,2.86,2.86,0,0,1,2.1.8,3.37,3.37,0,0,1,.8,2.3Zm-2.7-2.5a1.16,1.16,0,0,0-1,.4,3.34,3.34,0,0,0-.5,1.2h2.9a1.59,1.59,0,0,0-.4-1.2,1.28,1.28,0,0,0-1-.4Zm3.4,6.4v-1h6.2v1Z"/><path d="M1028.7,784.8v3.7a3,3,0,0,1,.8-.8,2.38,2.38,0,0,1,1.2-.3,2.69,2.69,0,0,1,2.5,1.5,4.71,4.71,0,0,1,.4,1.7,3.29,3.29,0,0,1-.4,1.7,2.94,2.94,0,0,1-1,1.2,2.41,2.41,0,0,1-1.5.4,2.13,2.13,0,0,1-1.2-.3,2,2,0,0,1-.8-.8v1h-1.6v-9.2Zm1.6,4a1.66,1.66,0,0,0-1.2.5,2.41,2.41,0,0,0-.4,1.5,2.24,2.24,0,0,0,.4,1.5,1.69,1.69,0,0,0,2.4,0,3,3,0,0,0,0-3A1.35,1.35,0,0,0,1030.3,788.8Z"/><path d="M337.1,842.4h1.6v9.2h-1.3l-4.9-6.4v6.4h-1.6v-9.2h1.2l4.9,6.4v-6.4Zm9,6.3h-4.3a2.23,2.23,0,0,0,.5,1.3,1.7,1.7,0,0,0,1.3.4,2.81,2.81,0,0,0,1.9-.7l.5,1.1a10.91,10.91,0,0,1-1.1.6,3,3,0,0,1-1.3.2,3.49,3.49,0,0,1-2.5-.9,3.24,3.24,0,0,1-.9-2.4,3.06,3.06,0,0,1,.4-1.7,3.18,3.18,0,0,1,1.1-1.2,2.93,2.93,0,0,1,1.6-.4,2.86,2.86,0,0,1,2.1.8,3.37,3.37,0,0,1,.8,2.3Zm-2.8-2.5a1.16,1.16,0,0,0-1,.4,3.34,3.34,0,0,0-.5,1.2h2.9a1.59,1.59,0,0,0-.4-1.2,1.28,1.28,0,0,0-1-.4Zm7.7,2.1,2.7,3.3h-1.9l-1.7-2.1-1.7,2.1h-1.9l2.7-3.3-2.5-3.1h1.9l1.5,1.9,1.5-1.9h1.9Zm6.6,2.1h.6l-.1,1.2h-.7a2.81,2.81,0,0,1-2-.6,2.44,2.44,0,0,1-.6-1.8v-2.8h-1.2v-1.2h1.2v-1.9h1.6v1.9h1.7v1.2h-1.7v2.7C356.4,850,356.8,850.4,357.6,850.4Zm8.7-5.3a1.94,1.94,0,0,1,1.7.7,3,3,0,0,1,.6,2v3.9H367v-3.8a1.61,1.61,0,0,0-.3-1.1,1.22,1.22,0,0,0-.9-.3,1.37,1.37,0,0,0-1.1.4,1.59,1.59,0,0,0-.4,1.2v3.6h-1.6v-6.4h1.6v.9a1.76,1.76,0,0,1,.9-.8,1.43,1.43,0,0,1,1.1-.3Zm6.9,6.6a3.29,3.29,0,0,1-1.7-.4,2.54,2.54,0,0,1-1.1-1.2,3.42,3.42,0,0,1-.4-1.8,2.86,2.86,0,0,1,.4-1.7,3.18,3.18,0,0,1,1.1-1.2,3.81,3.81,0,0,1,3.4,0,2.54,2.54,0,0,1,1.1,1.2,4.71,4.71,0,0,1,.4,1.7,3.42,3.42,0,0,1-.4,1.8,3.18,3.18,0,0,1-1.1,1.2A3.29,3.29,0,0,1,373.2,851.7Zm-.1-1.3a1.66,1.66,0,0,0,1.2-.5,2.24,2.24,0,0,0,.4-1.5,2.08,2.08,0,0,0-.4-1.5,1.35,1.35,0,0,0-1.2-.5,1.66,1.66,0,0,0-1.2.5,2.24,2.24,0,0,0-.4,1.5,2.08,2.08,0,0,0,.4,1.5A1.66,1.66,0,0,0,373.1,850.4Zm10.8-8v9.2h-1.6v-1a2,2,0,0,1-.8.8,2.66,2.66,0,0,1-1.2.3,2.82,2.82,0,0,1-1.5-.4,2.94,2.94,0,0,1-1-1.2,4.71,4.71,0,0,1-.4-1.7,3.29,3.29,0,0,1,.4-1.7,2.71,2.71,0,0,1,1-1.1,3.31,3.31,0,0,1,1.5-.4,2.13,2.13,0,0,1,1.2.3,2,2,0,0,1,.8.8v-3.7h1.6Zm-3.3,8a1.66,1.66,0,0,0,1.2-.5,3,3,0,0,0,0-3,1.35,1.35,0,0,0-1.2-.5,1.66,1.66,0,0,0-1.2.5,3,3,0,0,0,0,3A1.66,1.66,0,0,0,380.6,850.4Zm10.5-1.7h-4.3a2.23,2.23,0,0,0,.5,1.3,1.7,1.7,0,0,0,1.3.4,2.81,2.81,0,0,0,1.9-.7l.5,1.1a10.91,10.91,0,0,1-1.1.6,3,3,0,0,1-1.3.2,3.49,3.49,0,0,1-2.5-.9,3.24,3.24,0,0,1-.9-2.4,3.06,3.06,0,0,1,.4-1.7,3.18,3.18,0,0,1,1.1-1.2,2.93,2.93,0,0,1,1.6-.4,2.86,2.86,0,0,1,2.1.8,3.37,3.37,0,0,1,.8,2.3Zm-2.8-2.5a1.16,1.16,0,0,0-1,.4,3.34,3.34,0,0,0-.5,1.2h2.9a1.59,1.59,0,0,0-.4-1.2,1.16,1.16,0,0,0-1-.4Zm13.9-.2v1.1h-6.3V846Zm0,2.6v1.1h-6.3v-1.1Zm8.8-3.5a1.94,1.94,0,0,1,1.7.7,3,3,0,0,1,.6,2v3.9h-1.6v-3.8a1.61,1.61,0,0,0-.3-1.1,1.22,1.22,0,0,0-.9-.3,1.37,1.37,0,0,0-1.1.4,1.59,1.59,0,0,0-.4,1.2v3.6h-1.6v-6.4H409v.9a1.76,1.76,0,0,1,.9-.8c.2-.3.6-.3,1.1-.3Zm6.8,6.6a3.29,3.29,0,0,1-1.7-.4,2.54,2.54,0,0,1-1.1-1.2,3.42,3.42,0,0,1-.4-1.8,2.86,2.86,0,0,1,.4-1.7,3.18,3.18,0,0,1,1.1-1.2,3.81,3.81,0,0,1,3.4,0,2.54,2.54,0,0,1,1.1,1.2,4.71,4.71,0,0,1,.4,1.7,3.42,3.42,0,0,1-.4,1.8,3.18,3.18,0,0,1-1.1,1.2A3.29,3.29,0,0,1,417.8,851.7Zm0-1.3a1.66,1.66,0,0,0,1.2-.5,2.24,2.24,0,0,0,.4-1.5,2.08,2.08,0,0,0-.4-1.5,1.35,1.35,0,0,0-1.2-.5,1.66,1.66,0,0,0-1.2.5,2.24,2.24,0,0,0-.4,1.5,2.08,2.08,0,0,0,.4,1.5A1.66,1.66,0,0,0,417.8,850.4Zm10.7-8v9.2h-1.6v-1a2,2,0,0,1-.8.8,2.66,2.66,0,0,1-1.2.3,2.82,2.82,0,0,1-1.5-.4,2.94,2.94,0,0,1-1-1.2,4.71,4.71,0,0,1-.4-1.7,3.29,3.29,0,0,1,.4-1.7,2.71,2.71,0,0,1,1-1.1,3.31,3.31,0,0,1,1.5-.4,2.13,2.13,0,0,1,1.2.3,2,2,0,0,1,.8.8v-3.7h1.6Zm-3.2,8a1.66,1.66,0,0,0,1.2-.5,3,3,0,0,0,0-3,1.35,1.35,0,0,0-1.2-.5,1.66,1.66,0,0,0-1.2.5,3,3,0,0,0,0,3A1.66,1.66,0,0,0,425.3,850.4Zm10.5-1.7h-4.3a2.23,2.23,0,0,0,.5,1.3,1.7,1.7,0,0,0,1.3.4,2.81,2.81,0,0,0,1.9-.7l.5,1.1a10.91,10.91,0,0,1-1.1.6,3,3,0,0,1-1.3.2,3.49,3.49,0,0,1-2.5-.9,3.24,3.24,0,0,1-.9-2.4,3.06,3.06,0,0,1,.4-1.7,3.18,3.18,0,0,1,1.1-1.2,2.93,2.93,0,0,1,1.6-.4,2.86,2.86,0,0,1,2.1.8,3.37,3.37,0,0,1,.8,2.3Zm-2.8-2.5a1.16,1.16,0,0,0-1,.4,3.34,3.34,0,0,0-.5,1.2h2.9a1.59,1.59,0,0,0-.4-1.2,1.28,1.28,0,0,0-1-.4Zm3.4,6.3v-1h6.2v1Z"/><path d="M445.2,842.4v3.7a3,3,0,0,1,.8-.8,2.38,2.38,0,0,1,1.2-.3,2.69,2.69,0,0,1,2.5,1.5,4.71,4.71,0,0,1,.4,1.7,3.29,3.29,0,0,1-.4,1.7,2.94,2.94,0,0,1-1,1.2,2.41,2.41,0,0,1-1.5.4,2.13,2.13,0,0,1-1.2-.3,2,2,0,0,1-.8-.8v1h-1.6v-9.2Zm1.6,3.9a1.66,1.66,0,0,0-1.2.5,3,3,0,0,0,0,3,1.35,1.35,0,0,0,1.2.5,1.66,1.66,0,0,0,1.2-.5,3,3,0,0,0,0-3A1.66,1.66,0,0,0,446.8,846.3Z"/><path d="M630.3,841.4h1.6v9.2h-1.3l-4.9-6.4v6.4h-1.6v-9.2h1.2l4.9,6.4v-6.4Zm9,6.3H635a2.23,2.23,0,0,0,.5,1.3,1.7,1.7,0,0,0,1.3.4,2.81,2.81,0,0,0,1.9-.7l.5,1.1a10.91,10.91,0,0,1-1.1.6,3,3,0,0,1-1.3.2,3.49,3.49,0,0,1-2.5-.9,3.24,3.24,0,0,1-.9-2.4,3.06,3.06,0,0,1,.4-1.7,3.18,3.18,0,0,1,1.1-1.2,2.93,2.93,0,0,1,1.6-.4,2.86,2.86,0,0,1,2.1.8,3.37,3.37,0,0,1,.8,2.3Zm-2.8-2.5a1.16,1.16,0,0,0-1,.4,3.34,3.34,0,0,0-.5,1.2h2.9a1.59,1.59,0,0,0-.4-1.2A1.16,1.16,0,0,0,636.5,845.2Zm7.7,2.1,2.7,3.3H645l-1.7-2.1-1.7,2.1h-1.9l2.7-3.3-2.5-3.1h1.9l1.5,1.9,1.5-1.9h1.9Zm6.6,2.1h.6l-.1,1.2h-.7a2.81,2.81,0,0,1-2-.6,2.44,2.44,0,0,1-.6-1.8v-2.8h-1.2v-1.2H648v-1.9h1.6v1.9h1.7v1.2h-1.7v2.7c0,.9.4,1.3,1.2,1.3Zm8.8-5.3a1.94,1.94,0,0,1,1.7.7,3,3,0,0,1,.6,2v3.9h-1.6v-3.8a1.61,1.61,0,0,0-.3-1.1,1.22,1.22,0,0,0-.9-.3,1.37,1.37,0,0,0-1.1.4,1.59,1.59,0,0,0-.4,1.2v3.6H656v-6.4h1.6v.9a1.76,1.76,0,0,1,.9-.8c.2-.3.6-.3,1.1-.3Zm6.8,6.6a3.06,3.06,0,0,1-1.7-.4,2.54,2.54,0,0,1-1.1-1.2,3.42,3.42,0,0,1-.4-1.8,2.86,2.86,0,0,1,.4-1.7,3.18,3.18,0,0,1,1.1-1.2,3.81,3.81,0,0,1,3.4,0,2.54,2.54,0,0,1,1.1,1.2,4.71,4.71,0,0,1,.4,1.7,3.42,3.42,0,0,1-.4,1.8,3.18,3.18,0,0,1-1.1,1.2A3.29,3.29,0,0,1,666.4,850.7Zm0-1.3a1.66,1.66,0,0,0,1.2-.5,2.24,2.24,0,0,0,.4-1.5,2.08,2.08,0,0,0-.4-1.5,1.69,1.69,0,0,0-2.4,0,2.24,2.24,0,0,0-.4,1.5,2.08,2.08,0,0,0,.4,1.5A1.5,1.5,0,0,0,666.4,849.4Zm10.7-8v9.2h-1.6v-1a2,2,0,0,1-.8.8,2.66,2.66,0,0,1-1.2.3,2.82,2.82,0,0,1-1.5-.4,2.34,2.34,0,0,1-1-1.2,4.71,4.71,0,0,1-.4-1.7,3.29,3.29,0,0,1,.4-1.7,2.71,2.71,0,0,1,1-1.1,3.31,3.31,0,0,1,1.5-.4,2.13,2.13,0,0,1,1.2.3,3,3,0,0,1,.8.8v-3.7h1.6Zm-3.2,8a1.66,1.66,0,0,0,1.2-.5,3,3,0,0,0,0-3,1.69,1.69,0,0,0-2.4,0,3,3,0,0,0,0,3A1.5,1.5,0,0,0,673.9,849.4Zm10.4-1.7H680a2.23,2.23,0,0,0,.5,1.3,1.7,1.7,0,0,0,1.3.4,2.81,2.81,0,0,0,1.9-.7l.5,1.1a10.91,10.91,0,0,1-1.1.6,3,3,0,0,1-1.3.2,3.49,3.49,0,0,1-2.5-.9,3.24,3.24,0,0,1-.9-2.4,3.06,3.06,0,0,1,.4-1.7,3.18,3.18,0,0,1,1.1-1.2,2.93,2.93,0,0,1,1.6-.4,2.86,2.86,0,0,1,2.1.8,3.37,3.37,0,0,1,.8,2.3Zm-2.8-2.5a1.16,1.16,0,0,0-1,.4,3.34,3.34,0,0,0-.5,1.2h2.9a1.59,1.59,0,0,0-.4-1.2A1.16,1.16,0,0,0,681.5,845.2Zm13.9-.2v1.1h-6.3V845Zm0,2.6v1.1h-6.3v-1.1Zm8.8-3.5a1.94,1.94,0,0,1,1.7.7,3,3,0,0,1,.6,2v3.9h-1.6v-3.8a1.61,1.61,0,0,0-.3-1.1,1.22,1.22,0,0,0-.9-.3,1.37,1.37,0,0,0-1.1.4,1.59,1.59,0,0,0-.4,1.2v3.6h-1.6v-6.4h1.6v.9a1.76,1.76,0,0,1,.9-.8c.2-.3.6-.3,1.1-.3Zm6.8,6.6a3.06,3.06,0,0,1-1.7-.4,2.54,2.54,0,0,1-1.1-1.2,3.42,3.42,0,0,1-.4-1.8,2.86,2.86,0,0,1,.4-1.7,3.18,3.18,0,0,1,1.1-1.2,3.81,3.81,0,0,1,3.4,0,2.54,2.54,0,0,1,1.1,1.2,4.71,4.71,0,0,1,.4,1.7,3.42,3.42,0,0,1-.4,1.8,3.18,3.18,0,0,1-1.1,1.2A3.06,3.06,0,0,1,711,850.7Zm0-1.3a1.66,1.66,0,0,0,1.2-.5,2.24,2.24,0,0,0,.4-1.5,2.08,2.08,0,0,0-.4-1.5,1.69,1.69,0,0,0-2.4,0,2.24,2.24,0,0,0-.4,1.5,2.08,2.08,0,0,0,.4,1.5A1.66,1.66,0,0,0,711,849.4Zm10.7-8v9.2h-1.6v-1a2,2,0,0,1-.8.8,2.66,2.66,0,0,1-1.2.3,2.82,2.82,0,0,1-1.5-.4,2.34,2.34,0,0,1-1-1.2,4.71,4.71,0,0,1-.4-1.7,3.29,3.29,0,0,1,.4-1.7,2.71,2.71,0,0,1,1-1.1,3.31,3.31,0,0,1,1.5-.4,2.13,2.13,0,0,1,1.2.3,3,3,0,0,1,.8.8v-3.7h1.6Zm-3.2,8a1.66,1.66,0,0,0,1.2-.5,3,3,0,0,0,0-3,1.69,1.69,0,0,0-2.4,0,3,3,0,0,0,0,3A1.66,1.66,0,0,0,718.5,849.4Zm10.5-1.7h-4.3a2.23,2.23,0,0,0,.5,1.3,1.7,1.7,0,0,0,1.3.4,2.81,2.81,0,0,0,1.9-.7l.5,1.1a10.91,10.91,0,0,1-1.1.6,3,3,0,0,1-1.3.2,3.49,3.49,0,0,1-2.5-.9,3.24,3.24,0,0,1-.9-2.4,3.06,3.06,0,0,1,.4-1.7,3.18,3.18,0,0,1,1.1-1.2,2.93,2.93,0,0,1,1.6-.4,2.86,2.86,0,0,1,2.1.8,3.37,3.37,0,0,1,.8,2.3Zm-2.8-2.5a1.16,1.16,0,0,0-1,.4,3.34,3.34,0,0,0-.5,1.2h2.9a1.59,1.59,0,0,0-.4-1.2A1.28,1.28,0,0,0,726.2,845.2Zm3.4,6.3v-1h6.2v1Zm10.1-.8a3.06,3.06,0,0,1-1.7-.4,2.89,2.89,0,0,1-1.1-1.1,3.81,3.81,0,0,1,0-3.4,3.45,3.45,0,0,1,1.2-1.2,3.29,3.29,0,0,1,1.7-.4,5.07,5.07,0,0,1,1.3.2,1.7,1.7,0,0,1,1,.6l-.5,1.1a4.05,4.05,0,0,0-.9-.5,2.92,2.92,0,0,0-.9-.2,1.73,1.73,0,0,0-1.3.5,2.25,2.25,0,0,0-.5,1.5,2.07,2.07,0,0,0,.5,1.5,1.73,1.73,0,0,0,1.3.5,2.92,2.92,0,0,0,.9-.2,4.05,4.05,0,0,0,.9-.5l.5,1.1a2.87,2.87,0,0,1-1.1.6,2.77,2.77,0,0,1-1.3.3Z"/><path d="M932.3,841.4h1.6v9.2h-1.3l-4.9-6.4v6.4h-1.6v-9.2h1.2l4.9,6.4v-6.4Zm9,6.3H937a2.23,2.23,0,0,0,.5,1.3,1.7,1.7,0,0,0,1.3.4,2.81,2.81,0,0,0,1.9-.7l.5,1.1a10.91,10.91,0,0,1-1.1.6,3,3,0,0,1-1.3.2,3.49,3.49,0,0,1-2.5-.9,3.24,3.24,0,0,1-.9-2.4,3.06,3.06,0,0,1,.4-1.7,3.18,3.18,0,0,1,1.1-1.2,2.93,2.93,0,0,1,1.6-.4,2.86,2.86,0,0,1,2.1.8,3.37,3.37,0,0,1,.8,2.3Zm-2.8-2.5a1.16,1.16,0,0,0-1,.4,3.34,3.34,0,0,0-.5,1.2h2.9a1.59,1.59,0,0,0-.4-1.2A1.28,1.28,0,0,0,938.5,845.2Zm7.6,2.1,2.7,3.3h-1.9l-1.7-2.1-1.7,2.1h-1.9l2.7-3.3-2.5-3.1h1.9l1.5,1.9,1.5-1.9h1.9Zm6.7,2.1h.6l-.1,1.2h-.7a2.81,2.81,0,0,1-2-.6,2.44,2.44,0,0,1-.6-1.8v-2.8h-1.2v-1.2H950v-1.9h1.6v1.9h1.7v1.2h-1.7v2.7c0,.9.4,1.3,1.2,1.3Zm8.7-5.3a1.94,1.94,0,0,1,1.7.7,3,3,0,0,1,.6,2v3.9h-1.6v-3.8a1.61,1.61,0,0,0-.3-1.1,1.22,1.22,0,0,0-.9-.3,1.37,1.37,0,0,0-1.1.4,1.59,1.59,0,0,0-.4,1.2v3.6h-1.6v-6.4h1.6v.9a1.76,1.76,0,0,1,.9-.8,1.43,1.43,0,0,1,1.1-.3Zm6.8,6.6a3.06,3.06,0,0,1-1.7-.4,2.54,2.54,0,0,1-1.1-1.2,3.42,3.42,0,0,1-.4-1.8,2.86,2.86,0,0,1,.4-1.7,3.18,3.18,0,0,1,1.1-1.2,3.81,3.81,0,0,1,3.4,0,2.54,2.54,0,0,1,1.1,1.2,4.71,4.71,0,0,1,.4,1.7,3.42,3.42,0,0,1-.4,1.8,3.18,3.18,0,0,1-1.1,1.2A3.06,3.06,0,0,1,968.3,850.7Zm0-1.3a1.66,1.66,0,0,0,1.2-.5,2.24,2.24,0,0,0,.4-1.5,2.08,2.08,0,0,0-.4-1.5,1.69,1.69,0,0,0-2.4,0,2.24,2.24,0,0,0-.4,1.5,2.08,2.08,0,0,0,.4,1.5A1.66,1.66,0,0,0,968.3,849.4Zm10.8-8v9.2h-1.6v-1a2,2,0,0,1-.8.8,2.66,2.66,0,0,1-1.2.3,2.82,2.82,0,0,1-1.5-.4,2.34,2.34,0,0,1-1-1.2,4.71,4.71,0,0,1-.4-1.7,3.29,3.29,0,0,1,.4-1.7,2.71,2.71,0,0,1,1-1.1,3.31,3.31,0,0,1,1.5-.4,2.13,2.13,0,0,1,1.2.3,3,3,0,0,1,.8.8v-3.7h1.6Zm-3.3,8a1.66,1.66,0,0,0,1.2-.5,3,3,0,0,0,0-3,1.69,1.69,0,0,0-2.4,0,3,3,0,0,0,0,3A1.66,1.66,0,0,0,975.8,849.4Zm10.5-1.7H982a2.23,2.23,0,0,0,.5,1.3,1.7,1.7,0,0,0,1.3.4,2.81,2.81,0,0,0,1.9-.7l.5,1.1a10.91,10.91,0,0,1-1.1.6,3,3,0,0,1-1.3.2,3.49,3.49,0,0,1-2.5-.9,3.24,3.24,0,0,1-.9-2.4,3.06,3.06,0,0,1,.4-1.7,3.18,3.18,0,0,1,1.1-1.2,2.93,2.93,0,0,1,1.6-.4,2.86,2.86,0,0,1,2.1.8,3.37,3.37,0,0,1,.8,2.3Zm-2.8-2.5a1.16,1.16,0,0,0-1,.4,3.34,3.34,0,0,0-.5,1.2h2.9a1.59,1.59,0,0,0-.4-1.2A1.28,1.28,0,0,0,983.5,845.2Zm13.9-.2v1.1H991V845Zm0,2.6v1.1H991v-1.1Zm8.8-3.5a1.94,1.94,0,0,1,1.7.7,3,3,0,0,1,.6,2v3.9h-1.6v-3.8a1.61,1.61,0,0,0-.3-1.1,1.22,1.22,0,0,0-.9-.3,1.37,1.37,0,0,0-1.1.4,1.59,1.59,0,0,0-.4,1.2v3.6h-1.6v-6.4h1.6v.9a1.76,1.76,0,0,1,.9-.8c.2-.3.6-.3,1.1-.3Zm9.7.1v6.4h-1.6v-1a3,3,0,0,1-.8.8,2,2,0,0,1-1.1.3c-1.6,0-2.3-.9-2.3-2.6v-3.8h1.6v3.8a1.33,1.33,0,0,0,.3,1,1.22,1.22,0,0,0,.9.3,1.37,1.37,0,0,0,1.1-.4,1.59,1.59,0,0,0,.4-1.2v-3.5h1.5Zm1.7,6.4v-9.2h1.6v9.2Zm3.3,0v-9.2h1.6v9.2Z"/><path d="M470.3,760.1h-160V713.4h160Zm-158-44.7v42.7h156V715.4Z"/><path d="M762.7,759.1h-160V712.4h160Zm-158-44.7v42.7h156V714.4Z"/><path d="M1054.3,759.1h-160V712.4h160Zm-158-44.7v42.7h156V714.4Z"/><path d="M491.3,891.3h-202V695.5h202Zm-200-193.8V889.3h198V697.5Z"/><path d="M783.7,890.3h-202V694.5h202Zm-200-193.8V888.3h198V696.5Z"/><path d="M1075.3,890.3h-202V694.5h202Zm-200-193.8V888.3h198V696.5Z"/><path d="M470.3,815.3h-160V768.6h160Zm-158-44.8v42.7h156V770.5Z"/><path d="M762.7,814.3h-160V767.6h160Zm-158-44.8v42.7h156V769.5Z"/><path d="M1054.3,814.3h-160V767.6h160Zm-158-44.8v42.7h156V769.5Z"/><path d="M470.3,871.9h-160V825.2h160Zm-158-44.7v42.7h156V827.2Z"/><path d="M762.7,870.9h-160V824.2h160Zm-158-44.7v42.7h156V826.2Z"/><path d="M1054.3,870.9h-160V824.2h160Zm-158-44.7v42.7h156V826.2Z"/><path class="cls-2" d="M567.8,842.3l14,7-14,7v-6H469.3v-2h98.5Z"/><path class="cls-2" d="M504.4,784.3v6h98.5v2H504.4v6l-14-7Z"/><path class="cls-2" d="M859.8,842.3l14,7-14,7v-6H761.3v-2h98.5Z"/><path class="cls-2" d="M796.4,784.3v6h98.5v2H796.4v6l-14-7Z"/><path d="M388.6,48.4h-6l-2.4-7.6h-8.4l-2.2,7.6h-5.8l9-28h6.6ZM376,26.4h0L373.1,36h5.7Z"/><path d="M404.3,46.1a6.75,6.75,0,0,1-5.7,2.8c-5,0-8.9-4-8.9-9.6s3.8-9.6,8.8-9.6a6.68,6.68,0,0,1,5.8,2.8c0-.6-.1-2.1-.1-3.5V20.4h5.2v28h-5.2V46.1ZM395,39.3a4.71,4.71,0,1,0,9.4,0,4.71,4.71,0,0,0-4.7-5A4.65,4.65,0,0,0,395,39.3Z"/><path d="M427.4,46.1a6.75,6.75,0,0,1-5.7,2.8c-5,0-8.9-4-8.9-9.6s3.8-9.6,8.8-9.6a6.68,6.68,0,0,1,5.8,2.8c0-.6-.1-2.1-.1-3.5V20.4h5.2v28h-5.2V46.1Zm-9.2-6.8a4.71,4.71,0,1,0,9.4,0,4.71,4.71,0,0,0-4.7-5A4.65,4.65,0,0,0,418.2,39.3Z"/><path d="M443.4,48.4h-5.2V34.5h-2.6V30.1h7.8V48.4Zm-2.8-28a3.37,3.37,0,0,1,3.4,3.4,3.35,3.35,0,1,1-3.4-3.4Z"/><path d="M458.5,29.6c4,0,6.8,2.5,6.8,6.8v12h-5.2V37.8a3,3,0,0,0-3.1-3.3,5,5,0,0,0-3.9,2.1V48.5h-5.2V30.1H453v.7a13.8,13.8,0,0,1-.1,1.4A7.6,7.6,0,0,1,458.5,29.6Z"/><path d="M488.1,30.1V49.8c0,2.9-1.4,5.6-5.9,5.6h-8V51h6.7c.9,0,2-.2,2-1.6V45.9a6.75,6.75,0,0,1-5.7,2.8c-5,0-8.8-3.8-8.8-9.5s3.8-9.5,8.8-9.5a6.68,6.68,0,0,1,5.8,2.8,14.23,14.23,0,0,1-.1-1.5v-.8h5.2Zm-9.7,14c2.8,0,4.6-2,4.6-5s-1.9-5-4.6-5-4.6,2-4.6,5S475.7,44.1,478.4,44.1Z"/><path d="M506.6,23.2v7h4v4.4h-4v8.3c0,1.2.9,1.3,1.7,1.3,1.3,0,2.4-.1,2.4-.1v4.4s-2.5.2-4,.2c-2.6,0-5.3-.4-5.3-4.1v-10h-2.9V30.2h2.9v-7Z"/><path d="M513,39.3a9.8,9.8,0,1,1,9.8,9.6A9.52,9.52,0,0,1,513,39.3Zm5.2,0a4.62,4.62,0,1,0,9.2,0c0-2.9-1.9-5-4.6-5S518.2,36.4,518.2,39.3Z"/><path d="M549.8,23.2v7h4v4.4h-4v8.3c0,1.2.9,1.3,1.7,1.3,1.3,0,2.4-.1,2.4-.1v4.4s-2.5.2-4,.2c-2.6,0-5.3-.4-5.3-4.1v-10h-2.9V30.2h2.9v-7Z"/><path d="M568,29.6c4,0,6.8,2.5,6.8,6.8v12h-5.2V37.8a3,3,0,0,0-3.1-3.3,5,5,0,0,0-3.9,2.1V48.5h-5.2v-28h5.1V30.9a13.8,13.8,0,0,1-.1,1.4A7.36,7.36,0,0,1,568,29.6Z"/><path d="M597,40.8H583.4a4.23,4.23,0,0,0,4.2,3.7,4.07,4.07,0,0,0,3.7-1.9l5.4.6c-1.6,3.9-5.1,5.8-9.2,5.8a9.3,9.3,0,0,1-9.6-9.6,9.22,9.22,0,0,1,9.5-9.6c5,0,9.6,3.3,9.6,11Zm-13.7-3.5h8.2a4,4,0,0,0-4-3.4A4.23,4.23,0,0,0,583.3,37.3Z"/><path d="M625.5,48.4V36.6H614.4V48.5h-5.6v-28h5.6V31.9h11.1V20.4h5.6v28Z"/><path d="M653.7,40.8H640a4.23,4.23,0,0,0,4.2,3.7,4.07,4.07,0,0,0,3.7-1.9l5.4.6c-1.6,3.9-5.1,5.8-9.2,5.8a9.3,9.3,0,0,1-9.6-9.6,9.22,9.22,0,0,1,9.5-9.6c5,0,9.6,3.3,9.6,11h.1Zm-13.8-3.5h8.2a4,4,0,0,0-4-3.4A4.32,4.32,0,0,0,639.9,37.3Z"/><path d="M666.9,36.2c0-1.3-1-2.2-3-2.2a12.27,12.27,0,0,0-5.5,1.7l-2-3.9a15.82,15.82,0,0,1,7.8-2.2c4.2,0,8,1.9,8,6.8v12H667V46.7a6.28,6.28,0,0,1-5.1,2.2c-3.9,0-6.4-2.8-6.4-5.8,0-3.5,2.6-5.6,6.6-5.6h3.6c.9,0,1.3-.4,1.3-1.1v-.2Zm0,5.7V40.6a2.36,2.36,0,0,1-1.6.4h-2c-1.6,0-2.6.7-2.6,2a2.34,2.34,0,0,0,2.6,2.2C665.2,45.1,666.9,44.1,666.9,41.9Z"/><path d="M689.9,46.1a6.75,6.75,0,0,1-5.7,2.8c-5,0-8.9-4-8.9-9.6s3.8-9.6,8.8-9.6a6.68,6.68,0,0,1,5.8,2.8c0-.6-.1-2.1-.1-3.5V20.4H695v28h-5.2V46.1Zm-9.3-6.8a4.71,4.71,0,1,0,9.4,0,4.71,4.71,0,0,0-4.7-5A4.65,4.65,0,0,0,680.6,39.3Z"/><path d="M717.7,36.2c0-1.3-1-2.2-3-2.2a12.27,12.27,0,0,0-5.5,1.7l-2-3.9a15.82,15.82,0,0,1,7.8-2.2c4.2,0,8,1.9,8,6.8v12h-5.2V46.7a6.28,6.28,0,0,1-5.1,2.2c-3.9,0-6.4-2.8-6.4-5.8,0-3.5,2.6-5.6,6.6-5.6h3.6c.9,0,1.3-.4,1.3-1.1v-.2Zm0,5.7V40.6a2.36,2.36,0,0,1-1.6.4h-2c-1.6,0-2.6.7-2.6,2a2.34,2.34,0,0,0,2.6,2.2C716,45.1,717.7,44.1,717.7,41.9Z"/><path d="M737.8,29.6c4,0,6.8,2.5,6.8,6.8v12h-5.2V37.8a3,3,0,0,0-3.1-3.3,5,5,0,0,0-3.9,2.1V48.5h-5.2V30.1h5.1v.7a13.8,13.8,0,0,1-.1,1.4A7.6,7.6,0,0,1,737.8,29.6Z"/><path d="M762.4,46.1a6.75,6.75,0,0,1-5.7,2.8c-5,0-8.9-4-8.9-9.6s3.8-9.6,8.8-9.6a6.68,6.68,0,0,1,5.8,2.8c0-.6-.1-2.1-.1-3.5V20.4h5.2v28h-5.2V46.1Zm-9.3-6.8a4.71,4.71,0,1,0,9.4,0,4.71,4.71,0,0,0-4.7-5A4.65,4.65,0,0,0,753.1,39.3Z"/><path d="M799.4,20.4v5H791v23h-5.5v-23h-8.4v-5Z"/><path d="M808.5,36.2c0-1.3-1-2.2-3-2.2a12.27,12.27,0,0,0-5.5,1.7l-2-3.9a15.82,15.82,0,0,1,7.8-2.2c4.2,0,8,1.9,8,6.8v12h-5.2V46.7a6.28,6.28,0,0,1-5.1,2.2c-3.9,0-6.4-2.8-6.4-5.8,0-3.5,2.6-5.6,6.6-5.6h3.6c.9,0,1.3-.4,1.3-1.1v-.2Zm0,5.7V40.6a2.36,2.36,0,0,1-1.6.4h-2c-1.6,0-2.6.7-2.6,2a2.34,2.34,0,0,0,2.6,2.2C806.8,45.1,808.5,44.1,808.5,41.9Z"/><path d="M824.2,48.4H819V34.5h-2.6V30.1h7.8Zm-2.8-28a3.37,3.37,0,0,1,3.4,3.4,3.35,3.35,0,0,1-6.7,0A3.42,3.42,0,0,1,821.4,20.4Z"/><path d="M833.9,48.4h-5.2v-28h5.2Z"/><path class="cls-2" d="M359.8,123.2a3.83,3.83,0,0,1,4.1,4.1v7.2h-3.1V128a1.81,1.81,0,0,0-1.9-2,3.1,3.1,0,0,0-2.3,1.2v7.1h-3.1v-11h3v1.3A4.53,4.53,0,0,1,359.8,123.2Z"/><path class="cls-2" d="M365.8,129a5.9,5.9,0,1,1,5.9,5.8A5.83,5.83,0,0,1,365.8,129Zm3.1,0a2.76,2.76,0,1,0,2.8-3A2.73,2.73,0,0,0,368.9,129Z"/><path class="cls-2" d="M387.6,133.1a4,4,0,0,1-3.4,1.7c-3,0-5.3-2.4-5.3-5.8s2.3-5.8,5.3-5.8a4,4,0,0,1,3.5,1.7v-7.2h3.1v16.8h-3.1v-1.4Zm-5.5-4.1a2.85,2.85,0,0,0,2.8,3,2.79,2.79,0,0,0,2.8-3,2.85,2.85,0,0,0-2.8-3A2.79,2.79,0,0,0,382.1,129Z"/><path class="cls-2" d="M404.2,129.9H396a2.5,2.5,0,0,0,2.5,2.2,2.53,2.53,0,0,0,2.2-1.1l3.2.3a5.54,5.54,0,0,1-5.5,3.5,5.62,5.62,0,0,1-5.8-5.8,5.54,5.54,0,0,1,5.7-5.8c3,0,5.8,2,5.8,6.6v.1Zm-8.2-2.1h4.9a2.39,2.39,0,0,0-2.4-2A2.34,2.34,0,0,0,396,127.8Z"/><path class="cls-2" d="M404.7,136h12v2.6h-12Z"/><path class="cls-2" d="M424.2,127.1c0-.8-.6-1.3-1.8-1.3a8.51,8.51,0,0,0-3.3,1l-1.2-2.4a9.43,9.43,0,0,1,4.7-1.3c2.5,0,4.8,1.2,4.8,4.1v7.2h-3.1v-1a4,4,0,0,1-6.9-2.2c0-2.1,1.5-3.4,4-3.4h2.2c.5,0,.8-.2.8-.6v-.1Zm0,3.4v-.8c-.2.2-.5.2-1,.2H422c-1,0-1.6.4-1.6,1.2s.6,1.3,1.6,1.3A1.83,1.83,0,0,0,424.2,130.5Z"/><path class="cls-2" d="M147.2,244.9a8.8,8.8,0,1,1-8.8-8.7A8.54,8.54,0,0,1,147.2,244.9Zm-3.5,0c0-3.2-2.1-5.6-5.3-5.6s-5.3,2.4-5.3,5.6,2.1,5.6,5.3,5.6S143.7,248.2,143.7,244.9Z"/><path class="cls-2" d="M155.9,245.4h-1.3c-1.6,0-2.3.7-2.3,2.7v5.3h-3.1v-11h3v1.8a2.87,2.87,0,0,1,2.9-1.9,2.77,2.77,0,0,1,.9.1v3Z"/><path class="cls-2" d="M161.4,253.3h-3.1V245h-1.5v-2.6h4.7v10.9Zm-1.7-16.8a2,2,0,1,1-2,2A2.07,2.07,0,0,1,159.7,236.5Z"/><path class="cls-2" d="M175.2,242.3v11.8a3.17,3.17,0,0,1-3.5,3.4h-4.8v-2.6h4c.6,0,1.2-.1,1.2-1v-2.1a3.91,3.91,0,0,1-3.4,1.7c-3,0-5.3-2.3-5.3-5.7s2.3-5.7,5.3-5.7a4.11,4.11,0,0,1,3.5,1.7v-1.4h3Zm-5.8,8.5a3,3,0,0,0,0-6,3,3,0,0,0,0,6Z"/><path class="cls-2" d="M181.7,253.3h-3.1V245H177v-2.6h4.7ZM180,236.5a2,2,0,1,1-2,2A2.07,2.07,0,0,1,180,236.5Z"/><path class="cls-2" d="M190.7,242.1a3.83,3.83,0,0,1,4.1,4.1v7.2h-3.1V247a1.81,1.81,0,0,0-1.9-2,3.1,3.1,0,0,0-2.3,1.2v7.1h-3.1v-11h3v1.3A4.13,4.13,0,0,1,190.7,242.1Z"/><path class="cls-2" d="M203.5,246c0-.8-.6-1.3-1.8-1.3a8.51,8.51,0,0,0-3.3,1l-1.2-2.4a9.43,9.43,0,0,1,4.7-1.3c2.5,0,4.8,1.2,4.8,4.1v7.2h-3.1v-1a4,4,0,0,1-6.9-2.2c0-2.1,1.5-3.4,4-3.4h2.2c.5,0,.8-.2.8-.6V246Zm0,3.4v-.8c-.2.2-.5.2-1,.2h-1.2c-1,0-1.6.4-1.6,1.2s.6,1.3,1.6,1.3S203.5,250.8,203.5,249.4Z"/><path class="cls-2" d="M212.2,253.3h-3.1V236.5h3.1Z"/><path class="cls-2" d="M220.1,253.3V236.5h3.3v13.9h7.1v2.9Z"/><path class="cls-2" d="M235.8,253.3h-3.1V245h-1.5v-2.6h4.7v10.9Zm-1.7-16.8a2,2,0,1,1-2,2A2,2,0,0,1,234.1,236.5Z"/><path class="cls-2" d="M244.9,245.7a3.82,3.82,0,0,0-2.7-1.1c-.8,0-1.1.4-1.1.7s.2.6.8.8l1.8.6c2.3.7,3,2,3,3.4,0,1.6-1.4,3.5-4.4,3.5a6.94,6.94,0,0,1-4.8-1.7l1.7-2.2a5.77,5.77,0,0,0,3.2,1.4c.7,0,1.2-.4,1.2-.8,0-.6-.4-.8-1.2-1.1l-1.9-.6a3.22,3.22,0,0,1-2.5-3.2c0-1.8,1.6-3.4,4.3-3.4a6.49,6.49,0,0,1,4.4,1.6Z"/><path class="cls-2" d="M252.7,238.2v4.2h2.4V245h-2.4v5c0,.7.6.8,1,.8a9.44,9.44,0,0,0,1.4-.1v2.7s-1.5.1-2.4.1c-1.6,0-3.2-.3-3.2-2.5v-6h-1.7v-2.6h1.7v-4.2Z"/><path class="cls-2" d="M109.2,524.6h-3.6l-1.4-4.6H99.1l-1.3,4.6H94.3l5.4-16.8h4Zm-7.5-13.2h0l-1.8,5.8h3.4Z"/><path class="cls-2" d="M118.6,523.2a4,4,0,0,1-3.4,1.7c-3,0-5.3-2.4-5.3-5.8s2.3-5.8,5.3-5.8a4,4,0,0,1,3.5,1.7v-7.2h3.1v16.8h-3.1v-1.4Zm-5.5-4.1a2.85,2.85,0,0,0,2.8,3,2.79,2.79,0,0,0,2.8-3,2.85,2.85,0,0,0-2.8-3A2.79,2.79,0,0,0,113.1,519.1Z"/><path class="cls-2" d="M132.5,523.2a4,4,0,0,1-3.4,1.7c-3,0-5.3-2.4-5.3-5.8s2.3-5.8,5.3-5.8a4,4,0,0,1,3.5,1.7v-7.2h3.1v16.8h-3.1v-1.4Zm-5.5-4.1a2.85,2.85,0,0,0,2.8,3,2.79,2.79,0,0,0,2.8-3,2.85,2.85,0,0,0-2.8-3A2.79,2.79,0,0,0,127,519.1Z"/><path class="cls-2" d="M142.1,524.6H139v-8.4h-1.5v-2.6h4.7v11Zm-1.7-16.8a2,2,0,1,1-2,2A2,2,0,0,1,140.4,507.8Z"/><path class="cls-2" d="M151.1,513.3a3.83,3.83,0,0,1,4.1,4.1v7.2h-3.1v-6.4a1.81,1.81,0,0,0-1.9-2,3.1,3.1,0,0,0-2.3,1.2v7.1h-3.1v-11h3v1.3A4.63,4.63,0,0,1,151.1,513.3Z"/><path class="cls-2" d="M168.9,513.6v11.8a3.17,3.17,0,0,1-3.5,3.4h-4.8v-2.6h4c.6,0,1.2-.1,1.2-1v-2.1a3.91,3.91,0,0,1-3.4,1.7c-3,0-5.3-2.3-5.3-5.7s2.3-5.7,5.3-5.7a4.11,4.11,0,0,1,3.5,1.7v-1.4h3Zm-5.8,8.4a3,3,0,0,0,0-6,3,3,0,0,0,0,6Z"/><path class="cls-2" d="M180,509.4v4.2h2.4v2.6H180v5c0,.7.6.8,1,.8a9.44,9.44,0,0,0,1.4-.1v2.7s-1.5.1-2.4.1c-1.6,0-3.2-.3-3.2-2.5v-6h-1.7v-2.6h1.7v-4.2Z"/><path class="cls-2" d="M183.8,519.1a5.9,5.9,0,1,1,5.9,5.8A5.7,5.7,0,0,1,183.8,519.1Zm3.1,0a2.76,2.76,0,1,0,2.8-3A2.85,2.85,0,0,0,186.9,519.1Z"/><path class="cls-2" d="M212.8,524.6v-7.1h-6.7v7.1h-3.3V507.8h3.3v6.8h6.7v-6.8h3.3v16.8Z"/><path class="cls-2" d="M229.7,520h-8.2a2.5,2.5,0,0,0,2.5,2.2,2.53,2.53,0,0,0,2.2-1.1l3.2.3a5.54,5.54,0,0,1-5.5,3.5,5.62,5.62,0,0,1-5.8-5.8,5.54,5.54,0,0,1,5.7-5.8c3,0,5.8,2,5.8,6.6v.1Zm-8.2-2.1h4.9a2.39,2.39,0,0,0-2.4-2A2.34,2.34,0,0,0,221.5,517.9Z"/><path class="cls-2" d="M237.7,517.3c0-.8-.6-1.3-1.8-1.3a8.51,8.51,0,0,0-3.3,1l-1.2-2.4a9.43,9.43,0,0,1,4.7-1.3c2.5,0,4.8,1.2,4.8,4.1v7.2h-3.1v-1a4,4,0,0,1-6.9-2.2c0-2.1,1.5-3.4,4-3.4h2.2c.5,0,.8-.2.8-.6v-.1Zm0,3.4v-.8c-.2.2-.5.2-1,.2h-1.2c-1,0-1.6.4-1.6,1.2s.6,1.3,1.6,1.3A2,2,0,0,0,237.7,520.7Z"/><path class="cls-2" d="M251.4,523.2a4,4,0,0,1-3.4,1.7c-3,0-5.3-2.4-5.3-5.8s2.3-5.8,5.3-5.8a4,4,0,0,1,3.5,1.7v-7.2h3.1v16.8h-3.1v-1.4Zm-5.5-4.1a2.85,2.85,0,0,0,2.8,3,2.79,2.79,0,0,0,2.8-3,2.85,2.85,0,0,0-2.8-3A2.79,2.79,0,0,0,245.9,519.1Z"/><path class="cls-2" d="M129.1,800h-3.6l-1.4-4.6H119l-1.3,4.6h-3.5l5.4-16.8h4Zm-7.6-13.2h0l-1.8,5.8h3.4Z"/><path class="cls-2" d="M138.5,798.6a4,4,0,0,1-3.4,1.7c-3,0-5.3-2.4-5.3-5.8s2.3-5.8,5.3-5.8a4,4,0,0,1,3.5,1.7v-7.2h3.1V800h-3.1v-1.4Zm-5.6-4.1a2.85,2.85,0,0,0,2.8,3,2.79,2.79,0,0,0,2.8-3,2.81,2.81,0,1,0-5.6,0Z"/><path class="cls-2" d="M152.4,798.6a4,4,0,0,1-3.4,1.7c-3,0-5.3-2.4-5.3-5.8s2.3-5.8,5.3-5.8a4,4,0,0,1,3.5,1.7v-7.2h3.1V800h-3.1v-1.4Zm-5.6-4.1a2.85,2.85,0,0,0,2.8,3,2.79,2.79,0,0,0,2.8-3,2.81,2.81,0,1,0-5.6,0Z"/><path class="cls-2" d="M162,800h-3.1v-8.4h-1.5V789h4.7v11Zm-1.7-16.8a2,2,0,1,1-2,2A1.94,1.94,0,0,1,160.3,783.2Z"/><path class="cls-2" d="M171,788.8a3.83,3.83,0,0,1,4.1,4.1v7.2H172v-6.4a1.81,1.81,0,0,0-1.9-2,3.1,3.1,0,0,0-2.3,1.2V800h-3.1V789h3v1.3A4.13,4.13,0,0,1,171,788.8Z"/><path class="cls-2" d="M188.8,789v11.8a3.17,3.17,0,0,1-3.5,3.4h-4.8v-2.6h4c.6,0,1.2-.1,1.2-1v-2.1a3.91,3.91,0,0,1-3.4,1.7c-3,0-5.3-2.3-5.3-5.7s2.3-5.7,5.3-5.7a4.11,4.11,0,0,1,3.5,1.7V789Zm-5.8,8.5a3,3,0,0,0,0-6,3,3,0,0,0,0,6Z"/><path class="cls-2" d="M199.9,784.9v4.2h2.4v2.6h-2.4v5c0,.7.6.8,1,.8a9.44,9.44,0,0,0,1.4-.1v2.7s-1.5.1-2.4.1c-1.6,0-3.2-.3-3.2-2.5v-6H195V789h1.7v-4.2h3.2Z"/><path class="cls-2" d="M203.7,794.5a5.9,5.9,0,1,1,5.9,5.8A5.7,5.7,0,0,1,203.7,794.5Zm3.1,0a2.76,2.76,0,1,0,2.8-3A2.79,2.79,0,0,0,206.8,794.5Z"/><path class="cls-2" d="M233.9,783.2v3h-5V800h-3.3V786.2h-5v-3Z"/><path class="cls-2" d="M239.3,792.7c0-.8-.6-1.3-1.8-1.3a8.51,8.51,0,0,0-3.3,1L233,790a9.43,9.43,0,0,1,4.7-1.3c2.5,0,4.8,1.2,4.8,4.1V800h-3.1v-1a4,4,0,0,1-6.9-2.2c0-2.1,1.5-3.4,4-3.4h2.2c.5,0,.8-.2.8-.6v-.1Zm0,3.4v-.8c-.2.2-.5.2-1,.2h-1.2c-1,0-1.6.4-1.6,1.2s.6,1.3,1.6,1.3C238.3,798,239.3,797.5,239.3,796.1Z"/><path class="cls-2" d="M248.8,800h-3.1v-8.4h-1.5V789h4.7v11Zm-1.7-16.8a2,2,0,1,1-2,2A2,2,0,0,1,247.1,783.2Z"/><path class="cls-2" d="M254.5,800h-3.1V783.2h3.1Z"/><path class="cls-2" d="M359.5,397.5a3.83,3.83,0,0,1,4.1,4.1v7.2h-3.1v-6.4a1.81,1.81,0,0,0-1.9-2,3.1,3.1,0,0,0-2.3,1.2v7.1h-3.1v-11h3V399A4.63,4.63,0,0,1,359.5,397.5Z"/><path class="cls-2" d="M365.5,403.3a5.9,5.9,0,1,1,5.9,5.8A5.76,5.76,0,0,1,365.5,403.3Zm3.1,0a2.76,2.76,0,1,0,2.8-3A2.79,2.79,0,0,0,368.6,403.3Z"/><path class="cls-2" d="M387.3,407.4a4,4,0,0,1-3.4,1.7c-3,0-5.3-2.4-5.3-5.8s2.3-5.8,5.3-5.8a4,4,0,0,1,3.5,1.7V392h3.1v16.8h-3.1v-1.4Zm-5.5-4.1a2.85,2.85,0,0,0,2.8,3,2.79,2.79,0,0,0,2.8-3,2.85,2.85,0,0,0-2.8-3A2.79,2.79,0,0,0,381.8,403.3Z"/><path class="cls-2" d="M403.9,404.2h-8.2a2.5,2.5,0,0,0,2.5,2.2,2.53,2.53,0,0,0,2.2-1.1l3.2.3a5.54,5.54,0,0,1-5.5,3.5,5.62,5.62,0,0,1-5.8-5.8,5.54,5.54,0,0,1,5.7-5.8c3,0,5.8,2,5.8,6.6v.1Zm-8.2-2.1h4.9a2.39,2.39,0,0,0-2.4-2A2.34,2.34,0,0,0,395.7,402.1Z"/><path class="cls-2" d="M404.4,410.3h12v2.6h-12Z"/><path class="cls-2" d="M420.2,403.3a2.79,2.79,0,0,0,2.8,3,2.38,2.38,0,0,0,2.4-1.7l2.9.9a5.49,5.49,0,0,1-5.4,3.6,5.8,5.8,0,1,1,0-11.6,5.49,5.49,0,0,1,5.4,3.6l-2.9.9a2.59,2.59,0,0,0-2.4-1.7A2.79,2.79,0,0,0,420.2,403.3Z"/><path class="cls-2" d="M359.8,671.5a3.83,3.83,0,0,1,4.1,4.1v7.2h-3.1v-6.4a1.81,1.81,0,0,0-1.9-2,3.1,3.1,0,0,0-2.3,1.2v7.1h-3.1v-11h3V673A4.63,4.63,0,0,1,359.8,671.5Z"/><path class="cls-2" d="M365.8,677.3a5.9,5.9,0,1,1,5.9,5.8A5.7,5.7,0,0,1,365.8,677.3Zm3.1,0a2.76,2.76,0,1,0,2.8-3A2.79,2.79,0,0,0,368.9,677.3Z"/><path class="cls-2" d="M387.6,681.4a4,4,0,0,1-3.4,1.7c-3,0-5.3-2.4-5.3-5.8s2.3-5.8,5.3-5.8a4,4,0,0,1,3.5,1.7V666h3.1v16.8h-3.1v-1.4Zm-5.5-4.1a2.85,2.85,0,0,0,2.8,3,2.79,2.79,0,0,0,2.8-3,2.85,2.85,0,0,0-2.8-3A2.79,2.79,0,0,0,382.1,677.3Z"/><path class="cls-2" d="M404.2,678.2H396a2.5,2.5,0,0,0,2.5,2.2,2.53,2.53,0,0,0,2.2-1.1l3.2.3a5.54,5.54,0,0,1-5.5,3.5,5.62,5.62,0,0,1-5.8-5.8,5.54,5.54,0,0,1,5.7-5.8c3,0,5.8,2,5.8,6.6v.1Zm-8.2-2h4.9a2.39,2.39,0,0,0-2.4-2A2.27,2.27,0,0,0,396,676.2Z"/><path class="cls-2" d="M404.7,684.4h12V687h-12Z"/><path class="cls-2" d="M424.2,675.5c0-.8-.6-1.3-1.8-1.3a8.51,8.51,0,0,0-3.3,1l-1.2-2.4a9.43,9.43,0,0,1,4.7-1.3c2.5,0,4.8,1.2,4.8,4.1v7.2h-3.1v-1a4,4,0,0,1-6.9-2.2c0-2.1,1.5-3.4,4-3.4h2.2c.5,0,.8-.2.8-.6v-.1Zm0,3.4v-.8c-.2.2-.5.2-1,.2H422c-1,0-1.6.4-1.6,1.2s.6,1.3,1.6,1.3C423.2,680.8,424.2,680.3,424.2,678.9Z"/><path class="cls-2" d="M652.7,671.5a3.83,3.83,0,0,1,4.1,4.1v7.2h-3.1v-6.4a1.81,1.81,0,0,0-1.9-2,3.1,3.1,0,0,0-2.3,1.2v7.1h-3.1v-11h3V673A4.3,4.3,0,0,1,652.7,671.5Z"/><path class="cls-2" d="M658.6,677.3a5.9,5.9,0,1,1,5.9,5.8A5.7,5.7,0,0,1,658.6,677.3Zm3.1,0a2.76,2.76,0,1,0,2.8-3A2.85,2.85,0,0,0,661.7,677.3Z"/><path class="cls-2" d="M680.4,681.4a4,4,0,0,1-3.4,1.7c-3,0-5.3-2.4-5.3-5.8s2.3-5.8,5.3-5.8a4,4,0,0,1,3.5,1.7V666h3.1v16.8h-3.1v-1.4Zm-5.5-4.1a2.85,2.85,0,0,0,2.8,3,2.79,2.79,0,0,0,2.8-3,2.81,2.81,0,1,0-5.6,0Z"/><path class="cls-2" d="M697,678.2h-8.2a2.5,2.5,0,0,0,2.5,2.2,2.53,2.53,0,0,0,2.2-1.1l3.2.3a5.54,5.54,0,0,1-5.5,3.5,5.62,5.62,0,0,1-5.8-5.8,5.54,5.54,0,0,1,5.7-5.8c3,0,5.8,2,5.8,6.6v.1Zm-8.2-2h4.9a2.5,2.5,0,0,0-4.9,0Z"/><path class="cls-2" d="M697.5,684.4h12V687h-12Z"/><path class="cls-2" d="M714,682.8h-3.1V666H714v7.2a4,4,0,0,1,3.5-1.7c3,0,5.3,2.4,5.3,5.8s-2.3,5.8-5.4,5.8a3.7,3.7,0,0,1-3.4-1.7v1.4Zm-.1-5.5a2.81,2.81,0,1,0,2.8-3A2.85,2.85,0,0,0,713.9,677.3Z"/><path class="cls-2" d="M943.9,671.5a3.83,3.83,0,0,1,4.1,4.1v7.2h-3.1v-6.4a1.81,1.81,0,0,0-1.9-2,3.1,3.1,0,0,0-2.3,1.2v7.1h-3.1v-11h3V673A4.46,4.46,0,0,1,943.9,671.5Z"/><path class="cls-2" d="M949.9,677.3a5.9,5.9,0,1,1,5.9,5.8A5.7,5.7,0,0,1,949.9,677.3Zm3.1,0a2.76,2.76,0,1,0,2.8-3A2.79,2.79,0,0,0,953,677.3Z"/><path class="cls-2" d="M971.7,681.4a4,4,0,0,1-3.4,1.7c-3,0-5.3-2.4-5.3-5.8s2.3-5.8,5.3-5.8a4,4,0,0,1,3.5,1.7V666h3.1v16.8h-3.1v-1.4Zm-5.5-4.1a2.81,2.81,0,1,0,2.8-3A2.85,2.85,0,0,0,966.2,677.3Z"/><path class="cls-2" d="M988.3,678.2h-8.2a2.5,2.5,0,0,0,2.5,2.2,2.53,2.53,0,0,0,2.2-1.1l3.2.3a5.54,5.54,0,0,1-5.5,3.5,5.62,5.62,0,0,1-5.8-5.8,5.54,5.54,0,0,1,5.7-5.8c3,0,5.8,2,5.8,6.6v.1Zm-8.3-2h4.9a2.5,2.5,0,0,0-4.9,0Z"/><path class="cls-2" d="M988.8,684.4h12V687h-12Z"/><path class="cls-2" d="M1004.6,677.3a2.79,2.79,0,0,0,2.8,3,2.38,2.38,0,0,0,2.4-1.7l2.9.9a5.49,5.49,0,0,1-5.4,3.6,5.8,5.8,0,1,1,0-11.6,5.49,5.49,0,0,1,5.4,3.6l-2.9.9a2.59,2.59,0,0,0-2.4-1.7A2.79,2.79,0,0,0,1004.6,677.3Z"/><path class="cls-2" d="M651.2,397.5a3.83,3.83,0,0,1,4.1,4.1v7.2h-3.1v-6.4a1.81,1.81,0,0,0-1.9-2,3.1,3.1,0,0,0-2.3,1.2v7.1h-3.1v-11h3V399A4.46,4.46,0,0,1,651.2,397.5Z"/><path class="cls-2" d="M657.1,403.3a5.9,5.9,0,1,1,5.9,5.8A5.76,5.76,0,0,1,657.1,403.3Zm3.2,0a2.76,2.76,0,1,0,2.8-3A2.79,2.79,0,0,0,660.3,403.3Z"/><path class="cls-2" d="M679,407.4a4,4,0,0,1-3.4,1.7c-3,0-5.3-2.4-5.3-5.8s2.3-5.8,5.3-5.8a4,4,0,0,1,3.5,1.7V392h3.1v16.8H679Zm-5.6-4.1a2.81,2.81,0,1,0,2.8-3A2.85,2.85,0,0,0,673.4,403.3Z"/><path class="cls-2" d="M695.6,404.2h-8.2a2.5,2.5,0,0,0,2.5,2.2,2.53,2.53,0,0,0,2.2-1.1l3.2.3a5.54,5.54,0,0,1-5.5,3.5,5.62,5.62,0,0,1-5.8-5.8,5.54,5.54,0,0,1,5.7-5.8c3,0,5.8,2,5.8,6.6v.1Zm-8.3-2.1h4.9a2.39,2.39,0,0,0-2.4-2A2.48,2.48,0,0,0,687.3,402.1Z"/><path class="cls-2" d="M696.1,410.3h12v2.6h-12Z"/><path class="cls-2" d="M715.5,401.5c0-.8-.6-1.3-1.8-1.3a8.51,8.51,0,0,0-3.3,1l-1.2-2.4a9.43,9.43,0,0,1,4.7-1.3c2.5,0,4.8,1.2,4.8,4.1v7.2h-3.1v-1a4,4,0,0,1-6.9-2.2c0-2.1,1.5-3.4,4-3.4h2.2c.5,0,.8-.2.8-.6v-.1Zm0,3.3V404c-.2.2-.5.2-1,.2h-1.2c-1,0-1.6.4-1.6,1.2s.6,1.3,1.6,1.3A1.83,1.83,0,0,0,715.5,404.8Z"/><path class="cls-2" d="M943.7,397.5a3.83,3.83,0,0,1,4.1,4.1v7.2h-3.1v-6.4a1.81,1.81,0,0,0-1.9-2,3.1,3.1,0,0,0-2.3,1.2v7.1h-3.1v-11h3V399A4.46,4.46,0,0,1,943.7,397.5Z"/><path class="cls-2" d="M949.7,403.3a5.9,5.9,0,1,1,5.9,5.8A5.76,5.76,0,0,1,949.7,403.3Zm3.1,0a2.76,2.76,0,1,0,2.8-3A2.79,2.79,0,0,0,952.8,403.3Z"/><path class="cls-2" d="M971.5,407.4a4,4,0,0,1-3.4,1.7c-3,0-5.3-2.4-5.3-5.8s2.3-5.8,5.3-5.8a4,4,0,0,1,3.5,1.7V392h3.1v16.8h-3.1v-1.4Zm-5.5-4.1a2.81,2.81,0,1,0,2.8-3A2.85,2.85,0,0,0,966,403.3Z"/><path class="cls-2" d="M988.1,404.2h-8.2a2.5,2.5,0,0,0,2.5,2.2,2.53,2.53,0,0,0,2.2-1.1l3.2.3a5.54,5.54,0,0,1-5.5,3.5,5.62,5.62,0,0,1-5.8-5.8,5.54,5.54,0,0,1,5.7-5.8c3,0,5.8,2,5.8,6.6v.1Zm-8.3-2.1h4.9a2.39,2.39,0,0,0-2.4-2A2.48,2.48,0,0,0,979.8,402.1Z"/><path class="cls-2" d="M988.6,410.3h12v2.6h-12Z"/><path class="cls-2" d="M1005.1,408.8H1002V392h3.1v7.2a4,4,0,0,1,3.5-1.7c3,0,5.3,2.4,5.3,5.8s-2.3,5.8-5.4,5.8a3.7,3.7,0,0,1-3.4-1.7v1.4Zm-.1-5.5a2.81,2.81,0,1,0,2.8-3A2.85,2.85,0,0,0,1005,403.3Z"/><path class="cls-2" d="M651.3,123.2a3.83,3.83,0,0,1,4.1,4.1v7.2h-3.1V128a1.81,1.81,0,0,0-1.9-2,3.1,3.1,0,0,0-2.3,1.2v7.1H645v-11h3v1.3A4.22,4.22,0,0,1,651.3,123.2Z"/><path class="cls-2" d="M657.2,129a5.9,5.9,0,1,1,5.9,5.8A5.83,5.83,0,0,1,657.2,129Zm3.1,0a2.76,2.76,0,1,0,2.8-3A2.79,2.79,0,0,0,660.3,129Z"/><path class="cls-2" d="M679,133.1a4,4,0,0,1-3.4,1.7c-3,0-5.3-2.4-5.3-5.8s2.3-5.8,5.3-5.8a4,4,0,0,1,3.5,1.7v-7.2h3.1v16.8H679Zm-5.5-4.1a2.85,2.85,0,0,0,2.8,3,2.79,2.79,0,0,0,2.8-3,2.81,2.81,0,1,0-5.6,0Z"/><path class="cls-2" d="M695.6,129.9h-8.2a2.5,2.5,0,0,0,2.5,2.2,2.53,2.53,0,0,0,2.2-1.1l3.2.3a5.54,5.54,0,0,1-5.5,3.5A5.62,5.62,0,0,1,684,129a5.54,5.54,0,0,1,5.7-5.8c3,0,5.8,2,5.8,6.6v.1Zm-8.2-2.1h4.9a2.5,2.5,0,0,0-4.9,0Z"/><path class="cls-2" d="M696.1,136h12v2.6h-12Z"/><path class="cls-2" d="M712.6,134.5h-3.1V117.7h3.1v7.2a4,4,0,0,1,3.5-1.7c3,0,5.3,2.4,5.3,5.8s-2.3,5.8-5.4,5.8a3.7,3.7,0,0,1-3.4-1.7v1.4Zm-.1-5.5a2.81,2.81,0,1,0,2.8-3A2.85,2.85,0,0,0,712.5,129Z"/></svg>