<svg id="Layer_1" data-name="Layer 1" xmlns="http://www.w3.org/2000/svg" viewBox="0 0 957.26 887.42"><defs><style>.cls-1{opacity:0.3;}.cls-2{fill:#6401e4;}.cls-3{opacity:0.3;}</style></defs><path d="M150.56,427.65h3.38a4.82,4.82,0,0,1,3.49,1.2,5.23,5.23,0,0,1,0,6.76,4.82,4.82,0,0,1-3.49,1.2h-3.38Zm3.27,7.8c2.11,0,3.16-1.08,3.16-3.22s-1.05-3.22-3.16-3.22h-1.59v6.44ZM163,430.3a2.31,2.31,0,0,1,2.64,2.65v3.86H164v-1a1.68,1.68,0,0,1-.7.79,2.06,2.06,0,0,1-1.09.29,2.57,2.57,0,0,1-1.16-.26,2.05,2.05,0,0,1-.82-.72,1.79,1.79,0,0,1-.3-1,1.61,1.61,0,0,1,.36-1.11,2.18,2.18,0,0,1,1.16-.58,9.46,9.46,0,0,1,1.92-.18H164v-.3a1,1,0,0,0-1.21-1.22,3.4,3.4,0,0,0-1.06.17,5.21,5.21,0,0,0-1.08.49l-.46-1.12a5.32,5.32,0,0,1,1.29-.56,5,5,0,0,1,1.43-.22Zm-.38,5.45a1.39,1.39,0,0,0,1.06-.44,1.58,1.58,0,0,0,.41-1.12v-.28h-.23a9.22,9.22,0,0,0-1.36.08,1.31,1.31,0,0,0-.69.28.71.71,0,0,0-.2.53.88.88,0,0,0,.28.68A1,1,0,0,0,162.57,435.75Zm7.92-.05c.19,0,.39,0,.6,0l-.08,1.21c-.26,0-.5,0-.72,0a2.74,2.74,0,0,1-2-.62,2.44,2.44,0,0,1-.64-1.84v-2.77h-1.22v-1.22h1.22v-1.9h1.62v1.9H171v1.22H169.3v2.74C169.3,435.27,169.7,435.7,170.49,435.7Zm4.27-5.4A2.31,2.31,0,0,1,177.4,433v3.86h-1.54v-1a1.68,1.68,0,0,1-.7.79,2.1,2.1,0,0,1-1.1.29,2.56,2.56,0,0,1-1.15-.26,2.05,2.05,0,0,1-.82-.72,1.79,1.79,0,0,1-.3-1,1.66,1.66,0,0,1,.35-1.11,2.22,2.22,0,0,1,1.17-.58,9.35,9.35,0,0,1,1.91-.18h.64v-.3a1.34,1.34,0,0,0-.28-.94,1.28,1.28,0,0,0-.93-.28,3.4,3.4,0,0,0-1.06.17,5.54,5.54,0,0,0-1.09.49l-.45-1.12a5.24,5.24,0,0,1,1.28-.56,5,5,0,0,1,1.43-.22Zm-.37,5.45a1.41,1.41,0,0,0,1.06-.44,1.58,1.58,0,0,0,.41-1.12v-.28h-.24a9.16,9.16,0,0,0-1.35.08,1.31,1.31,0,0,0-.69.28.68.68,0,0,0-.21.53.89.89,0,0,0,.29.68A1,1,0,0,0,174.39,435.75Zm14.41-4.53v1.15h-6.34v-1.15Zm0,2.6V435h-6.34v-1.15Zm6.78-4.53v1.79h-1.82V429.9a3.25,3.25,0,0,1,.23-1.23,3.63,3.63,0,0,1,.79-1.11l.67.52a3.37,3.37,0,0,0-.48.62,1.52,1.52,0,0,0-.22.59Zm4.27,1a2.31,2.31,0,0,1,2.64,2.65v3.86H201v-1a1.68,1.68,0,0,1-.7.79,2.1,2.1,0,0,1-1.1.29,2.56,2.56,0,0,1-1.15-.26,2.05,2.05,0,0,1-.82-.72,1.79,1.79,0,0,1-.3-1,1.66,1.66,0,0,1,.35-1.11,2.22,2.22,0,0,1,1.17-.58,9.35,9.35,0,0,1,1.91-.18H201v-.3a1.34,1.34,0,0,0-.28-.94,1.28,1.28,0,0,0-.93-.28,3.4,3.4,0,0,0-1.06.17,5.54,5.54,0,0,0-1.09.49l-.45-1.12a5.24,5.24,0,0,1,1.28-.56,5,5,0,0,1,1.43-.22Zm-.37,5.45a1.41,1.41,0,0,0,1.06-.44,1.58,1.58,0,0,0,.41-1.12v-.27h-.24a9.43,9.43,0,0,0-1.35.07,1.39,1.39,0,0,0-.69.28.68.68,0,0,0-.21.53.89.89,0,0,0,.29.68A1,1,0,0,0,199.48,435.75Zm6.34-8.1v1.18a3.22,3.22,0,0,1-.23,1.24,3.37,3.37,0,0,1-.8,1.1l-.66-.52a3.37,3.37,0,0,0,.48-.62,1.7,1.7,0,0,0,.22-.59H204v-1.79Z"/><g class="cls-1"><path d="M446.82,427.94h3.38a4.78,4.78,0,0,1,3.49,1.21,5.21,5.21,0,0,1,0,6.75,4.78,4.78,0,0,1-3.49,1.21h-3.38Zm3.27,7.8q3.17,0,3.16-3.22t-3.16-3.21H448.5v6.43Zm9.12-5.14a2.7,2.7,0,0,1,2,.65,2.73,2.73,0,0,1,.65,2v3.86H460.3v-1a1.7,1.7,0,0,1-.7.8,2.06,2.06,0,0,1-1.09.28,2.47,2.47,0,0,1-1.16-.26,2,2,0,0,1-.82-.71,1.82,1.82,0,0,1-.3-1,1.6,1.6,0,0,1,.36-1.1,2.19,2.19,0,0,1,1.16-.59,11.17,11.17,0,0,1,1.92-.18h.63v-.3a1,1,0,0,0-1.21-1.22A3.42,3.42,0,0,0,458,432a5.17,5.17,0,0,0-1.08.48l-.46-1.11a4.78,4.78,0,0,1,1.29-.56,5,5,0,0,1,1.43-.22Zm-.38,5.44a1.39,1.39,0,0,0,1.06-.43,1.6,1.6,0,0,0,.41-1.13v-.27h-.23a9.31,9.31,0,0,0-1.36.08,1.31,1.31,0,0,0-.69.27.72.72,0,0,0-.2.53.9.9,0,0,0,.28.69A1.07,1.07,0,0,0,458.83,436Zm7.92-.05a4.22,4.22,0,0,0,.6,0l-.08,1.21a6.24,6.24,0,0,1-.72,0,2.74,2.74,0,0,1-2-.62,2.42,2.42,0,0,1-.64-1.84V432h-1.22v-1.22h1.22v-1.9h1.62v1.9h1.68V432h-1.68v2.75C465.56,435.57,466,436,466.75,436ZM471,430.6a2.31,2.31,0,0,1,2.64,2.65v3.86h-1.54v-1a1.7,1.7,0,0,1-.7.8,2.09,2.09,0,0,1-1.1.28,2.43,2.43,0,0,1-1.15-.26,2,2,0,0,1-.82-.71,1.82,1.82,0,0,1-.3-1,1.6,1.6,0,0,1,.36-1.1,2.15,2.15,0,0,1,1.16-.59,11,11,0,0,1,1.91-.18h.64v-.3a1.32,1.32,0,0,0-.28-.93,1.28,1.28,0,0,0-.93-.29,3.42,3.42,0,0,0-1.06.18,5.49,5.49,0,0,0-1.09.48l-.45-1.11a4.58,4.58,0,0,1,1.28-.56,5,5,0,0,1,1.43-.22Zm-.37,5.44a1.4,1.4,0,0,0,1.06-.43,1.6,1.6,0,0,0,.41-1.13v-.27h-.24a9.16,9.16,0,0,0-1.35.08,1.31,1.31,0,0,0-.69.27.69.69,0,0,0-.21.53.91.91,0,0,0,.29.69A1.05,1.05,0,0,0,470.65,436Zm14.41-4.52v1.14h-6.34v-1.14Zm0,2.6v1.14h-6.34v-1.14Zm6.78-4.54v1.8H490v-1.19a3.25,3.25,0,0,1,.23-1.23,3.89,3.89,0,0,1,.79-1.11l.67.52a3.76,3.76,0,0,0-.48.63,1.48,1.48,0,0,0-.22.58Zm5.2,1a2.7,2.7,0,0,1,1.47.4,2.76,2.76,0,0,1,1,1.14,3.93,3.93,0,0,1,.36,1.73,4.05,4.05,0,0,1-.36,1.75,2.77,2.77,0,0,1-1,1.18,2.7,2.7,0,0,1-1.46.41,2.49,2.49,0,0,1-1.23-.3,2,2,0,0,1-.83-.83v1h-1.6v-9.17H495v3.73a1.9,1.9,0,0,1,.82-.79A2.51,2.51,0,0,1,497,430.6Zm-.43,5.35a1.42,1.42,0,0,0,1.19-.54,2.43,2.43,0,0,0,.43-1.54,2.3,2.3,0,0,0-.42-1.49,1.64,1.64,0,0,0-2.4,0,2.9,2.9,0,0,0,0,3A1.45,1.45,0,0,0,496.61,436Zm6.26-8v1.19a3.08,3.08,0,0,1-.23,1.24,3.6,3.6,0,0,1-.79,1.1l-.67-.52a4.55,4.55,0,0,0,.49-.63,1.87,1.87,0,0,0,.22-.58h-.84v-1.8Z"/><path d="M416.3,481.94h4a3.29,3.29,0,0,1,2.28.74,2.6,2.6,0,0,1,.82,2.06,2.65,2.65,0,0,1-.82,2.07,3.29,3.29,0,0,1-2.28.74H418v3.56H416.3Zm3.8,4.32c1.15,0,1.73-.5,1.73-1.51a1.46,1.46,0,0,0-.43-1.14,2,2,0,0,0-1.3-.37H418v3Zm8.82-.31L428,486c-1.08.11-1.62.66-1.62,1.64v3.43h-1.62v-6.36h1.55v1.12a2.15,2.15,0,0,1,2-1.25l.49,0Zm6.37,2.27H431a2,2,0,0,0,.53,1.32,1.83,1.83,0,0,0,1.3.42,3.05,3.05,0,0,0,1.92-.67l.47,1.12a3.41,3.41,0,0,1-1.11.58,4.24,4.24,0,0,1-1.35.22,3.35,3.35,0,0,1-2.46-.88,3.24,3.24,0,0,1-.9-2.42,3.71,3.71,0,0,1,.39-1.73,2.86,2.86,0,0,1,1.09-1.17,3.11,3.11,0,0,1,1.61-.41,2.63,2.63,0,0,1,2.07.84,3.34,3.34,0,0,1,.76,2.33Zm-2.79-2.48a1.39,1.39,0,0,0-1.05.42,2,2,0,0,0-.48,1.19h2.93a1.76,1.76,0,0,0-.39-1.2A1.29,1.29,0,0,0,432.5,485.74Zm8.58-1h1.6l-2.78,6.35h-1.42l-2.76-6.35h1.72l1.79,4.49Zm9.59-.16a2.12,2.12,0,0,1,1.71.65,2.94,2.94,0,0,1,.56,2v3.9h-1.63V487.3a1.68,1.68,0,0,0-.28-1.08,1.1,1.1,0,0,0-.88-.34,1.5,1.5,0,0,0-1.12.44,1.66,1.66,0,0,0-.42,1.19v3.6H447v-6.36h1.59v.95a2.15,2.15,0,0,1,.87-.82A2.59,2.59,0,0,1,450.67,484.6Zm6.82,6.61a3.48,3.48,0,0,1-1.71-.4,2.77,2.77,0,0,1-1.14-1.16,4,4,0,0,1,0-3.5,2.81,2.81,0,0,1,1.14-1.15,3.48,3.48,0,0,1,1.71-.4,3.42,3.42,0,0,1,1.7.4,2.81,2.81,0,0,1,1.14,1.15,4.12,4.12,0,0,1,0,3.5,2.77,2.77,0,0,1-1.14,1.16A3.42,3.42,0,0,1,457.49,491.21Zm0-1.26a1.45,1.45,0,0,0,1.21-.52,3,3,0,0,0,0-3.06,1.43,1.43,0,0,0-1.19-.53,1.47,1.47,0,0,0-1.21.53,3,3,0,0,0,0,3.06A1.41,1.41,0,0,0,457.47,490Zm10.73-8v9.17h-1.61v-1a2.07,2.07,0,0,1-.83.83,2.49,2.49,0,0,1-1.23.3,2.7,2.7,0,0,1-1.46-.41,2.77,2.77,0,0,1-1-1.18,4.05,4.05,0,0,1-.36-1.75,3.93,3.93,0,0,1,.36-1.73,2.76,2.76,0,0,1,1-1.14,2.7,2.7,0,0,1,1.47-.4,2.53,2.53,0,0,1,1.22.28,1.94,1.94,0,0,1,.82.81v-3.75ZM465,490a1.45,1.45,0,0,0,1.2-.53,2.9,2.9,0,0,0,0-3,1.44,1.44,0,0,0-1.19-.52,1.48,1.48,0,0,0-1.21.52,2.3,2.3,0,0,0-.42,1.49,2.49,2.49,0,0,0,.42,1.54A1.46,1.46,0,0,0,465,490Zm10.49-1.73h-4.33a2,2,0,0,0,.54,1.32,1.83,1.83,0,0,0,1.3.42,3.05,3.05,0,0,0,1.92-.67l.47,1.12a3.63,3.63,0,0,1-1.11.58,4.24,4.24,0,0,1-1.35.22,3.35,3.35,0,0,1-2.46-.88,3.21,3.21,0,0,1-.91-2.42,3.71,3.71,0,0,1,.39-1.73A2.89,2.89,0,0,1,471,485a3.09,3.09,0,0,1,1.61-.41,2.66,2.66,0,0,1,2.07.84,3.34,3.34,0,0,1,.76,2.33Zm-2.79-2.48a1.36,1.36,0,0,0-1.05.42,2,2,0,0,0-.49,1.19h2.94a1.87,1.87,0,0,0-.39-1.2A1.29,1.29,0,0,0,472.66,485.74Zm13.87-.22v1.14h-6.35v-1.14Zm0,2.6v1.14h-6.35v-1.14Zm8.79-3.52a2.1,2.1,0,0,1,1.7.65,2.94,2.94,0,0,1,.56,2v3.9H496V487.3a1.68,1.68,0,0,0-.28-1.08,1.08,1.08,0,0,0-.87-.34,1.51,1.51,0,0,0-1.13.44,1.66,1.66,0,0,0-.42,1.19v3.6h-1.63v-6.36h1.59v.95a2.28,2.28,0,0,1,.87-.82A2.63,2.63,0,0,1,495.32,484.6Zm6.81,6.61a3.48,3.48,0,0,1-1.71-.4,2.77,2.77,0,0,1-1.14-1.16,4,4,0,0,1,0-3.5,2.81,2.81,0,0,1,1.14-1.15,3.86,3.86,0,0,1,3.42,0,2.78,2.78,0,0,1,1.13,1.15,4.12,4.12,0,0,1,0,3.5,2.75,2.75,0,0,1-1.13,1.16A3.48,3.48,0,0,1,502.13,491.21Zm0-1.26a1.44,1.44,0,0,0,1.21-.52,3,3,0,0,0,0-3.06,1.42,1.42,0,0,0-1.19-.53,1.48,1.48,0,0,0-1.21.53,3,3,0,0,0,0,3.06A1.42,1.42,0,0,0,502.11,490Zm10.73-8v9.17h-1.61v-1a2,2,0,0,1-.83.83,2.49,2.49,0,0,1-1.23.3,2.7,2.7,0,0,1-1.46-.41,2.77,2.77,0,0,1-1-1.18,4.05,4.05,0,0,1-.36-1.75,3.93,3.93,0,0,1,.36-1.73,2.76,2.76,0,0,1,1-1.14,2.7,2.7,0,0,1,1.47-.4,2.59,2.59,0,0,1,1.23.28,2,2,0,0,1,.81.81v-3.75Zm-3.24,8a1.45,1.45,0,0,0,1.2-.53,2.9,2.9,0,0,0,0-3,1.42,1.42,0,0,0-1.18-.52,1.46,1.46,0,0,0-1.21.52,2.24,2.24,0,0,0-.43,1.49,2.43,2.43,0,0,0,.43,1.54A1.42,1.42,0,0,0,509.6,490Zm10.49-1.73h-4.33a2,2,0,0,0,.54,1.32,1.83,1.83,0,0,0,1.3.42,3.05,3.05,0,0,0,1.92-.67l.47,1.12a3.63,3.63,0,0,1-1.11.58,4.24,4.24,0,0,1-1.35.22,3.35,3.35,0,0,1-2.46-.88,3.24,3.24,0,0,1-.9-2.42,3.71,3.71,0,0,1,.39-1.73,2.86,2.86,0,0,1,1.09-1.17,3.11,3.11,0,0,1,1.61-.41,2.65,2.65,0,0,1,2.07.84,3.34,3.34,0,0,1,.76,2.33Zm-2.79-2.48a1.38,1.38,0,0,0-1,.42,2,2,0,0,0-.49,1.19h2.94a1.87,1.87,0,0,0-.39-1.2A1.29,1.29,0,0,0,517.3,485.74Zm3.43,6.34v-1h6.19v1Z"/><path d="M530.65,484.6a2.7,2.7,0,0,1,2,.65,2.73,2.73,0,0,1,.65,2v3.86h-1.55v-1a1.74,1.74,0,0,1-.69.8,2.12,2.12,0,0,1-1.1.28,2.47,2.47,0,0,1-1.16-.26,2,2,0,0,1-.82-.71,1.82,1.82,0,0,1-.3-1,1.6,1.6,0,0,1,.36-1.1,2.22,2.22,0,0,1,1.16-.59,11.17,11.17,0,0,1,1.92-.18h.63v-.3a1.28,1.28,0,0,0-.28-.93,1.25,1.25,0,0,0-.93-.29,3.42,3.42,0,0,0-1.06.18,5.17,5.17,0,0,0-1.08.48l-.46-1.11a4.78,4.78,0,0,1,1.29-.56A5,5,0,0,1,530.65,484.6Zm1.09,3.61h-.47a7.48,7.48,0,0,0-1.11.08,1.24,1.24,0,0,0-.69.27.69.69,0,0,0-.21.53.9.9,0,0,0,.28.69,1.07,1.07,0,0,0,.73.26,1.37,1.37,0,0,0,1.06-.43,1.6,1.6,0,0,0,.41-1.13Z"/><path d="M421.79,538.94h1.57v9.17H422.1l-4.91-6.4v6.4h-1.56v-9.17h1.24l4.92,6.39Zm9,6.28h-4.33a2,2,0,0,0,.53,1.32,1.86,1.86,0,0,0,1.3.42,3.06,3.06,0,0,0,1.93-.67l.47,1.12a3.63,3.63,0,0,1-1.11.58,4.24,4.24,0,0,1-1.35.22,3.35,3.35,0,0,1-2.46-.88,3.21,3.21,0,0,1-.91-2.42,3.71,3.71,0,0,1,.39-1.73,2.89,2.89,0,0,1,1.1-1.17,3.09,3.09,0,0,1,1.61-.41,2.66,2.66,0,0,1,2.07.84,3.34,3.34,0,0,1,.76,2.33ZM428,542.74a1.36,1.36,0,0,0-1.05.42,2,2,0,0,0-.49,1.19h2.94a1.87,1.87,0,0,0-.39-1.2A1.29,1.29,0,0,0,428,542.74Zm7.67,2.09,2.67,3.28H436.4L434.71,546,433,548.11h-1.92l2.66-3.28-2.52-3.08h1.94l1.52,1.94,1.52-1.94h1.94Zm6.61,2.16a4.22,4.22,0,0,0,.6,0l-.08,1.21a6.2,6.2,0,0,1-.71,0,2.78,2.78,0,0,1-2-.62,2.46,2.46,0,0,1-.64-1.84V543h-1.22v-1.22h1.22v-1.9h1.63v1.9h1.68V543h-1.68v2.75c0,.85.39,1.27,1.18,1.27ZM451,541.6a2.11,2.11,0,0,1,1.71.65,2.94,2.94,0,0,1,.56,2v3.9h-1.63V544.3a1.68,1.68,0,0,0-.28-1.08,1.09,1.09,0,0,0-.88-.34,1.5,1.5,0,0,0-1.12.44,1.66,1.66,0,0,0-.42,1.19v3.6h-1.63v-6.36h1.59v1a2.28,2.28,0,0,1,.87-.82A2.62,2.62,0,0,1,451,541.6Zm6.82,6.61a3.48,3.48,0,0,1-1.71-.4,2.77,2.77,0,0,1-1.14-1.16,4,4,0,0,1,0-3.5,2.81,2.81,0,0,1,1.14-1.15,3.86,3.86,0,0,1,3.42,0,2.78,2.78,0,0,1,1.13,1.15,4.12,4.12,0,0,1,0,3.5,2.75,2.75,0,0,1-1.13,1.16A3.48,3.48,0,0,1,457.84,548.21Zm0-1.26a1.44,1.44,0,0,0,1.21-.52,3,3,0,0,0,0-3.06,1.42,1.42,0,0,0-1.19-.53,1.48,1.48,0,0,0-1.21.53,3,3,0,0,0,0,3.06A1.42,1.42,0,0,0,457.82,547Zm10.73-8v9.17h-1.61v-1a2,2,0,0,1-.83.83,2.49,2.49,0,0,1-1.23.3,2.7,2.7,0,0,1-1.46-.41,2.77,2.77,0,0,1-1-1.18,4.05,4.05,0,0,1-.36-1.75,3.93,3.93,0,0,1,.36-1.73,2.76,2.76,0,0,1,1-1.14,2.7,2.7,0,0,1,1.47-.4,2.53,2.53,0,0,1,1.22.28,1.94,1.94,0,0,1,.82.81v-3.75Zm-3.24,8a1.45,1.45,0,0,0,1.2-.53,2.9,2.9,0,0,0,0-3,1.42,1.42,0,0,0-1.19-.52,1.44,1.44,0,0,0-1.2.52,2.24,2.24,0,0,0-.43,1.49,2.43,2.43,0,0,0,.43,1.54A1.42,1.42,0,0,0,465.31,547Zm10.49-1.73h-4.33a2,2,0,0,0,.54,1.32,1.83,1.83,0,0,0,1.3.42,3.05,3.05,0,0,0,1.92-.67l.47,1.12a3.63,3.63,0,0,1-1.11.58,4.24,4.24,0,0,1-1.35.22,3.35,3.35,0,0,1-2.46-.88,3.25,3.25,0,0,1-.91-2.42,3.71,3.71,0,0,1,.39-1.73,2.89,2.89,0,0,1,1.1-1.17,3.11,3.11,0,0,1,1.61-.41,2.65,2.65,0,0,1,2.07.84,3.34,3.34,0,0,1,.76,2.33ZM473,542.74a1.38,1.38,0,0,0-1.05.42,2,2,0,0,0-.49,1.19h2.94a1.87,1.87,0,0,0-.39-1.2A1.29,1.29,0,0,0,473,542.74Zm13.87-.22v1.14h-6.35v-1.14Zm0,2.6v1.14h-6.35v-1.14Zm8.79-3.52a2.1,2.1,0,0,1,1.7.65,2.94,2.94,0,0,1,.56,2v3.9H496.3V544.3a1.68,1.68,0,0,0-.28-1.08,1.06,1.06,0,0,0-.87-.34,1.51,1.51,0,0,0-1.13.44,1.66,1.66,0,0,0-.42,1.19v3.6H492v-6.36h1.59v1a2.28,2.28,0,0,1,.87-.82A2.66,2.66,0,0,1,495.67,541.6Zm6.81,6.61a3.48,3.48,0,0,1-1.71-.4,2.77,2.77,0,0,1-1.14-1.16,4,4,0,0,1,0-3.5,2.81,2.81,0,0,1,1.14-1.15,3.86,3.86,0,0,1,3.42,0,2.78,2.78,0,0,1,1.13,1.15,4,4,0,0,1,0,3.5,2.75,2.75,0,0,1-1.13,1.16A3.48,3.48,0,0,1,502.48,548.21Zm0-1.26a1.43,1.43,0,0,0,1.2-.52,3,3,0,0,0,0-3.06,1.42,1.42,0,0,0-1.19-.53,1.45,1.45,0,0,0-1.2.53,2.34,2.34,0,0,0-.43,1.53,2.39,2.39,0,0,0,.42,1.53A1.44,1.44,0,0,0,502.47,547Zm10.72-8v9.17h-1.61v-1a2,2,0,0,1-.83.83,2.49,2.49,0,0,1-1.23.3,2.7,2.7,0,0,1-1.46-.41,2.77,2.77,0,0,1-1-1.18,4.05,4.05,0,0,1-.36-1.75,3.93,3.93,0,0,1,.36-1.73,2.72,2.72,0,0,1,1-1.14,2.65,2.65,0,0,1,1.46-.4,2.59,2.59,0,0,1,1.23.28,2,2,0,0,1,.82.81v-3.75ZM510,547a1.48,1.48,0,0,0,1.21-.53,3,3,0,0,0,0-3,1.64,1.64,0,0,0-2.4,0,2.24,2.24,0,0,0-.43,1.49,2.43,2.43,0,0,0,.43,1.54A1.42,1.42,0,0,0,510,547Zm10.49-1.73h-4.32a2,2,0,0,0,.53,1.32,1.85,1.85,0,0,0,1.3.42,3.05,3.05,0,0,0,1.92-.67l.47,1.12a3.41,3.41,0,0,1-1.11.58,4.24,4.24,0,0,1-1.35.22,3.35,3.35,0,0,1-2.46-.88,3.24,3.24,0,0,1-.9-2.42,3.71,3.71,0,0,1,.39-1.73A2.82,2.82,0,0,1,516,542a3.05,3.05,0,0,1,1.6-.41,2.63,2.63,0,0,1,2.07.84,3.34,3.34,0,0,1,.76,2.33Zm-2.79-2.48a1.39,1.39,0,0,0-1,.42,2,2,0,0,0-.48,1.19h2.93a1.76,1.76,0,0,0-.39-1.2A1.29,1.29,0,0,0,517.65,542.74Zm3.43,6.34v-1h6.19v1Zm10.09-.87a3.55,3.55,0,0,1-1.74-.4,2.73,2.73,0,0,1-1.12-1.14,4,4,0,0,1,0-3.48,2.87,2.87,0,0,1,1.16-1.18,3.55,3.55,0,0,1,1.74-.41,4.15,4.15,0,0,1,1.32.21,2.8,2.8,0,0,1,1,.58l-.47,1.14a3.18,3.18,0,0,0-.85-.49,2.6,2.6,0,0,0-.89-.17,1.69,1.69,0,0,0-1.32.53,2.69,2.69,0,0,0,0,3,1.69,1.69,0,0,0,1.32.53,2.6,2.6,0,0,0,.89-.17,3.18,3.18,0,0,0,.85-.49l.47,1.13a2.89,2.89,0,0,1-1.07.59,4.33,4.33,0,0,1-1.35.21Z"/><path d="M554.05,456.11h-159v-47h159Zm-2-45h-155v43h155Z"/><path d="M575.05,587.11h-202v-196h202Zm-2-194h-198v192h198Z"/><path d="M554.05,511.11h-159v-47h159Zm-2-45h-155v43h155Z"/><path d="M554.05,568.11h-159v-47h159Zm-157-45v43h155v-43Z"/></g><path d="M738.9,427.65h3.38a4.82,4.82,0,0,1,3.49,1.2,5.23,5.23,0,0,1,0,6.76,4.82,4.82,0,0,1-3.49,1.2H738.9Zm3.27,7.8c2.11,0,3.16-1.08,3.16-3.22s-1.05-3.22-3.16-3.22h-1.6v6.44Zm9.12-5.15a2.31,2.31,0,0,1,2.63,2.65v3.86h-1.54v-1a1.68,1.68,0,0,1-.7.79,2.07,2.07,0,0,1-1.1.29,2.56,2.56,0,0,1-1.15-.26,2.05,2.05,0,0,1-.82-.72,1.79,1.79,0,0,1-.3-1,1.61,1.61,0,0,1,.36-1.11,2.14,2.14,0,0,1,1.16-.58,9.43,9.43,0,0,1,1.91-.18h.64v-.3a1.34,1.34,0,0,0-.28-.94,1.28,1.28,0,0,0-.93-.28,3.4,3.4,0,0,0-1.06.17,5.54,5.54,0,0,0-1.09.49l-.45-1.12a5.16,5.16,0,0,1,1.29-.56,4.93,4.93,0,0,1,1.43-.22Zm-.38,5.45a1.41,1.41,0,0,0,1.06-.44,1.58,1.58,0,0,0,.41-1.12v-.28h-.24a9.16,9.16,0,0,0-1.35.08,1.31,1.31,0,0,0-.69.28.68.68,0,0,0-.21.53.89.89,0,0,0,.29.68A1,1,0,0,0,750.91,435.75Zm7.92-.05c.19,0,.39,0,.59,0l-.07,1.21c-.26,0-.5,0-.72,0a2.78,2.78,0,0,1-2-.62,2.47,2.47,0,0,1-.63-1.84v-2.77H754.8v-1.22H756v-1.9h1.62v1.9h1.68v1.22h-1.68v2.74c0,.85.4,1.28,1.19,1.28Zm4.27-5.4a2.31,2.31,0,0,1,2.64,2.65v3.86h-1.55v-1a1.61,1.61,0,0,1-.69.79,2.1,2.1,0,0,1-1.1.29,2.63,2.63,0,0,1-1.16-.26,2.12,2.12,0,0,1-.82-.72,1.86,1.86,0,0,1-.29-1,1.61,1.61,0,0,1,.35-1.11,2.22,2.22,0,0,1,1.17-.58,9.28,9.28,0,0,1,1.91-.18h.63v-.3a1.29,1.29,0,0,0-.28-.94,1.24,1.24,0,0,0-.92-.28,3.35,3.35,0,0,0-1.06.17,5.54,5.54,0,0,0-1.09.49l-.45-1.12a5.24,5.24,0,0,1,1.28-.56,5,5,0,0,1,1.43-.22Zm-.37,5.45a1.37,1.37,0,0,0,1-.44,1.53,1.53,0,0,0,.41-1.12v-.28H764a9.16,9.16,0,0,0-1.35.08,1.31,1.31,0,0,0-.69.28.68.68,0,0,0-.21.53.89.89,0,0,0,.29.68A1,1,0,0,0,762.73,435.75Zm14.41-4.53v1.15H770.8v-1.15Zm0,2.6V435H770.8v-1.15Zm6.78-4.53v1.79H782.1V429.9a3.06,3.06,0,0,1,.23-1.23,3.63,3.63,0,0,1,.79-1.11l.67.52a4,4,0,0,0-.49.62,1.93,1.93,0,0,0-.22.59Zm4.44,7.63a3.62,3.62,0,0,1-1.73-.4,2.72,2.72,0,0,1-1.13-1.15,4,4,0,0,1,0-3.48,2.84,2.84,0,0,1,1.16-1.17,3.57,3.57,0,0,1,1.75-.42,4,4,0,0,1,1.32.22,2.82,2.82,0,0,1,1,.57l-.47,1.15a3.21,3.21,0,0,0-.85-.5,2.58,2.58,0,0,0-.89-.16,1.66,1.66,0,0,0-1.31.52,2.18,2.18,0,0,0-.47,1.52,2.14,2.14,0,0,0,.47,1.5,1.66,1.66,0,0,0,1.31.52,2.38,2.38,0,0,0,.89-.17,2.93,2.93,0,0,0,.85-.49l.47,1.13a2.89,2.89,0,0,1-1.07.59,4.07,4.07,0,0,1-1.35.22Zm5.12-9.27v1.18a3,3,0,0,1-.23,1.24,3.49,3.49,0,0,1-.79,1.1l-.67-.52a3.37,3.37,0,0,0,.48-.62,1.72,1.72,0,0,0,.23-.59h-.84v-1.79Z"/><path d="M134.43,482.65h4a3.32,3.32,0,0,1,2.29.73,3,3,0,0,1,0,4.13,3.27,3.27,0,0,1-2.29.74h-2.33v3.56h-1.68Zm3.8,4.32c1.15,0,1.73-.51,1.73-1.51a1.42,1.42,0,0,0-.43-1.14,1.94,1.94,0,0,0-1.3-.37h-2.12v3Zm8.83-.32-.95.09c-1.08.12-1.61.66-1.61,1.64v3.43h-1.63v-6.35h1.55v1.12a2.15,2.15,0,0,1,2-1.25l.49,0Zm6.37,2.28H149.1a2,2,0,0,0,.53,1.31,1.81,1.81,0,0,0,1.3.43,3.11,3.11,0,0,0,1.93-.68l.46,1.12a3.43,3.43,0,0,1-1.11.59,4.42,4.42,0,0,1-1.34.22,3.4,3.4,0,0,1-2.47-.89,3.22,3.22,0,0,1-.9-2.41,3.71,3.71,0,0,1,.39-1.73,2.77,2.77,0,0,1,1.1-1.17,3.08,3.08,0,0,1,1.6-.42,2.64,2.64,0,0,1,2.08.85,3.36,3.36,0,0,1,.76,2.32Zm-2.8-2.48a1.35,1.35,0,0,0-1,.41,2,2,0,0,0-.49,1.2H152a1.92,1.92,0,0,0-.39-1.21,1.3,1.3,0,0,0-1-.4Zm8.58-1h1.6L158,491.81h-1.42l-2.75-6.34h1.71l1.8,4.49Zm9.6-.17a2.13,2.13,0,0,1,1.7.65,3,3,0,0,1,.56,2v3.9h-1.63V488a1.65,1.65,0,0,0-.28-1.08,1,1,0,0,0-.87-.34,1.51,1.51,0,0,0-1.13.44,1.64,1.64,0,0,0-.42,1.18v3.6h-1.63v-6.35h1.59v1a2.21,2.21,0,0,1,.87-.82,2.67,2.67,0,0,1,1.24-.29Zm6.81,6.62a3.6,3.6,0,0,1-1.71-.4,2.83,2.83,0,0,1-1.14-1.16,4.05,4.05,0,0,1,0-3.51,2.87,2.87,0,0,1,1.14-1.15,3.86,3.86,0,0,1,3.42,0,2.84,2.84,0,0,1,1.13,1.15,4.05,4.05,0,0,1,0,3.51,2.81,2.81,0,0,1-1.13,1.16A3.6,3.6,0,0,1,175.62,491.92Zm0-1.26a1.46,1.46,0,0,0,1.2-.52,3,3,0,0,0,0-3.06,1.39,1.39,0,0,0-1.19-.53,1.42,1.42,0,0,0-1.2.53,2.33,2.33,0,0,0-.43,1.52,2.42,2.42,0,0,0,.42,1.54A1.47,1.47,0,0,0,175.61,490.66Zm10.72-8v9.16h-1.61v-1a2.07,2.07,0,0,1-.83.83,2.49,2.49,0,0,1-1.23.3,2.62,2.62,0,0,1-1.46-.42,2.8,2.8,0,0,1-1-1.17,4.05,4.05,0,0,1-.36-1.75,3.9,3.9,0,0,1,.36-1.73,2.68,2.68,0,0,1,1-1.15,2.73,2.73,0,0,1,1.46-.4,2.6,2.6,0,0,1,1.23.29,2.1,2.1,0,0,1,.82.8v-3.74Zm-3.24,8a1.46,1.46,0,0,0,1.21-.54,2.39,2.39,0,0,0,.42-1.52,2.36,2.36,0,0,0-.42-1.51,1.46,1.46,0,0,0-1.19-.53,1.49,1.49,0,0,0-1.21.52,2.29,2.29,0,0,0-.43,1.5,2.38,2.38,0,0,0,.43,1.53A1.4,1.4,0,0,0,183.09,490.66Zm10.49-1.73h-4.32a1.91,1.91,0,0,0,.53,1.31,1.79,1.79,0,0,0,1.3.43A3.07,3.07,0,0,0,193,490l.47,1.12a3.43,3.43,0,0,1-1.11.59,4.54,4.54,0,0,1-1.35.22,3.36,3.36,0,0,1-2.46-.89,3.22,3.22,0,0,1-.9-2.41,3.71,3.71,0,0,1,.39-1.73,2.75,2.75,0,0,1,1.09-1.17,3.12,3.12,0,0,1,1.61-.42,2.61,2.61,0,0,1,2.07.85,3.33,3.33,0,0,1,.76,2.32Zm-2.79-2.48a1.39,1.39,0,0,0-1,.41,2.06,2.06,0,0,0-.48,1.2h2.93a1.81,1.81,0,0,0-.39-1.21,1.28,1.28,0,0,0-1-.4Zm13.87-.23v1.15h-6.34v-1.15Zm0,2.6V490h-6.34v-1.15Zm8.79-3.52a2.13,2.13,0,0,1,1.7.65,3,3,0,0,1,.56,2v3.9h-1.62V488a1.71,1.71,0,0,0-.28-1.08,1.07,1.07,0,0,0-.88-.34,1.52,1.52,0,0,0-1.13.44,1.64,1.64,0,0,0-.42,1.18v3.6h-1.62v-6.35h1.58v1a2.21,2.21,0,0,1,.87-.82,2.67,2.67,0,0,1,1.24-.29Zm9.75.16v6.35h-1.59v-1a2.12,2.12,0,0,1-.8.8,2.42,2.42,0,0,1-1.15.28c-1.56,0-2.34-.88-2.34-2.63v-3.83H219v3.85a1.55,1.55,0,0,0,.27,1,1.08,1.08,0,0,0,.86.32,1.38,1.38,0,0,0,1.08-.45,1.66,1.66,0,0,0,.41-1.19v-3.53Zm1.69,6.35v-9.16h1.62v9.16Zm3.3,0v-9.16h1.63v9.16Z"/><path d="M707.64,482.65h4a3.32,3.32,0,0,1,2.29.73,3,3,0,0,1,0,4.13,3.27,3.27,0,0,1-2.29.74h-2.33v3.56h-1.68Zm3.8,4.32c1.15,0,1.73-.51,1.73-1.51a1.42,1.42,0,0,0-.43-1.14,1.94,1.94,0,0,0-1.3-.37h-2.12v3Zm8.83-.32-.95.09c-1.08.12-1.61.66-1.61,1.64v3.43h-1.63v-6.35h1.55v1.12a2.15,2.15,0,0,1,2-1.25l.49,0Zm6.37,2.28h-4.33a2,2,0,0,0,.53,1.31,1.81,1.81,0,0,0,1.3.43,3.11,3.11,0,0,0,1.93-.68l.46,1.12a3.43,3.43,0,0,1-1.11.59,4.42,4.42,0,0,1-1.34.22,3.4,3.4,0,0,1-2.47-.89,3.22,3.22,0,0,1-.9-2.41,3.71,3.71,0,0,1,.39-1.73,2.77,2.77,0,0,1,1.1-1.17,3.08,3.08,0,0,1,1.6-.42,2.64,2.64,0,0,1,2.08.85,3.36,3.36,0,0,1,.76,2.32Zm-2.8-2.48a1.35,1.35,0,0,0-1,.41,2,2,0,0,0-.49,1.2h2.94a1.92,1.92,0,0,0-.39-1.21A1.3,1.3,0,0,0,723.84,486.45Zm8.58-1H734l-2.78,6.34h-1.42l-2.75-6.34h1.71l1.8,4.49Zm9.6-.17a2.13,2.13,0,0,1,1.7.65,3,3,0,0,1,.56,2v3.9h-1.63V488a1.65,1.65,0,0,0-.28-1.08,1,1,0,0,0-.87-.34,1.51,1.51,0,0,0-1.13.44,1.64,1.64,0,0,0-.42,1.18v3.6h-1.63v-6.35h1.59v1a2.21,2.21,0,0,1,.87-.82,2.67,2.67,0,0,1,1.24-.29Zm6.81,6.62a3.6,3.6,0,0,1-1.71-.4,2.83,2.83,0,0,1-1.14-1.16,4.05,4.05,0,0,1,0-3.51,2.87,2.87,0,0,1,1.14-1.15,3.86,3.86,0,0,1,3.42,0,2.84,2.84,0,0,1,1.13,1.15,4.05,4.05,0,0,1,0,3.51,2.81,2.81,0,0,1-1.13,1.16A3.6,3.6,0,0,1,748.83,491.92Zm0-1.26a1.46,1.46,0,0,0,1.2-.52,3,3,0,0,0,0-3.06,1.39,1.39,0,0,0-1.19-.53,1.42,1.42,0,0,0-1.2.53,2.33,2.33,0,0,0-.43,1.52,2.42,2.42,0,0,0,.42,1.54A1.47,1.47,0,0,0,748.82,490.66Zm10.72-8v9.16h-1.61v-1a2.07,2.07,0,0,1-.83.83,2.49,2.49,0,0,1-1.23.3,2.62,2.62,0,0,1-1.46-.42,2.8,2.8,0,0,1-1-1.17,4.05,4.05,0,0,1-.36-1.75,3.9,3.9,0,0,1,.36-1.73,2.68,2.68,0,0,1,1-1.15,2.73,2.73,0,0,1,1.46-.4,2.6,2.6,0,0,1,1.23.29,2.1,2.1,0,0,1,.82.8v-3.74Zm-3.24,8a1.46,1.46,0,0,0,1.21-.54,2.39,2.39,0,0,0,.42-1.52,2.36,2.36,0,0,0-.42-1.51,1.46,1.46,0,0,0-1.19-.53,1.49,1.49,0,0,0-1.21.52,2.29,2.29,0,0,0-.43,1.5,2.38,2.38,0,0,0,.43,1.53A1.4,1.4,0,0,0,756.3,490.66Zm10.49-1.73h-4.32a2,2,0,0,0,.53,1.31,1.81,1.81,0,0,0,1.3.43,3.07,3.07,0,0,0,1.92-.68l.47,1.12a3.43,3.43,0,0,1-1.11.59,4.54,4.54,0,0,1-1.35.22,3.36,3.36,0,0,1-2.46-.89,3.22,3.22,0,0,1-.9-2.41,3.71,3.71,0,0,1,.39-1.73,2.75,2.75,0,0,1,1.09-1.17,3.12,3.12,0,0,1,1.61-.42,2.61,2.61,0,0,1,2.07.85,3.33,3.33,0,0,1,.76,2.32ZM764,486.45a1.39,1.39,0,0,0-1,.41,2.06,2.06,0,0,0-.48,1.2h2.93a1.81,1.81,0,0,0-.39-1.21A1.28,1.28,0,0,0,764,486.45Zm13.87-.23v1.15h-6.34v-1.15Zm0,2.6V490h-6.34v-1.15Zm8.79-3.52a2.13,2.13,0,0,1,1.7.65,3,3,0,0,1,.56,2v3.9H787.3V488a1.71,1.71,0,0,0-.28-1.08,1.07,1.07,0,0,0-.88-.34A1.52,1.52,0,0,0,785,487a1.64,1.64,0,0,0-.42,1.18v3.6H783v-6.35h1.58v1a2.21,2.21,0,0,1,.87-.82,2.67,2.67,0,0,1,1.24-.29Zm6.81,6.62a3.6,3.6,0,0,1-1.71-.4,2.83,2.83,0,0,1-1.14-1.16,4.05,4.05,0,0,1,0-3.51,2.87,2.87,0,0,1,1.14-1.15,3.86,3.86,0,0,1,3.42,0,2.78,2.78,0,0,1,1.13,1.15,4.05,4.05,0,0,1,0,3.51,2.75,2.75,0,0,1-1.13,1.16A3.6,3.6,0,0,1,793.47,491.92Zm0-1.26a1.48,1.48,0,0,0,1.21-.52,3.06,3.06,0,0,0,0-3.06,1.62,1.62,0,0,0-2.4,0,2.39,2.39,0,0,0-.42,1.52,2.42,2.42,0,0,0,.41,1.54A1.47,1.47,0,0,0,793.46,490.66Zm10.72-8v9.16h-1.61v-1a2.07,2.07,0,0,1-.83.83,2.42,2.42,0,0,1-1.22.3,2.63,2.63,0,0,1-1.47-.42,2.8,2.8,0,0,1-1-1.17,4.05,4.05,0,0,1-.35-1.75,3.9,3.9,0,0,1,.35-1.73,2.68,2.68,0,0,1,1-1.15,2.74,2.74,0,0,1,1.47-.4,2.56,2.56,0,0,1,1.22.29,2,2,0,0,1,.82.8v-3.74Zm-3.23,8a1.43,1.43,0,0,0,1.2-.54,2.39,2.39,0,0,0,.42-1.52,2.36,2.36,0,0,0-.42-1.51,1.44,1.44,0,0,0-1.19-.53,1.51,1.51,0,0,0-1.21.52,2.29,2.29,0,0,0-.43,1.5,2.38,2.38,0,0,0,.43,1.53A1.42,1.42,0,0,0,801,490.66Zm10.49-1.73h-4.33a2,2,0,0,0,.53,1.31,1.81,1.81,0,0,0,1.3.43,3.07,3.07,0,0,0,1.92-.68l.47,1.12a3.43,3.43,0,0,1-1.11.59,4.47,4.47,0,0,1-1.34.22,3.38,3.38,0,0,1-2.47-.89,3.22,3.22,0,0,1-.9-2.41,3.71,3.71,0,0,1,.39-1.73,2.71,2.71,0,0,1,1.1-1.17,3.06,3.06,0,0,1,1.6-.42,2.64,2.64,0,0,1,2.08.85,3.38,3.38,0,0,1,.76,2.32Zm-2.8-2.48a1.39,1.39,0,0,0-1,.41,2.06,2.06,0,0,0-.48,1.2h2.94a1.92,1.92,0,0,0-.39-1.21A1.32,1.32,0,0,0,808.64,486.45Zm3.43,6.34v-1h6.19v1Z"/><path d="M822,485.3a2.31,2.31,0,0,1,2.64,2.65v3.86h-1.55v-1a1.61,1.61,0,0,1-.69.79,2.1,2.1,0,0,1-1.1.29,2.63,2.63,0,0,1-1.16-.26,2.12,2.12,0,0,1-.82-.72,1.86,1.86,0,0,1-.29-1,1.61,1.61,0,0,1,.35-1.11,2.22,2.22,0,0,1,1.17-.58,9.28,9.28,0,0,1,1.91-.18h.63v-.3a1.29,1.29,0,0,0-.28-.94,1.24,1.24,0,0,0-.92-.28,3.35,3.35,0,0,0-1.06.17,5.54,5.54,0,0,0-1.09.49l-.45-1.12a5.24,5.24,0,0,1,1.28-.56,5,5,0,0,1,1.43-.22Zm1.09,3.62h-.47a7.72,7.72,0,0,0-1.11.07,1.39,1.39,0,0,0-.69.28.68.68,0,0,0-.21.53.89.89,0,0,0,.29.68,1,1,0,0,0,.73.27,1.37,1.37,0,0,0,1-.44,1.53,1.53,0,0,0,.41-1.12Z"/><path d="M129.63,538.65h1.57v9.16h-1.26L125,541.42v6.39h-1.56v-9.16h1.25l4.91,6.38Zm9,6.28h-4.33a2,2,0,0,0,.54,1.31,1.79,1.79,0,0,0,1.3.43A3.07,3.07,0,0,0,138,546l.47,1.12a3.53,3.53,0,0,1-1.11.59,4.54,4.54,0,0,1-1.35.22,3.36,3.36,0,0,1-2.46-.89,3.22,3.22,0,0,1-.9-2.41,3.71,3.71,0,0,1,.39-1.73,2.75,2.75,0,0,1,1.09-1.17,3.12,3.12,0,0,1,1.61-.42,2.61,2.61,0,0,1,2.07.85,3.31,3.31,0,0,1,.76,2.32Zm-2.79-2.48a1.39,1.39,0,0,0-1,.41,2.14,2.14,0,0,0-.49,1.2h2.94a1.81,1.81,0,0,0-.39-1.21,1.28,1.28,0,0,0-1-.4Zm7.67,2.09,2.68,3.27h-1.93l-1.69-2.11-1.67,2.11H139l2.67-3.27-2.53-3.08H141l1.52,1.93,1.52-1.93H146Zm6.62,2.16c.19,0,.39,0,.59,0l-.07,1.21c-.26,0-.5,0-.72,0a2.78,2.78,0,0,1-2-.62,2.47,2.47,0,0,1-.63-1.84v-2.77h-1.22v-1.22h1.22v-1.9h1.62v1.9h1.68v1.22h-1.68v2.74C148.92,546.27,149.32,546.7,150.11,546.7Zm8.76-5.4a2.13,2.13,0,0,1,1.7.65,3,3,0,0,1,.56,2v3.9H159.5V544a1.71,1.71,0,0,0-.27-1.08,1.07,1.07,0,0,0-.88-.34,1.51,1.51,0,0,0-1.13.44,1.64,1.64,0,0,0-.42,1.18v3.6h-1.62v-6.35h1.58v.95a2.21,2.21,0,0,1,.87-.82,2.67,2.67,0,0,1,1.24-.29Zm6.81,6.62a3.6,3.6,0,0,1-1.71-.4,2.83,2.83,0,0,1-1.14-1.16,4.05,4.05,0,0,1,0-3.51A2.87,2.87,0,0,1,164,541.7a3.86,3.86,0,0,1,3.42,0,2.78,2.78,0,0,1,1.13,1.15,4.05,4.05,0,0,1,0,3.51,2.75,2.75,0,0,1-1.13,1.16A3.6,3.6,0,0,1,165.68,547.92Zm0-1.26a1.48,1.48,0,0,0,1.21-.52,3.06,3.06,0,0,0,0-3.06,1.62,1.62,0,0,0-2.4,0,3,3,0,0,0,0,3.06A1.47,1.47,0,0,0,165.67,546.66Zm10.72-8v9.16h-1.61v-1a2.07,2.07,0,0,1-.83.83,2.45,2.45,0,0,1-1.22.3,2.63,2.63,0,0,1-1.47-.42,2.8,2.8,0,0,1-1-1.17,4.05,4.05,0,0,1-.36-1.75,3.9,3.9,0,0,1,.36-1.73,2.68,2.68,0,0,1,1-1.15,2.74,2.74,0,0,1,1.47-.4,2.56,2.56,0,0,1,1.22.29,2,2,0,0,1,.82.8v-3.74Zm-3.24,8a1.45,1.45,0,0,0,1.21-.54,2.39,2.39,0,0,0,.42-1.52,2.36,2.36,0,0,0-.42-1.51,1.44,1.44,0,0,0-1.19-.53,1.49,1.49,0,0,0-1.21.52,2.29,2.29,0,0,0-.43,1.5,2.38,2.38,0,0,0,.43,1.53A1.4,1.4,0,0,0,173.15,546.66Zm10.5-1.73h-4.33a2,2,0,0,0,.53,1.31,1.81,1.81,0,0,0,1.3.43,3.07,3.07,0,0,0,1.92-.68l.47,1.12a3.43,3.43,0,0,1-1.11.59,4.49,4.49,0,0,1-1.35.22,3.36,3.36,0,0,1-2.46-.89,3.22,3.22,0,0,1-.9-2.41,3.71,3.71,0,0,1,.39-1.73,2.71,2.71,0,0,1,1.1-1.17,3.06,3.06,0,0,1,1.6-.42,2.64,2.64,0,0,1,2.08.85,3.38,3.38,0,0,1,.76,2.32Zm-2.8-2.48a1.39,1.39,0,0,0-1,.41,2.06,2.06,0,0,0-.48,1.2h2.93a1.81,1.81,0,0,0-.39-1.21,1.28,1.28,0,0,0-1-.4Zm13.87-.23v1.15h-6.34v-1.15Zm0,2.6V546h-6.34v-1.15Zm8.79-3.52a2.13,2.13,0,0,1,1.7.65,2.9,2.9,0,0,1,.56,2v3.9h-1.62V544a1.71,1.71,0,0,0-.28-1.08,1.07,1.07,0,0,0-.88-.34,1.48,1.48,0,0,0-1.12.44,1.6,1.6,0,0,0-.43,1.18v3.6h-1.62v-6.35h1.58v.95a2.21,2.21,0,0,1,.87-.82,2.67,2.67,0,0,1,1.24-.29Zm6.81,6.62a3.6,3.6,0,0,1-1.71-.4,2.83,2.83,0,0,1-1.14-1.16,4.05,4.05,0,0,1,0-3.51,2.87,2.87,0,0,1,1.14-1.15,3.86,3.86,0,0,1,3.42,0,2.78,2.78,0,0,1,1.13,1.15,4.05,4.05,0,0,1,0,3.51,2.75,2.75,0,0,1-1.13,1.16A3.6,3.6,0,0,1,210.32,547.92Zm0-1.26a1.48,1.48,0,0,0,1.21-.52,2.42,2.42,0,0,0,.41-1.54,2.39,2.39,0,0,0-.41-1.52,1.62,1.62,0,0,0-2.4,0,2.39,2.39,0,0,0-.42,1.52,2.48,2.48,0,0,0,.41,1.54A1.47,1.47,0,0,0,210.31,546.66Zm10.72-8v9.16h-1.61v-1a2,2,0,0,1-.82.83,2.49,2.49,0,0,1-1.23.3,2.58,2.58,0,0,1-1.46-.42,2.82,2.82,0,0,1-1-1.17,4.2,4.2,0,0,1-.35-1.75,4,4,0,0,1,.35-1.73,2.68,2.68,0,0,1,1-1.15,2.74,2.74,0,0,1,1.47-.4,2.56,2.56,0,0,1,1.22.29,2,2,0,0,1,.82.8v-3.74Zm-3.23,8a1.43,1.43,0,0,0,1.2-.54,2.39,2.39,0,0,0,.42-1.52,2.36,2.36,0,0,0-.42-1.51,1.44,1.44,0,0,0-1.19-.53,1.51,1.51,0,0,0-1.21.52,2.29,2.29,0,0,0-.43,1.5,2.38,2.38,0,0,0,.43,1.53A1.44,1.44,0,0,0,217.8,546.66Zm10.49-1.73H224a2,2,0,0,0,.53,1.31,1.82,1.82,0,0,0,1.3.43,3.09,3.09,0,0,0,1.93-.68l.46,1.12a3.43,3.43,0,0,1-1.11.59,4.42,4.42,0,0,1-1.34.22,3.4,3.4,0,0,1-2.47-.89,3.22,3.22,0,0,1-.9-2.41,3.71,3.71,0,0,1,.39-1.73,2.77,2.77,0,0,1,1.1-1.17,3.08,3.08,0,0,1,1.6-.42,2.64,2.64,0,0,1,2.08.85,3.38,3.38,0,0,1,.76,2.32Zm-2.8-2.48a1.35,1.35,0,0,0-1,.41,2,2,0,0,0-.49,1.2h2.94a1.92,1.92,0,0,0-.39-1.21,1.3,1.3,0,0,0-1-.4Zm3.43,6.34v-1h6.19v1Zm10.09-.87a3.65,3.65,0,0,1-1.73-.4,2.72,2.72,0,0,1-1.13-1.15,4,4,0,0,1,0-3.48,2.87,2.87,0,0,1,1.17-1.17,3.5,3.5,0,0,1,1.74-.42,4,4,0,0,1,1.32.22,2.74,2.74,0,0,1,1,.57l-.47,1.15a3.21,3.21,0,0,0-.85-.5,2.54,2.54,0,0,0-.89-.16,1.66,1.66,0,0,0-1.31.52,2.23,2.23,0,0,0-.47,1.52,2.19,2.19,0,0,0,.47,1.5,1.66,1.66,0,0,0,1.31.52,2.54,2.54,0,0,0,.89-.16,3.21,3.21,0,0,0,.85-.5l.47,1.13a2.89,2.89,0,0,1-1.07.59,4.07,4.07,0,0,1-1.35.22Z"/><path d="M724.08,538.65h1.58v9.16h-1.27l-4.91-6.39v6.39h-1.56v-9.16h1.25l4.91,6.38Zm9,6.28h-4.33a2,2,0,0,0,.53,1.31,1.81,1.81,0,0,0,1.3.43,3.07,3.07,0,0,0,1.92-.68l.47,1.12a3.43,3.43,0,0,1-1.11.59,4.49,4.49,0,0,1-1.35.22A3.36,3.36,0,0,1,728,547a3.22,3.22,0,0,1-.9-2.41,3.71,3.71,0,0,1,.39-1.73,2.71,2.71,0,0,1,1.1-1.17,3.06,3.06,0,0,1,1.6-.42,2.64,2.64,0,0,1,2.08.85,3.36,3.36,0,0,1,.76,2.32Zm-2.8-2.48a1.39,1.39,0,0,0-1,.41,2.06,2.06,0,0,0-.48,1.2h2.93a1.81,1.81,0,0,0-.39-1.21A1.28,1.28,0,0,0,730.27,542.45Zm7.67,2.09,2.68,3.27h-1.93L737,545.7l-1.67,2.11H733.4l2.67-3.27-2.52-3.08h1.93l1.52,1.93,1.53-1.93h1.93Zm6.62,2.16c.19,0,.39,0,.6,0l-.08,1.21c-.26,0-.5,0-.72,0a2.74,2.74,0,0,1-2-.62,2.44,2.44,0,0,1-.64-1.84v-2.77h-1.22v-1.22h1.22v-1.9h1.62v1.9h1.68v1.22h-1.68v2.74c0,.85.4,1.28,1.19,1.28Zm8.76-5.4a2.13,2.13,0,0,1,1.7.65,2.9,2.9,0,0,1,.56,2v3.9H754V544a1.71,1.71,0,0,0-.28-1.08,1.07,1.07,0,0,0-.88-.34,1.48,1.48,0,0,0-1.12.44,1.6,1.6,0,0,0-.43,1.18v3.6h-1.62v-6.35h1.58v.95a2.21,2.21,0,0,1,.87-.82,2.67,2.67,0,0,1,1.24-.29Zm6.81,6.62a3.6,3.6,0,0,1-1.71-.4,2.83,2.83,0,0,1-1.14-1.16,4.05,4.05,0,0,1,0-3.51,2.87,2.87,0,0,1,1.14-1.15,3.86,3.86,0,0,1,3.42,0,2.78,2.78,0,0,1,1.13,1.15,4.05,4.05,0,0,1,0,3.51,2.75,2.75,0,0,1-1.13,1.16A3.6,3.6,0,0,1,760.13,547.92Zm0-1.26a1.48,1.48,0,0,0,1.21-.52,2.42,2.42,0,0,0,.41-1.54,2.39,2.39,0,0,0-.41-1.52,1.62,1.62,0,0,0-2.4,0,2.39,2.39,0,0,0-.42,1.52,2.48,2.48,0,0,0,.41,1.54A1.47,1.47,0,0,0,760.12,546.66Zm10.72-8v9.16h-1.61v-1a2,2,0,0,1-.82.83,2.49,2.49,0,0,1-1.23.3,2.58,2.58,0,0,1-1.46-.42,2.82,2.82,0,0,1-1-1.17,4.2,4.2,0,0,1-.35-1.75,4,4,0,0,1,.35-1.73,2.68,2.68,0,0,1,1-1.15,2.74,2.74,0,0,1,1.47-.4,2.56,2.56,0,0,1,1.22.29,2,2,0,0,1,.82.8v-3.74Zm-3.23,8a1.43,1.43,0,0,0,1.2-.54,2.39,2.39,0,0,0,.42-1.52,2.36,2.36,0,0,0-.42-1.51,1.44,1.44,0,0,0-1.19-.53,1.51,1.51,0,0,0-1.21.52,2.29,2.29,0,0,0-.43,1.5,2.38,2.38,0,0,0,.43,1.53A1.44,1.44,0,0,0,767.61,546.66Zm10.49-1.73h-4.33a2,2,0,0,0,.53,1.31,1.82,1.82,0,0,0,1.3.43,3.09,3.09,0,0,0,1.93-.68l.46,1.12a3.43,3.43,0,0,1-1.11.59,4.42,4.42,0,0,1-1.34.22,3.4,3.4,0,0,1-2.47-.89,3.22,3.22,0,0,1-.9-2.41,3.71,3.71,0,0,1,.39-1.73,2.77,2.77,0,0,1,1.1-1.17,3.08,3.08,0,0,1,1.6-.42,2.64,2.64,0,0,1,2.08.85,3.38,3.38,0,0,1,.76,2.32Zm-2.8-2.48a1.35,1.35,0,0,0-1,.41,2,2,0,0,0-.49,1.2h2.94a1.92,1.92,0,0,0-.39-1.21A1.3,1.3,0,0,0,775.3,542.45Zm13.87-.23v1.15h-6.34v-1.15Zm0,2.6V546h-6.34v-1.15ZM798,541.3a2.13,2.13,0,0,1,1.7.65,2.9,2.9,0,0,1,.56,2v3.9H798.6V544a1.65,1.65,0,0,0-.28-1.08,1.07,1.07,0,0,0-.88-.34,1.48,1.48,0,0,0-1.12.44,1.64,1.64,0,0,0-.43,1.18v3.6h-1.62v-6.35h1.59v.95a2.08,2.08,0,0,1,.87-.82,2.6,2.6,0,0,1,1.23-.29Zm9.75.16v6.35h-1.58v-1a2.08,2.08,0,0,1-.81.8,2.4,2.4,0,0,1-1.14.28c-1.56,0-2.34-.88-2.34-2.63v-3.83h1.62v3.85a1.55,1.55,0,0,0,.27,1,1.09,1.09,0,0,0,.86.32,1.42,1.42,0,0,0,1.09-.45,1.7,1.7,0,0,0,.41-1.19v-3.53Zm1.69,6.35v-9.16H811v9.16Zm3.3,0v-9.16h1.63v9.16Z"/><path d="M262.05,455.9h-160V409.17h160Zm-2-44.73h-156V453.9h156Z"/><path d="M846.05,454.9h-160V408.17h160Zm-158-44.73V452.9h156V410.17Z"/><path d="M283.05,587.11h-202V391.28h202Zm-2-193.83h-198V585.11h198Z"/><path d="M867.05,586.11h-202V390.28h202Zm-2-193.83h-198V584.11h198Z"/><path d="M262.05,511.07h-160V464.34h160Zm-158-44.73v42.73h156V466.34Z"/><path d="M846.05,510.07h-160V463.34h160Zm-158-44.73v42.73h156V465.34Z"/><path d="M262.05,567.73h-160V521h160ZM104.05,523v42.73h156V523Z"/><path d="M846.05,566.73h-160V520h160ZM688.05,522v42.73h156V522Z"/><path class="cls-2" d="M296.05,479.82v6l390.18.28v2l-390.17-.28v6l-14-7Z"/><path class="cls-2" d="M652,537.82l14,7-14,7v-6l-390.15.29v-2l390.15-.29Z"/><path d="M150.56,163.65h3.38a4.82,4.82,0,0,1,3.49,1.2,5.23,5.23,0,0,1,0,6.76,4.82,4.82,0,0,1-3.49,1.2h-3.38Zm3.27,7.8c2.11,0,3.16-1.08,3.16-3.22s-1.05-3.22-3.16-3.22h-1.59v6.44ZM163,166.3a2.31,2.31,0,0,1,2.64,2.65v3.86H164v-1a1.68,1.68,0,0,1-.7.79,2.06,2.06,0,0,1-1.09.29,2.57,2.57,0,0,1-1.16-.26,2.05,2.05,0,0,1-.82-.72,1.79,1.79,0,0,1-.3-1,1.61,1.61,0,0,1,.36-1.11,2.18,2.18,0,0,1,1.16-.58,9.46,9.46,0,0,1,1.92-.18H164v-.3a1,1,0,0,0-1.21-1.22,3.4,3.4,0,0,0-1.06.17,5.21,5.21,0,0,0-1.08.49l-.46-1.12a5.32,5.32,0,0,1,1.29-.56,5,5,0,0,1,1.43-.22Zm-.38,5.45a1.39,1.39,0,0,0,1.06-.44,1.58,1.58,0,0,0,.41-1.12v-.27h-.23a9.49,9.49,0,0,0-1.36.07,1.39,1.39,0,0,0-.69.28.71.71,0,0,0-.2.53.88.88,0,0,0,.28.68A1,1,0,0,0,162.57,171.75Zm7.92-.05c.19,0,.39,0,.6,0l-.08,1.21c-.26,0-.5,0-.72,0a2.74,2.74,0,0,1-2-.62,2.44,2.44,0,0,1-.64-1.84v-2.77h-1.22v-1.22h1.22v-1.9h1.62v1.9H171v1.22H169.3v2.74c0,.85.4,1.28,1.19,1.28Zm4.27-5.4A2.31,2.31,0,0,1,177.4,169v3.86h-1.54v-1a1.68,1.68,0,0,1-.7.79,2.1,2.1,0,0,1-1.1.29,2.56,2.56,0,0,1-1.15-.26,2.05,2.05,0,0,1-.82-.72,1.79,1.79,0,0,1-.3-1,1.66,1.66,0,0,1,.35-1.11,2.22,2.22,0,0,1,1.17-.58,9.35,9.35,0,0,1,1.91-.18h.64v-.3a1.34,1.34,0,0,0-.28-.94,1.28,1.28,0,0,0-.93-.28,3.4,3.4,0,0,0-1.06.17,5.54,5.54,0,0,0-1.09.49l-.45-1.12a5.24,5.24,0,0,1,1.28-.56,5,5,0,0,1,1.43-.22Zm-.37,5.45a1.41,1.41,0,0,0,1.06-.44,1.58,1.58,0,0,0,.41-1.12v-.27h-.24a9.43,9.43,0,0,0-1.35.07,1.39,1.39,0,0,0-.69.28.68.68,0,0,0-.21.53.89.89,0,0,0,.29.68A1,1,0,0,0,174.39,171.75Zm14.41-4.53v1.15h-6.34v-1.15Zm0,2.6V171h-6.34v-1.15Zm6.78-4.53v1.79h-1.82V165.9a3.25,3.25,0,0,1,.23-1.23,3.63,3.63,0,0,1,.79-1.11l.67.52a3.37,3.37,0,0,0-.48.62,1.52,1.52,0,0,0-.22.59Zm4.27,1a2.31,2.31,0,0,1,2.64,2.65v3.86H201v-1a1.68,1.68,0,0,1-.7.79,2.1,2.1,0,0,1-1.1.29,2.56,2.56,0,0,1-1.15-.26,2.05,2.05,0,0,1-.82-.72,1.79,1.79,0,0,1-.3-1,1.66,1.66,0,0,1,.35-1.11,2.22,2.22,0,0,1,1.17-.58,9.35,9.35,0,0,1,1.91-.18H201v-.3a1.34,1.34,0,0,0-.28-.94,1.28,1.28,0,0,0-.93-.28,3.4,3.4,0,0,0-1.06.17,5.54,5.54,0,0,0-1.09.49l-.45-1.12a5.24,5.24,0,0,1,1.28-.56,5,5,0,0,1,1.43-.22Zm-.37,5.45a1.41,1.41,0,0,0,1.06-.44,1.58,1.58,0,0,0,.41-1.12v-.27h-.24a9.43,9.43,0,0,0-1.35.07,1.39,1.39,0,0,0-.69.28.68.68,0,0,0-.21.53.89.89,0,0,0,.29.68A1,1,0,0,0,199.48,171.75Zm6.34-8.1v1.18a3.22,3.22,0,0,1-.23,1.24,3.37,3.37,0,0,1-.8,1.1l-.66-.52a3.37,3.37,0,0,0,.48-.62,1.7,1.7,0,0,0,.22-.59H204v-1.79Z"/><path d="M446.82,163.94h3.38a4.78,4.78,0,0,1,3.49,1.21,5.21,5.21,0,0,1,0,6.75,4.78,4.78,0,0,1-3.49,1.21h-3.38Zm3.27,7.8q3.17,0,3.16-3.22t-3.16-3.21H448.5v6.43Zm9.12-5.14a2.7,2.7,0,0,1,2,.65,2.73,2.73,0,0,1,.65,2v3.86H460.3v-1a1.7,1.7,0,0,1-.7.8,2.06,2.06,0,0,1-1.09.28,2.47,2.47,0,0,1-1.16-.26,2,2,0,0,1-.82-.71,1.82,1.82,0,0,1-.3-1,1.6,1.6,0,0,1,.36-1.1,2.19,2.19,0,0,1,1.16-.59,11.17,11.17,0,0,1,1.92-.18h.63v-.3a1,1,0,0,0-1.21-1.22A3.42,3.42,0,0,0,458,168a5.17,5.17,0,0,0-1.08.48l-.46-1.11a4.78,4.78,0,0,1,1.29-.56,5,5,0,0,1,1.43-.22Zm-.38,5.44a1.39,1.39,0,0,0,1.06-.43,1.6,1.6,0,0,0,.41-1.13v-.27h-.23a9.31,9.31,0,0,0-1.36.08,1.31,1.31,0,0,0-.69.27.72.72,0,0,0-.2.53.9.9,0,0,0,.28.69A1.07,1.07,0,0,0,458.83,172Zm7.92,0a4.22,4.22,0,0,0,.6,0l-.08,1.21a6.24,6.24,0,0,1-.72,0,2.74,2.74,0,0,1-2-.62,2.42,2.42,0,0,1-.64-1.84V168h-1.22v-1.22h1.22v-1.9h1.62v1.9h1.68V168h-1.68v2.75C465.56,171.57,466,172,466.75,172ZM471,166.6a2.31,2.31,0,0,1,2.64,2.65v3.86h-1.54v-1a1.7,1.7,0,0,1-.7.8,2.09,2.09,0,0,1-1.1.28,2.43,2.43,0,0,1-1.15-.26,2,2,0,0,1-.82-.71,1.82,1.82,0,0,1-.3-1,1.6,1.6,0,0,1,.36-1.1,2.15,2.15,0,0,1,1.16-.59,11,11,0,0,1,1.91-.18h.64v-.3a1.32,1.32,0,0,0-.28-.93,1.28,1.28,0,0,0-.93-.29,3.42,3.42,0,0,0-1.06.18,5.49,5.49,0,0,0-1.09.48l-.45-1.11a4.58,4.58,0,0,1,1.28-.56,5,5,0,0,1,1.43-.22Zm-.37,5.44a1.4,1.4,0,0,0,1.06-.43,1.6,1.6,0,0,0,.41-1.13v-.27h-.24a9.16,9.16,0,0,0-1.35.08,1.31,1.31,0,0,0-.69.27.69.69,0,0,0-.21.53.91.91,0,0,0,.29.69A1.05,1.05,0,0,0,470.65,172Zm14.41-4.52v1.14h-6.34v-1.14Zm0,2.6v1.14h-6.34v-1.14Zm6.78-4.54v1.8H490v-1.19a3.25,3.25,0,0,1,.23-1.23,3.89,3.89,0,0,1,.79-1.11l.67.52a3.76,3.76,0,0,0-.48.63,1.48,1.48,0,0,0-.22.58Zm5.2,1a2.7,2.7,0,0,1,1.47.4,2.76,2.76,0,0,1,1,1.14,3.93,3.93,0,0,1,.36,1.73,4.05,4.05,0,0,1-.36,1.75,2.77,2.77,0,0,1-1,1.18,2.7,2.7,0,0,1-1.46.41,2.49,2.49,0,0,1-1.23-.3,2,2,0,0,1-.83-.83v1h-1.6v-9.17H495v3.73a1.9,1.9,0,0,1,.82-.79A2.51,2.51,0,0,1,497,166.6Zm-.43,5.35a1.42,1.42,0,0,0,1.19-.54,2.43,2.43,0,0,0,.43-1.54,2.3,2.3,0,0,0-.42-1.49,1.64,1.64,0,0,0-2.4,0,2.9,2.9,0,0,0,0,3A1.45,1.45,0,0,0,496.61,172Zm6.26-8v1.19a3.08,3.08,0,0,1-.23,1.24,3.6,3.6,0,0,1-.79,1.1l-.67-.52a4.55,4.55,0,0,0,.49-.63,1.87,1.87,0,0,0,.22-.58h-.84v-1.8Z"/><path d="M416.3,217.94h4a3.29,3.29,0,0,1,2.28.74,2.6,2.6,0,0,1,.82,2.06,2.65,2.65,0,0,1-.82,2.07,3.29,3.29,0,0,1-2.28.74H418v3.56H416.3Zm3.8,4.32c1.15,0,1.73-.5,1.73-1.51a1.46,1.46,0,0,0-.43-1.14,2,2,0,0,0-1.3-.37H418v3Zm8.82-.31L428,222c-1.08.11-1.62.66-1.62,1.64v3.43h-1.62v-6.36h1.55v1.12a2.15,2.15,0,0,1,2-1.25l.49,0Zm6.37,2.27H431a2,2,0,0,0,.53,1.32,1.83,1.83,0,0,0,1.3.42,3.05,3.05,0,0,0,1.92-.67l.47,1.12a3.41,3.41,0,0,1-1.11.58,4.24,4.24,0,0,1-1.35.22,3.35,3.35,0,0,1-2.46-.88,3.24,3.24,0,0,1-.9-2.42,3.71,3.71,0,0,1,.39-1.73,2.86,2.86,0,0,1,1.09-1.17,3.11,3.11,0,0,1,1.61-.41,2.63,2.63,0,0,1,2.07.84,3.34,3.34,0,0,1,.76,2.33Zm-2.79-2.48a1.39,1.39,0,0,0-1.05.42,2,2,0,0,0-.48,1.19h2.93a1.76,1.76,0,0,0-.39-1.2A1.29,1.29,0,0,0,432.5,221.74Zm8.58-1h1.6l-2.78,6.35h-1.42l-2.76-6.35h1.72l1.79,4.49Zm9.59-.16a2.12,2.12,0,0,1,1.71.65,2.94,2.94,0,0,1,.56,2v3.9h-1.63V223.3a1.68,1.68,0,0,0-.28-1.08,1.1,1.1,0,0,0-.88-.34,1.5,1.5,0,0,0-1.12.44,1.66,1.66,0,0,0-.42,1.19v3.6H447v-6.36h1.59v.95a2.15,2.15,0,0,1,.87-.82A2.59,2.59,0,0,1,450.67,220.6Zm6.82,6.61a3.48,3.48,0,0,1-1.71-.4,2.77,2.77,0,0,1-1.14-1.16,4,4,0,0,1,0-3.5,2.81,2.81,0,0,1,1.14-1.15,3.48,3.48,0,0,1,1.71-.4,3.42,3.42,0,0,1,1.7.4,2.81,2.81,0,0,1,1.14,1.15,4.12,4.12,0,0,1,0,3.5,2.77,2.77,0,0,1-1.14,1.16A3.42,3.42,0,0,1,457.49,227.21Zm0-1.26a1.45,1.45,0,0,0,1.21-.52,3,3,0,0,0,0-3.06,1.43,1.43,0,0,0-1.19-.53,1.47,1.47,0,0,0-1.21.53,3,3,0,0,0,0,3.06A1.41,1.41,0,0,0,457.47,226Zm10.73-8v9.17h-1.61v-1a2.07,2.07,0,0,1-.83.83,2.49,2.49,0,0,1-1.23.3,2.7,2.7,0,0,1-1.46-.41,2.77,2.77,0,0,1-1-1.18,4.05,4.05,0,0,1-.36-1.75,3.93,3.93,0,0,1,.36-1.73,2.76,2.76,0,0,1,1-1.14,2.7,2.7,0,0,1,1.47-.4,2.53,2.53,0,0,1,1.22.28,1.94,1.94,0,0,1,.82.81v-3.75ZM465,226a1.45,1.45,0,0,0,1.2-.53,2.9,2.9,0,0,0,0-3,1.44,1.44,0,0,0-1.19-.52,1.48,1.48,0,0,0-1.21.52,2.3,2.3,0,0,0-.42,1.49,2.49,2.49,0,0,0,.42,1.54A1.46,1.46,0,0,0,465,226Zm10.49-1.73h-4.33a2,2,0,0,0,.54,1.32,1.83,1.83,0,0,0,1.3.42,3.05,3.05,0,0,0,1.92-.67l.47,1.12a3.63,3.63,0,0,1-1.11.58,4.24,4.24,0,0,1-1.35.22,3.35,3.35,0,0,1-2.46-.88,3.21,3.21,0,0,1-.91-2.42,3.71,3.71,0,0,1,.39-1.73A2.89,2.89,0,0,1,471,221a3.09,3.09,0,0,1,1.61-.41,2.66,2.66,0,0,1,2.07.84,3.34,3.34,0,0,1,.76,2.33Zm-2.79-2.48a1.36,1.36,0,0,0-1.05.42,2,2,0,0,0-.49,1.19h2.94a1.87,1.87,0,0,0-.39-1.2A1.29,1.29,0,0,0,472.66,221.74Zm13.87-.22v1.14h-6.35v-1.14Zm0,2.6v1.14h-6.35v-1.14Zm8.79-3.52a2.1,2.1,0,0,1,1.7.65,2.94,2.94,0,0,1,.56,2v3.9H496V223.3a1.68,1.68,0,0,0-.28-1.08,1.08,1.08,0,0,0-.87-.34,1.51,1.51,0,0,0-1.13.44,1.66,1.66,0,0,0-.42,1.19v3.6h-1.63v-6.36h1.59v.95a2.28,2.28,0,0,1,.87-.82A2.63,2.63,0,0,1,495.32,220.6Zm6.81,6.61a3.48,3.48,0,0,1-1.71-.4,2.77,2.77,0,0,1-1.14-1.16,4,4,0,0,1,0-3.5,2.81,2.81,0,0,1,1.14-1.15,3.86,3.86,0,0,1,3.42,0,2.78,2.78,0,0,1,1.13,1.15,4.12,4.12,0,0,1,0,3.5,2.75,2.75,0,0,1-1.13,1.16A3.48,3.48,0,0,1,502.13,227.21Zm0-1.26a1.44,1.44,0,0,0,1.21-.52,3,3,0,0,0,0-3.06,1.42,1.42,0,0,0-1.19-.53,1.48,1.48,0,0,0-1.21.53,3,3,0,0,0,0,3.06A1.42,1.42,0,0,0,502.11,226Zm10.73-8v9.17h-1.61v-1a2,2,0,0,1-.83.83,2.49,2.49,0,0,1-1.23.3,2.7,2.7,0,0,1-1.46-.41,2.77,2.77,0,0,1-1-1.18,4.05,4.05,0,0,1-.36-1.75,3.93,3.93,0,0,1,.36-1.73,2.76,2.76,0,0,1,1-1.14,2.7,2.7,0,0,1,1.47-.4,2.59,2.59,0,0,1,1.23.28,2,2,0,0,1,.81.81v-3.75Zm-3.24,8a1.45,1.45,0,0,0,1.2-.53,2.9,2.9,0,0,0,0-3,1.42,1.42,0,0,0-1.18-.52,1.46,1.46,0,0,0-1.21.52,2.24,2.24,0,0,0-.43,1.49,2.43,2.43,0,0,0,.43,1.54A1.42,1.42,0,0,0,509.6,226Zm10.49-1.73h-4.33a2,2,0,0,0,.54,1.32,1.83,1.83,0,0,0,1.3.42,3.05,3.05,0,0,0,1.92-.67l.47,1.12a3.63,3.63,0,0,1-1.11.58,4.24,4.24,0,0,1-1.35.22,3.35,3.35,0,0,1-2.46-.88,3.24,3.24,0,0,1-.9-2.42,3.71,3.71,0,0,1,.39-1.73,2.86,2.86,0,0,1,1.09-1.17,3.11,3.11,0,0,1,1.61-.41,2.65,2.65,0,0,1,2.07.84,3.34,3.34,0,0,1,.76,2.33Zm-2.79-2.48a1.38,1.38,0,0,0-1,.42,2,2,0,0,0-.49,1.19h2.94a1.87,1.87,0,0,0-.39-1.2A1.29,1.29,0,0,0,517.3,221.74Zm3.43,6.34v-1h6.19v1Z"/><path d="M530.65,220.6a2.7,2.7,0,0,1,2,.65,2.73,2.73,0,0,1,.65,2v3.86h-1.55v-1a1.74,1.74,0,0,1-.69.8,2.12,2.12,0,0,1-1.1.28,2.47,2.47,0,0,1-1.16-.26,2,2,0,0,1-.82-.71,1.82,1.82,0,0,1-.3-1,1.6,1.6,0,0,1,.36-1.1,2.22,2.22,0,0,1,1.16-.59,11.17,11.17,0,0,1,1.92-.18h.63v-.3a1.28,1.28,0,0,0-.28-.93,1.25,1.25,0,0,0-.93-.29,3.42,3.42,0,0,0-1.06.18,5.17,5.17,0,0,0-1.08.48l-.46-1.11a4.78,4.78,0,0,1,1.29-.56A5,5,0,0,1,530.65,220.6Zm1.09,3.61h-.47a7.48,7.48,0,0,0-1.11.08,1.24,1.24,0,0,0-.69.27.69.69,0,0,0-.21.53.9.9,0,0,0,.28.69,1.07,1.07,0,0,0,.73.26,1.37,1.37,0,0,0,1.06-.43,1.6,1.6,0,0,0,.41-1.13Z"/><path d="M421.79,274.94h1.57v9.17H422.1l-4.91-6.4v6.4h-1.56v-9.17h1.24l4.92,6.39Zm9,6.28h-4.33a2,2,0,0,0,.53,1.32,1.86,1.86,0,0,0,1.3.42,3.06,3.06,0,0,0,1.93-.67l.47,1.12a3.63,3.63,0,0,1-1.11.58,4.24,4.24,0,0,1-1.35.22,3.35,3.35,0,0,1-2.46-.88,3.21,3.21,0,0,1-.91-2.42,3.71,3.71,0,0,1,.39-1.73,2.89,2.89,0,0,1,1.1-1.17,3.09,3.09,0,0,1,1.61-.41,2.66,2.66,0,0,1,2.07.84,3.34,3.34,0,0,1,.76,2.33ZM428,278.74a1.36,1.36,0,0,0-1.05.42,2,2,0,0,0-.49,1.19h2.94a1.87,1.87,0,0,0-.39-1.2A1.29,1.29,0,0,0,428,278.74Zm7.67,2.09,2.67,3.28H436.4L434.71,282,433,284.11h-1.92l2.66-3.28-2.52-3.08h1.94l1.52,1.94,1.52-1.94h1.94Zm6.61,2.16a4.22,4.22,0,0,0,.6,0l-.08,1.21a6.2,6.2,0,0,1-.71,0,2.78,2.78,0,0,1-2-.62,2.46,2.46,0,0,1-.64-1.84V279h-1.22v-1.22h1.22v-1.9h1.63v1.9h1.68V279h-1.68v2.75c0,.85.39,1.27,1.18,1.27ZM451,277.6a2.11,2.11,0,0,1,1.71.65,2.94,2.94,0,0,1,.56,2v3.9h-1.63V280.3a1.68,1.68,0,0,0-.28-1.08,1.09,1.09,0,0,0-.88-.34,1.5,1.5,0,0,0-1.12.44,1.66,1.66,0,0,0-.42,1.19v3.6h-1.63v-6.36h1.59v.95a2.28,2.28,0,0,1,.87-.82A2.62,2.62,0,0,1,451,277.6Zm6.82,6.61a3.48,3.48,0,0,1-1.71-.4,2.77,2.77,0,0,1-1.14-1.16,4,4,0,0,1,0-3.5,2.81,2.81,0,0,1,1.14-1.15,3.86,3.86,0,0,1,3.42,0,2.78,2.78,0,0,1,1.13,1.15,4.12,4.12,0,0,1,0,3.5,2.75,2.75,0,0,1-1.13,1.16A3.48,3.48,0,0,1,457.84,284.21Zm0-1.26a1.44,1.44,0,0,0,1.21-.52,3,3,0,0,0,0-3.06,1.42,1.42,0,0,0-1.19-.53,1.48,1.48,0,0,0-1.21.53,3,3,0,0,0,0,3.06A1.42,1.42,0,0,0,457.82,283Zm10.73-8v9.17h-1.61v-1a2,2,0,0,1-.83.83,2.49,2.49,0,0,1-1.23.3,2.7,2.7,0,0,1-1.46-.41,2.77,2.77,0,0,1-1-1.18,4.05,4.05,0,0,1-.36-1.75,3.93,3.93,0,0,1,.36-1.73,2.76,2.76,0,0,1,1-1.14,2.7,2.7,0,0,1,1.47-.4,2.53,2.53,0,0,1,1.22.28,1.94,1.94,0,0,1,.82.81v-3.75Zm-3.24,8a1.45,1.45,0,0,0,1.2-.53,2.9,2.9,0,0,0,0-3,1.42,1.42,0,0,0-1.19-.52,1.44,1.44,0,0,0-1.2.52,2.24,2.24,0,0,0-.43,1.49,2.43,2.43,0,0,0,.43,1.54A1.42,1.42,0,0,0,465.31,283Zm10.49-1.73h-4.33a2,2,0,0,0,.54,1.32,1.83,1.83,0,0,0,1.3.42,3.05,3.05,0,0,0,1.92-.67l.47,1.12a3.63,3.63,0,0,1-1.11.58,4.24,4.24,0,0,1-1.35.22,3.35,3.35,0,0,1-2.46-.88,3.25,3.25,0,0,1-.91-2.42,3.71,3.71,0,0,1,.39-1.73,2.89,2.89,0,0,1,1.1-1.17,3.11,3.11,0,0,1,1.61-.41,2.65,2.65,0,0,1,2.07.84,3.34,3.34,0,0,1,.76,2.33ZM473,278.74a1.38,1.38,0,0,0-1.05.42,2,2,0,0,0-.49,1.19h2.94a1.87,1.87,0,0,0-.39-1.2A1.29,1.29,0,0,0,473,278.74Zm13.87-.22v1.14h-6.35v-1.14Zm0,2.6v1.14h-6.35v-1.14Zm8.79-3.52a2.1,2.1,0,0,1,1.7.65,2.94,2.94,0,0,1,.56,2v3.9H496.3V280.3a1.68,1.68,0,0,0-.28-1.08,1.06,1.06,0,0,0-.87-.34,1.51,1.51,0,0,0-1.13.44,1.66,1.66,0,0,0-.42,1.19v3.6H492v-6.36h1.59v.95a2.28,2.28,0,0,1,.87-.82A2.66,2.66,0,0,1,495.67,277.6Zm6.81,6.61a3.48,3.48,0,0,1-1.71-.4,2.77,2.77,0,0,1-1.14-1.16,4,4,0,0,1,0-3.5,2.81,2.81,0,0,1,1.14-1.15,3.86,3.86,0,0,1,3.42,0,2.78,2.78,0,0,1,1.13,1.15,4,4,0,0,1,0,3.5,2.75,2.75,0,0,1-1.13,1.16A3.48,3.48,0,0,1,502.48,284.21Zm0-1.26a1.43,1.43,0,0,0,1.2-.52,3,3,0,0,0,0-3.06,1.42,1.42,0,0,0-1.19-.53,1.45,1.45,0,0,0-1.2.53,2.34,2.34,0,0,0-.43,1.53,2.39,2.39,0,0,0,.42,1.53A1.44,1.44,0,0,0,502.47,283Zm10.72-8v9.17h-1.61v-1a2,2,0,0,1-.83.83,2.49,2.49,0,0,1-1.23.3,2.7,2.7,0,0,1-1.46-.41,2.77,2.77,0,0,1-1-1.18,4.05,4.05,0,0,1-.36-1.75,3.93,3.93,0,0,1,.36-1.73,2.72,2.72,0,0,1,1-1.14,2.65,2.65,0,0,1,1.46-.4,2.59,2.59,0,0,1,1.23.28,2,2,0,0,1,.82.81v-3.75ZM510,283a1.48,1.48,0,0,0,1.21-.53,3,3,0,0,0,0-3,1.64,1.64,0,0,0-2.4,0,2.24,2.24,0,0,0-.43,1.49,2.43,2.43,0,0,0,.43,1.54A1.42,1.42,0,0,0,510,283Zm10.49-1.73h-4.32a2,2,0,0,0,.53,1.32,1.85,1.85,0,0,0,1.3.42,3.05,3.05,0,0,0,1.92-.67l.47,1.12a3.41,3.41,0,0,1-1.11.58,4.24,4.24,0,0,1-1.35.22,3.35,3.35,0,0,1-2.46-.88,3.24,3.24,0,0,1-.9-2.42,3.71,3.71,0,0,1,.39-1.73A2.82,2.82,0,0,1,516,278a3.05,3.05,0,0,1,1.6-.41,2.63,2.63,0,0,1,2.07.84,3.34,3.34,0,0,1,.76,2.33Zm-2.79-2.48a1.39,1.39,0,0,0-1,.42,2,2,0,0,0-.48,1.19h2.93a1.76,1.76,0,0,0-.39-1.2A1.29,1.29,0,0,0,517.65,278.74Zm3.43,6.34v-1h6.19v1Zm10.09-.87a3.55,3.55,0,0,1-1.74-.4,2.73,2.73,0,0,1-1.12-1.14,4,4,0,0,1,0-3.48,2.87,2.87,0,0,1,1.16-1.18,3.55,3.55,0,0,1,1.74-.41,4.15,4.15,0,0,1,1.32.21,2.8,2.8,0,0,1,1,.58l-.47,1.14a3.18,3.18,0,0,0-.85-.49,2.6,2.6,0,0,0-.89-.17,1.69,1.69,0,0,0-1.32.53,2.69,2.69,0,0,0,0,3,1.69,1.69,0,0,0,1.32.53,2.6,2.6,0,0,0,.89-.17,3.18,3.18,0,0,0,.85-.49l.47,1.13a2.89,2.89,0,0,1-1.07.59,4.33,4.33,0,0,1-1.35.21Z"/><path d="M554.05,192.11h-159v-47h159Zm-2-45h-155v43h155Z"/><path d="M575.05,323.11h-202v-196h202Zm-2-194h-198v192h198Z"/><path d="M554.05,247.11h-159v-47h159Zm-2-45h-155v43h155Z"/><path d="M554.05,304.11h-159v-47h159Zm-157-45v43h155v-43Z"/><path d="M738.9,163.65h3.38a4.82,4.82,0,0,1,3.49,1.2,5.23,5.23,0,0,1,0,6.76,4.82,4.82,0,0,1-3.49,1.2H738.9Zm3.27,7.8c2.11,0,3.16-1.08,3.16-3.22s-1.05-3.22-3.16-3.22h-1.6v6.44Zm9.12-5.15a2.31,2.31,0,0,1,2.63,2.65v3.86h-1.54v-1a1.68,1.68,0,0,1-.7.79,2.07,2.07,0,0,1-1.1.29,2.56,2.56,0,0,1-1.15-.26,2.05,2.05,0,0,1-.82-.72,1.79,1.79,0,0,1-.3-1,1.61,1.61,0,0,1,.36-1.11,2.14,2.14,0,0,1,1.16-.58,9.43,9.43,0,0,1,1.91-.18h.64v-.3a1.34,1.34,0,0,0-.28-.94,1.28,1.28,0,0,0-.93-.28,3.4,3.4,0,0,0-1.06.17,5.54,5.54,0,0,0-1.09.49l-.45-1.12a5.16,5.16,0,0,1,1.29-.56A4.93,4.93,0,0,1,751.29,166.3Zm-.38,5.45a1.41,1.41,0,0,0,1.06-.44,1.58,1.58,0,0,0,.41-1.12v-.27h-.24a9.43,9.43,0,0,0-1.35.07,1.39,1.39,0,0,0-.69.28.68.68,0,0,0-.21.53.89.89,0,0,0,.29.68A1,1,0,0,0,750.91,171.75Zm7.92-.05c.19,0,.39,0,.59,0l-.07,1.21c-.26,0-.5,0-.72,0a2.78,2.78,0,0,1-2-.62,2.47,2.47,0,0,1-.63-1.84v-2.77H754.8v-1.22H756v-1.9h1.62v1.9h1.68v1.22h-1.68v2.74c0,.85.4,1.28,1.19,1.28Zm4.27-5.4a2.31,2.31,0,0,1,2.64,2.65v3.86h-1.55v-1a1.61,1.61,0,0,1-.69.79,2.1,2.1,0,0,1-1.1.29,2.63,2.63,0,0,1-1.16-.26,2.12,2.12,0,0,1-.82-.72,1.86,1.86,0,0,1-.29-1,1.61,1.61,0,0,1,.35-1.11,2.22,2.22,0,0,1,1.17-.58,9.28,9.28,0,0,1,1.91-.18h.63v-.3a1.29,1.29,0,0,0-.28-.94,1.24,1.24,0,0,0-.92-.28,3.35,3.35,0,0,0-1.06.17,5.54,5.54,0,0,0-1.09.49l-.45-1.12a5.24,5.24,0,0,1,1.28-.56A5,5,0,0,1,763.1,166.3Zm-.37,5.45a1.37,1.37,0,0,0,1-.44,1.53,1.53,0,0,0,.41-1.12v-.27H764a9.43,9.43,0,0,0-1.35.07,1.39,1.39,0,0,0-.69.28.68.68,0,0,0-.21.53.89.89,0,0,0,.29.68A1,1,0,0,0,762.73,171.75Zm14.41-4.53v1.15H770.8v-1.15Zm0,2.6V171H770.8v-1.15Zm6.78-4.53v1.79H782.1V165.9a3.06,3.06,0,0,1,.23-1.23,3.63,3.63,0,0,1,.79-1.11l.67.52a4,4,0,0,0-.49.62,1.93,1.93,0,0,0-.22.59Zm4.44,7.63a3.62,3.62,0,0,1-1.73-.4,2.72,2.72,0,0,1-1.13-1.15,4,4,0,0,1,0-3.48,2.84,2.84,0,0,1,1.16-1.17,3.57,3.57,0,0,1,1.75-.42,4,4,0,0,1,1.32.22,2.82,2.82,0,0,1,1,.57l-.47,1.15a3.21,3.21,0,0,0-.85-.5,2.58,2.58,0,0,0-.89-.16,1.66,1.66,0,0,0-1.31.52,2.18,2.18,0,0,0-.47,1.52,2.14,2.14,0,0,0,.47,1.5,1.66,1.66,0,0,0,1.31.52,2.58,2.58,0,0,0,.89-.16,3.21,3.21,0,0,0,.85-.5l.47,1.13a2.89,2.89,0,0,1-1.07.59,4.07,4.07,0,0,1-1.35.22Zm5.12-9.27v1.18a3,3,0,0,1-.23,1.24,3.49,3.49,0,0,1-.79,1.1l-.67-.52a3.37,3.37,0,0,0,.48-.62,1.72,1.72,0,0,0,.23-.59h-.84v-1.79Z"/><path d="M134.43,218.65h4a3.32,3.32,0,0,1,2.29.73,3,3,0,0,1,0,4.13,3.32,3.32,0,0,1-2.29.74h-2.33v3.56h-1.68Zm3.8,4.32c1.15,0,1.73-.51,1.73-1.51a1.42,1.42,0,0,0-.43-1.14,1.94,1.94,0,0,0-1.3-.37h-2.12v3Zm8.83-.32-.95.09c-1.08.12-1.61.66-1.61,1.64v3.43h-1.63v-6.35h1.55v1.12a2.15,2.15,0,0,1,2-1.25l.49,0Zm6.37,2.28H149.1a2,2,0,0,0,.53,1.31,1.81,1.81,0,0,0,1.3.43,3.11,3.11,0,0,0,1.93-.68l.46,1.12a3.43,3.43,0,0,1-1.11.59,4.42,4.42,0,0,1-1.34.22,3.4,3.4,0,0,1-2.47-.89,3.22,3.22,0,0,1-.9-2.41,3.71,3.71,0,0,1,.39-1.73,2.77,2.77,0,0,1,1.1-1.17,3.08,3.08,0,0,1,1.6-.42,2.64,2.64,0,0,1,2.08.85,3.36,3.36,0,0,1,.76,2.32Zm-2.8-2.48a1.35,1.35,0,0,0-1,.41,2,2,0,0,0-.49,1.2H152a1.92,1.92,0,0,0-.39-1.21,1.3,1.3,0,0,0-1-.4Zm8.58-1h1.6L158,227.81h-1.42l-2.75-6.34h1.71l1.8,4.48Zm9.6-.17a2.13,2.13,0,0,1,1.7.65,3,3,0,0,1,.56,2v3.9h-1.63V224a1.65,1.65,0,0,0-.28-1.08,1,1,0,0,0-.87-.34,1.51,1.51,0,0,0-1.13.44,1.64,1.64,0,0,0-.42,1.18v3.6h-1.63v-6.35h1.59v.95a2.21,2.21,0,0,1,.87-.82,2.67,2.67,0,0,1,1.24-.29Zm6.81,6.62a3.49,3.49,0,0,1-1.71-.41,2.75,2.75,0,0,1-1.14-1.15,4.05,4.05,0,0,1,0-3.51,2.87,2.87,0,0,1,1.14-1.15,3.86,3.86,0,0,1,3.42,0,2.84,2.84,0,0,1,1.13,1.15,4.05,4.05,0,0,1,0,3.51,2.73,2.73,0,0,1-1.13,1.15A3.49,3.49,0,0,1,175.62,227.92Zm0-1.26a1.46,1.46,0,0,0,1.2-.52,3,3,0,0,0,0-3.06,1.39,1.39,0,0,0-1.19-.53,1.42,1.42,0,0,0-1.2.53,2.33,2.33,0,0,0-.43,1.52,2.42,2.42,0,0,0,.42,1.54A1.47,1.47,0,0,0,175.61,226.66Zm10.72-8v9.16h-1.61v-1a2.07,2.07,0,0,1-.83.83,2.49,2.49,0,0,1-1.23.3,2.62,2.62,0,0,1-1.46-.42,2.8,2.8,0,0,1-1-1.17,4.05,4.05,0,0,1-.36-1.75,3.9,3.9,0,0,1,.36-1.73,2.68,2.68,0,0,1,1-1.15,2.73,2.73,0,0,1,1.46-.4,2.6,2.6,0,0,1,1.23.29,2.1,2.1,0,0,1,.82.8v-3.74Zm-3.24,8a1.46,1.46,0,0,0,1.21-.54,2.39,2.39,0,0,0,.42-1.52,2.36,2.36,0,0,0-.42-1.51,1.46,1.46,0,0,0-1.19-.53,1.49,1.49,0,0,0-1.21.52,2.29,2.29,0,0,0-.43,1.5,2.38,2.38,0,0,0,.43,1.53A1.4,1.4,0,0,0,183.09,226.66Zm10.49-1.73h-4.32a1.91,1.91,0,0,0,.53,1.31,1.79,1.79,0,0,0,1.3.43A3.07,3.07,0,0,0,193,226l.47,1.12a3.43,3.43,0,0,1-1.11.59,4.54,4.54,0,0,1-1.35.22,3.36,3.36,0,0,1-2.46-.89,3.22,3.22,0,0,1-.9-2.41,3.71,3.71,0,0,1,.39-1.73,2.75,2.75,0,0,1,1.09-1.17,3.12,3.12,0,0,1,1.61-.42,2.61,2.61,0,0,1,2.07.85,3.31,3.31,0,0,1,.76,2.32Zm-2.79-2.48a1.39,1.39,0,0,0-1,.41,2.06,2.06,0,0,0-.48,1.2h2.93a1.81,1.81,0,0,0-.39-1.21,1.28,1.28,0,0,0-1-.4Zm13.87-.23v1.15h-6.34v-1.15Zm0,2.6V226h-6.34v-1.15Zm8.79-3.52a2.13,2.13,0,0,1,1.7.65,3,3,0,0,1,.56,2v3.9h-1.62V224a1.71,1.71,0,0,0-.28-1.08,1.07,1.07,0,0,0-.88-.34,1.52,1.52,0,0,0-1.13.44,1.64,1.64,0,0,0-.42,1.18v3.6h-1.62v-6.35h1.58v.95a2.21,2.21,0,0,1,.87-.82,2.67,2.67,0,0,1,1.24-.29Zm9.75.16v6.35h-1.59v-1a2.12,2.12,0,0,1-.8.8,2.42,2.42,0,0,1-1.15.28c-1.56,0-2.34-.88-2.34-2.63v-3.83H219v3.85a1.55,1.55,0,0,0,.27,1,1.08,1.08,0,0,0,.86.32,1.38,1.38,0,0,0,1.08-.45,1.66,1.66,0,0,0,.41-1.19v-3.53Zm1.69,6.35v-9.16h1.62v9.16Zm3.3,0v-9.16h1.63v9.16Z"/><path d="M707.25,218.65h4a3.32,3.32,0,0,1,2.29.73,3,3,0,0,1,0,4.13,3.32,3.32,0,0,1-2.29.74h-2.33v3.56h-1.67ZM711,223c1.16,0,1.73-.51,1.73-1.51a1.42,1.42,0,0,0-.43-1.14A1.92,1.92,0,0,0,711,220h-2.12v3Zm8.83-.32-1,.09c-1.07.12-1.61.66-1.61,1.64v3.43h-1.63v-6.35h1.55v1.12a2.15,2.15,0,0,1,2-1.25l.5,0Zm6.37,2.28h-4.33a2,2,0,0,0,.53,1.31,1.82,1.82,0,0,0,1.3.43,3.07,3.07,0,0,0,1.93-.68l.47,1.12a3.65,3.65,0,0,1-1.11.59,4.54,4.54,0,0,1-1.35.22,3.36,3.36,0,0,1-2.46-.89,3.19,3.19,0,0,1-.91-2.41,3.71,3.71,0,0,1,.39-1.73,2.77,2.77,0,0,1,1.1-1.17,3.09,3.09,0,0,1,1.61-.42,2.63,2.63,0,0,1,2.07.85,3.31,3.31,0,0,1,.76,2.32Zm-2.79-2.48a1.36,1.36,0,0,0-1.05.41,2,2,0,0,0-.49,1.2h2.94a1.92,1.92,0,0,0-.39-1.21A1.28,1.28,0,0,0,723.45,222.45Zm8.58-1h1.59l-2.78,6.34h-1.41l-2.76-6.34h1.72l1.79,4.48Zm9.59-.17a2.13,2.13,0,0,1,1.7.65,2.9,2.9,0,0,1,.56,2v3.9h-1.62V224a1.71,1.71,0,0,0-.28-1.08,1.07,1.07,0,0,0-.88-.34A1.48,1.48,0,0,0,740,223a1.6,1.6,0,0,0-.43,1.18v3.6h-1.62v-6.35h1.58v.95a2.21,2.21,0,0,1,.87-.82A2.67,2.67,0,0,1,741.62,221.3Zm6.81,6.62a3.49,3.49,0,0,1-1.71-.41,2.75,2.75,0,0,1-1.14-1.15,4.05,4.05,0,0,1,0-3.51,2.87,2.87,0,0,1,1.14-1.15,3.86,3.86,0,0,1,3.42,0,2.78,2.78,0,0,1,1.13,1.15,4.05,4.05,0,0,1,0,3.51,2.67,2.67,0,0,1-1.13,1.15A3.49,3.49,0,0,1,748.43,227.92Zm0-1.26a1.48,1.48,0,0,0,1.21-.52,2.42,2.42,0,0,0,.41-1.54,2.39,2.39,0,0,0-.41-1.52,1.62,1.62,0,0,0-2.4,0,2.39,2.39,0,0,0-.42,1.52,2.48,2.48,0,0,0,.41,1.54A1.47,1.47,0,0,0,748.42,226.66Zm10.72-8v9.16h-1.61v-1a2,2,0,0,1-.82.83,2.49,2.49,0,0,1-1.23.3,2.58,2.58,0,0,1-1.46-.42,2.82,2.82,0,0,1-1-1.17,4.2,4.2,0,0,1-.35-1.75,4,4,0,0,1,.35-1.73,2.68,2.68,0,0,1,1-1.15,2.74,2.74,0,0,1,1.47-.4,2.56,2.56,0,0,1,1.22.29,2,2,0,0,1,.82.8v-3.74Zm-3.23,8a1.43,1.43,0,0,0,1.2-.54,2.39,2.39,0,0,0,.42-1.52,2.36,2.36,0,0,0-.42-1.51,1.44,1.44,0,0,0-1.19-.53,1.51,1.51,0,0,0-1.21.52,2.29,2.29,0,0,0-.43,1.5,2.38,2.38,0,0,0,.43,1.53A1.44,1.44,0,0,0,755.91,226.66Zm10.49-1.73h-4.33a2,2,0,0,0,.53,1.31,1.82,1.82,0,0,0,1.3.43,3.09,3.09,0,0,0,1.93-.68l.46,1.12a3.43,3.43,0,0,1-1.11.59,4.42,4.42,0,0,1-1.34.22,3.4,3.4,0,0,1-2.47-.89,3.22,3.22,0,0,1-.9-2.41,3.71,3.71,0,0,1,.39-1.73,2.77,2.77,0,0,1,1.1-1.17,3.08,3.08,0,0,1,1.6-.42,2.64,2.64,0,0,1,2.08.85,3.36,3.36,0,0,1,.76,2.32Zm-2.8-2.48a1.35,1.35,0,0,0-1,.41,2,2,0,0,0-.49,1.2H765a1.92,1.92,0,0,0-.39-1.21A1.3,1.3,0,0,0,763.6,222.45Zm13.87-.23v1.15h-6.34v-1.15Zm0,2.6V226h-6.34v-1.15Zm8.79-3.52a2.13,2.13,0,0,1,1.7.65,2.9,2.9,0,0,1,.56,2v3.9H786.9V224a1.65,1.65,0,0,0-.28-1.08,1.07,1.07,0,0,0-.88-.34,1.48,1.48,0,0,0-1.12.44,1.64,1.64,0,0,0-.43,1.18v3.6h-1.62v-6.35h1.59v.95a2.08,2.08,0,0,1,.87-.82A2.6,2.6,0,0,1,786.26,221.3Zm6.81,6.62a3.49,3.49,0,0,1-1.71-.41,2.73,2.73,0,0,1-1.13-1.15,4,4,0,0,1,0-3.51,2.84,2.84,0,0,1,1.13-1.15,3.86,3.86,0,0,1,3.42,0,2.78,2.78,0,0,1,1.13,1.15,4.05,4.05,0,0,1,0,3.51,2.67,2.67,0,0,1-1.13,1.15A3.49,3.49,0,0,1,793.07,227.92Zm0-1.26a1.48,1.48,0,0,0,1.21-.52,3,3,0,0,0,0-3.06,1.62,1.62,0,0,0-2.4,0,2.39,2.39,0,0,0-.42,1.52,2.48,2.48,0,0,0,.41,1.54A1.47,1.47,0,0,0,793.06,226.66Zm10.73-8v9.16h-1.62v-1a2,2,0,0,1-.82.83,2.49,2.49,0,0,1-1.23.3,2.6,2.6,0,0,1-1.46-.42,2.73,2.73,0,0,1-1-1.17,4.05,4.05,0,0,1-.36-1.75,3.9,3.9,0,0,1,.36-1.73,2.66,2.66,0,0,1,1-1.15,2.79,2.79,0,0,1,1.47-.4,2.53,2.53,0,0,1,1.22.29,2,2,0,0,1,.82.8v-3.74Zm-3.24,8a1.43,1.43,0,0,0,1.2-.54,2.39,2.39,0,0,0,.42-1.52,2.36,2.36,0,0,0-.42-1.51,1.44,1.44,0,0,0-1.19-.53,1.51,1.51,0,0,0-1.21.52,2.35,2.35,0,0,0-.43,1.5,2.44,2.44,0,0,0,.43,1.53A1.44,1.44,0,0,0,800.55,226.66ZM811,224.93h-4.33a2,2,0,0,0,.53,1.31,1.82,1.82,0,0,0,1.3.43,3.07,3.07,0,0,0,1.93-.68l.47,1.12a3.59,3.59,0,0,1-1.12.59,4.42,4.42,0,0,1-1.34.22A3.36,3.36,0,0,1,806,227a3.19,3.19,0,0,1-.91-2.41,3.71,3.71,0,0,1,.39-1.73,2.77,2.77,0,0,1,1.1-1.17,3.09,3.09,0,0,1,1.61-.42,2.63,2.63,0,0,1,2.07.85,3.31,3.31,0,0,1,.76,2.32Zm-2.8-2.48a1.35,1.35,0,0,0-1,.41,2,2,0,0,0-.49,1.2h2.94a1.92,1.92,0,0,0-.39-1.21A1.29,1.29,0,0,0,808.24,222.45Zm3.44,6.34v-1h6.18v1Z"/><path d="M820.49,218.65v3.73a1.92,1.92,0,0,1,.82-.8,2.54,2.54,0,0,1,1.21-.28,2.79,2.79,0,0,1,1.47.4,2.73,2.73,0,0,1,1,1.15,3.9,3.9,0,0,1,.36,1.73,4.05,4.05,0,0,1-.36,1.75,2.8,2.8,0,0,1-1,1.17,2.62,2.62,0,0,1-1.46.42,2.49,2.49,0,0,1-1.23-.3,2.14,2.14,0,0,1-.83-.83v1h-1.59v-9.16Zm1.6,3.91a1.45,1.45,0,0,0-1.2.53,2.36,2.36,0,0,0-.43,1.51,2.39,2.39,0,0,0,.43,1.52,1.43,1.43,0,0,0,1.2.54,1.46,1.46,0,0,0,1.2-.55,2.44,2.44,0,0,0,.42-1.53,2.35,2.35,0,0,0-.42-1.5A1.47,1.47,0,0,0,822.09,222.56Z"/><path d="M128.9,274.65h1.57v9.16h-1.26l-4.92-6.39v6.39h-1.56v-9.16H124L128.9,281Zm9,6.28h-4.33a2,2,0,0,0,.53,1.31,1.82,1.82,0,0,0,1.3.43,3.07,3.07,0,0,0,1.93-.68l.47,1.12a3.59,3.59,0,0,1-1.12.59,4.42,4.42,0,0,1-1.34.22,3.4,3.4,0,0,1-2.47-.89,3.22,3.22,0,0,1-.9-2.41,3.71,3.71,0,0,1,.39-1.73,2.77,2.77,0,0,1,1.1-1.17,3.09,3.09,0,0,1,1.61-.42,2.63,2.63,0,0,1,2.07.85,3.31,3.31,0,0,1,.76,2.32Zm-2.8-2.48a1.35,1.35,0,0,0-1,.41,2,2,0,0,0-.49,1.2h2.94a1.92,1.92,0,0,0-.39-1.21,1.29,1.29,0,0,0-1-.4Zm7.67,2.09,2.68,3.27h-1.92l-1.69-2.11-1.68,2.11h-1.92l2.66-3.27-2.52-3.08h1.94l1.52,1.93,1.52-1.93h1.94Zm6.62,2.16c.19,0,.39,0,.6,0l-.08,1.21c-.26,0-.5,0-.71,0a2.75,2.75,0,0,1-2-.62,2.48,2.48,0,0,1-.64-1.84v-2.77h-1.22v-1.22h1.22v-1.9h1.63v1.9h1.68v1.22h-1.68v2.74C148.19,282.27,148.58,282.7,149.37,282.7Zm8.76-5.4a2.15,2.15,0,0,1,1.71.65,3,3,0,0,1,.56,2v3.9h-1.63V280a1.65,1.65,0,0,0-.28-1.08,1.07,1.07,0,0,0-.88-.34,1.5,1.5,0,0,0-1.12.44,1.64,1.64,0,0,0-.42,1.18v3.6h-1.63v-6.35H156v1a2.08,2.08,0,0,1,.87-.82,2.6,2.6,0,0,1,1.23-.29Zm6.82,6.62a3.49,3.49,0,0,1-1.71-.41,2.75,2.75,0,0,1-1.14-1.15,4.05,4.05,0,0,1,0-3.51,2.87,2.87,0,0,1,1.14-1.15,3.6,3.6,0,0,1,1.71-.4,3.53,3.53,0,0,1,1.7.4,2.87,2.87,0,0,1,1.14,1.15,4.14,4.14,0,0,1,0,3.51,2.75,2.75,0,0,1-1.14,1.15A3.42,3.42,0,0,1,165,283.92Zm0-1.26a1.48,1.48,0,0,0,1.21-.52,3,3,0,0,0,0-3.06,1.4,1.4,0,0,0-1.19-.53,1.44,1.44,0,0,0-1.21.53,3,3,0,0,0,0,3.06A1.44,1.44,0,0,0,164.93,282.66Zm10.73-8v9.16h-1.61v-1a2.14,2.14,0,0,1-.83.83,2.49,2.49,0,0,1-1.23.3,2.62,2.62,0,0,1-1.46-.42,2.8,2.8,0,0,1-1-1.17,4.05,4.05,0,0,1-.36-1.75,3.9,3.9,0,0,1,.36-1.73,2.73,2.73,0,0,1,1-1.15,2.79,2.79,0,0,1,1.47-.4,2.53,2.53,0,0,1,1.22.29,2,2,0,0,1,.82.8v-3.74Zm-3.24,8a1.43,1.43,0,0,0,1.2-.54,2.39,2.39,0,0,0,.43-1.52,2.36,2.36,0,0,0-.43-1.51,1.44,1.44,0,0,0-1.19-.53,1.51,1.51,0,0,0-1.21.52,2.35,2.35,0,0,0-.42,1.5,2.44,2.44,0,0,0,.42,1.53A1.44,1.44,0,0,0,172.42,282.66Zm10.49-1.73h-4.33a1.92,1.92,0,0,0,.54,1.31,1.79,1.79,0,0,0,1.3.43,3.07,3.07,0,0,0,1.92-.68l.47,1.12a3.65,3.65,0,0,1-1.11.59,4.54,4.54,0,0,1-1.35.22,3.36,3.36,0,0,1-2.46-.89,3.19,3.19,0,0,1-.91-2.41,3.71,3.71,0,0,1,.39-1.73,2.77,2.77,0,0,1,1.1-1.17,3.09,3.09,0,0,1,1.61-.42,2.63,2.63,0,0,1,2.07.85,3.31,3.31,0,0,1,.76,2.32Zm-2.79-2.48a1.36,1.36,0,0,0-1.05.41,2.07,2.07,0,0,0-.49,1.2h2.94a1.92,1.92,0,0,0-.39-1.21,1.28,1.28,0,0,0-1-.4Zm13.87-.23v1.15h-6.35v-1.15Zm0,2.6V282h-6.35v-1.15Zm8.79-3.52a2.13,2.13,0,0,1,1.7.65,3,3,0,0,1,.56,2v3.9h-1.63V280a1.65,1.65,0,0,0-.28-1.08,1,1,0,0,0-.87-.34,1.51,1.51,0,0,0-1.13.44,1.64,1.64,0,0,0-.42,1.18v3.6h-1.63v-6.35h1.59v1a2.21,2.21,0,0,1,.87-.82,2.64,2.64,0,0,1,1.24-.29Zm6.81,6.62a3.49,3.49,0,0,1-1.71-.41,2.75,2.75,0,0,1-1.14-1.15,4.05,4.05,0,0,1,0-3.51,2.87,2.87,0,0,1,1.14-1.15,3.86,3.86,0,0,1,3.42,0,2.84,2.84,0,0,1,1.13,1.15,4.14,4.14,0,0,1,0,3.51,2.73,2.73,0,0,1-1.13,1.15A3.49,3.49,0,0,1,209.59,283.92Zm0-1.26a1.47,1.47,0,0,0,1.21-.52,3,3,0,0,0,0-3.06,1.39,1.39,0,0,0-1.19-.53,1.46,1.46,0,0,0-1.21.53,3,3,0,0,0,0,3.06A1.45,1.45,0,0,0,209.57,282.66Zm10.73-8v9.16h-1.61v-1a2.07,2.07,0,0,1-.83.83,2.49,2.49,0,0,1-1.23.3,2.62,2.62,0,0,1-1.46-.42,2.8,2.8,0,0,1-1-1.17,4.05,4.05,0,0,1-.36-1.75,3.9,3.9,0,0,1,.36-1.73,2.73,2.73,0,0,1,1-1.15,2.79,2.79,0,0,1,1.47-.4,2.6,2.6,0,0,1,1.23.29,2,2,0,0,1,.81.8v-3.74Zm-3.24,8a1.43,1.43,0,0,0,1.2-.54,2.33,2.33,0,0,0,.43-1.52,2.3,2.3,0,0,0-.43-1.51,1.42,1.42,0,0,0-1.18-.53,1.49,1.49,0,0,0-1.21.52,2.29,2.29,0,0,0-.43,1.5,2.38,2.38,0,0,0,.43,1.53A1.4,1.4,0,0,0,217.06,282.66Zm10.49-1.73h-4.33a2,2,0,0,0,.54,1.31,1.79,1.79,0,0,0,1.3.43A3.07,3.07,0,0,0,227,282l.47,1.12a3.65,3.65,0,0,1-1.11.59,4.54,4.54,0,0,1-1.35.22,3.36,3.36,0,0,1-2.46-.89,3.22,3.22,0,0,1-.9-2.41,3.71,3.71,0,0,1,.39-1.73,2.75,2.75,0,0,1,1.09-1.17,3.12,3.12,0,0,1,1.61-.42,2.62,2.62,0,0,1,2.07.85,3.31,3.31,0,0,1,.76,2.32Zm-2.79-2.48a1.37,1.37,0,0,0-1,.41,2.07,2.07,0,0,0-.49,1.2h2.94a1.92,1.92,0,0,0-.39-1.21,1.28,1.28,0,0,0-1-.4Zm3.43,6.34v-1h6.19v1Z"/><path d="M237,274.65v3.73a2,2,0,0,1,.82-.8,2.54,2.54,0,0,1,1.21-.28,2.74,2.74,0,0,1,1.47.4,2.68,2.68,0,0,1,1,1.15,4,4,0,0,1,.35,1.73,4.2,4.2,0,0,1-.35,1.75,2.82,2.82,0,0,1-1,1.17,2.58,2.58,0,0,1-1.46.42,2.49,2.49,0,0,1-1.23-.3,2,2,0,0,1-.82-.83v1h-1.6v-9.16Zm1.6,3.91a1.45,1.45,0,0,0-1.2.53,2.36,2.36,0,0,0-.42,1.51,2.39,2.39,0,0,0,.42,1.52,1.43,1.43,0,0,0,1.2.54,1.46,1.46,0,0,0,1.2-.55,2.38,2.38,0,0,0,.43-1.53,2.35,2.35,0,0,0-.42-1.5A1.51,1.51,0,0,0,238.6,278.56Z"/><path d="M724.08,274.65h1.58v9.16h-1.27l-4.91-6.39v6.39h-1.56v-9.16h1.25l4.91,6.38Zm9,6.28h-4.33a2,2,0,0,0,.53,1.31,1.81,1.81,0,0,0,1.3.43,3.07,3.07,0,0,0,1.92-.68l.47,1.12a3.43,3.43,0,0,1-1.11.59,4.49,4.49,0,0,1-1.35.22A3.36,3.36,0,0,1,728,283a3.22,3.22,0,0,1-.9-2.41,3.71,3.71,0,0,1,.39-1.73,2.71,2.71,0,0,1,1.1-1.17,3.06,3.06,0,0,1,1.6-.42,2.64,2.64,0,0,1,2.08.85,3.36,3.36,0,0,1,.76,2.32Zm-2.8-2.48a1.39,1.39,0,0,0-1,.41,2.06,2.06,0,0,0-.48,1.2h2.93a1.81,1.81,0,0,0-.39-1.21A1.28,1.28,0,0,0,730.27,278.45Zm7.67,2.09,2.68,3.27h-1.93L737,281.7l-1.67,2.11H733.4l2.67-3.27-2.52-3.08h1.93l1.52,1.93,1.53-1.93h1.93Zm6.62,2.16c.19,0,.39,0,.6,0l-.08,1.21c-.26,0-.5,0-.72,0a2.74,2.74,0,0,1-2-.62,2.44,2.44,0,0,1-.64-1.84v-2.77h-1.22v-1.22h1.22v-1.9h1.62v1.9h1.68v1.22h-1.68v2.74c0,.85.4,1.28,1.19,1.28Zm8.76-5.4a2.13,2.13,0,0,1,1.7.65,2.9,2.9,0,0,1,.56,2v3.9H754V280a1.71,1.71,0,0,0-.28-1.08,1.07,1.07,0,0,0-.88-.34,1.48,1.48,0,0,0-1.12.44,1.6,1.6,0,0,0-.43,1.18v3.6h-1.62v-6.35h1.58v1a2.21,2.21,0,0,1,.87-.82A2.67,2.67,0,0,1,753.32,277.3Zm6.81,6.62a3.49,3.49,0,0,1-1.71-.41,2.75,2.75,0,0,1-1.14-1.15,4.05,4.05,0,0,1,0-3.51,2.87,2.87,0,0,1,1.14-1.15,3.86,3.86,0,0,1,3.42,0,2.78,2.78,0,0,1,1.13,1.15,4.05,4.05,0,0,1,0,3.51,2.67,2.67,0,0,1-1.13,1.15A3.49,3.49,0,0,1,760.13,283.92Zm0-1.26a1.48,1.48,0,0,0,1.21-.52,2.42,2.42,0,0,0,.41-1.54,2.39,2.39,0,0,0-.41-1.52,1.62,1.62,0,0,0-2.4,0,2.39,2.39,0,0,0-.42,1.52,2.48,2.48,0,0,0,.41,1.54A1.47,1.47,0,0,0,760.12,282.66Zm10.72-8v9.16h-1.61v-1a2,2,0,0,1-.82.83,2.49,2.49,0,0,1-1.23.3,2.58,2.58,0,0,1-1.46-.42,2.82,2.82,0,0,1-1-1.17,4.2,4.2,0,0,1-.35-1.75,4,4,0,0,1,.35-1.73,2.68,2.68,0,0,1,1-1.15,2.74,2.74,0,0,1,1.47-.4,2.56,2.56,0,0,1,1.22.29,2,2,0,0,1,.82.8v-3.74Zm-3.23,8a1.43,1.43,0,0,0,1.2-.54,2.39,2.39,0,0,0,.42-1.52,2.36,2.36,0,0,0-.42-1.51,1.44,1.44,0,0,0-1.19-.53,1.51,1.51,0,0,0-1.21.52,2.29,2.29,0,0,0-.43,1.5,2.38,2.38,0,0,0,.43,1.53A1.44,1.44,0,0,0,767.61,282.66Zm10.49-1.73h-4.33a2,2,0,0,0,.53,1.31,1.82,1.82,0,0,0,1.3.43,3.09,3.09,0,0,0,1.93-.68l.46,1.12a3.43,3.43,0,0,1-1.11.59,4.42,4.42,0,0,1-1.34.22,3.4,3.4,0,0,1-2.47-.89,3.22,3.22,0,0,1-.9-2.41,3.71,3.71,0,0,1,.39-1.73,2.77,2.77,0,0,1,1.1-1.17,3.08,3.08,0,0,1,1.6-.42,2.64,2.64,0,0,1,2.08.85,3.36,3.36,0,0,1,.76,2.32Zm-2.8-2.48a1.35,1.35,0,0,0-1,.41,2,2,0,0,0-.49,1.2h2.94a1.92,1.92,0,0,0-.39-1.21A1.3,1.3,0,0,0,775.3,278.45Zm13.87-.23v1.15h-6.34v-1.15Zm0,2.6V282h-6.34v-1.15ZM798,277.3a2.13,2.13,0,0,1,1.7.65,2.9,2.9,0,0,1,.56,2v3.9H798.6V280a1.65,1.65,0,0,0-.28-1.08,1.07,1.07,0,0,0-.88-.34,1.48,1.48,0,0,0-1.12.44,1.64,1.64,0,0,0-.43,1.18v3.6h-1.62v-6.35h1.59v1a2.08,2.08,0,0,1,.87-.82A2.6,2.6,0,0,1,798,277.3Zm9.75.16v6.35h-1.58v-1a2.08,2.08,0,0,1-.81.8,2.4,2.4,0,0,1-1.14.28c-1.56,0-2.34-.88-2.34-2.63v-3.83h1.62v3.85a1.55,1.55,0,0,0,.27,1,1.09,1.09,0,0,0,.86.32,1.42,1.42,0,0,0,1.09-.45,1.7,1.7,0,0,0,.41-1.19v-3.53Zm1.69,6.35v-9.16H811v9.16Zm3.3,0v-9.16h1.63v9.16Z"/><path d="M262.05,191.9h-160V145.17h160Zm-2-44.73h-156V189.9h156Z"/><path d="M846.05,190.9h-160V144.17h160Zm-158-44.73V188.9h156V146.17Z"/><path d="M283.05,323.11h-202V127.28h202Zm-2-193.83h-198V321.11h198Z"/><path d="M867.05,322.11h-202V126.28h202Zm-2-193.83h-198V320.11h198Z"/><path d="M262.05,247.07h-160V200.34h160Zm-158-44.73v42.73h156V202.34Z"/><path d="M846.05,246.07h-160V199.34h160Zm-158-44.73v42.73h156V201.34Z"/><path d="M262.05,303.73h-160V257h160ZM104.05,259v42.73h156V259Z"/><path d="M846.05,302.73h-160V256h160ZM688.05,258v42.73h156V258Z"/><path class="cls-2" d="M296,216.1v6h98.53v2H296v6l-14-7Z"/><path class="cls-2" d="M652.08,274.11l14,7-14,7v-6H553.56v-2h98.52Z"/><path class="cls-2" d="M587.7,216.1v6h98.52v2H587.7v6l-14-7Z"/><path class="cls-2" d="M360.42,274.11l14,7-14,7v-6H261.9v-2h98.52Z"/><path d="M297.56,691.65h3.38a4.82,4.82,0,0,1,3.49,1.2,5.23,5.23,0,0,1,0,6.76,4.82,4.82,0,0,1-3.49,1.2h-3.38Zm3.27,7.8c2.11,0,3.16-1.08,3.16-3.22s-1.05-3.22-3.16-3.22h-1.59v6.44ZM310,694.3a2.31,2.31,0,0,1,2.64,2.65v3.86H311v-1a1.68,1.68,0,0,1-.7.79,2.06,2.06,0,0,1-1.09.29,2.57,2.57,0,0,1-1.16-.26,2.05,2.05,0,0,1-.82-.72,1.79,1.79,0,0,1-.3-1,1.61,1.61,0,0,1,.36-1.11,2.18,2.18,0,0,1,1.16-.58,9.46,9.46,0,0,1,1.92-.18H311v-.3a1,1,0,0,0-1.21-1.22,3.4,3.4,0,0,0-1.06.17,5.21,5.21,0,0,0-1.08.49l-.46-1.12a5.32,5.32,0,0,1,1.29-.56,5,5,0,0,1,1.43-.22Zm-.38,5.45a1.39,1.39,0,0,0,1.06-.44,1.58,1.58,0,0,0,.41-1.12v-.27h-.23a9.49,9.49,0,0,0-1.36.07,1.39,1.39,0,0,0-.69.28.71.71,0,0,0-.2.53.88.88,0,0,0,.28.68A1,1,0,0,0,309.57,699.75Zm7.92,0c.19,0,.39,0,.6,0l-.08,1.21c-.26,0-.5,0-.72,0a2.74,2.74,0,0,1-2-.62,2.44,2.44,0,0,1-.64-1.84v-2.77h-1.22v-1.22h1.22v-1.9h1.62v1.9H318v1.22H316.3v2.74C316.3,699.27,316.7,699.7,317.49,699.7Zm4.27-5.4A2.31,2.31,0,0,1,324.4,697v3.86h-1.54v-1a1.68,1.68,0,0,1-.7.79,2.1,2.1,0,0,1-1.1.29,2.56,2.56,0,0,1-1.15-.26,2.05,2.05,0,0,1-.82-.72,1.79,1.79,0,0,1-.3-1,1.66,1.66,0,0,1,.35-1.11,2.22,2.22,0,0,1,1.17-.58,9.35,9.35,0,0,1,1.91-.18h.64v-.3a1.34,1.34,0,0,0-.28-.94,1.28,1.28,0,0,0-.93-.28,3.4,3.4,0,0,0-1.06.17,5.54,5.54,0,0,0-1.09.49l-.45-1.12a5.24,5.24,0,0,1,1.28-.56,5,5,0,0,1,1.43-.22Zm-.37,5.45a1.41,1.41,0,0,0,1.06-.44,1.58,1.58,0,0,0,.41-1.12v-.27h-.24a9.43,9.43,0,0,0-1.35.07,1.39,1.39,0,0,0-.69.28.68.68,0,0,0-.21.53.89.89,0,0,0,.29.68A1,1,0,0,0,321.39,699.75Zm14.41-4.53v1.15h-6.34v-1.15Zm0,2.6V699h-6.34v-1.15Zm6.78-4.53v1.79h-1.82V693.9a3.25,3.25,0,0,1,.23-1.23,3.63,3.63,0,0,1,.79-1.11l.67.52a3.37,3.37,0,0,0-.48.62,1.52,1.52,0,0,0-.22.59Zm4.27,1a2.31,2.31,0,0,1,2.64,2.65v3.86H348v-1a1.68,1.68,0,0,1-.7.79,2.1,2.1,0,0,1-1.1.29,2.56,2.56,0,0,1-1.15-.26,2.05,2.05,0,0,1-.82-.72,1.79,1.79,0,0,1-.3-1,1.66,1.66,0,0,1,.35-1.11,2.22,2.22,0,0,1,1.17-.58,9.35,9.35,0,0,1,1.91-.18H348v-.3a1.34,1.34,0,0,0-.28-.94,1.28,1.28,0,0,0-.93-.28,3.4,3.4,0,0,0-1.06.17,5.54,5.54,0,0,0-1.09.49l-.45-1.12a5.24,5.24,0,0,1,1.28-.56,5,5,0,0,1,1.43-.22Zm-.37,5.45a1.41,1.41,0,0,0,1.06-.44,1.58,1.58,0,0,0,.41-1.12v-.27h-.24a9.43,9.43,0,0,0-1.35.07,1.39,1.39,0,0,0-.69.28.68.68,0,0,0-.21.53.89.89,0,0,0,.29.68A1,1,0,0,0,346.48,699.75Zm6.34-8.1v1.18a3.22,3.22,0,0,1-.23,1.24,3.37,3.37,0,0,1-.8,1.1l-.66-.52a3.37,3.37,0,0,0,.48-.62,1.7,1.7,0,0,0,.22-.59H351v-1.79Z"/><path d="M593.9,691.65h3.38a4.82,4.82,0,0,1,3.49,1.2,5.23,5.23,0,0,1,0,6.76,4.82,4.82,0,0,1-3.49,1.2H593.9Zm3.27,7.8c2.11,0,3.16-1.08,3.16-3.22s-1.05-3.22-3.16-3.22h-1.6v6.44Zm9.12-5.15a2.31,2.31,0,0,1,2.63,2.65v3.86h-1.54v-1a1.68,1.68,0,0,1-.7.79,2.07,2.07,0,0,1-1.1.29,2.56,2.56,0,0,1-1.15-.26,2.05,2.05,0,0,1-.82-.72,1.79,1.79,0,0,1-.3-1,1.61,1.61,0,0,1,.36-1.11,2.14,2.14,0,0,1,1.16-.58,9.43,9.43,0,0,1,1.91-.18h.64v-.3a1.34,1.34,0,0,0-.28-.94,1.28,1.28,0,0,0-.93-.28,3.4,3.4,0,0,0-1.06.17,5.54,5.54,0,0,0-1.09.49l-.45-1.12a5.16,5.16,0,0,1,1.29-.56,4.93,4.93,0,0,1,1.43-.22Zm-.38,5.45a1.41,1.41,0,0,0,1.06-.44,1.58,1.58,0,0,0,.41-1.12v-.27h-.24a9.43,9.43,0,0,0-1.35.07,1.39,1.39,0,0,0-.69.28.68.68,0,0,0-.21.53.89.89,0,0,0,.29.68A1,1,0,0,0,605.91,699.75Zm7.92,0c.19,0,.39,0,.59,0l-.07,1.21c-.26,0-.5,0-.72,0a2.78,2.78,0,0,1-2-.62,2.47,2.47,0,0,1-.63-1.84v-2.77H609.8v-1.22H611v-1.9h1.62v1.9h1.68v1.22h-1.68v2.74c0,.85.4,1.28,1.19,1.28Zm4.27-5.4a2.31,2.31,0,0,1,2.64,2.65v3.86h-1.55v-1a1.61,1.61,0,0,1-.69.79,2.1,2.1,0,0,1-1.1.29,2.63,2.63,0,0,1-1.16-.26,2.12,2.12,0,0,1-.82-.72,1.86,1.86,0,0,1-.29-1,1.61,1.61,0,0,1,.35-1.11,2.22,2.22,0,0,1,1.17-.58,9.28,9.28,0,0,1,1.91-.18h.63v-.3a1.29,1.29,0,0,0-.28-.94,1.24,1.24,0,0,0-.92-.28,3.35,3.35,0,0,0-1.06.17,5.54,5.54,0,0,0-1.09.49l-.45-1.12a5.24,5.24,0,0,1,1.28-.56,5,5,0,0,1,1.43-.22Zm-.37,5.45a1.37,1.37,0,0,0,1-.44,1.53,1.53,0,0,0,.41-1.12v-.27H619a9.43,9.43,0,0,0-1.35.07,1.39,1.39,0,0,0-.69.28.68.68,0,0,0-.21.53.89.89,0,0,0,.29.68A1,1,0,0,0,617.73,699.75Zm14.41-4.53v1.15H625.8v-1.15Zm0,2.6V699H625.8v-1.15Zm6.78-4.53v1.79H637.1V693.9a3.06,3.06,0,0,1,.23-1.23,3.63,3.63,0,0,1,.79-1.11l.67.52a4,4,0,0,0-.49.62,1.93,1.93,0,0,0-.22.59Zm4.44,7.63a3.62,3.62,0,0,1-1.73-.4,2.78,2.78,0,0,1-1.13-1.15,4,4,0,0,1,0-3.48,2.84,2.84,0,0,1,1.16-1.17,3.57,3.57,0,0,1,1.75-.42,4,4,0,0,1,1.32.22,2.82,2.82,0,0,1,1,.57l-.47,1.15a3.21,3.21,0,0,0-.85-.5,2.6,2.6,0,0,0-.89-.17,1.67,1.67,0,0,0-1.31.53,2.18,2.18,0,0,0-.47,1.52,2.14,2.14,0,0,0,.47,1.5,1.66,1.66,0,0,0,1.31.52,2.38,2.38,0,0,0,.89-.17,2.93,2.93,0,0,0,.85-.49l.47,1.13a2.89,2.89,0,0,1-1.07.59,4.07,4.07,0,0,1-1.35.22Zm5.12-9.27v1.18a3,3,0,0,1-.23,1.24,3.49,3.49,0,0,1-.79,1.1l-.67-.52a3.37,3.37,0,0,0,.48-.62,1.72,1.72,0,0,0,.23-.59h-.84v-1.79Z"/><path d="M281.43,745.66h4a3.32,3.32,0,0,1,2.29.73,3,3,0,0,1,0,4.13,3.32,3.32,0,0,1-2.29.74h-2.33v3.56h-1.68Zm3.8,4.31c1.15,0,1.73-.5,1.73-1.51a1.39,1.39,0,0,0-.43-1.13,1.94,1.94,0,0,0-1.3-.37h-2.12v3Zm8.83-.31-.95.09c-1.08.11-1.61.66-1.61,1.64v3.43h-1.63v-6.36h1.55v1.12a2.17,2.17,0,0,1,2-1.25l.49,0Zm6.37,2.28H296.1a2,2,0,0,0,.53,1.31,1.85,1.85,0,0,0,1.3.43,3.11,3.11,0,0,0,1.93-.68l.46,1.12a3.23,3.23,0,0,1-1.11.58,4.15,4.15,0,0,1-1.34.23,3.4,3.4,0,0,1-2.47-.89,3.23,3.23,0,0,1-.9-2.42,3.74,3.74,0,0,1,.39-1.73,2.89,2.89,0,0,1,1.1-1.17,3.17,3.17,0,0,1,1.6-.41,2.67,2.67,0,0,1,2.08.84,3.4,3.4,0,0,1,.76,2.33Zm-2.8-2.49a1.36,1.36,0,0,0-1,.42,2,2,0,0,0-.49,1.19H299a1.89,1.89,0,0,0-.39-1.2,1.31,1.31,0,0,0-1-.41Zm8.58-1h1.6L305,754.82h-1.42l-2.75-6.34h1.71l1.8,4.48Zm9.6-.17a2.1,2.1,0,0,1,1.7.65,3,3,0,0,1,.56,2v3.9h-1.63V751a1.68,1.68,0,0,0-.28-1.08,1.07,1.07,0,0,0-.87-.33,1.47,1.47,0,0,0-1.13.44,1.64,1.64,0,0,0-.42,1.18v3.6h-1.63v-6.36h1.59v.95a2.28,2.28,0,0,1,.87-.82,2.66,2.66,0,0,1,1.24-.28Zm6.81,6.62a3.49,3.49,0,0,1-1.71-.41,2.81,2.81,0,0,1-1.14-1.15,3.69,3.69,0,0,1-.4-1.76,3.62,3.62,0,0,1,.4-1.75,2.81,2.81,0,0,1,1.14-1.15,3.86,3.86,0,0,1,3.42,0,2.78,2.78,0,0,1,1.13,1.15,3.73,3.73,0,0,1,.4,1.75,3.81,3.81,0,0,1-.4,1.76,2.78,2.78,0,0,1-1.13,1.15A3.49,3.49,0,0,1,322.62,754.93Zm0-1.27a1.43,1.43,0,0,0,1.2-.52,2.37,2.37,0,0,0,.42-1.53,2.4,2.4,0,0,0-.42-1.53,1.41,1.41,0,0,0-1.19-.52,1.44,1.44,0,0,0-1.2.52,3,3,0,0,0,0,3.06A1.44,1.44,0,0,0,322.61,753.66Zm10.72-8v9.16h-1.61v-1a2,2,0,0,1-.83.84,2.49,2.49,0,0,1-1.23.3,2.62,2.62,0,0,1-1.46-.42,2.77,2.77,0,0,1-1-1.18,4,4,0,0,1-.36-1.75,3.89,3.89,0,0,1,.36-1.72,2.68,2.68,0,0,1,1-1.15,2.65,2.65,0,0,1,1.46-.4,2.59,2.59,0,0,1,1.23.28,2.06,2.06,0,0,1,.82.81v-3.74Zm-3.24,8a1.46,1.46,0,0,0,1.21-.53,2.39,2.39,0,0,0,.42-1.52,2.36,2.36,0,0,0-.42-1.51,1.43,1.43,0,0,0-1.19-.53,1.46,1.46,0,0,0-1.21.52,2.26,2.26,0,0,0-.43,1.49,2.43,2.43,0,0,0,.43,1.54A1.42,1.42,0,0,0,330.09,753.66Zm10.49-1.72h-4.32a2,2,0,0,0,.53,1.31,1.83,1.83,0,0,0,1.3.43A3.07,3.07,0,0,0,340,753l.47,1.12a3.23,3.23,0,0,1-1.11.58,4.25,4.25,0,0,1-1.35.23,3.36,3.36,0,0,1-2.46-.89,3.23,3.23,0,0,1-.9-2.42,3.74,3.74,0,0,1,.39-1.73,2.86,2.86,0,0,1,1.09-1.17,3.21,3.21,0,0,1,1.61-.41,2.63,2.63,0,0,1,2.07.84,3.35,3.35,0,0,1,.76,2.33Zm-2.79-2.49a1.39,1.39,0,0,0-1.05.42,2,2,0,0,0-.48,1.19h2.93a1.78,1.78,0,0,0-.39-1.2,1.29,1.29,0,0,0-1-.41Zm13.87-.22v1.15h-6.34v-1.15Zm0,2.6V753h-6.34v-1.15Zm8.79-3.52a2.1,2.1,0,0,1,1.7.65,3,3,0,0,1,.56,2v3.9h-1.62V751a1.75,1.75,0,0,0-.28-1.08,1.1,1.1,0,0,0-.88-.33,1.48,1.48,0,0,0-1.13.44,1.64,1.64,0,0,0-.42,1.18v3.6h-1.62v-6.36h1.58v.95a2.28,2.28,0,0,1,.87-.82,2.66,2.66,0,0,1,1.24-.28Zm9.75.15v6.36h-1.59v-1a2.19,2.19,0,0,1-.8.8,2.42,2.42,0,0,1-1.15.28c-1.56,0-2.34-.88-2.34-2.63v-3.84H366v3.85a1.53,1.53,0,0,0,.27,1,1.05,1.05,0,0,0,.86.33,1.38,1.38,0,0,0,1.08-.45,1.67,1.67,0,0,0,.41-1.19v-3.54Zm1.69,6.36v-9.16h1.62v9.16Zm3.3,0v-9.16h1.63v9.16Z"/><path d="M563.13,744.66h4a3.32,3.32,0,0,1,2.29.73,3,3,0,0,1,0,4.13,3.32,3.32,0,0,1-2.29.74h-2.33v3.56h-1.68Zm3.8,4.31c1.15,0,1.73-.5,1.73-1.51a1.39,1.39,0,0,0-.43-1.13,1.94,1.94,0,0,0-1.3-.37h-2.12v3Zm8.83-.31-1,.09c-1.08.11-1.61.66-1.61,1.64v3.43h-1.63v-6.36h1.55v1.12a2.17,2.17,0,0,1,2-1.25l.49,0Zm6.37,2.28H577.8a2,2,0,0,0,.53,1.31,1.85,1.85,0,0,0,1.3.43,3.07,3.07,0,0,0,1.92-.68l.47,1.12a3.23,3.23,0,0,1-1.11.58,4.19,4.19,0,0,1-1.34.23,3.38,3.38,0,0,1-2.47-.89,3.23,3.23,0,0,1-.9-2.42,3.74,3.74,0,0,1,.39-1.73,2.82,2.82,0,0,1,1.1-1.17,3.15,3.15,0,0,1,1.6-.41,2.67,2.67,0,0,1,2.08.84,3.4,3.4,0,0,1,.76,2.33Zm-2.8-2.49a1.36,1.36,0,0,0-1,.42,2,2,0,0,0-.49,1.19h2.94a1.89,1.89,0,0,0-.39-1.2A1.31,1.31,0,0,0,579.33,748.45Zm8.58-1h1.6l-2.78,6.34h-1.42l-2.75-6.34h1.71l1.8,4.48Zm9.6-.17a2.1,2.1,0,0,1,1.7.65,3,3,0,0,1,.56,2v3.9h-1.63V750a1.68,1.68,0,0,0-.28-1.08,1.07,1.07,0,0,0-.87-.33,1.47,1.47,0,0,0-1.13.44,1.64,1.64,0,0,0-.42,1.18v3.6h-1.63v-6.36h1.59v.95a2.28,2.28,0,0,1,.87-.82,2.63,2.63,0,0,1,1.24-.28Zm6.81,6.62a3.49,3.49,0,0,1-1.71-.41,2.81,2.81,0,0,1-1.14-1.15,3.69,3.69,0,0,1-.4-1.76,3.62,3.62,0,0,1,.4-1.75,2.81,2.81,0,0,1,1.14-1.15,3.86,3.86,0,0,1,3.42,0,2.78,2.78,0,0,1,1.13,1.15,3.73,3.73,0,0,1,.39,1.75,3.8,3.8,0,0,1-.39,1.76,2.78,2.78,0,0,1-1.13,1.15A3.49,3.49,0,0,1,604.32,753.93Zm0-1.27a1.44,1.44,0,0,0,1.21-.52,2.37,2.37,0,0,0,.42-1.53,2.4,2.4,0,0,0-.42-1.53,1.41,1.41,0,0,0-1.19-.52,1.44,1.44,0,0,0-1.2.52,3,3,0,0,0,0,3.06A1.42,1.42,0,0,0,604.3,752.66Zm10.73-8v9.16h-1.61v-1a2,2,0,0,1-.83.84,2.49,2.49,0,0,1-1.23.3,2.62,2.62,0,0,1-1.46-.42,2.77,2.77,0,0,1-1-1.18,4,4,0,0,1-.36-1.75,3.89,3.89,0,0,1,.36-1.72,2.73,2.73,0,0,1,1-1.15,2.7,2.7,0,0,1,1.47-.4,2.59,2.59,0,0,1,1.23.28,2,2,0,0,1,.81.81v-3.74Zm-3.24,8a1.46,1.46,0,0,0,1.21-.53,2.39,2.39,0,0,0,.42-1.52,2.36,2.36,0,0,0-.42-1.51,1.43,1.43,0,0,0-1.19-.53,1.46,1.46,0,0,0-1.21.52,2.26,2.26,0,0,0-.43,1.49,2.43,2.43,0,0,0,.43,1.54A1.42,1.42,0,0,0,611.79,752.66Zm10.49-1.72H618a2,2,0,0,0,.54,1.31,1.83,1.83,0,0,0,1.3.43,3.07,3.07,0,0,0,1.92-.68l.47,1.12a3.33,3.33,0,0,1-1.11.58,4.25,4.25,0,0,1-1.35.23,3.36,3.36,0,0,1-2.46-.89,3.23,3.23,0,0,1-.9-2.42,3.74,3.74,0,0,1,.39-1.73,2.86,2.86,0,0,1,1.09-1.17,3.21,3.21,0,0,1,1.61-.41,2.63,2.63,0,0,1,2.07.84,3.35,3.35,0,0,1,.76,2.33Zm-2.79-2.49a1.39,1.39,0,0,0-1,.42,2.1,2.1,0,0,0-.49,1.19h2.94a1.78,1.78,0,0,0-.39-1.2A1.29,1.29,0,0,0,619.49,748.45Zm13.87-.22v1.15H627v-1.15Zm0,2.6V752H627v-1.15Zm8.79-3.52a2.1,2.1,0,0,1,1.7.65,3,3,0,0,1,.56,2v3.9h-1.63V750a1.75,1.75,0,0,0-.27-1.08,1.1,1.1,0,0,0-.88-.33,1.48,1.48,0,0,0-1.13.44,1.64,1.64,0,0,0-.42,1.18v3.6h-1.62v-6.36H640v.95a2.28,2.28,0,0,1,.87-.82,2.66,2.66,0,0,1,1.24-.28Zm6.81,6.62a3.49,3.49,0,0,1-1.71-.41,2.81,2.81,0,0,1-1.14-1.15,3.69,3.69,0,0,1-.4-1.76,3.62,3.62,0,0,1,.4-1.75,2.81,2.81,0,0,1,1.14-1.15,3.86,3.86,0,0,1,3.42,0,2.72,2.72,0,0,1,1.13,1.15,3.73,3.73,0,0,1,.4,1.75,3.81,3.81,0,0,1-.4,1.76,2.72,2.72,0,0,1-1.13,1.15A3.49,3.49,0,0,1,649,753.93Zm0-1.27a1.45,1.45,0,0,0,1.21-.52,2.43,2.43,0,0,0,.41-1.53,2.47,2.47,0,0,0-.41-1.53,1.64,1.64,0,0,0-2.4,0,2.4,2.4,0,0,0-.43,1.53,2.37,2.37,0,0,0,.42,1.53A1.44,1.44,0,0,0,649,752.66Zm10.72-8v9.16h-1.61v-1a2,2,0,0,1-.83.84,2.45,2.45,0,0,1-1.22.3,2.63,2.63,0,0,1-1.47-.42,2.77,2.77,0,0,1-1-1.18,4,4,0,0,1-.36-1.75,3.89,3.89,0,0,1,.36-1.72,2.68,2.68,0,0,1,1-1.15,2.66,2.66,0,0,1,1.47-.4,2.55,2.55,0,0,1,1.22.28,2,2,0,0,1,.82.81v-3.74Zm-3.24,8a1.44,1.44,0,0,0,1.21-.53,2.39,2.39,0,0,0,.42-1.52,2.36,2.36,0,0,0-.42-1.51,1.42,1.42,0,0,0-1.19-.53,1.46,1.46,0,0,0-1.21.52,2.26,2.26,0,0,0-.43,1.49,2.43,2.43,0,0,0,.43,1.54A1.42,1.42,0,0,0,656.43,752.66Zm10.5-1.72H662.6a2,2,0,0,0,.53,1.31,1.85,1.85,0,0,0,1.3.43,3.07,3.07,0,0,0,1.92-.68l.47,1.12a3.23,3.23,0,0,1-1.11.58,4.21,4.21,0,0,1-1.35.23,3.36,3.36,0,0,1-2.46-.89,3.23,3.23,0,0,1-.9-2.42,3.74,3.74,0,0,1,.39-1.73,2.82,2.82,0,0,1,1.1-1.17,3.15,3.15,0,0,1,1.6-.41,2.67,2.67,0,0,1,2.08.84,3.4,3.4,0,0,1,.76,2.33Zm-2.8-2.49a1.39,1.39,0,0,0-1,.42,2,2,0,0,0-.48,1.19h2.93a1.78,1.78,0,0,0-.39-1.2A1.29,1.29,0,0,0,664.13,748.45Zm3.43,6.35v-1h6.19v1Z"/><path d="M677.48,747.31a2.68,2.68,0,0,1,2,.65,2.73,2.73,0,0,1,.65,2v3.86h-1.55v-1a1.71,1.71,0,0,1-.69.79,2.1,2.1,0,0,1-1.1.29,2.63,2.63,0,0,1-1.16-.26,2.21,2.21,0,0,1-.82-.72,1.79,1.79,0,0,1-.3-1,1.61,1.61,0,0,1,.36-1.11,2.15,2.15,0,0,1,1.17-.58,9.28,9.28,0,0,1,1.91-.18h.63v-.29a1.29,1.29,0,0,0-.28-.94,1.25,1.25,0,0,0-.93-.29,3.36,3.36,0,0,0-1.05.18,5.54,5.54,0,0,0-1.09.49l-.46-1.12a5.12,5.12,0,0,1,1.29-.56,5,5,0,0,1,1.43-.22Zm1.09,3.61h-.47A9.16,9.16,0,0,0,677,751a1.31,1.31,0,0,0-.69.27.7.7,0,0,0-.21.54.91.91,0,0,0,.29.68,1,1,0,0,0,.72.27,1.38,1.38,0,0,0,1.06-.44,1.55,1.55,0,0,0,.41-1.12Z"/><path d="M276.63,802.21h1.57v9.17h-1.26L272,805v6.4h-1.56v-9.17h1.25l4.91,6.39Zm9,6.28h-4.33a2,2,0,0,0,.54,1.32,1.83,1.83,0,0,0,1.3.43,3.07,3.07,0,0,0,1.92-.68l.47,1.12a3.33,3.33,0,0,1-1.11.58,4.24,4.24,0,0,1-1.35.22,3.35,3.35,0,0,1-2.46-.88,3.24,3.24,0,0,1-.9-2.42,3.74,3.74,0,0,1,.39-1.73,2.86,2.86,0,0,1,1.09-1.17,3.21,3.21,0,0,1,1.61-.41,2.63,2.63,0,0,1,2.07.84,3.35,3.35,0,0,1,.76,2.33ZM282.82,806a1.39,1.39,0,0,0-1.05.42,2.07,2.07,0,0,0-.49,1.19h2.94a1.76,1.76,0,0,0-.39-1.2,1.29,1.29,0,0,0-1-.41Zm7.67,2.09,2.68,3.28h-1.93l-1.69-2.12-1.67,2.12H286l2.67-3.28L286.09,805H288l1.52,1.94,1.52-1.94H293Zm6.62,2.16a4,4,0,0,0,.59,0l-.07,1.21a6.24,6.24,0,0,1-.72,0,2.78,2.78,0,0,1-2-.62,2.46,2.46,0,0,1-.63-1.84v-2.77h-1.22V805h1.22v-1.9h1.62V805h1.68v1.22h-1.68V809C295.92,809.84,296.32,810.26,297.11,810.26Zm8.76-5.39a2.1,2.1,0,0,1,1.7.65,2.94,2.94,0,0,1,.56,2v3.9H306.5v-3.81a1.75,1.75,0,0,0-.27-1.08,1.1,1.1,0,0,0-.88-.34,1.48,1.48,0,0,0-1.13.45,1.62,1.62,0,0,0-.42,1.18v3.6h-1.62V805h1.58v1a2.28,2.28,0,0,1,.87-.82,2.66,2.66,0,0,1,1.24-.28Zm6.81,6.61a3.48,3.48,0,0,1-1.71-.4,2.77,2.77,0,0,1-1.14-1.16,4,4,0,0,1,0-3.5,2.81,2.81,0,0,1,1.14-1.15,3.86,3.86,0,0,1,3.42,0,2.72,2.72,0,0,1,1.13,1.15,4,4,0,0,1,0,3.5,2.69,2.69,0,0,1-1.13,1.16A3.48,3.48,0,0,1,312.68,811.48Zm0-1.26a1.45,1.45,0,0,0,1.21-.52,3.06,3.06,0,0,0,0-3.06,1.62,1.62,0,0,0-2.4,0,3,3,0,0,0,0,3.06A1.44,1.44,0,0,0,312.67,810.22Zm10.72-8v9.17h-1.61v-1a2,2,0,0,1-.83.83,2.45,2.45,0,0,1-1.22.3,2.63,2.63,0,0,1-1.47-.41,2.77,2.77,0,0,1-1-1.18,4.05,4.05,0,0,1-.36-1.75,3.93,3.93,0,0,1,.36-1.73,2.72,2.72,0,0,1,1-1.14,2.66,2.66,0,0,1,1.47-.4,2.55,2.55,0,0,1,1.22.28,2,2,0,0,1,.82.81v-3.75Zm-3.24,8a1.44,1.44,0,0,0,1.21-.53,3,3,0,0,0,0-3,1.44,1.44,0,0,0-1.19-.52,1.46,1.46,0,0,0-1.21.52,2.24,2.24,0,0,0-.43,1.49,2.43,2.43,0,0,0,.43,1.54A1.42,1.42,0,0,0,320.15,810.22Zm10.5-1.73h-4.33a2,2,0,0,0,.53,1.32,1.85,1.85,0,0,0,1.3.43,3.07,3.07,0,0,0,1.92-.68l.47,1.12a3.23,3.23,0,0,1-1.11.58,4.19,4.19,0,0,1-1.35.22,3.35,3.35,0,0,1-2.46-.88,3.24,3.24,0,0,1-.9-2.42,3.74,3.74,0,0,1,.39-1.73,2.82,2.82,0,0,1,1.1-1.17,3.15,3.15,0,0,1,1.6-.41,2.67,2.67,0,0,1,2.08.84,3.4,3.4,0,0,1,.76,2.33Zm-2.8-2.48a1.39,1.39,0,0,0-1.05.42,2,2,0,0,0-.48,1.19h2.93a1.76,1.76,0,0,0-.39-1.2,1.29,1.29,0,0,0-1-.41Zm13.87-.22v1.14h-6.34v-1.14Zm0,2.6v1.14h-6.34v-1.14Zm8.79-3.52a2.1,2.1,0,0,1,1.7.65,2.89,2.89,0,0,1,.56,2v3.9h-1.62v-3.81a1.75,1.75,0,0,0-.28-1.08,1.1,1.1,0,0,0-.88-.34,1.45,1.45,0,0,0-1.12.45,1.59,1.59,0,0,0-.43,1.18v3.6h-1.62V805h1.58v1a2.28,2.28,0,0,1,.87-.82,2.66,2.66,0,0,1,1.24-.28Zm6.81,6.61a3.48,3.48,0,0,1-1.71-.4,2.77,2.77,0,0,1-1.14-1.16,4,4,0,0,1,0-3.5,2.81,2.81,0,0,1,1.14-1.15,3.86,3.86,0,0,1,3.42,0,2.72,2.72,0,0,1,1.13,1.15,4,4,0,0,1,0,3.5,2.69,2.69,0,0,1-1.13,1.16A3.48,3.48,0,0,1,357.32,811.48Zm0-1.26a1.45,1.45,0,0,0,1.21-.52,3.06,3.06,0,0,0,0-3.06,1.62,1.62,0,0,0-2.4,0,2.4,2.4,0,0,0-.42,1.53,2.45,2.45,0,0,0,.41,1.53A1.44,1.44,0,0,0,357.31,810.22Zm10.72-8v9.17h-1.61v-1a1.93,1.93,0,0,1-.82.83,2.49,2.49,0,0,1-1.23.3,2.57,2.57,0,0,1-1.46-.41,2.79,2.79,0,0,1-1-1.18,4.2,4.2,0,0,1-.35-1.75,4.08,4.08,0,0,1,.35-1.73,2.72,2.72,0,0,1,1-1.14,2.66,2.66,0,0,1,1.47-.4,2.55,2.55,0,0,1,1.22.28,1.94,1.94,0,0,1,.82.81v-3.75Zm-3.23,8a1.42,1.42,0,0,0,1.2-.53,3,3,0,0,0,0-3,1.44,1.44,0,0,0-1.19-.52,1.48,1.48,0,0,0-1.21.52,2.24,2.24,0,0,0-.43,1.49,2.43,2.43,0,0,0,.43,1.54A1.46,1.46,0,0,0,364.8,810.22Zm10.49-1.73H371a2,2,0,0,0,.53,1.32,1.87,1.87,0,0,0,1.3.43,3.09,3.09,0,0,0,1.93-.68l.46,1.12a3.23,3.23,0,0,1-1.11.58,4.14,4.14,0,0,1-1.34.22,3.39,3.39,0,0,1-2.47-.88,3.24,3.24,0,0,1-.9-2.42,3.74,3.74,0,0,1,.39-1.73,2.89,2.89,0,0,1,1.1-1.17,3.17,3.17,0,0,1,1.6-.41,2.67,2.67,0,0,1,2.08.84,3.4,3.4,0,0,1,.76,2.33Zm-2.8-2.48a1.36,1.36,0,0,0-1,.42,2,2,0,0,0-.49,1.19h2.94a1.87,1.87,0,0,0-.39-1.2,1.31,1.31,0,0,0-1-.41Zm3.43,6.34v-1h6.19v1Zm10.09-.87a3.54,3.54,0,0,1-1.73-.4,2.76,2.76,0,0,1-1.13-1.14,4,4,0,0,1,0-3.48,2.89,2.89,0,0,1,1.17-1.18,3.61,3.61,0,0,1,1.74-.41,4.24,4.24,0,0,1,1.32.21,2.75,2.75,0,0,1,1,.58L388,806.8a3.18,3.18,0,0,0-.85-.49,2.55,2.55,0,0,0-.89-.17,1.67,1.67,0,0,0-1.31.53,2.64,2.64,0,0,0,0,3,1.67,1.67,0,0,0,1.31.53,2.55,2.55,0,0,0,.89-.17,3.18,3.18,0,0,0,.85-.49l.47,1.13a2.89,2.89,0,0,1-1.07.59,4.33,4.33,0,0,1-1.35.21Z"/><path d="M579.57,801.21h1.58v9.17h-1.27L575,804v6.4h-1.56v-9.17h1.25l4.91,6.39Zm9,6.28h-4.33a2,2,0,0,0,.53,1.32,1.85,1.85,0,0,0,1.3.43,3.07,3.07,0,0,0,1.92-.68l.47,1.12a3.23,3.23,0,0,1-1.11.58,4.24,4.24,0,0,1-1.35.22,3.35,3.35,0,0,1-2.46-.88,3.24,3.24,0,0,1-.9-2.42,3.74,3.74,0,0,1,.39-1.73,2.82,2.82,0,0,1,1.1-1.17,3.15,3.15,0,0,1,1.6-.41,2.63,2.63,0,0,1,2.07.84,3.36,3.36,0,0,1,.77,2.33Zm-2.8-2.48a1.39,1.39,0,0,0-1,.42,2,2,0,0,0-.48,1.19h2.93a1.76,1.76,0,0,0-.39-1.2A1.29,1.29,0,0,0,585.76,805Zm7.67,2.09,2.68,3.28h-1.93l-1.69-2.12-1.67,2.12h-1.93l2.67-3.28L589,804H591l1.52,1.94L594,804H596Zm6.62,2.16a4.22,4.22,0,0,0,.6,0l-.08,1.21a6.24,6.24,0,0,1-.72,0,2.74,2.74,0,0,1-2-.62,2.42,2.42,0,0,1-.64-1.84v-2.77H596V804h1.22v-1.9h1.62V804h1.68v1.22h-1.68V808c0,.85.4,1.27,1.19,1.27Zm8.76-5.39a2.1,2.1,0,0,1,1.7.65,2.94,2.94,0,0,1,.56,2v3.9h-1.62v-3.81a1.75,1.75,0,0,0-.28-1.08,1.1,1.1,0,0,0-.88-.34,1.49,1.49,0,0,0-1.13.45,1.62,1.62,0,0,0-.42,1.18v3.6h-1.62V804h1.58v1a2.28,2.28,0,0,1,.87-.82,2.66,2.66,0,0,1,1.24-.28Zm6.81,6.61a3.48,3.48,0,0,1-1.71-.4,2.77,2.77,0,0,1-1.14-1.16,4,4,0,0,1,0-3.5,2.81,2.81,0,0,1,1.14-1.15,3.86,3.86,0,0,1,3.42,0,2.72,2.72,0,0,1,1.13,1.15,4,4,0,0,1,0,3.5,2.69,2.69,0,0,1-1.13,1.16A3.48,3.48,0,0,1,615.62,810.48Zm0-1.26a1.45,1.45,0,0,0,1.21-.52,3.06,3.06,0,0,0,0-3.06,1.62,1.62,0,0,0-2.4,0,3,3,0,0,0,0,3.06A1.44,1.44,0,0,0,615.61,809.22Zm10.72-8v9.17h-1.61v-1a1.93,1.93,0,0,1-.82.83,2.49,2.49,0,0,1-1.23.3,2.63,2.63,0,0,1-1.47-.41,2.84,2.84,0,0,1-1-1.18,4.2,4.2,0,0,1-.35-1.75,4.08,4.08,0,0,1,.35-1.73,2.72,2.72,0,0,1,1-1.14,2.66,2.66,0,0,1,1.47-.4,2.55,2.55,0,0,1,1.22.28,2,2,0,0,1,.82.81v-3.75Zm-3.23,8a1.42,1.42,0,0,0,1.2-.53,3,3,0,0,0,0-3,1.44,1.44,0,0,0-1.19-.52,1.48,1.48,0,0,0-1.21.52,2.24,2.24,0,0,0-.43,1.49,2.43,2.43,0,0,0,.43,1.54A1.44,1.44,0,0,0,623.1,809.22Zm10.49-1.73h-4.33a2,2,0,0,0,.53,1.32,1.85,1.85,0,0,0,1.3.43,3.11,3.11,0,0,0,1.93-.68l.46,1.12a3.23,3.23,0,0,1-1.11.58,4.14,4.14,0,0,1-1.34.22,3.39,3.39,0,0,1-2.47-.88,3.24,3.24,0,0,1-.9-2.42,3.74,3.74,0,0,1,.39-1.73,2.89,2.89,0,0,1,1.1-1.17,3.17,3.17,0,0,1,1.6-.41,2.67,2.67,0,0,1,2.08.84,3.4,3.4,0,0,1,.76,2.33Zm-2.8-2.48a1.36,1.36,0,0,0-1,.42,2,2,0,0,0-.49,1.19h2.94a1.87,1.87,0,0,0-.39-1.2A1.31,1.31,0,0,0,630.79,805Zm13.87-.22v1.14h-6.34v-1.14Zm0,2.6v1.14h-6.34v-1.14Zm8.79-3.52a2.1,2.1,0,0,1,1.7.65,2.89,2.89,0,0,1,.56,2v3.9h-1.62v-3.81a1.68,1.68,0,0,0-.28-1.08,1.1,1.1,0,0,0-.88-.34,1.45,1.45,0,0,0-1.12.45,1.63,1.63,0,0,0-.43,1.18v3.6h-1.62V804h1.59v1a2.15,2.15,0,0,1,.87-.82,2.59,2.59,0,0,1,1.23-.28Zm9.75.15v6.36h-1.58v-1a2,2,0,0,1-.81.8,2.29,2.29,0,0,1-1.14.28c-1.56,0-2.34-.87-2.34-2.62V804H659v3.85a1.53,1.53,0,0,0,.27,1,1.07,1.07,0,0,0,.86.33,1.42,1.42,0,0,0,1.09-.45,1.72,1.72,0,0,0,.41-1.19V804Zm1.69,6.36v-9.17h1.63v9.17Zm3.3,0v-9.17h1.63v9.17Z"/><path d="M409.05,719.9h-160V673.17h160Zm-2-44.73h-156V717.9h156Z"/><path d="M701.54,718.9h-160V672.17h160Zm-158-44.73V716.9h156V674.17Z"/><path d="M430.05,851.11h-202V655.28h202Zm-2-193.83h-198V849.11h198Z"/><path d="M722.54,850.11h-202V654.28h202Zm-200-193.83V848.11h198V656.28Z"/><path d="M409.05,775.07h-160V728.34h160Zm-158-44.73v42.73h156V730.34Z"/><path d="M701.54,774.07h-160V727.34h160Zm-158-44.73v42.73h156V729.34Z"/><path d="M409.05,831.73h-160V785h160ZM251.05,787v42.73h156V787Z"/><path d="M701.54,830.73h-160V784h160ZM543.54,786v42.73h156V786Z"/><path class="cls-2" d="M506.57,802.11l14,7-14,7v-6H408.05v-2h98.52Z"/><path class="cls-2" d="M443.19,744.1v6h98.52v2H443.19v6l-14-7Z"/><path d="M200.47,40.48h-3.73V50.7h-5.28V24.1h10c5.82,0,9.24,3.46,9.24,8.09a7.49,7.49,0,0,1-5.06,7.3l6.81,11.21h-6.08Zm.3-11.82h-4v7.22h4c2.93,0,4.64-1.37,4.64-3.65S203.7,28.66,200.77,28.66Z"/><path d="M231,43.44H218a4.13,4.13,0,0,0,7.49,1.71l5.13.53c-1.56,3.73-4.83,5.47-8.7,5.47A8.87,8.87,0,0,1,212.82,42a8.82,8.82,0,0,1,9-9.16c4.79,0,9.12,3.12,9.12,10.41Zm-13.07-3.31h7.79a3.79,3.79,0,0,0-3.84-3.19A3.88,3.88,0,0,0,217.91,40.13Z"/><path d="M256.78,40.48a2.75,2.75,0,0,0-2.89-3,4.74,4.74,0,0,0-3.61,2V50.7h-4.94V40.48a2.75,2.75,0,0,0-2.88-3,4.72,4.72,0,0,0-3.61,2V50.7h-4.94V33.3h4.82V34c0,.61-.07,1.37-.07,1.37a6.72,6.72,0,0,1,5.2-2.51A5.81,5.81,0,0,1,249.45,36a7,7,0,0,1,5.85-3.15c3.76,0,6.42,2.39,6.42,6.46V50.7h-4.94Z"/><path d="M264.69,42A9.31,9.31,0,1,1,274,51.15,9.06,9.06,0,0,1,264.69,42Zm4.94,0c0,2.69,1.78,4.75,4.37,4.75s4.33-2.06,4.33-4.75-1.79-4.75-4.33-4.75S269.63,39.26,269.63,42Z"/><path d="M293.3,45.38l3.95-12.08h5.21l-6.2,17.4h-6.11l-5.93-17.4h5.36Z"/><path d="M310.89,50.7H306V37.48h-2.43V33.3h7.37ZM308.2,24.1a3.19,3.19,0,0,1,3.19,3.19,3.18,3.18,0,0,1-6.35,0A3.18,3.18,0,0,1,308.2,24.1Z"/><path d="M325.22,32.84a6.06,6.06,0,0,1,6.46,6.46V50.7h-4.94V40.55a2.81,2.81,0,0,0-3-3.11,4.8,4.8,0,0,0-3.68,2V50.7h-4.94V33.3H320V34c0,.61-.08,1.37-.08,1.37A6.82,6.82,0,0,1,325.22,32.84Z"/><path d="M353.37,33.3V52c0,2.73-1.36,5.36-5.58,5.36h-7.56V53.17h6.34c.88,0,1.87-.23,1.87-1.56V48.27a6.4,6.4,0,0,1-5.4,2.62c-4.71,0-8.36-3.57-8.36-9s3.61-9,8.32-9a6.31,6.31,0,0,1,5.51,2.7c0-.19-.07-.53-.07-1.45V33.3Zm-9.23,13.33c2.62,0,4.41-1.94,4.41-4.75s-1.79-4.78-4.41-4.78-4.37,1.93-4.37,4.78S341.56,46.63,344.14,46.63Z"/><path d="M366.41,28.36c0-3.42,2.28-4.6,4.94-4.6,1.33,0,3.61.23,3.61.23v4.52s-1.52-.19-2-.19c-1,0-1.56.23-1.56,1.44V33.3h3.34v4.18h-3.34V50.7h-4.94V37.48h-2.73V33.3h2.73Z"/><path d="M388.15,38.16h-2.09c-2.51,0-3.65,1.18-3.65,4.22V50.7h-4.94V33.3h4.79v2.77a4.58,4.58,0,0,1,4.52-3,5.87,5.87,0,0,1,1.37.15Z"/><path d="M389.63,42a9.31,9.31,0,1,1,9.31,9.15A9.06,9.06,0,0,1,389.63,42Zm4.94,0c0,2.69,1.78,4.75,4.37,4.75s4.33-2.06,4.33-4.75-1.79-4.75-4.33-4.75S394.57,39.26,394.57,42Z"/><path d="M434.28,40.48a2.75,2.75,0,0,0-2.89-3,4.72,4.72,0,0,0-3.61,2V50.7h-4.94V40.48a2.75,2.75,0,0,0-2.89-3,4.74,4.74,0,0,0-3.61,2V50.7H411.4V33.3h4.83V34c0,.61-.08,1.37-.08,1.37a6.73,6.73,0,0,1,5.21-2.51A5.79,5.79,0,0,1,426.94,36a7,7,0,0,1,5.85-3.15,6,6,0,0,1,6.43,6.46V50.7h-4.94Z"/><path d="M456.55,26.69V33.3h3.76v4.18h-3.76v7.86c0,1.1.87,1.25,1.63,1.25,1.25,0,2.28-.11,2.28-.11V50.7s-2.39.23-3.84.23c-2.47,0-5-.42-5-3.92V37.48h-2.74V33.3h2.74V26.69Z"/><path d="M473.8,32.84a6.06,6.06,0,0,1,6.46,6.46V50.7h-4.94V40.55a2.81,2.81,0,0,0-3-3.11,4.8,4.8,0,0,0-3.68,2V50.7h-4.94V24.1h4.86V34c0,.61-.07,1.37-.07,1.37A6.8,6.8,0,0,1,473.8,32.84Z"/><path d="M501.38,43.44H488.43a4.13,4.13,0,0,0,7.48,1.71l5.13.53c-1.56,3.73-4.82,5.47-8.7,5.47A8.87,8.87,0,0,1,483.22,42a8.82,8.82,0,0,1,9-9.16c4.78,0,9.11,3.12,9.11,10.41Zm-13.07-3.31h7.79a3.77,3.77,0,0,0-3.83-3.19A3.89,3.89,0,0,0,488.31,40.13Z"/><path d="M522.93,45l-5.24-13.11V50.7h-5.13V24.1H520l5.82,15.09,5.93-15.09h7.1V50.7h-5.24V31.89L528.52,45Z"/><path d="M549.49,50.7h-4.94V37.48h-2.43V33.3h7.37ZM546.8,24.1A3.19,3.19,0,0,1,550,27.29a3.18,3.18,0,0,1-6.35,0A3.18,3.18,0,0,1,546.8,24.1Z"/><path d="M566.55,48.49a6.34,6.34,0,0,1-5.43,2.66c-4.79,0-8.43-3.83-8.43-9.15s3.6-9.16,8.39-9.16a6.33,6.33,0,0,1,5.55,2.7c0-.57-.08-2-.08-3.31V24.1h4.94V50.7h-4.94ZM557.78,42a4.46,4.46,0,1,0,8.89,0,4.45,4.45,0,1,0-8.89,0Z"/><path d="M588.56,48.49a6.38,6.38,0,0,1-5.44,2.66c-4.79,0-8.43-3.83-8.43-9.15s3.61-9.16,8.39-9.16a6.33,6.33,0,0,1,5.55,2.7c0-.57-.07-2-.07-3.31V24.1h4.94V50.7h-4.94ZM579.78,42a4.46,4.46,0,1,0,8.89,0,4.45,4.45,0,1,0-8.89,0Z"/><path d="M602.66,50.7h-4.91V24.1h4.91Z"/><path d="M624,43.44H611a4.13,4.13,0,0,0,7.48,1.71l5.13.53c-1.56,3.73-4.83,5.47-8.7,5.47A8.87,8.87,0,0,1,605.81,42a8.82,8.82,0,0,1,9-9.16c4.79,0,9.12,3.12,9.12,10.41ZM610.9,40.13h7.79a3.79,3.79,0,0,0-3.84-3.19A3.88,3.88,0,0,0,610.9,40.13Z"/><path d="M633.4,42a9.31,9.31,0,1,1,9.31,9.15A9.06,9.06,0,0,1,633.4,42Zm4.94,0c0,2.69,1.78,4.75,4.37,4.75S647,44.69,647,42s-1.79-4.75-4.33-4.75S638.34,39.26,638.34,42Z"/><path d="M656.35,28.36c0-3.42,2.28-4.6,4.94-4.6,1.33,0,3.61.23,3.61.23v4.52s-1.52-.19-2-.19c-1,0-1.56.23-1.56,1.44V33.3h3.34v4.18h-3.34V50.7h-4.94V37.48h-2.74V33.3h2.74Z"/><path d="M684,39.11c0-1.25-1-2-2.89-2a11.79,11.79,0,0,0-5.24,1.63L673.94,35a14.89,14.89,0,0,1,7.45-2.13c4,0,7.56,1.82,7.56,6.42V50.7H684V49.06c-.91,1.37-2.89,2.09-4.86,2.09-3.69,0-6.08-2.62-6.08-5.47,0-3.3,2.43-5.36,6.3-5.36h3.42c.84,0,1.22-.38,1.22-1Zm0,5.36V43.21a2.12,2.12,0,0,1-1.52.38h-1.86c-1.56,0-2.47.69-2.47,1.9s1,2,2.47,2C682.41,47.54,684,46.63,684,44.47Z"/><path d="M701.26,50.7V24.1h5.28V46.18h11.29V50.7Z"/><path d="M726,50.7h-4.94V37.48h-2.43V33.3H726Zm-2.7-26.6a3.18,3.18,0,0,1,3.19,3.19,3.17,3.17,0,0,1-6.34,0A3.17,3.17,0,0,1,723.3,24.1Z"/><path d="M740.51,38.62a6.32,6.32,0,0,0-4.29-1.79c-1.29,0-1.75.65-1.75,1.18s.38,1,1.3,1.33l2.88.91c3.57,1.18,4.79,3.11,4.79,5.39,0,2.55-2.16,5.51-6.91,5.51a11.25,11.25,0,0,1-7.68-2.73L731.47,45a8.62,8.62,0,0,0,5.13,2.16c1.18,0,1.9-.6,1.9-1.29,0-.87-.57-1.25-2-1.67l-3-.87c-2.81-.92-4-2.82-4-5.1,0-2.84,2.58-5.39,6.76-5.39a10.37,10.37,0,0,1,7,2.58Z"/><path d="M752.83,26.69V33.3h3.76v4.18h-3.76v7.86c0,1.1.87,1.25,1.63,1.25,1.25,0,2.28-.11,2.28-.11V50.7s-2.39.23-3.84.23c-2.47,0-5-.42-5-3.92V37.48h-2.74V33.3h2.74V26.69Z"/><path class="cls-2" d="M149.85,103.34a3.83,3.83,0,0,1,4.08,4.08v7.2h-3.12v-6.41a1.78,1.78,0,0,0-1.87-2,3.07,3.07,0,0,0-2.33,1.25v7.13h-3.12v-11h3v.43c0,.38,0,.86,0,.86A4.33,4.33,0,0,1,149.85,103.34Z"/><path class="cls-2" d="M155.8,109.12a5.88,5.88,0,1,1,5.88,5.79A5.72,5.72,0,0,1,155.8,109.12Zm3.12,0a2.76,2.76,0,1,0,2.76-3A2.79,2.79,0,0,0,158.92,109.12Z"/><path class="cls-2" d="M177.64,113.23a4,4,0,0,1-3.43,1.68c-3,0-5.33-2.43-5.33-5.79s2.28-5.78,5.31-5.78a4,4,0,0,1,3.5,1.7c0-.36-.05-1.27-.05-2.09V97.82h3.12v16.8h-3.12Zm-5.54-4.11a2.82,2.82,0,1,0,5.62,0,2.82,2.82,0,1,0-5.62,0Z"/><path class="cls-2" d="M194.23,110H186a2.61,2.61,0,0,0,4.73,1.08l3.24.34a5.85,5.85,0,1,1-5.54-8.11c3,0,5.76,2,5.76,6.57ZM186,108h4.92a2.38,2.38,0,0,0-2.42-2A2.46,2.46,0,0,0,186,108Z"/><path class="cls-2" d="M194.73,116.18h12v2.64h-12Z"/><path class="cls-2" d="M214.17,107.3c0-.79-.62-1.3-1.82-1.3a7.41,7.41,0,0,0-3.31,1l-1.23-2.35a9.43,9.43,0,0,1,4.71-1.34c2.49,0,4.77,1.15,4.77,4v7.23h-3.12v-1a3.7,3.7,0,0,1-3.07,1.32,3.6,3.6,0,0,1-3.84-3.46c0-2.09,1.53-3.38,4-3.38h2.16c.53,0,.77-.24.77-.65Zm0,3.38v-.79a1.37,1.37,0,0,1-1,.24H212c-1,0-1.56.43-1.56,1.2s.6,1.3,1.56,1.3A1.9,1.9,0,0,0,214.17,110.68Z"/><path class="cls-2" d="M440.7,103.34a3.83,3.83,0,0,1,4.08,4.08v7.2h-3.12v-6.41a1.78,1.78,0,0,0-1.87-2,3.07,3.07,0,0,0-2.33,1.25v7.13h-3.12v-11h3.05v.43c0,.38-.05.86-.05.86A4.33,4.33,0,0,1,440.7,103.34Z"/><path class="cls-2" d="M446.65,109.12a5.88,5.88,0,1,1,5.88,5.79A5.72,5.72,0,0,1,446.65,109.12Zm3.12,0a2.76,2.76,0,1,0,2.76-3A2.79,2.79,0,0,0,449.77,109.12Z"/><path class="cls-2" d="M468.49,113.23a4,4,0,0,1-3.43,1.68c-3,0-5.33-2.43-5.33-5.79s2.28-5.78,5.31-5.78a4,4,0,0,1,3.5,1.7c0-.36-.05-1.27-.05-2.09V97.82h3.12v16.8h-3.12ZM463,109.12a2.82,2.82,0,1,0,5.62,0,2.82,2.82,0,1,0-5.62,0Z"/><path class="cls-2" d="M485.08,110h-8.19a2.61,2.61,0,0,0,4.73,1.08l3.24.34a5.85,5.85,0,1,1-5.54-8.11c3,0,5.76,2,5.76,6.57ZM476.82,108h4.92a2.38,2.38,0,0,0-2.42-2A2.46,2.46,0,0,0,476.82,108Z"/><path class="cls-2" d="M485.58,116.18h12v2.64h-12Z"/><path class="cls-2" d="M502.05,114.62h-3.12V97.82h3.12v5.42c0,.72-.05,1.49-.05,1.8a4,4,0,0,1,3.48-1.7c3,0,5.33,2.42,5.33,5.78s-2.33,5.79-5.36,5.79a4,4,0,0,1-3.4-1.68Zm-.08-5.5a2.82,2.82,0,1,0,5.62,0,2.82,2.82,0,1,0-5.62,0Z"/><path class="cls-2" d="M732.81,103.34a3.83,3.83,0,0,1,4.08,4.08v7.2h-3.12v-6.41a1.78,1.78,0,0,0-1.87-2,3.05,3.05,0,0,0-2.33,1.25v7.13h-3.12v-11h3v.43c0,.38,0,.86,0,.86A4.33,4.33,0,0,1,732.81,103.34Z"/><path class="cls-2" d="M738.76,109.12a5.88,5.88,0,1,1,5.88,5.79A5.71,5.71,0,0,1,738.76,109.12Zm3.12,0a2.76,2.76,0,1,0,2.76-3A2.79,2.79,0,0,0,741.88,109.12Z"/><path class="cls-2" d="M760.6,113.23a4,4,0,0,1-3.43,1.68c-3,0-5.33-2.43-5.33-5.79s2.28-5.78,5.3-5.78a4,4,0,0,1,3.51,1.7c0-.36,0-1.27,0-2.09V97.82h3.12v16.8H760.6Zm-5.55-4.11a2.82,2.82,0,1,0,5.62,0,2.82,2.82,0,1,0-5.62,0Z"/><path class="cls-2" d="M777.18,110H769a2.61,2.61,0,0,0,4.73,1.08l3.24.34a5.86,5.86,0,1,1-5.55-8.11c3,0,5.76,2,5.76,6.57ZM768.93,108h4.92a2.39,2.39,0,0,0-2.43-2A2.44,2.44,0,0,0,768.93,108Z"/><path class="cls-2" d="M777.69,116.18h12v2.64h-12Z"/><path class="cls-2" d="M793.45,109.12a2.78,2.78,0,0,0,2.76,3,2.52,2.52,0,0,0,2.43-1.68l2.93.91a5.46,5.46,0,0,1-5.38,3.56,5.79,5.79,0,1,1,0-11.57,5.48,5.48,0,0,1,5.38,3.57l-2.93.89a2.55,2.55,0,0,0-2.43-1.68A2.78,2.78,0,0,0,793.45,109.12Z"/><path class="cls-2" d="M149.85,366.27a3.83,3.83,0,0,1,4.08,4.08v7.2h-3.12v-6.41a1.78,1.78,0,0,0-1.87-2,3.07,3.07,0,0,0-2.33,1.25v7.13h-3.12v-11h3V367c0,.38,0,.86,0,.86A4.33,4.33,0,0,1,149.85,366.27Z"/><path class="cls-2" d="M155.8,372.05a5.88,5.88,0,1,1,5.88,5.79A5.72,5.72,0,0,1,155.8,372.05Zm3.12,0a2.76,2.76,0,1,0,2.76-3A2.79,2.79,0,0,0,158.92,372.05Z"/><path class="cls-2" d="M177.64,376.16a4,4,0,0,1-3.43,1.68c-3,0-5.33-2.43-5.33-5.79s2.28-5.78,5.31-5.78a4,4,0,0,1,3.5,1.7c0-.36-.05-1.27-.05-2.09v-5.13h3.12v16.8h-3.12Zm-5.54-4.11a2.82,2.82,0,1,0,5.62,0,2.82,2.82,0,1,0-5.62,0Z"/><path class="cls-2" d="M194.23,373H186a2.61,2.61,0,0,0,4.73,1.08l3.24.34a5.85,5.85,0,1,1-5.54-8.11c3,0,5.76,2,5.76,6.57ZM186,370.88h4.92a2.38,2.38,0,0,0-2.42-2A2.46,2.46,0,0,0,186,370.88Z"/><path class="cls-2" d="M194.73,379.11h12v2.64h-12Z"/><path class="cls-2" d="M214.17,370.23c0-.79-.62-1.3-1.82-1.3a7.41,7.41,0,0,0-3.31,1l-1.23-2.35a9.43,9.43,0,0,1,4.71-1.34c2.49,0,4.77,1.15,4.77,4.05v7.23h-3.12v-1a3.7,3.7,0,0,1-3.07,1.32,3.6,3.6,0,0,1-3.84-3.46c0-2.09,1.53-3.38,4-3.38h2.16c.53,0,.77-.24.77-.65Zm0,3.38v-.79a1.37,1.37,0,0,1-1,.24H212c-1,0-1.56.43-1.56,1.2s.6,1.3,1.56,1.3A1.9,1.9,0,0,0,214.17,373.61Z"/><g class="cls-3"><path class="cls-2" d="M440.7,366.27a3.83,3.83,0,0,1,4.08,4.08v7.2h-3.12v-6.41a1.78,1.78,0,0,0-1.87-2,3.07,3.07,0,0,0-2.33,1.25v7.13h-3.12v-11h3.05V367c0,.38-.05.86-.05.86A4.33,4.33,0,0,1,440.7,366.27Z"/><path class="cls-2" d="M446.65,372.05a5.88,5.88,0,1,1,5.88,5.79A5.72,5.72,0,0,1,446.65,372.05Zm3.12,0a2.76,2.76,0,1,0,2.76-3A2.79,2.79,0,0,0,449.77,372.05Z"/><path class="cls-2" d="M468.49,376.16a4,4,0,0,1-3.43,1.68c-3,0-5.33-2.43-5.33-5.79s2.28-5.78,5.31-5.78a4,4,0,0,1,3.5,1.7c0-.36-.05-1.27-.05-2.09v-5.13h3.12v16.8h-3.12ZM463,372.05a2.82,2.82,0,1,0,5.62,0,2.82,2.82,0,1,0-5.62,0Z"/><path class="cls-2" d="M485.08,373h-8.19a2.61,2.61,0,0,0,4.73,1.08l3.24.34a5.85,5.85,0,1,1-5.54-8.11c3,0,5.76,2,5.76,6.57Zm-8.26-2.08h4.92a2.38,2.38,0,0,0-2.42-2A2.46,2.46,0,0,0,476.82,370.88Z"/><path class="cls-2" d="M485.58,379.11h12v2.64h-12Z"/><path class="cls-2" d="M502.05,377.55h-3.12v-16.8h3.12v5.42c0,.72-.05,1.49-.05,1.8a4,4,0,0,1,3.48-1.7c3,0,5.33,2.42,5.33,5.78s-2.33,5.79-5.36,5.79a4,4,0,0,1-3.4-1.68Zm-.08-5.5a2.82,2.82,0,1,0,5.62,0,2.82,2.82,0,1,0-5.62,0Z"/></g><path class="cls-2" d="M300.55,631.38a3.83,3.83,0,0,1,4.08,4.08v7.2h-3.12v-6.41a1.77,1.77,0,0,0-1.87-2,3.06,3.06,0,0,0-2.33,1.24v7.13h-3.12v-11h3.05v.43c0,.39-.05.87-.05.87A4.31,4.31,0,0,1,300.55,631.38Z"/><path class="cls-2" d="M306.5,637.17a5.88,5.88,0,1,1,5.88,5.78A5.73,5.73,0,0,1,306.5,637.17Zm3.12,0a2.76,2.76,0,1,0,2.76-3A2.8,2.8,0,0,0,309.62,637.17Z"/><path class="cls-2" d="M328.34,641.27a4,4,0,0,1-3.43,1.68c-3,0-5.33-2.42-5.33-5.78s2.28-5.79,5.31-5.79a4,4,0,0,1,3.5,1.71c0-.36-.05-1.28-.05-2.09v-5.14h3.12v16.8h-3.12Zm-5.54-4.1a2.81,2.81,0,1,0,5.61,0,2.81,2.81,0,1,0-5.61,0Z"/><path class="cls-2" d="M344.93,638.08h-8.19a2.61,2.61,0,0,0,4.73,1.08l3.24.33a5.86,5.86,0,1,1-5.55-8.11c3,0,5.77,2,5.77,6.58ZM336.67,636h4.92a2.39,2.39,0,0,0-2.43-2A2.46,2.46,0,0,0,336.67,636Z"/><path class="cls-2" d="M345.43,644.22h12v2.64h-12Z"/><path class="cls-2" d="M364.87,635.34c0-.79-.63-1.29-1.83-1.29a7.49,7.49,0,0,0-3.31,1l-1.22-2.35a9.37,9.37,0,0,1,4.7-1.35c2.5,0,4.78,1.15,4.78,4.06v7.22h-3.12v-1A3.7,3.7,0,0,1,361.8,643a3.6,3.6,0,0,1-3.84-3.46c0-2.08,1.53-3.38,4-3.38h2.16c.53,0,.77-.24.77-.65Zm0,3.39v-.79a1.37,1.37,0,0,1-1,.24h-1.18c-1,0-1.56.43-1.56,1.2s.6,1.29,1.56,1.29A1.9,1.9,0,0,0,364.87,638.73Z"/><path class="cls-2" d="M592.16,631.38a3.83,3.83,0,0,1,4.08,4.08v7.2h-3.12v-6.41a1.77,1.77,0,0,0-1.88-2,3,3,0,0,0-2.32,1.24v7.13H585.8v-11h3v.43c0,.39,0,.87,0,.87A4.29,4.29,0,0,1,592.16,631.38Z"/><path class="cls-2" d="M598.11,637.17A5.88,5.88,0,1,1,604,643,5.72,5.72,0,0,1,598.11,637.17Zm3.12,0a2.76,2.76,0,1,0,5.49,0,2.76,2.76,0,1,0-5.49,0Z"/><path class="cls-2" d="M620,641.27a4,4,0,0,1-3.43,1.68c-3,0-5.33-2.42-5.33-5.78s2.28-5.79,5.3-5.79a4,4,0,0,1,3.51,1.71c0-.36,0-1.28,0-2.09v-5.14h3.12v16.8H620Zm-5.55-4.1a2.82,2.82,0,1,0,5.62,0,2.82,2.82,0,1,0-5.62,0Z"/><path class="cls-2" d="M636.53,638.08h-8.18a2.61,2.61,0,0,0,4.73,1.08l3.24.33a5.86,5.86,0,1,1-5.55-8.11c3,0,5.76,2,5.76,6.58ZM628.28,636h4.92a2.4,2.4,0,0,0-2.43-2A2.45,2.45,0,0,0,628.28,636Z"/><path class="cls-2" d="M637,644.22h12v2.64H637Z"/><path class="cls-2" d="M652.8,637.17a2.78,2.78,0,0,0,2.76,3,2.53,2.53,0,0,0,2.43-1.68l2.92.91a5.44,5.44,0,0,1-5.37,3.55,5.79,5.79,0,1,1,0-11.57,5.46,5.46,0,0,1,5.37,3.58l-2.92.89a2.56,2.56,0,0,0-2.43-1.68A2.78,2.78,0,0,0,652.8,637.17Z"/><path class="cls-2" d="M732.81,367.38a3.84,3.84,0,0,1,4.08,4.08v7.2h-3.12v-6.4a1.77,1.77,0,0,0-1.87-2,3,3,0,0,0-2.33,1.25v7.12h-3.12v-11h3v.43c0,.39,0,.87,0,.87A4.34,4.34,0,0,1,732.81,367.38Z"/><path class="cls-2" d="M738.76,373.17a5.88,5.88,0,1,1,5.88,5.78A5.72,5.72,0,0,1,738.76,373.17Zm3.12,0a2.76,2.76,0,1,0,5.49,0,2.76,2.76,0,1,0-5.49,0Z"/><path class="cls-2" d="M760.6,377.27a4,4,0,0,1-3.43,1.68c-3,0-5.33-2.42-5.33-5.78s2.28-5.79,5.3-5.79a4,4,0,0,1,3.51,1.71c0-.36,0-1.27,0-2.09v-5.14h3.12v16.8H760.6Zm-5.55-4.1a2.82,2.82,0,1,0,5.62,0,2.82,2.82,0,1,0-5.62,0Z"/><path class="cls-2" d="M777.18,374.08H769a2.61,2.61,0,0,0,4.73,1.08l3.24.34a5.86,5.86,0,1,1-5.55-8.12c3,0,5.76,2,5.76,6.58ZM768.93,372h4.92a2.39,2.39,0,0,0-2.43-2A2.45,2.45,0,0,0,768.93,372Z"/><path class="cls-2" d="M777.69,380.22h12v2.64h-12Z"/><path class="cls-2" d="M793.45,373.17a2.78,2.78,0,0,0,2.76,3,2.52,2.52,0,0,0,2.43-1.68l2.93.91a5.47,5.47,0,0,1-5.38,3.55,5.79,5.79,0,1,1,0-11.57,5.49,5.49,0,0,1,5.38,3.58l-2.93.89a2.55,2.55,0,0,0-2.43-1.68A2.78,2.78,0,0,0,793.45,373.17Z"/></svg>