<svg id="Layer_1" data-name="Layer 1" xmlns="http://www.w3.org/2000/svg" viewBox="0 0 1110.19 549.19"><defs><style>.cls-1{fill:#6401e4;}</style></defs><path d="M189.31,335.77h4.16a5.9,5.9,0,0,1,4.3,1.48,6.41,6.41,0,0,1,0,8.31,5.91,5.91,0,0,1-4.3,1.49h-4.16Zm4,9.6q3.88,0,3.88-4c0-2.67-1.29-3.95-3.88-3.95h-2v7.92ZM204.56,339a2.85,2.85,0,0,1,3.25,2.38,2.6,2.6,0,0,1,0,.88V347h-1.9v-1.2a2,2,0,0,1-.86,1,2.57,2.57,0,0,1-1.35.35,3.06,3.06,0,0,1-1.43-.32,2.43,2.43,0,0,1-1-.88,2.12,2.12,0,0,1-.37-1.24,2,2,0,0,1,.44-1.36,2.68,2.68,0,0,1,1.43-.72,12,12,0,0,1,2.39-.23h.75v-.37a1.6,1.6,0,0,0-.35-1.15,1.57,1.57,0,0,0-1.14-.35,4.14,4.14,0,0,0-1.31.22,6.37,6.37,0,0,0-1.33.6l-.56-1.38a5.71,5.71,0,0,1,1.58-.69A6.56,6.56,0,0,1,204.56,339Zm-.46,6.7a1.68,1.68,0,0,0,1.3-.53,1.94,1.94,0,0,0,.51-1.39v-.33h-.29a11.61,11.61,0,0,0-1.67.09,1.6,1.6,0,0,0-.84.34.82.82,0,0,0-.26.66,1.11,1.11,0,0,0,.35.84,1.26,1.26,0,0,0,.9.35Zm9.74-.06a6.13,6.13,0,0,0,.74-.05l-.1,1.49c-.32,0-.61.05-.88.05a3.35,3.35,0,0,1-2.43-.76,3,3,0,0,1-.78-2.27v-3.4h-1.51v-1.51h1.51v-2.33h2v2.33h2.06v1.51h-2.06v3.37c0,1.08.48,1.6,1.45,1.6Z"/><path d="M219.11,339a2.85,2.85,0,0,1,3.24,2.39,2.54,2.54,0,0,1,0,.87V347h-1.9v-1.2a2,2,0,0,1-.86,1,2.57,2.57,0,0,1-1.35.35,3,3,0,0,1-1.42-.32,2.37,2.37,0,0,1-1-.88,2.12,2.12,0,0,1-.37-1.24,2,2,0,0,1,.44-1.36,2.68,2.68,0,0,1,1.43-.72,12.05,12.05,0,0,1,2.4-.23h.74v-.37a1.7,1.7,0,0,0-.34-1.15,1.6,1.6,0,0,0-1.15-.35,4.13,4.13,0,0,0-1.3.22,6.45,6.45,0,0,0-1.34.6l-.56-1.38a6.08,6.08,0,0,1,1.59-.69A6.55,6.55,0,0,1,219.11,339Zm1.34,4.45h-.55a10.85,10.85,0,0,0-1.4.09,1.67,1.67,0,0,0-.85.34.85.85,0,0,0-.26.66,1.07,1.07,0,0,0,.36.84,1.21,1.21,0,0,0,.89.32,1.71,1.71,0,0,0,1.31-.53,2,2,0,0,0,.5-1.39Z"/><path d="M191.5,421.05V409.77h2.06v9.58h5.27v1.7Zm8.7,0v-7.83h2v7.83Zm-.11-11.46h2.21v2h-2.21Zm8.72,3.44a2.64,2.64,0,0,1,2.1.8,3.73,3.73,0,0,1,.68,2.42v4.8h-2v-4.69a2.08,2.08,0,0,0-.34-1.33,1.33,1.33,0,0,0-1.08-.42,1.82,1.82,0,0,0-1.38.55,2,2,0,0,0-.52,1.45v4.44h-2v-7.83h1.95v1.17a2.71,2.71,0,0,1,1.07-1,3.24,3.24,0,0,1,1.52-.39Zm12.66,8H219l-3.36-3.57V421h-2V409.77h2v6.88l3.15-3.41h2.43L217.69,417Z"/><path d="M291.72,372.05h-172v-62h172Zm-2-60h-168v58h168Z"/><path d="M314.72,471.05h-218v-185h218Zm-2-183h-214v181h214Z"/><path d="M291.72,446.05h-172v-62h172Zm-2-60h-168v58h168Z"/><path d="M532.31,335.77h4.16a5.9,5.9,0,0,1,4.3,1.48,6.41,6.41,0,0,1,0,8.31,5.91,5.91,0,0,1-4.3,1.49h-4.16Zm4,9.6q3.88,0,3.88-4c0-2.67-1.29-3.95-3.88-3.95h-2v7.92ZM547.56,339a2.85,2.85,0,0,1,3.25,2.38,2.6,2.6,0,0,1,0,.88V347h-1.9v-1.2a2,2,0,0,1-.86,1,2.57,2.57,0,0,1-1.35.35,3.06,3.06,0,0,1-1.43-.32,2.43,2.43,0,0,1-1-.88,2.12,2.12,0,0,1-.37-1.24,2,2,0,0,1,.44-1.36,2.68,2.68,0,0,1,1.43-.72,12,12,0,0,1,2.39-.23h.75v-.37a1.6,1.6,0,0,0-.35-1.15,1.57,1.57,0,0,0-1.14-.35,4.14,4.14,0,0,0-1.31.22,6.37,6.37,0,0,0-1.33.6l-.56-1.38a5.71,5.71,0,0,1,1.58-.69A6.56,6.56,0,0,1,547.56,339Zm-.46,6.7a1.68,1.68,0,0,0,1.3-.53,1.94,1.94,0,0,0,.51-1.39v-.33h-.29a11.61,11.61,0,0,0-1.67.09,1.6,1.6,0,0,0-.84.34.82.82,0,0,0-.26.66,1.11,1.11,0,0,0,.35.84,1.26,1.26,0,0,0,.9.35Zm9.74-.06a6.13,6.13,0,0,0,.74-.05l-.1,1.49c-.32,0-.61.05-.88.05a3.35,3.35,0,0,1-2.43-.76,3,3,0,0,1-.78-2.27v-3.4h-1.51v-1.51h1.51v-2.33h2v2.33h2.06v1.51h-2.06v3.37c0,1.08.48,1.6,1.45,1.6Z"/><path d="M562.11,339a2.85,2.85,0,0,1,3.24,2.39,2.54,2.54,0,0,1,0,.87V347h-1.9v-1.2a2,2,0,0,1-.86,1,2.57,2.57,0,0,1-1.35.35,3,3,0,0,1-1.42-.32,2.37,2.37,0,0,1-1-.88,2.12,2.12,0,0,1-.37-1.24,2,2,0,0,1,.44-1.36,2.68,2.68,0,0,1,1.43-.72,12.05,12.05,0,0,1,2.4-.23h.74v-.37a1.7,1.7,0,0,0-.34-1.15,1.6,1.6,0,0,0-1.15-.35,4.13,4.13,0,0,0-1.3.22,6.45,6.45,0,0,0-1.34.6l-.56-1.38a6.08,6.08,0,0,1,1.59-.69A6.55,6.55,0,0,1,562.11,339Zm1.34,4.45h-.55a10.85,10.85,0,0,0-1.4.09,1.67,1.67,0,0,0-.85.34.85.85,0,0,0-.26.66,1.07,1.07,0,0,0,.36.84,1.21,1.21,0,0,0,.89.32,1.71,1.71,0,0,0,1.31-.53,2,2,0,0,0,.5-1.39Z"/><path d="M534.5,421.05V409.77h2.06v9.58h5.27v1.7Zm8.7,0v-7.83h2v7.83Zm-.11-11.46h2.21v2h-2.21Zm8.72,3.44a2.64,2.64,0,0,1,2.1.8,3.73,3.73,0,0,1,.68,2.42v4.8h-2v-4.69a2.08,2.08,0,0,0-.34-1.33,1.33,1.33,0,0,0-1.08-.42,1.82,1.82,0,0,0-1.38.55,2,2,0,0,0-.52,1.45v4.44h-2v-7.83h2v1.17a2.71,2.71,0,0,1,1.07-1,3.29,3.29,0,0,1,1.47-.39Zm12.66,8H562l-3.36-3.57V421h-2V409.77h2v6.88l3.15-3.41h2.43L560.69,417Z"/><path d="M634.72,372.05h-172v-62h172Zm-2-60h-168v58h168Z"/><path d="M657.72,471.05h-218v-185h218Zm-2-183h-214v181h214Z"/><path d="M634.72,446.05h-172v-62h172Zm-2-60h-168v58h168Z"/><path d="M875.31,335.77h4.16a5.9,5.9,0,0,1,4.3,1.48,6.41,6.41,0,0,1,0,8.31,5.91,5.91,0,0,1-4.3,1.49h-4.16Zm4,9.6q3.88,0,3.88-4c0-2.67-1.29-3.95-3.88-3.95h-2v7.92ZM890.56,339a2.85,2.85,0,0,1,3.25,2.38,2.6,2.6,0,0,1,0,.88V347h-1.9v-1.2a2,2,0,0,1-.86,1,2.57,2.57,0,0,1-1.35.35,3.06,3.06,0,0,1-1.43-.32,2.43,2.43,0,0,1-1-.88,2.12,2.12,0,0,1-.37-1.24,2,2,0,0,1,.44-1.36,2.68,2.68,0,0,1,1.43-.72,12,12,0,0,1,2.39-.23h.75v-.37a1.6,1.6,0,0,0-.35-1.15,1.57,1.57,0,0,0-1.14-.35,4.14,4.14,0,0,0-1.31.22,6.37,6.37,0,0,0-1.33.6l-.56-1.38a5.71,5.71,0,0,1,1.58-.69A6.56,6.56,0,0,1,890.56,339Zm-.46,6.7a1.68,1.68,0,0,0,1.3-.53,1.94,1.94,0,0,0,.51-1.39v-.33h-.29a11.61,11.61,0,0,0-1.67.09,1.6,1.6,0,0,0-.84.34.82.82,0,0,0-.26.66,1.11,1.11,0,0,0,.35.84,1.26,1.26,0,0,0,.9.35Zm9.74-.06a6.13,6.13,0,0,0,.74-.05l-.1,1.49c-.32,0-.61.05-.88.05a3.35,3.35,0,0,1-2.43-.76,3,3,0,0,1-.78-2.27v-3.4h-1.51v-1.51h1.51v-2.33h2v2.33h2.06v1.51h-2.06v3.37c0,1.08.48,1.6,1.45,1.6Z"/><path d="M905.11,339a2.85,2.85,0,0,1,3.24,2.39,2.54,2.54,0,0,1,0,.87V347h-1.9v-1.2a2,2,0,0,1-.86,1,2.57,2.57,0,0,1-1.35.35,3,3,0,0,1-1.42-.32,2.37,2.37,0,0,1-1-.88,2.12,2.12,0,0,1-.37-1.24,2,2,0,0,1,.44-1.36,2.68,2.68,0,0,1,1.43-.72,12.05,12.05,0,0,1,2.4-.23h.74v-.37a1.7,1.7,0,0,0-.34-1.15,1.6,1.6,0,0,0-1.15-.35,4.13,4.13,0,0,0-1.3.22,6.45,6.45,0,0,0-1.34.6l-.56-1.38a6.08,6.08,0,0,1,1.59-.69A6.55,6.55,0,0,1,905.11,339Zm1.34,4.45h-.55a10.85,10.85,0,0,0-1.4.09,1.67,1.67,0,0,0-.85.34.85.85,0,0,0-.26.66,1.07,1.07,0,0,0,.36.84,1.21,1.21,0,0,0,.89.32,1.71,1.71,0,0,0,1.31-.53,2,2,0,0,0,.5-1.39Z"/><path d="M877.5,421.05V409.77h2.06v9.58h5.27v1.7Zm8.7,0v-7.83h2v7.83Zm-.11-11.46h2.21v2h-2.21Zm8.72,3.44a2.64,2.64,0,0,1,2.1.8,3.73,3.73,0,0,1,.68,2.42v4.8h-2v-4.69a2.08,2.08,0,0,0-.34-1.33,1.33,1.33,0,0,0-1.08-.42,1.82,1.82,0,0,0-1.38.55,2,2,0,0,0-.52,1.45v4.44h-2v-7.83h2v1.17a2.71,2.71,0,0,1,1.07-1,3.29,3.29,0,0,1,1.47-.39Zm12.66,8H905l-3.36-3.57V421h-2V409.77h2v6.88l3.15-3.41h2.43L903.69,417Z"/><path d="M977.72,372.05h-172v-62h172Zm-2-60h-168v58h168Z"/><path d="M1000.72,471.05h-218v-185h218Zm-2-183h-214v181h214Z"/><path d="M977.72,446.05h-172v-62h172Zm-2-60h-168v58h168Z"/><path class="cls-1" d="M426.35,334.05l14,7-14,7v-6H369.19v73H271.35v-2h95.84v-73h59.16Z"/><path class="cls-1" d="M769.72,334.05l14,7-14,7v-6H712.56v73H614.72v-2h95.84v-73h59.16Z"/><path d="M449.4,117.59v-28H455v23.24h11.88v4.76Z"/><path d="M475.44,117.59h-5.2V103.67h-2.56v-4.4h7.76Zm-2.84-28a3.35,3.35,0,0,1,3.4,3.3V93a3.34,3.34,0,1,1-3.4-3.41Z"/><path d="M490.52,98.79c4,0,6.8,2.52,6.8,6.8v12h-5.2V106.91a3,3,0,0,0-2.7-3.27,3,3,0,0,0-.42,0,5.08,5.08,0,0,0-3.88,2.08v11.88h-5.2V99.27H485V100c0,.64-.08,1.44-.08,1.44A7.22,7.22,0,0,1,490.52,98.79Z"/><path d="M506.76,105.63H508l5-6.36h6.28l-7.08,8.4,7.28,9.92h-6.24L508,110h-1.24v7.56H501.6v-28h5.16Z"/><path d="M538.92,110H525.28a4.35,4.35,0,0,0,7.88,1.8l5.4.56c-1.64,3.92-5.08,5.76-9.16,5.76a9.64,9.64,0,1,1-.08-19.28c5,0,9.6,3.28,9.6,11Zm-13.76-3.48h8.2a4,4,0,0,0-4-3.36,4.09,4.09,0,0,0-4.2,3.31Z"/><path d="M555.48,115.27a6.69,6.69,0,0,1-5.72,2.8c-5,0-8.88-4-8.88-9.64s3.8-9.64,8.84-9.64a6.65,6.65,0,0,1,5.84,2.84c0-.6-.08-2.12-.08-3.48V89.59h5.2v28h-5.2Zm-9.24-6.84a4.69,4.69,0,1,0,9.36.61c0-.2,0-.41,0-.61a4.69,4.69,0,1,0-9.36-.61C546.23,108,546.23,108.23,546.24,108.43Z"/><path d="M573.84,117.59v-28h5.56v23.24h11.88v4.76Z"/><path d="M599.88,117.59h-5.2V103.67h-2.56v-4.4h7.76Zm-2.84-28a3.35,3.35,0,0,1,3.36,3.34V93a3.34,3.34,0,1,1-3.4-3.41Z"/><path d="M615.16,104.87a6.64,6.64,0,0,0-4.52-1.88c-1.36,0-1.84.68-1.84,1.24s.4,1.08,1.36,1.4l3,1c3.76,1.24,5,3.28,5,5.68,0,2.68-2.28,5.8-7.28,5.8a11.79,11.79,0,0,1-8.08-2.88l2.76-3.6a9.05,9.05,0,0,0,5.4,2.28c1.24,0,2-.64,2-1.36,0-.92-.6-1.32-2.08-1.76l-3.12-.92c-3-1-4.24-3-4.24-5.36,0-3,2.72-5.68,7.12-5.68a10.88,10.88,0,0,1,7.4,2.72Z"/><path d="M628.12,92.31v7h4v4.4h-4V112c0,1.16.92,1.32,1.72,1.32,1.32,0,2.4-.12,2.4-.12v4.44s-2.52.24-4,.24c-2.6,0-5.28-.44-5.28-4.12v-10h-3v-4.4h2.88v-7Z"/><path class="cls-1" d="M187.43,258.18a3.83,3.83,0,0,1,4.08,3.56,4.51,4.51,0,0,1,0,.52v7.2h-3.12v-6.41a1.78,1.78,0,0,0-1.54-2,1.82,1.82,0,0,0-.33,0,3,3,0,0,0-2.33,1.25v7.13h-3.12v-11h3.05v.43c0,.38-.05.86-.05.86A4.34,4.34,0,0,1,187.43,258.18Z"/><path class="cls-1" d="M193.38,264a5.88,5.88,0,1,1,6,5.79h-.09a5.72,5.72,0,0,1-5.88-5.56Zm3.12,0a2.76,2.76,0,1,0,2.76-3,2.79,2.79,0,0,0-2.77,2.81C196.49,263.87,196.5,263.94,196.5,264Z"/><path class="cls-1" d="M215.22,268.07a4,4,0,0,1-3.43,1.68c-3,0-5.33-2.43-5.33-5.79s2.28-5.78,5.31-5.78a4,4,0,0,1,3.5,1.7c0-.36-.05-1.27-.05-2.09v-5.13h3.12v16.8h-3.12ZM209.68,264a2.82,2.82,0,1,0,5.62.47,3.68,3.68,0,0,0,0-.47,2.82,2.82,0,1,0-5.62-.47A3.68,3.68,0,0,0,209.68,264Z"/><path class="cls-1" d="M231.81,264.87h-8.19a2.61,2.61,0,0,0,4.73,1.08l3.24.34a5.86,5.86,0,1,1-5.54-8.11c3,0,5.76,2,5.76,6.57Zm-8.26-2.08h4.92a2.38,2.38,0,0,0-2.42-2A2.47,2.47,0,0,0,223.55,262.79Z"/><path class="cls-1" d="M530.13,258.18a3.83,3.83,0,0,1,4.08,3.56,4.51,4.51,0,0,1,0,.52v7.2h-3.12v-6.41a1.78,1.78,0,0,0-1.54-2,1.82,1.82,0,0,0-.33,0,3,3,0,0,0-2.33,1.25v7.13h-3.12v-11h3.05v.43c0,.38-.05.86-.05.86A4.34,4.34,0,0,1,530.13,258.18Z"/><path class="cls-1" d="M536.08,264a5.88,5.88,0,1,1,6,5.79H542a5.72,5.72,0,0,1-5.88-5.56Zm3.12,0a2.76,2.76,0,1,0,2.76-3,2.79,2.79,0,0,0-2.77,2.81C539.19,263.87,539.2,263.94,539.2,264Z"/><path class="cls-1" d="M557.92,268.07a4,4,0,0,1-3.43,1.68c-3,0-5.33-2.43-5.33-5.79s2.28-5.78,5.3-5.78a4,4,0,0,1,3.51,1.7c0-.36-.05-1.27-.05-2.09v-5.13H561v16.8h-3.12ZM552.38,264a2.81,2.81,0,0,0,5.61.34,1.93,1.93,0,0,0,0-.34,2.81,2.81,0,0,0-5.61-.34A1.93,1.93,0,0,0,552.38,264Z"/><path class="cls-1" d="M574.51,264.87h-8.19a2.61,2.61,0,0,0,4.73,1.08l3.24.34a5.86,5.86,0,1,1-5.55-8.11c3,0,5.77,2,5.77,6.57Zm-8.26-2.08h4.92a2.38,2.38,0,0,0-2.43-2A2.45,2.45,0,0,0,566.25,262.79Z"/><path class="cls-1" d="M874,257.39a3.83,3.83,0,0,1,4.08,3.56,4.51,4.51,0,0,1,0,.52v7.2H875v-6.4a1.77,1.77,0,0,0-1.52-2,2,2,0,0,0-.35,0,3,3,0,0,0-2.33,1.25v7.12h-3.12v-11h3v1.3A4.34,4.34,0,0,1,874,257.39Z"/><path class="cls-1" d="M879.94,263.18a5.88,5.88,0,1,1,6,5.78h-.1a5.73,5.73,0,0,1-5.88-5.58Zm3.12,0a2.76,2.76,0,1,0,2.76-3,2.8,2.8,0,0,0-2.77,2.83C883.05,263.07,883.06,263.12,883.06,263.18Z"/><path class="cls-1" d="M901.78,267.28a4,4,0,0,1-3.43,1.68c-3,0-5.33-2.42-5.33-5.78s2.28-5.79,5.31-5.79a4,4,0,0,1,3.5,1.71c0-.36-.05-1.27-.05-2.09v-5.14h3.12v16.8h-3.12Zm-5.54-4.1a2.82,2.82,0,1,0,5.62.47,3.68,3.68,0,0,0,0-.47,2.82,2.82,0,1,0-5.62-.47A3.68,3.68,0,0,0,896.24,263.18Z"/><path class="cls-1" d="M918.37,264.09h-8.19a2.61,2.61,0,0,0,4.73,1.08l3.24.34a5.86,5.86,0,1,1-5.54-8.12c3,0,5.76,2,5.76,6.58ZM910.11,262H915a2.38,2.38,0,0,0-2.42-2A2.45,2.45,0,0,0,910.11,262Z"/><path d="M278.26,152.74H276.7a6.35,6.35,0,0,0-6.26-4.27c-4.18,0-7,3.17-7,7.37s2.85,7.39,7,7.39A6.33,6.33,0,0,0,276.7,159h1.56a7.92,7.92,0,0,1-7.82,5.57,8.69,8.69,0,0,1,0-17.38A8,8,0,0,1,278.26,152.74Z"/><path d="M287.12,156.92c0-1.61-1.25-2.26-2.67-2.26a5.74,5.74,0,0,0-3.26,1.15l-.7-1.1a7,7,0,0,1,4.06-1.34c2.52,0,4,1.41,4,3.6v7.27h-1.46v-1.32a3.86,3.86,0,0,1-3.32,1.61c-2.3,0-3.84-1.35-3.84-3.24s1.4-3.1,3.58-3.1h2.54c.75,0,1-.38,1-1Zm0,3.55V159a1.86,1.86,0,0,1-1.37.41h-2c-1.56,0-2.28.76-2.28,1.87,0,.91.7,2,2.47,2C285.58,163.28,287.12,162.39,287.12,160.47Z"/><path d="M299.48,157.28a2.44,2.44,0,0,0-2.62-2.62,4.8,4.8,0,0,0-3.53,1.87v7.71h-1.46V153.65h1.44v1.52a4.78,4.78,0,0,1,3.79-1.8,3.53,3.53,0,0,1,3.84,3.84v7h-1.46Z"/><path d="M311.88,164.24h-.52l-3.94-10.59h1.63l3.32,9.41,3.4-9.41h1.56l-4.72,12.46c-.58,1.51-1.23,2.33-3,2.33h-1.22v-1.22h1.2c1.05,0,1.41-.56,1.82-1.64Z"/><path d="M324,153.37a5.58,5.58,0,1,1-5.47,5.59A5.44,5.44,0,0,1,324,153.37Zm0,1.29a4.31,4.31,0,1,0,4,4.3A4,4,0,0,0,324,154.66Z"/><path d="M332,160.47v-6.82h1.47v6.68a3.07,3.07,0,0,0,6.14,0v-6.68h1.47v6.82c0,2.23-1.59,4.06-4.54,4.06S332,162.7,332,160.47Z"/><path d="M350.81,149.19v4.46h2.62v1.23h-2.62v7.18c0,1,.7,1,1.52,1a7.56,7.56,0,0,0,1.1-.07v1.22a14.27,14.27,0,0,1-1.63.1c-1.11,0-2.45-.29-2.45-2.26v-7.2h-1.83v-1.23h1.83v-4.46Z"/><path d="M363.27,157.28a2.43,2.43,0,0,0-2.62-2.62,4.8,4.8,0,0,0-3.53,1.87v7.71h-1.46v-16.8h1.44v7.73a4.78,4.78,0,0,1,3.79-1.8,3.53,3.53,0,0,1,3.84,3.84v7h-1.46Z"/><path d="M369.87,164.24H368.4v-9.36h-1.68v-1.23h3.15Zm-.84-15.7a1.28,1.28,0,1,1-1.27,1.27A1.28,1.28,0,0,1,369,148.54Z"/><path d="M380.88,157.28a2.43,2.43,0,0,0-2.61-2.62,4.8,4.8,0,0,0-3.53,1.87v7.71h-1.46V153.65h1.44v1.52a4.77,4.77,0,0,1,3.79-1.8,3.53,3.53,0,0,1,3.84,3.84v7h-1.47Z"/><path d="M387.1,157.76h1.37l4.08-4.11h2l-4.88,4.73,5.14,5.86h-1.94L388.4,159h-1.3v5.21h-1.46v-16.8h1.46Z"/><path d="M406.28,153.37A5.58,5.58,0,1,1,400.8,159,5.44,5.44,0,0,1,406.28,153.37Zm0,1.29a4.31,4.31,0,1,0,4,4.3A4,4,0,0,0,406.28,154.66Z"/><path d="M415,149.86a2.24,2.24,0,0,1,2.4-2.52,11,11,0,0,1,1.44.1v1.27a8,8,0,0,0-1.05-.12c-.94,0-1.32.38-1.32,1.44v3.62h2.16v1.23h-2.16v9.36H415v-9.36h-1.82v-1.23H415Z"/><path d="M431.62,156.92c0-1.61-1.25-2.26-2.66-2.26a5.75,5.75,0,0,0-3.27,1.15l-.69-1.1a6.89,6.89,0,0,1,4.05-1.34c2.52,0,4,1.41,4,3.6v7.27h-1.46v-1.32a3.85,3.85,0,0,1-3.31,1.61c-2.31,0-3.84-1.35-3.84-3.24s1.39-3.1,3.57-3.1h2.55c.74,0,1-.38,1-1Zm0,3.55V159a1.85,1.85,0,0,1-1.37.41h-2c-1.56,0-2.28.76-2.28,1.87,0,.91.7,2,2.47,2C430.08,163.28,431.62,162.39,431.62,160.47Z"/><path d="M446.55,155h-.72c-1.87,0-3.22.86-3.22,3.36v5.93h-1.44V153.65h1.39v1.8a3.33,3.33,0,0,1,3.19-2c.25,0,.51,0,.8,0Z"/><path d="M449.24,159.39a3.88,3.88,0,0,0,3.86,3.84,3.65,3.65,0,0,0,3.29-1.82h1.7a5.43,5.43,0,0,1-5,3.12,5.58,5.58,0,0,1,0-11.16c2.76,0,5.32,1.94,5.32,6v0Zm0-1.2h7.49a3.72,3.72,0,0,0-3.69-3.53A3.79,3.79,0,0,0,449.28,158.19Z"/><path d="M467.16,156.92c0-1.61-1.24-2.26-2.66-2.26a5.77,5.77,0,0,0-3.27,1.15l-.69-1.1a6.94,6.94,0,0,1,4-1.34c2.53,0,4,1.41,4,3.6v7.27h-1.47v-1.32a3.85,3.85,0,0,1-3.31,1.61c-2.3,0-3.84-1.35-3.84-3.24s1.39-3.1,3.58-3.1h2.54c.75,0,1-.38,1-1Zm0,3.55V159a1.83,1.83,0,0,1-1.37.41h-2c-1.56,0-2.28.76-2.28,1.87,0,.91.69,2,2.47,2C465.63,163.28,467.16,162.39,467.16,160.47Z"/><path d="M473.38,164.24h-1.46v-16.8h1.46Z"/><path d="M494.09,153.65h1.59l-3.08,10.59h-2l-2.69-9.1-2.71,9.1h-2l-3-10.59h1.63l2.36,9.39,2.85-9.39h1.73l2.83,9.39Z"/><path d="M502.63,153.37a5.58,5.58,0,1,1-5.47,5.59A5.44,5.44,0,0,1,502.63,153.37Zm0,1.29a4.31,4.31,0,1,0,4,4.3A4,4,0,0,0,502.63,154.66Z"/><path d="M516.15,155h-.72c-1.88,0-3.22.86-3.22,3.36v5.93h-1.44V153.65h1.39v1.8a3.33,3.33,0,0,1,3.19-2c.24,0,.51,0,.8,0Z"/><path d="M519.82,164.24h-1.47v-16.8h1.47Z"/><path d="M531.89,155.72v-8.28h1.46v16.8h-1.46v-2a4.5,4.5,0,0,1-4,2.31,5.58,5.58,0,0,1-.05-11.16A4.55,4.55,0,0,1,531.89,155.72ZM528,163.26a4.31,4.31,0,1,0-4-4.3A4,4,0,0,0,528,163.26Z"/><path d="M542.33,159.39a3.88,3.88,0,0,0,3.86,3.84,3.65,3.65,0,0,0,3.29-1.82h1.71a5.43,5.43,0,0,1-5,3.12,5.58,5.58,0,0,1,0-11.16c2.76,0,5.33,1.94,5.33,6v0Zm0-1.2h7.49a3.72,3.72,0,0,0-3.7-3.53A3.78,3.78,0,0,0,542.38,158.19Z"/><path d="M556.54,159l-4-5.36h1.76l3.12,4.3,3.19-4.3h1.66l-4,5.31,4,5.28h-1.78l-3.1-4.22-3.09,4.22H552.5Z"/><path d="M570.58,156.92c0-1.61-1.25-2.26-2.67-2.26a5.74,5.74,0,0,0-3.26,1.15l-.7-1.1a7,7,0,0,1,4.06-1.34c2.52,0,4,1.41,4,3.6v7.27h-1.46v-1.32a3.86,3.86,0,0,1-3.32,1.61c-2.3,0-3.84-1.35-3.84-3.24s1.4-3.1,3.58-3.1h2.54c.75,0,1-.38,1-1Zm0,3.55V159a1.86,1.86,0,0,1-1.37.41h-2c-1.56,0-2.28.76-2.28,1.87,0,.91.7,2,2.47,2C569,163.28,570.58,162.39,570.58,160.47Z"/><path d="M584.16,157.61v6.63H582.7v-7a2.34,2.34,0,0,0-2.52-2.55,4.58,4.58,0,0,0-3.39,1.87v7.71h-1.46V153.65h1.44v1.52a4.48,4.48,0,0,1,3.6-1.8,3.44,3.44,0,0,1,3.46,2,4.86,4.86,0,0,1,3.93-2c2.5,0,3.77,1.51,3.77,3.84v7h-1.46v-7a2.34,2.34,0,0,0-2.5-2.55,4.69,4.69,0,0,0-3.46,1.92C584.14,156.92,584.16,157.28,584.16,157.61Z"/><path d="M596.28,162.25v6.19h-1.46V153.65h1.46v2.07a4.55,4.55,0,0,1,4.08-2.35,5.58,5.58,0,0,1-.05,11.16A4.53,4.53,0,0,1,596.28,162.25Zm3.94-7.59a4.31,4.31,0,1,0,4,4.3A4,4,0,0,0,600.22,154.66Z"/><path d="M609.82,164.24h-1.47v-16.8h1.47Z"/><path d="M614,159.39a3.89,3.89,0,0,0,3.87,3.84,3.62,3.62,0,0,0,3.28-1.82h1.71a5.43,5.43,0,0,1-5,3.12,5.58,5.58,0,0,1,0-11.16c2.76,0,5.33,1.94,5.33,6v0Zm0-1.2h7.49a3.72,3.72,0,0,0-3.7-3.53A3.78,3.78,0,0,0,614,158.19Z"/><path d="M630.31,160.47v-6.82h1.47v6.68a3.07,3.07,0,0,0,6.14,0v-6.68h1.46v6.82c0,2.23-1.58,4.06-4.53,4.06S630.31,162.7,630.31,160.47Z"/><path d="M647.78,161.43c0-1.05-.86-1.51-2.37-2.06l-.6-.22c-1.61-.58-2.69-1.39-2.69-2.93,0-1.75,1.56-2.85,3.62-2.85a5.41,5.41,0,0,1,3.44,1.22l-.8,1.1a4.75,4.75,0,0,0-2.68-1.05c-1.18,0-2.07.6-2.07,1.51,0,.67.48,1.2,1.56,1.61l1.23.45c2,.8,2.88,1.69,2.88,3.25,0,1.36-1.18,3.07-3.89,3.07a6.33,6.33,0,0,1-3.72-1.32l.77-1.11a5,5,0,0,0,3,1.13C646.9,163.23,647.78,162.42,647.78,161.43Z"/><path d="M653.76,164.24h-1.47v-9.36h-1.67v-1.23h3.14Zm-.84-15.7a1.28,1.28,0,1,1-1.27,1.27A1.28,1.28,0,0,1,652.92,148.54Z"/><path d="M664.78,157.28a2.44,2.44,0,0,0-2.62-2.62,4.8,4.8,0,0,0-3.53,1.87v7.71h-1.46V153.65h1.44v1.52a4.77,4.77,0,0,1,3.79-1.8,3.53,3.53,0,0,1,3.84,3.84v7h-1.46Z"/><path d="M679.66,165.34a2.78,2.78,0,0,1-3.12,3.1h-4v-1.22h3.84c1,0,1.82-.32,1.82-1.54v-3.46a4.5,4.5,0,0,1-4,2.31,5.58,5.58,0,0,1,0-11.16,4.54,4.54,0,0,1,4.08,2.35v-2.07h1.47ZM678.24,159a4,4,0,1,0-4,4.3A4,4,0,0,0,678.24,159Z"/><path d="M689.33,162.25v2h-1.47v-16.8h1.47v8.28a4.54,4.54,0,0,1,4.08-2.35,5.58,5.58,0,0,1,0,11.16A4.52,4.52,0,0,1,689.33,162.25Zm3.93-7.59a4.31,4.31,0,1,0,4,4.3A4,4,0,0,0,693.26,154.66Z"/><path d="M703.25,164.24h-1.47v-9.36H700.1v-1.23h3.15Zm-.84-15.7a1.28,1.28,0,1,1-1.28,1.27A1.28,1.28,0,0,1,702.41,148.54Z"/><path d="M715.32,155.72v-8.28h1.46v16.8h-1.46v-2a4.5,4.5,0,0,1-4,2.31,5.58,5.58,0,0,1,0-11.16A4.57,4.57,0,0,1,715.32,155.72Zm-3.94,7.54a4.31,4.31,0,1,0-4-4.3A4.05,4.05,0,0,0,711.38,163.26Z"/><path d="M722,164.24h-1.47v-9.36h-1.68v-1.23H722Zm-.84-15.7a1.28,1.28,0,1,1-1.27,1.27A1.28,1.28,0,0,1,721.2,148.54Z"/><path d="M730.82,155h-.72c-1.87,0-3.21.86-3.21,3.36v5.93h-1.44V153.65h1.39v1.8a3.33,3.33,0,0,1,3.19-2c.24,0,.5,0,.79,0Z"/><path d="M733.51,159.39a3.89,3.89,0,0,0,3.87,3.84,3.64,3.64,0,0,0,3.28-1.82h1.71a5.43,5.43,0,0,1-5,3.12,5.58,5.58,0,0,1,0-11.16c2.76,0,5.33,1.94,5.33,6v0Zm0-1.2h7.49a3.72,3.72,0,0,0-3.7-3.53A3.78,3.78,0,0,0,733.56,158.19Z"/><path d="M749.88,163.26a3.79,3.79,0,0,0,3.48-2.14l1.25.72a5.58,5.58,0,1,1,0-5.79l-1.25.72a3.81,3.81,0,0,0-3.48-2.11,4.31,4.31,0,0,0,0,8.6Z"/><path d="M759.19,149.19v4.46h2.62v1.23h-2.62v7.18c0,1,.7,1,1.51,1a7.8,7.8,0,0,0,1.11-.07v1.22a14.34,14.34,0,0,1-1.64.1c-1.1,0-2.44-.29-2.44-2.26v-7.2H755.9v-1.23h1.83v-4.46Z"/><path d="M765.89,164.24h-1.47v-9.36h-1.68v-1.23h3.15Zm-.84-15.7a1.28,1.28,0,1,1-1.28,1.27A1.28,1.28,0,0,1,765.05,148.54Z"/><path d="M774,153.37a5.58,5.58,0,1,1-5.47,5.59A5.43,5.43,0,0,1,774,153.37Zm0,1.29a4.31,4.31,0,1,0,4,4.3A4,4,0,0,0,774,154.66Z"/><path d="M789.74,157.28a2.43,2.43,0,0,0-2.61-2.62,4.79,4.79,0,0,0-3.53,1.87v7.71h-1.47V153.65h1.44v1.52a4.79,4.79,0,0,1,3.8-1.8,3.53,3.53,0,0,1,3.84,3.84v7h-1.47Z"/><path d="M800.76,156.92c0-1.61-1.25-2.26-2.67-2.26a5.74,5.74,0,0,0-3.26,1.15l-.7-1.1a7,7,0,0,1,4.06-1.34c2.52,0,4,1.41,4,3.6v7.27h-1.46v-1.32a3.85,3.85,0,0,1-3.31,1.61c-2.31,0-3.85-1.35-3.85-3.24s1.4-3.1,3.58-3.1h2.55c.74,0,1-.38,1-1Zm0,3.55V159a1.86,1.86,0,0,1-1.37.41h-2c-1.56,0-2.28.76-2.28,1.87,0,.91.7,2,2.47,2C799.22,163.28,800.76,162.39,800.76,160.47Z"/><path d="M807,164.24h-1.46v-16.8H807Z"/><path d="M816.64,164.24h-1.46v-16.8h1.46Z"/><path d="M821.9,164.24h-1.46v-9.36h-1.68v-1.23h3.14Zm-.84-15.7a1.28,1.28,0,1,1-1.27,1.27A1.28,1.28,0,0,1,821.06,148.54Z"/><path d="M832.92,157.28a2.44,2.44,0,0,0-2.62-2.62,4.8,4.8,0,0,0-3.53,1.87v7.71h-1.46V153.65h1.44v1.52a4.77,4.77,0,0,1,3.79-1.8,3.53,3.53,0,0,1,3.84,3.84v7h-1.46Z"/><path d="M839.13,157.76h1.37l4.08-4.11h2l-4.87,4.73,5.13,5.86h-1.94L840.43,159h-1.3v5.21h-1.46v-16.8h1.46Z"/><path d="M853.94,161.43c0-1.05-.86-1.51-2.38-2.06l-.6-.22c-1.6-.58-2.68-1.39-2.68-2.93,0-1.75,1.56-2.85,3.62-2.85a5.38,5.38,0,0,1,3.43,1.22l-.79,1.1a4.78,4.78,0,0,0-2.69-1.05c-1.17,0-2.06.6-2.06,1.51,0,.67.48,1.2,1.56,1.61l1.22.45c2,.8,2.88,1.69,2.88,3.25,0,1.36-1.17,3.07-3.89,3.07a6.35,6.35,0,0,1-3.72-1.32l.77-1.11a5.06,5.06,0,0,0,3,1.13C853.05,163.23,853.94,162.42,853.94,161.43Z"/><path d="M862.48,156.27l-.12,3.36h-1.24l-.22-4.51h.7a3.22,3.22,0,0,0,3.5-3.43,3,3,0,0,0-3.12-3.22c-2.09,0-3.36,1.49-3.22,4h-1.48v-.24c0-3.29,1.87-5,4.75-5a4.37,4.37,0,0,1,4.58,4.58A4.43,4.43,0,0,1,862.48,156.27Zm-.76,5.35a1.46,1.46,0,1,1,0,2.91,1.46,1.46,0,0,1,0-2.91Z"/></svg>